G04 #@! TF.FileFunction,Legend,Top*
%FSLAX46Y46*%
G04 Gerber Fmt 4.6, Leading zero omitted, Abs format (unit mm)*
G04 Created by KiCad (PCBNEW 4.0.4-stable) date Friday, November 04, 2016 'PMt' 11:06:29 PM*
%MOMM*%
%LPD*%
G01*
G04 APERTURE LIST*
%ADD10C,0.100000*%
%ADD11C,0.150000*%
G04 APERTURE END LIST*
D10*
D11*
X217450000Y-110210000D02*
X217450000Y-111760000D01*
X214350000Y-111760000D02*
X214350000Y-110210000D01*
X214350000Y-110210000D02*
X217450000Y-110210000D01*
X214630000Y-113030000D02*
X217170000Y-113030000D01*
X203200000Y-113030000D02*
X208280000Y-113030000D01*
X208280000Y-113030000D02*
X208280000Y-110490000D01*
X208280000Y-110490000D02*
X203200000Y-110490000D01*
X200380000Y-110210000D02*
X201930000Y-110210000D01*
X203200000Y-110490000D02*
X203200000Y-113030000D01*
X201930000Y-113310000D02*
X200380000Y-113310000D01*
X200380000Y-113310000D02*
X200380000Y-110210000D01*
X206020000Y-103860000D02*
X206020000Y-105410000D01*
X202920000Y-105410000D02*
X202920000Y-103860000D01*
X202920000Y-103860000D02*
X206020000Y-103860000D01*
X203200000Y-106680000D02*
X205740000Y-106680000D01*
X187960000Y-113030000D02*
X193040000Y-113030000D01*
X193040000Y-113030000D02*
X193040000Y-110490000D01*
X193040000Y-110490000D02*
X187960000Y-110490000D01*
X185140000Y-110210000D02*
X186690000Y-110210000D01*
X187960000Y-110490000D02*
X187960000Y-113030000D01*
X186690000Y-113310000D02*
X185140000Y-113310000D01*
X185140000Y-113310000D02*
X185140000Y-110210000D01*
X190780000Y-103860000D02*
X190780000Y-105410000D01*
X187680000Y-105410000D02*
X187680000Y-103860000D01*
X187680000Y-103860000D02*
X190780000Y-103860000D01*
X187960000Y-106680000D02*
X190500000Y-106680000D01*
X172720000Y-113030000D02*
X177800000Y-113030000D01*
X177800000Y-113030000D02*
X177800000Y-110490000D01*
X177800000Y-110490000D02*
X172720000Y-110490000D01*
X169900000Y-110210000D02*
X171450000Y-110210000D01*
X172720000Y-110490000D02*
X172720000Y-113030000D01*
X171450000Y-113310000D02*
X169900000Y-113310000D01*
X169900000Y-113310000D02*
X169900000Y-110210000D01*
X175540000Y-103860000D02*
X175540000Y-105410000D01*
X172440000Y-105410000D02*
X172440000Y-103860000D01*
X172440000Y-103860000D02*
X175540000Y-103860000D01*
X172720000Y-106680000D02*
X175260000Y-106680000D01*
X157480000Y-113030000D02*
X162560000Y-113030000D01*
X162560000Y-113030000D02*
X162560000Y-110490000D01*
X162560000Y-110490000D02*
X157480000Y-110490000D01*
X154660000Y-110210000D02*
X156210000Y-110210000D01*
X157480000Y-110490000D02*
X157480000Y-113030000D01*
X156210000Y-113310000D02*
X154660000Y-113310000D01*
X154660000Y-113310000D02*
X154660000Y-110210000D01*
X160300000Y-103860000D02*
X160300000Y-105410000D01*
X157200000Y-105410000D02*
X157200000Y-103860000D01*
X157200000Y-103860000D02*
X160300000Y-103860000D01*
X157480000Y-106680000D02*
X160020000Y-106680000D01*
X203200000Y-88900000D02*
X208280000Y-88900000D01*
X208280000Y-88900000D02*
X208280000Y-86360000D01*
X208280000Y-86360000D02*
X203200000Y-86360000D01*
X200380000Y-86080000D02*
X201930000Y-86080000D01*
X203200000Y-86360000D02*
X203200000Y-88900000D01*
X201930000Y-89180000D02*
X200380000Y-89180000D01*
X200380000Y-89180000D02*
X200380000Y-86080000D01*
X206020000Y-93700000D02*
X206020000Y-95250000D01*
X202920000Y-95250000D02*
X202920000Y-93700000D01*
X202920000Y-93700000D02*
X206020000Y-93700000D01*
X203200000Y-96520000D02*
X205740000Y-96520000D01*
X187960000Y-88900000D02*
X193040000Y-88900000D01*
X193040000Y-88900000D02*
X193040000Y-86360000D01*
X193040000Y-86360000D02*
X187960000Y-86360000D01*
X185140000Y-86080000D02*
X186690000Y-86080000D01*
X187960000Y-86360000D02*
X187960000Y-88900000D01*
X186690000Y-89180000D02*
X185140000Y-89180000D01*
X185140000Y-89180000D02*
X185140000Y-86080000D01*
X190780000Y-93700000D02*
X190780000Y-95250000D01*
X187680000Y-95250000D02*
X187680000Y-93700000D01*
X187680000Y-93700000D02*
X190780000Y-93700000D01*
X187960000Y-96520000D02*
X190500000Y-96520000D01*
X172720000Y-88900000D02*
X177800000Y-88900000D01*
X177800000Y-88900000D02*
X177800000Y-86360000D01*
X177800000Y-86360000D02*
X172720000Y-86360000D01*
X169900000Y-86080000D02*
X171450000Y-86080000D01*
X172720000Y-86360000D02*
X172720000Y-88900000D01*
X171450000Y-89180000D02*
X169900000Y-89180000D01*
X169900000Y-89180000D02*
X169900000Y-86080000D01*
X175540000Y-93700000D02*
X175540000Y-95250000D01*
X172440000Y-95250000D02*
X172440000Y-93700000D01*
X172440000Y-93700000D02*
X175540000Y-93700000D01*
X172720000Y-96520000D02*
X175260000Y-96520000D01*
X157480000Y-88900000D02*
X162560000Y-88900000D01*
X162560000Y-88900000D02*
X162560000Y-86360000D01*
X162560000Y-86360000D02*
X157480000Y-86360000D01*
X154660000Y-86080000D02*
X156210000Y-86080000D01*
X157480000Y-86360000D02*
X157480000Y-88900000D01*
X156210000Y-89180000D02*
X154660000Y-89180000D01*
X154660000Y-89180000D02*
X154660000Y-86080000D01*
X160300000Y-93700000D02*
X160300000Y-95250000D01*
X157200000Y-95250000D02*
X157200000Y-93700000D01*
X157200000Y-93700000D02*
X160300000Y-93700000D01*
X157480000Y-96520000D02*
X160020000Y-96520000D01*
X217450000Y-86080000D02*
X217450000Y-87630000D01*
X214350000Y-87630000D02*
X214350000Y-86080000D01*
X214350000Y-86080000D02*
X217450000Y-86080000D01*
X214630000Y-88900000D02*
X217170000Y-88900000D01*
X213519048Y-106445714D02*
X213519048Y-107255238D01*
X213471429Y-107350476D01*
X213423810Y-107398095D01*
X213328571Y-107445714D01*
X213185714Y-107445714D01*
X213090476Y-107398095D01*
X213519048Y-107064762D02*
X213423810Y-107112381D01*
X213233333Y-107112381D01*
X213138095Y-107064762D01*
X213090476Y-107017143D01*
X213042857Y-106921905D01*
X213042857Y-106636190D01*
X213090476Y-106540952D01*
X213138095Y-106493333D01*
X213233333Y-106445714D01*
X213423810Y-106445714D01*
X213519048Y-106493333D01*
X213995238Y-107112381D02*
X213995238Y-106445714D01*
X213995238Y-106636190D02*
X214042857Y-106540952D01*
X214090476Y-106493333D01*
X214185714Y-106445714D01*
X214280953Y-106445714D01*
X214757143Y-107112381D02*
X214661905Y-107064762D01*
X214614286Y-107017143D01*
X214566667Y-106921905D01*
X214566667Y-106636190D01*
X214614286Y-106540952D01*
X214661905Y-106493333D01*
X214757143Y-106445714D01*
X214900001Y-106445714D01*
X214995239Y-106493333D01*
X215042858Y-106540952D01*
X215090477Y-106636190D01*
X215090477Y-106921905D01*
X215042858Y-107017143D01*
X214995239Y-107064762D01*
X214900001Y-107112381D01*
X214757143Y-107112381D01*
X215947620Y-106445714D02*
X215947620Y-107112381D01*
X215519048Y-106445714D02*
X215519048Y-106969524D01*
X215566667Y-107064762D01*
X215661905Y-107112381D01*
X215804763Y-107112381D01*
X215900001Y-107064762D01*
X215947620Y-107017143D01*
X216423810Y-106445714D02*
X216423810Y-107112381D01*
X216423810Y-106540952D02*
X216471429Y-106493333D01*
X216566667Y-106445714D01*
X216709525Y-106445714D01*
X216804763Y-106493333D01*
X216852382Y-106588571D01*
X216852382Y-107112381D01*
X217757144Y-107112381D02*
X217757144Y-106112381D01*
X217757144Y-107064762D02*
X217661906Y-107112381D01*
X217471429Y-107112381D01*
X217376191Y-107064762D01*
X217328572Y-107017143D01*
X217280953Y-106921905D01*
X217280953Y-106636190D01*
X217328572Y-106540952D01*
X217376191Y-106493333D01*
X217471429Y-106445714D01*
X217661906Y-106445714D01*
X217757144Y-106493333D01*
X218757144Y-107112381D02*
X218185715Y-107112381D01*
X218471429Y-107112381D02*
X218471429Y-106112381D01*
X218376191Y-106255238D01*
X218280953Y-106350476D01*
X218185715Y-106398095D01*
X197282381Y-112879047D02*
X197282381Y-113355238D01*
X196282381Y-113355238D01*
X196758571Y-112212380D02*
X196806190Y-112069523D01*
X196853810Y-112021904D01*
X196949048Y-111974285D01*
X197091905Y-111974285D01*
X197187143Y-112021904D01*
X197234762Y-112069523D01*
X197282381Y-112164761D01*
X197282381Y-112545714D01*
X196282381Y-112545714D01*
X196282381Y-112212380D01*
X196330000Y-112117142D01*
X196377619Y-112069523D01*
X196472857Y-112021904D01*
X196568095Y-112021904D01*
X196663333Y-112069523D01*
X196710952Y-112117142D01*
X196758571Y-112212380D01*
X196758571Y-112545714D01*
X196758571Y-111545714D02*
X196758571Y-111212380D01*
X197282381Y-111069523D02*
X197282381Y-111545714D01*
X196282381Y-111545714D01*
X196282381Y-111069523D01*
X197282381Y-110117142D02*
X197282381Y-110688571D01*
X197282381Y-110402857D02*
X196282381Y-110402857D01*
X196425238Y-110498095D01*
X196520476Y-110593333D01*
X196568095Y-110688571D01*
X202589048Y-100762381D02*
X202112857Y-100762381D01*
X202112857Y-99762381D01*
X203255715Y-100238571D02*
X203398572Y-100286190D01*
X203446191Y-100333810D01*
X203493810Y-100429048D01*
X203493810Y-100571905D01*
X203446191Y-100667143D01*
X203398572Y-100714762D01*
X203303334Y-100762381D01*
X202922381Y-100762381D01*
X202922381Y-99762381D01*
X203255715Y-99762381D01*
X203350953Y-99810000D01*
X203398572Y-99857619D01*
X203446191Y-99952857D01*
X203446191Y-100048095D01*
X203398572Y-100143333D01*
X203350953Y-100190952D01*
X203255715Y-100238571D01*
X202922381Y-100238571D01*
X203922381Y-100238571D02*
X204255715Y-100238571D01*
X204398572Y-100762381D02*
X203922381Y-100762381D01*
X203922381Y-99762381D01*
X204398572Y-99762381D01*
X204827143Y-100762381D02*
X204827143Y-99762381D01*
X205303333Y-100762381D02*
X205303333Y-99762381D01*
X205874762Y-100762381D01*
X205874762Y-99762381D01*
X206874762Y-100762381D02*
X206303333Y-100762381D01*
X206589047Y-100762381D02*
X206589047Y-99762381D01*
X206493809Y-99905238D01*
X206398571Y-100000476D01*
X206303333Y-100048095D01*
X182042381Y-112902857D02*
X182042381Y-113379048D01*
X181042381Y-113379048D01*
X181518571Y-112236190D02*
X181566190Y-112093333D01*
X181613810Y-112045714D01*
X181709048Y-111998095D01*
X181851905Y-111998095D01*
X181947143Y-112045714D01*
X181994762Y-112093333D01*
X182042381Y-112188571D01*
X182042381Y-112569524D01*
X181042381Y-112569524D01*
X181042381Y-112236190D01*
X181090000Y-112140952D01*
X181137619Y-112093333D01*
X181232857Y-112045714D01*
X181328095Y-112045714D01*
X181423333Y-112093333D01*
X181470952Y-112140952D01*
X181518571Y-112236190D01*
X181518571Y-112569524D01*
X181994762Y-111617143D02*
X182042381Y-111474286D01*
X182042381Y-111236190D01*
X181994762Y-111140952D01*
X181947143Y-111093333D01*
X181851905Y-111045714D01*
X181756667Y-111045714D01*
X181661429Y-111093333D01*
X181613810Y-111140952D01*
X181566190Y-111236190D01*
X181518571Y-111426667D01*
X181470952Y-111521905D01*
X181423333Y-111569524D01*
X181328095Y-111617143D01*
X181232857Y-111617143D01*
X181137619Y-111569524D01*
X181090000Y-111521905D01*
X181042381Y-111426667D01*
X181042381Y-111188571D01*
X181090000Y-111045714D01*
X182042381Y-110093333D02*
X182042381Y-110664762D01*
X182042381Y-110379048D02*
X181042381Y-110379048D01*
X181185238Y-110474286D01*
X181280476Y-110569524D01*
X181328095Y-110664762D01*
X187325239Y-100762381D02*
X186849048Y-100762381D01*
X186849048Y-99762381D01*
X187991906Y-100238571D02*
X188134763Y-100286190D01*
X188182382Y-100333810D01*
X188230001Y-100429048D01*
X188230001Y-100571905D01*
X188182382Y-100667143D01*
X188134763Y-100714762D01*
X188039525Y-100762381D01*
X187658572Y-100762381D01*
X187658572Y-99762381D01*
X187991906Y-99762381D01*
X188087144Y-99810000D01*
X188134763Y-99857619D01*
X188182382Y-99952857D01*
X188182382Y-100048095D01*
X188134763Y-100143333D01*
X188087144Y-100190952D01*
X187991906Y-100238571D01*
X187658572Y-100238571D01*
X188610953Y-100714762D02*
X188753810Y-100762381D01*
X188991906Y-100762381D01*
X189087144Y-100714762D01*
X189134763Y-100667143D01*
X189182382Y-100571905D01*
X189182382Y-100476667D01*
X189134763Y-100381429D01*
X189087144Y-100333810D01*
X188991906Y-100286190D01*
X188801429Y-100238571D01*
X188706191Y-100190952D01*
X188658572Y-100143333D01*
X188610953Y-100048095D01*
X188610953Y-99952857D01*
X188658572Y-99857619D01*
X188706191Y-99810000D01*
X188801429Y-99762381D01*
X189039525Y-99762381D01*
X189182382Y-99810000D01*
X189610953Y-100762381D02*
X189610953Y-99762381D01*
X190087143Y-100762381D02*
X190087143Y-99762381D01*
X190658572Y-100762381D01*
X190658572Y-99762381D01*
X191658572Y-100762381D02*
X191087143Y-100762381D01*
X191372857Y-100762381D02*
X191372857Y-99762381D01*
X191277619Y-99905238D01*
X191182381Y-100000476D01*
X191087143Y-100048095D01*
X166802381Y-112807619D02*
X166802381Y-113283810D01*
X165802381Y-113283810D01*
X166278571Y-112140952D02*
X166278571Y-112474286D01*
X166802381Y-112474286D02*
X165802381Y-112474286D01*
X165802381Y-111998095D01*
X166278571Y-111617143D02*
X166278571Y-111283809D01*
X166802381Y-111140952D02*
X166802381Y-111617143D01*
X165802381Y-111617143D01*
X165802381Y-111140952D01*
X166802381Y-110188571D02*
X166802381Y-110760000D01*
X166802381Y-110474286D02*
X165802381Y-110474286D01*
X165945238Y-110569524D01*
X166040476Y-110664762D01*
X166088095Y-110760000D01*
X172180477Y-100762381D02*
X171704286Y-100762381D01*
X171704286Y-99762381D01*
X172847144Y-100238571D02*
X172513810Y-100238571D01*
X172513810Y-100762381D02*
X172513810Y-99762381D01*
X172990001Y-99762381D01*
X173370953Y-100238571D02*
X173704287Y-100238571D01*
X173847144Y-100762381D02*
X173370953Y-100762381D01*
X173370953Y-99762381D01*
X173847144Y-99762381D01*
X174275715Y-100762381D02*
X174275715Y-99762381D01*
X174751905Y-100762381D02*
X174751905Y-99762381D01*
X175323334Y-100762381D01*
X175323334Y-99762381D01*
X176323334Y-100762381D02*
X175751905Y-100762381D01*
X176037619Y-100762381D02*
X176037619Y-99762381D01*
X175942381Y-99905238D01*
X175847143Y-100000476D01*
X175751905Y-100048095D01*
X151562381Y-112831428D02*
X151562381Y-113307619D01*
X150562381Y-113307619D01*
X151038571Y-112164761D02*
X151038571Y-112498095D01*
X151562381Y-112498095D02*
X150562381Y-112498095D01*
X150562381Y-112021904D01*
X151514762Y-111688571D02*
X151562381Y-111545714D01*
X151562381Y-111307618D01*
X151514762Y-111212380D01*
X151467143Y-111164761D01*
X151371905Y-111117142D01*
X151276667Y-111117142D01*
X151181429Y-111164761D01*
X151133810Y-111212380D01*
X151086190Y-111307618D01*
X151038571Y-111498095D01*
X150990952Y-111593333D01*
X150943333Y-111640952D01*
X150848095Y-111688571D01*
X150752857Y-111688571D01*
X150657619Y-111640952D01*
X150610000Y-111593333D01*
X150562381Y-111498095D01*
X150562381Y-111259999D01*
X150610000Y-111117142D01*
X151562381Y-110164761D02*
X151562381Y-110736190D01*
X151562381Y-110450476D02*
X150562381Y-110450476D01*
X150705238Y-110545714D01*
X150800476Y-110640952D01*
X150848095Y-110736190D01*
X156916667Y-100762381D02*
X156440476Y-100762381D01*
X156440476Y-99762381D01*
X157583334Y-100238571D02*
X157250000Y-100238571D01*
X157250000Y-100762381D02*
X157250000Y-99762381D01*
X157726191Y-99762381D01*
X158059524Y-100714762D02*
X158202381Y-100762381D01*
X158440477Y-100762381D01*
X158535715Y-100714762D01*
X158583334Y-100667143D01*
X158630953Y-100571905D01*
X158630953Y-100476667D01*
X158583334Y-100381429D01*
X158535715Y-100333810D01*
X158440477Y-100286190D01*
X158250000Y-100238571D01*
X158154762Y-100190952D01*
X158107143Y-100143333D01*
X158059524Y-100048095D01*
X158059524Y-99952857D01*
X158107143Y-99857619D01*
X158154762Y-99810000D01*
X158250000Y-99762381D01*
X158488096Y-99762381D01*
X158630953Y-99810000D01*
X159059524Y-100762381D02*
X159059524Y-99762381D01*
X159535714Y-100762381D02*
X159535714Y-99762381D01*
X160107143Y-100762381D01*
X160107143Y-99762381D01*
X161107143Y-100762381D02*
X160535714Y-100762381D01*
X160821428Y-100762381D02*
X160821428Y-99762381D01*
X160726190Y-99905238D01*
X160630952Y-100000476D01*
X160535714Y-100048095D01*
X197282381Y-88749047D02*
X196806190Y-89082381D01*
X197282381Y-89320476D02*
X196282381Y-89320476D01*
X196282381Y-88939523D01*
X196330000Y-88844285D01*
X196377619Y-88796666D01*
X196472857Y-88749047D01*
X196615714Y-88749047D01*
X196710952Y-88796666D01*
X196758571Y-88844285D01*
X196806190Y-88939523D01*
X196806190Y-89320476D01*
X196758571Y-87987142D02*
X196806190Y-87844285D01*
X196853810Y-87796666D01*
X196949048Y-87749047D01*
X197091905Y-87749047D01*
X197187143Y-87796666D01*
X197234762Y-87844285D01*
X197282381Y-87939523D01*
X197282381Y-88320476D01*
X196282381Y-88320476D01*
X196282381Y-87987142D01*
X196330000Y-87891904D01*
X196377619Y-87844285D01*
X196472857Y-87796666D01*
X196568095Y-87796666D01*
X196663333Y-87844285D01*
X196710952Y-87891904D01*
X196758571Y-87987142D01*
X196758571Y-88320476D01*
X196758571Y-87320476D02*
X196758571Y-86987142D01*
X197282381Y-86844285D02*
X197282381Y-87320476D01*
X196282381Y-87320476D01*
X196282381Y-86844285D01*
X197282381Y-85891904D02*
X197282381Y-86463333D01*
X197282381Y-86177619D02*
X196282381Y-86177619D01*
X196425238Y-86272857D01*
X196520476Y-86368095D01*
X196568095Y-86463333D01*
X202589048Y-90622381D02*
X202255714Y-90146190D01*
X202017619Y-90622381D02*
X202017619Y-89622381D01*
X202398572Y-89622381D01*
X202493810Y-89670000D01*
X202541429Y-89717619D01*
X202589048Y-89812857D01*
X202589048Y-89955714D01*
X202541429Y-90050952D01*
X202493810Y-90098571D01*
X202398572Y-90146190D01*
X202017619Y-90146190D01*
X203350953Y-90098571D02*
X203493810Y-90146190D01*
X203541429Y-90193810D01*
X203589048Y-90289048D01*
X203589048Y-90431905D01*
X203541429Y-90527143D01*
X203493810Y-90574762D01*
X203398572Y-90622381D01*
X203017619Y-90622381D01*
X203017619Y-89622381D01*
X203350953Y-89622381D01*
X203446191Y-89670000D01*
X203493810Y-89717619D01*
X203541429Y-89812857D01*
X203541429Y-89908095D01*
X203493810Y-90003333D01*
X203446191Y-90050952D01*
X203350953Y-90098571D01*
X203017619Y-90098571D01*
X204017619Y-90098571D02*
X204350953Y-90098571D01*
X204493810Y-90622381D02*
X204017619Y-90622381D01*
X204017619Y-89622381D01*
X204493810Y-89622381D01*
X204922381Y-90622381D02*
X204922381Y-89622381D01*
X205398571Y-90622381D02*
X205398571Y-89622381D01*
X205970000Y-90622381D01*
X205970000Y-89622381D01*
X206970000Y-90622381D02*
X206398571Y-90622381D01*
X206684285Y-90622381D02*
X206684285Y-89622381D01*
X206589047Y-89765238D01*
X206493809Y-89860476D01*
X206398571Y-89908095D01*
X182042381Y-88772857D02*
X181566190Y-89106191D01*
X182042381Y-89344286D02*
X181042381Y-89344286D01*
X181042381Y-88963333D01*
X181090000Y-88868095D01*
X181137619Y-88820476D01*
X181232857Y-88772857D01*
X181375714Y-88772857D01*
X181470952Y-88820476D01*
X181518571Y-88868095D01*
X181566190Y-88963333D01*
X181566190Y-89344286D01*
X181518571Y-88010952D02*
X181566190Y-87868095D01*
X181613810Y-87820476D01*
X181709048Y-87772857D01*
X181851905Y-87772857D01*
X181947143Y-87820476D01*
X181994762Y-87868095D01*
X182042381Y-87963333D01*
X182042381Y-88344286D01*
X181042381Y-88344286D01*
X181042381Y-88010952D01*
X181090000Y-87915714D01*
X181137619Y-87868095D01*
X181232857Y-87820476D01*
X181328095Y-87820476D01*
X181423333Y-87868095D01*
X181470952Y-87915714D01*
X181518571Y-88010952D01*
X181518571Y-88344286D01*
X181994762Y-87391905D02*
X182042381Y-87249048D01*
X182042381Y-87010952D01*
X181994762Y-86915714D01*
X181947143Y-86868095D01*
X181851905Y-86820476D01*
X181756667Y-86820476D01*
X181661429Y-86868095D01*
X181613810Y-86915714D01*
X181566190Y-87010952D01*
X181518571Y-87201429D01*
X181470952Y-87296667D01*
X181423333Y-87344286D01*
X181328095Y-87391905D01*
X181232857Y-87391905D01*
X181137619Y-87344286D01*
X181090000Y-87296667D01*
X181042381Y-87201429D01*
X181042381Y-86963333D01*
X181090000Y-86820476D01*
X182042381Y-85868095D02*
X182042381Y-86439524D01*
X182042381Y-86153810D02*
X181042381Y-86153810D01*
X181185238Y-86249048D01*
X181280476Y-86344286D01*
X181328095Y-86439524D01*
X187325239Y-90602381D02*
X186991905Y-90126190D01*
X186753810Y-90602381D02*
X186753810Y-89602381D01*
X187134763Y-89602381D01*
X187230001Y-89650000D01*
X187277620Y-89697619D01*
X187325239Y-89792857D01*
X187325239Y-89935714D01*
X187277620Y-90030952D01*
X187230001Y-90078571D01*
X187134763Y-90126190D01*
X186753810Y-90126190D01*
X188087144Y-90078571D02*
X188230001Y-90126190D01*
X188277620Y-90173810D01*
X188325239Y-90269048D01*
X188325239Y-90411905D01*
X188277620Y-90507143D01*
X188230001Y-90554762D01*
X188134763Y-90602381D01*
X187753810Y-90602381D01*
X187753810Y-89602381D01*
X188087144Y-89602381D01*
X188182382Y-89650000D01*
X188230001Y-89697619D01*
X188277620Y-89792857D01*
X188277620Y-89888095D01*
X188230001Y-89983333D01*
X188182382Y-90030952D01*
X188087144Y-90078571D01*
X187753810Y-90078571D01*
X188706191Y-90554762D02*
X188849048Y-90602381D01*
X189087144Y-90602381D01*
X189182382Y-90554762D01*
X189230001Y-90507143D01*
X189277620Y-90411905D01*
X189277620Y-90316667D01*
X189230001Y-90221429D01*
X189182382Y-90173810D01*
X189087144Y-90126190D01*
X188896667Y-90078571D01*
X188801429Y-90030952D01*
X188753810Y-89983333D01*
X188706191Y-89888095D01*
X188706191Y-89792857D01*
X188753810Y-89697619D01*
X188801429Y-89650000D01*
X188896667Y-89602381D01*
X189134763Y-89602381D01*
X189277620Y-89650000D01*
X189706191Y-90602381D02*
X189706191Y-89602381D01*
X190182381Y-90602381D02*
X190182381Y-89602381D01*
X190753810Y-90602381D01*
X190753810Y-89602381D01*
X191753810Y-90602381D02*
X191182381Y-90602381D01*
X191468095Y-90602381D02*
X191468095Y-89602381D01*
X191372857Y-89745238D01*
X191277619Y-89840476D01*
X191182381Y-89888095D01*
X166802381Y-88677619D02*
X166326190Y-89010953D01*
X166802381Y-89249048D02*
X165802381Y-89249048D01*
X165802381Y-88868095D01*
X165850000Y-88772857D01*
X165897619Y-88725238D01*
X165992857Y-88677619D01*
X166135714Y-88677619D01*
X166230952Y-88725238D01*
X166278571Y-88772857D01*
X166326190Y-88868095D01*
X166326190Y-89249048D01*
X166278571Y-87915714D02*
X166278571Y-88249048D01*
X166802381Y-88249048D02*
X165802381Y-88249048D01*
X165802381Y-87772857D01*
X166278571Y-87391905D02*
X166278571Y-87058571D01*
X166802381Y-86915714D02*
X166802381Y-87391905D01*
X165802381Y-87391905D01*
X165802381Y-86915714D01*
X166802381Y-85963333D02*
X166802381Y-86534762D01*
X166802381Y-86249048D02*
X165802381Y-86249048D01*
X165945238Y-86344286D01*
X166040476Y-86439524D01*
X166088095Y-86534762D01*
X172180477Y-90602381D02*
X171847143Y-90126190D01*
X171609048Y-90602381D02*
X171609048Y-89602381D01*
X171990001Y-89602381D01*
X172085239Y-89650000D01*
X172132858Y-89697619D01*
X172180477Y-89792857D01*
X172180477Y-89935714D01*
X172132858Y-90030952D01*
X172085239Y-90078571D01*
X171990001Y-90126190D01*
X171609048Y-90126190D01*
X172942382Y-90078571D02*
X172609048Y-90078571D01*
X172609048Y-90602381D02*
X172609048Y-89602381D01*
X173085239Y-89602381D01*
X173466191Y-90078571D02*
X173799525Y-90078571D01*
X173942382Y-90602381D02*
X173466191Y-90602381D01*
X173466191Y-89602381D01*
X173942382Y-89602381D01*
X174370953Y-90602381D02*
X174370953Y-89602381D01*
X174847143Y-90602381D02*
X174847143Y-89602381D01*
X175418572Y-90602381D01*
X175418572Y-89602381D01*
X176418572Y-90602381D02*
X175847143Y-90602381D01*
X176132857Y-90602381D02*
X176132857Y-89602381D01*
X176037619Y-89745238D01*
X175942381Y-89840476D01*
X175847143Y-89888095D01*
X151562381Y-88701428D02*
X151086190Y-89034762D01*
X151562381Y-89272857D02*
X150562381Y-89272857D01*
X150562381Y-88891904D01*
X150610000Y-88796666D01*
X150657619Y-88749047D01*
X150752857Y-88701428D01*
X150895714Y-88701428D01*
X150990952Y-88749047D01*
X151038571Y-88796666D01*
X151086190Y-88891904D01*
X151086190Y-89272857D01*
X151038571Y-87939523D02*
X151038571Y-88272857D01*
X151562381Y-88272857D02*
X150562381Y-88272857D01*
X150562381Y-87796666D01*
X151514762Y-87463333D02*
X151562381Y-87320476D01*
X151562381Y-87082380D01*
X151514762Y-86987142D01*
X151467143Y-86939523D01*
X151371905Y-86891904D01*
X151276667Y-86891904D01*
X151181429Y-86939523D01*
X151133810Y-86987142D01*
X151086190Y-87082380D01*
X151038571Y-87272857D01*
X150990952Y-87368095D01*
X150943333Y-87415714D01*
X150848095Y-87463333D01*
X150752857Y-87463333D01*
X150657619Y-87415714D01*
X150610000Y-87368095D01*
X150562381Y-87272857D01*
X150562381Y-87034761D01*
X150610000Y-86891904D01*
X151562381Y-85939523D02*
X151562381Y-86510952D01*
X151562381Y-86225238D02*
X150562381Y-86225238D01*
X150705238Y-86320476D01*
X150800476Y-86415714D01*
X150848095Y-86510952D01*
X156916667Y-90602381D02*
X156583333Y-90126190D01*
X156345238Y-90602381D02*
X156345238Y-89602381D01*
X156726191Y-89602381D01*
X156821429Y-89650000D01*
X156869048Y-89697619D01*
X156916667Y-89792857D01*
X156916667Y-89935714D01*
X156869048Y-90030952D01*
X156821429Y-90078571D01*
X156726191Y-90126190D01*
X156345238Y-90126190D01*
X157678572Y-90078571D02*
X157345238Y-90078571D01*
X157345238Y-90602381D02*
X157345238Y-89602381D01*
X157821429Y-89602381D01*
X158154762Y-90554762D02*
X158297619Y-90602381D01*
X158535715Y-90602381D01*
X158630953Y-90554762D01*
X158678572Y-90507143D01*
X158726191Y-90411905D01*
X158726191Y-90316667D01*
X158678572Y-90221429D01*
X158630953Y-90173810D01*
X158535715Y-90126190D01*
X158345238Y-90078571D01*
X158250000Y-90030952D01*
X158202381Y-89983333D01*
X158154762Y-89888095D01*
X158154762Y-89792857D01*
X158202381Y-89697619D01*
X158250000Y-89650000D01*
X158345238Y-89602381D01*
X158583334Y-89602381D01*
X158726191Y-89650000D01*
X159154762Y-90602381D02*
X159154762Y-89602381D01*
X159630952Y-90602381D02*
X159630952Y-89602381D01*
X160202381Y-90602381D01*
X160202381Y-89602381D01*
X161202381Y-90602381D02*
X160630952Y-90602381D01*
X160916666Y-90602381D02*
X160916666Y-89602381D01*
X160821428Y-89745238D01*
X160726190Y-89840476D01*
X160630952Y-89888095D01*
X214328571Y-82315714D02*
X214566666Y-82982381D01*
X214804762Y-82315714D01*
X215614286Y-82934762D02*
X215519048Y-82982381D01*
X215328571Y-82982381D01*
X215233333Y-82934762D01*
X215185714Y-82887143D01*
X215138095Y-82791905D01*
X215138095Y-82506190D01*
X215185714Y-82410952D01*
X215233333Y-82363333D01*
X215328571Y-82315714D01*
X215519048Y-82315714D01*
X215614286Y-82363333D01*
X216471429Y-82934762D02*
X216376191Y-82982381D01*
X216185714Y-82982381D01*
X216090476Y-82934762D01*
X216042857Y-82887143D01*
X215995238Y-82791905D01*
X215995238Y-82506190D01*
X216042857Y-82410952D01*
X216090476Y-82363333D01*
X216185714Y-82315714D01*
X216376191Y-82315714D01*
X216471429Y-82363333D01*
X217423810Y-82982381D02*
X216852381Y-82982381D01*
X217138095Y-82982381D02*
X217138095Y-81982381D01*
X217042857Y-82125238D01*
X216947619Y-82220476D01*
X216852381Y-82268095D01*
M02*
