M48
;DRILL file {KiCad 4.0.4+e1-6308~48~ubuntu16.04.1-stable} date Sun Nov 13 22:28:08 2016
;FORMAT={-:-/ absolute / inch / decimal}
FMAT,2
INCH,TZ
T1C0.040
%
G90
G05
M72
T1
X6.15Y-3.45
X6.15Y-4.4
X6.25Y-3.45
X6.25Y-3.75
X6.25Y-4.15
X6.25Y-4.4
X6.35Y-3.45
X6.35Y-4.4
X6.75Y-3.45
X6.75Y-4.4
X6.85Y-3.45
X6.85Y-3.75
X6.85Y-4.15
X6.85Y-4.4
X6.95Y-3.45
X6.95Y-4.4
X7.35Y-3.45
X7.35Y-4.4
X7.45Y-3.45
X7.45Y-3.75
X7.45Y-4.15
X7.45Y-4.4
X7.55Y-3.45
X7.55Y-4.4
X7.95Y-3.45
X7.95Y-4.4
X8.05Y-3.45
X8.05Y-3.75
X8.05Y-4.15
X8.05Y-4.4
X8.15Y-3.45
X8.15Y-4.4
X8.5Y-3.45
X8.5Y-4.4
T0
M30
