M48
;DRILL file {KiCad 4.0.4+e1-6308~48~ubuntu16.04.1-stable} date Tue Nov 15 00:05:36 2016
;FORMAT={-:-/ absolute / inch / decimal}
FMAT,2
INCH,TZ
T1C0.040
%
G90
G05
M72
T1
X3.6Y-4.3
X3.6Y-4.9
X3.9Y-4.2
X3.9Y-4.3
X3.9Y-4.4
X3.9Y-4.8
X3.9Y-4.9
X3.9Y-5.
X4.4Y-4.3
X4.4Y-4.9
X4.55Y-3.75
X4.7Y-4.2
X4.7Y-4.3
X4.7Y-4.4
X4.7Y-4.8
X4.7Y-4.9
X4.7Y-5.
X4.85Y-3.75
X5.2Y-3.75
X5.2Y-4.95
X5.3Y-3.75
X5.3Y-4.05
X5.3Y-4.65
X5.3Y-4.95
X5.4Y-3.75
X5.4Y-4.95
X5.75Y-3.75
X5.75Y-4.95
X5.85Y-3.75
X5.85Y-4.05
X5.85Y-4.65
X5.85Y-4.95
X5.95Y-3.75
X5.95Y-4.95
X6.8Y-3.75
X6.8Y-4.95
X6.9Y-3.75
X6.9Y-4.05
X6.9Y-4.65
X6.9Y-4.95
X7.Y-3.75
X7.Y-4.95
X7.35Y-3.75
X7.35Y-4.95
X7.45Y-3.75
X7.45Y-4.05
X7.45Y-4.65
X7.45Y-4.95
X7.55Y-3.75
X7.55Y-4.95
X7.95Y-3.75
X7.95Y-4.95
T0
M30
