<?xml version="1.0" standalone="no"?>
 <!DOCTYPE svg PUBLIC "-//W3C//DTD SVG 1.1//EN" 
 "http://www.w3.org/Graphics/SVG/1.1/DTD/svg11.dtd"> 
<svg xmlns="http://www.w3.org/2000/svg" version="1.1" 
    width="29.7002cm" height="21.0007cm" viewBox="0 0 116930 82680 ">
<title>SVG Picture created as shield_attempt-F.SilkS.svg date 2016/11/15 00:05:59 </title>
  <desc>Picture generated by PCBNEW </desc>
<g style="fill:#000000; fill-opacity:1;stroke:#000000; stroke-opacity:1;
stroke-linecap:round; stroke-linejoin:round; "
 transform="translate(0 0) scale(1 1)">
</g>
<g style="fill:#000000; fill-opacity:0.0; 
stroke:#000000; stroke-width:-0.000393701; stroke-opacity:1; 
stroke-linecap:round; stroke-linejoin:round;">
</g>
<g style="fill:#000000; fill-opacity:0.0; 
stroke:#000000; stroke-width:39.3701; stroke-opacity:1; 
stroke-linecap:round; stroke-linejoin:round;">
</g>
<g style="fill:#000000; fill-opacity:0.0; 
stroke:#000000; stroke-width:59.0551; stroke-opacity:1; 
stroke-linecap:round; stroke-linejoin:round;">
<rect x="69685.9" y="65357.2" width="42519.7" height="12598.4" rx="0" />
</g>
<g style="fill:#000000; fill-opacity:0.0; 
stroke:#000000; stroke-width:39.3701; stroke-opacity:1; 
stroke-linecap:round; stroke-linejoin:round;">
</g>
<g style="fill:#000000; fill-opacity:0.0; 
stroke:#000000; stroke-width:59.0551; stroke-opacity:1; 
stroke-linecap:round; stroke-linejoin:round;">
<rect x="3937.01" y="3937.01" width="109056" height="74806" rx="0" />
</g>
<g style="fill:#000000; fill-opacity:0.0; 
stroke:#000000; stroke-width:39.3701; stroke-opacity:1; 
stroke-linecap:round; stroke-linejoin:round;">
</g>
<g style="fill:#000000; fill-opacity:0.0; 
stroke:#000000; stroke-width:59.0551; stroke-opacity:1; 
stroke-linecap:round; stroke-linejoin:round;">
<rect x="4724.41" y="4724.41" width="107481" height="73231.2" rx="0" />
</g>
<g style="fill:#000000; fill-opacity:0.0; 
stroke:#000000; stroke-width:39.3701; stroke-opacity:1; 
stroke-linecap:round; stroke-linejoin:round;">
</g>
<g style="fill:#000000; fill-opacity:0.0; 
stroke:#000000; stroke-width:59.0551; stroke-opacity:1; 
stroke-linecap:round; stroke-linejoin:round;">
<path d="M23622 4724
L23622 3937
" />
</g>
<g style="fill:#000000; fill-opacity:0.0; 
stroke:#000000; stroke-width:39.3701; stroke-opacity:1; 
stroke-linecap:round; stroke-linejoin:round;">
</g>
<g style="fill:#000000; fill-opacity:0.0; 
stroke:#000000; stroke-width:59.0551; stroke-opacity:1; 
stroke-linecap:round; stroke-linejoin:round;">
<path d="M43307 4724
L43307 3937
" />
</g>
<g style="fill:#000000; fill-opacity:0.0; 
stroke:#000000; stroke-width:39.3701; stroke-opacity:1; 
stroke-linecap:round; stroke-linejoin:round;">
</g>
<g style="fill:#000000; fill-opacity:0.0; 
stroke:#000000; stroke-width:59.0551; stroke-opacity:1; 
stroke-linecap:round; stroke-linejoin:round;">
<path d="M62992 4724
L62992 3937
" />
</g>
<g style="fill:#000000; fill-opacity:0.0; 
stroke:#000000; stroke-width:39.3701; stroke-opacity:1; 
stroke-linecap:round; stroke-linejoin:round;">
</g>
<g style="fill:#000000; fill-opacity:0.0; 
stroke:#000000; stroke-width:59.0551; stroke-opacity:1; 
stroke-linecap:round; stroke-linejoin:round;">
<path d="M82677 4724
L82677 3937
" />
</g>
<g style="fill:#000000; fill-opacity:0.0; 
stroke:#000000; stroke-width:39.3701; stroke-opacity:1; 
stroke-linecap:round; stroke-linejoin:round;">
</g>
<g style="fill:#000000; fill-opacity:0.0; 
stroke:#000000; stroke-width:59.0551; stroke-opacity:1; 
stroke-linecap:round; stroke-linejoin:round;">
<path d="M102362 4724
L102362 3937
" />
</g>
<g style="fill:#000000; fill-opacity:0.0; 
stroke:#000000; stroke-width:39.3701; stroke-opacity:1; 
stroke-linecap:round; stroke-linejoin:round;">
</g>
<g style="fill:#000000; fill-opacity:0.0; 
stroke:#000000; stroke-width:59.0551; stroke-opacity:1; 
stroke-linecap:round; stroke-linejoin:round;">
<path d="M14169 4562
L13877 4562
" />
<path d="M14023 4562
L14023 4050
L13974 4123
L13925 4172
L13877 4196
" />
</g>
<g style="fill:#000000; fill-opacity:0.0; 
stroke:#000000; stroke-width:39.3701; stroke-opacity:1; 
stroke-linecap:round; stroke-linejoin:round;">
</g>
<g style="fill:#000000; fill-opacity:0.0; 
stroke:#000000; stroke-width:59.0551; stroke-opacity:1; 
stroke-linecap:round; stroke-linejoin:round;">
<path d="M33562 4099
L33586 4074
L33635 4050
L33757 4050
L33805 4074
L33830 4099
L33854 4147
L33854 4196
L33830 4269
L33537 4562
L33854 4562
" />
</g>
<g style="fill:#000000; fill-opacity:0.0; 
stroke:#000000; stroke-width:39.3701; stroke-opacity:1; 
stroke-linecap:round; stroke-linejoin:round;">
</g>
<g style="fill:#000000; fill-opacity:0.0; 
stroke:#000000; stroke-width:59.0551; stroke-opacity:1; 
stroke-linecap:round; stroke-linejoin:round;">
<path d="M53222 4050
L53539 4050
L53368 4245
L53442 4245
L53490 4269
L53515 4294
L53539 4342
L53539 4464
L53515 4513
L53490 4537
L53442 4562
L53295 4562
L53247 4537
L53222 4513
" />
</g>
<g style="fill:#000000; fill-opacity:0.0; 
stroke:#000000; stroke-width:39.3701; stroke-opacity:1; 
stroke-linecap:round; stroke-linejoin:round;">
</g>
<g style="fill:#000000; fill-opacity:0.0; 
stroke:#000000; stroke-width:59.0551; stroke-opacity:1; 
stroke-linecap:round; stroke-linejoin:round;">
<path d="M73175 4221
L73175 4562
" />
<path d="M73053 4026
L72932 4391
L73248 4391
" />
</g>
<g style="fill:#000000; fill-opacity:0.0; 
stroke:#000000; stroke-width:39.3701; stroke-opacity:1; 
stroke-linecap:round; stroke-linejoin:round;">
</g>
<g style="fill:#000000; fill-opacity:0.0; 
stroke:#000000; stroke-width:59.0551; stroke-opacity:1; 
stroke-linecap:round; stroke-linejoin:round;">
<path d="M92885 4050
L92641 4050
L92617 4294
L92641 4269
L92690 4245
L92812 4245
L92860 4269
L92885 4294
L92909 4342
L92909 4464
L92885 4513
L92860 4537
L92812 4562
L92690 4562
L92641 4537
L92617 4513
" />
</g>
<g style="fill:#000000; fill-opacity:0.0; 
stroke:#000000; stroke-width:39.3701; stroke-opacity:1; 
stroke-linecap:round; stroke-linejoin:round;">
</g>
<g style="fill:#000000; fill-opacity:0.0; 
stroke:#000000; stroke-width:59.0551; stroke-opacity:1; 
stroke-linecap:round; stroke-linejoin:round;">
<path d="M112545 4050
L112448 4050
L112399 4074
L112375 4099
L112326 4172
L112302 4269
L112302 4464
L112326 4513
L112350 4537
L112399 4562
L112497 4562
L112545 4537
L112570 4513
L112594 4464
L112594 4342
L112570 4294
L112545 4269
L112497 4245
L112399 4245
L112350 4269
L112326 4294
L112302 4342
" />
</g>
<g style="fill:#000000; fill-opacity:0.0; 
stroke:#000000; stroke-width:39.3701; stroke-opacity:1; 
stroke-linecap:round; stroke-linejoin:round;">
</g>
<g style="fill:#000000; fill-opacity:0.0; 
stroke:#000000; stroke-width:59.0551; stroke-opacity:1; 
stroke-linecap:round; stroke-linejoin:round;">
<path d="M23622 77955
L23622 78742
" />
</g>
<g style="fill:#000000; fill-opacity:0.0; 
stroke:#000000; stroke-width:39.3701; stroke-opacity:1; 
stroke-linecap:round; stroke-linejoin:round;">
</g>
<g style="fill:#000000; fill-opacity:0.0; 
stroke:#000000; stroke-width:59.0551; stroke-opacity:1; 
stroke-linecap:round; stroke-linejoin:round;">
<path d="M43307 77955
L43307 78742
" />
</g>
<g style="fill:#000000; fill-opacity:0.0; 
stroke:#000000; stroke-width:39.3701; stroke-opacity:1; 
stroke-linecap:round; stroke-linejoin:round;">
</g>
<g style="fill:#000000; fill-opacity:0.0; 
stroke:#000000; stroke-width:59.0551; stroke-opacity:1; 
stroke-linecap:round; stroke-linejoin:round;">
<path d="M62992 77955
L62992 78742
" />
</g>
<g style="fill:#000000; fill-opacity:0.0; 
stroke:#000000; stroke-width:39.3701; stroke-opacity:1; 
stroke-linecap:round; stroke-linejoin:round;">
</g>
<g style="fill:#000000; fill-opacity:0.0; 
stroke:#000000; stroke-width:59.0551; stroke-opacity:1; 
stroke-linecap:round; stroke-linejoin:round;">
<path d="M82677 77955
L82677 78742
" />
</g>
<g style="fill:#000000; fill-opacity:0.0; 
stroke:#000000; stroke-width:39.3701; stroke-opacity:1; 
stroke-linecap:round; stroke-linejoin:round;">
</g>
<g style="fill:#000000; fill-opacity:0.0; 
stroke:#000000; stroke-width:59.0551; stroke-opacity:1; 
stroke-linecap:round; stroke-linejoin:round;">
<path d="M102362 77955
L102362 78742
" />
</g>
<g style="fill:#000000; fill-opacity:0.0; 
stroke:#000000; stroke-width:39.3701; stroke-opacity:1; 
stroke-linecap:round; stroke-linejoin:round;">
</g>
<g style="fill:#000000; fill-opacity:0.0; 
stroke:#000000; stroke-width:59.0551; stroke-opacity:1; 
stroke-linecap:round; stroke-linejoin:round;">
<path d="M14169 78580
L13877 78580
" />
<path d="M14023 78580
L14023 78069
L13974 78142
L13925 78190
L13877 78215
" />
</g>
<g style="fill:#000000; fill-opacity:0.0; 
stroke:#000000; stroke-width:39.3701; stroke-opacity:1; 
stroke-linecap:round; stroke-linejoin:round;">
</g>
<g style="fill:#000000; fill-opacity:0.0; 
stroke:#000000; stroke-width:59.0551; stroke-opacity:1; 
stroke-linecap:round; stroke-linejoin:round;">
<path d="M33562 78117
L33586 78093
L33635 78069
L33757 78069
L33805 78093
L33830 78117
L33854 78166
L33854 78215
L33830 78288
L33537 78580
L33854 78580
" />
</g>
<g style="fill:#000000; fill-opacity:0.0; 
stroke:#000000; stroke-width:39.3701; stroke-opacity:1; 
stroke-linecap:round; stroke-linejoin:round;">
</g>
<g style="fill:#000000; fill-opacity:0.0; 
stroke:#000000; stroke-width:59.0551; stroke-opacity:1; 
stroke-linecap:round; stroke-linejoin:round;">
<path d="M53222 78069
L53539 78069
L53368 78263
L53442 78263
L53490 78288
L53515 78312
L53539 78361
L53539 78483
L53515 78532
L53490 78556
L53442 78580
L53295 78580
L53247 78556
L53222 78532
" />
</g>
<g style="fill:#000000; fill-opacity:0.0; 
stroke:#000000; stroke-width:39.3701; stroke-opacity:1; 
stroke-linecap:round; stroke-linejoin:round;">
</g>
<g style="fill:#000000; fill-opacity:0.0; 
stroke:#000000; stroke-width:59.0551; stroke-opacity:1; 
stroke-linecap:round; stroke-linejoin:round;">
<path d="M73175 78239
L73175 78580
" />
<path d="M73053 78044
L72932 78410
L73248 78410
" />
</g>
<g style="fill:#000000; fill-opacity:0.0; 
stroke:#000000; stroke-width:39.3701; stroke-opacity:1; 
stroke-linecap:round; stroke-linejoin:round;">
</g>
<g style="fill:#000000; fill-opacity:0.0; 
stroke:#000000; stroke-width:59.0551; stroke-opacity:1; 
stroke-linecap:round; stroke-linejoin:round;">
<path d="M92885 78069
L92641 78069
L92617 78312
L92641 78288
L92690 78263
L92812 78263
L92860 78288
L92885 78312
L92909 78361
L92909 78483
L92885 78532
L92860 78556
L92812 78580
L92690 78580
L92641 78556
L92617 78532
" />
</g>
<g style="fill:#000000; fill-opacity:0.0; 
stroke:#000000; stroke-width:39.3701; stroke-opacity:1; 
stroke-linecap:round; stroke-linejoin:round;">
</g>
<g style="fill:#000000; fill-opacity:0.0; 
stroke:#000000; stroke-width:59.0551; stroke-opacity:1; 
stroke-linecap:round; stroke-linejoin:round;">
<path d="M112545 78069
L112448 78069
L112399 78093
L112375 78117
L112326 78190
L112302 78288
L112302 78483
L112326 78532
L112350 78556
L112399 78580
L112497 78580
L112545 78556
L112570 78532
L112594 78483
L112594 78361
L112570 78312
L112545 78288
L112497 78263
L112399 78263
L112350 78288
L112326 78312
L112302 78361
" />
</g>
<g style="fill:#000000; fill-opacity:0.0; 
stroke:#000000; stroke-width:39.3701; stroke-opacity:1; 
stroke-linecap:round; stroke-linejoin:round;">
</g>
<g style="fill:#000000; fill-opacity:0.0; 
stroke:#000000; stroke-width:59.0551; stroke-opacity:1; 
stroke-linecap:round; stroke-linejoin:round;">
<path d="M3937 23622
L4724 23622
" />
</g>
<g style="fill:#000000; fill-opacity:0.0; 
stroke:#000000; stroke-width:39.3701; stroke-opacity:1; 
stroke-linecap:round; stroke-linejoin:round;">
</g>
<g style="fill:#000000; fill-opacity:0.0; 
stroke:#000000; stroke-width:59.0551; stroke-opacity:1; 
stroke-linecap:round; stroke-linejoin:round;">
<path d="M3937 43307
L4724 43307
" />
</g>
<g style="fill:#000000; fill-opacity:0.0; 
stroke:#000000; stroke-width:39.3701; stroke-opacity:1; 
stroke-linecap:round; stroke-linejoin:round;">
</g>
<g style="fill:#000000; fill-opacity:0.0; 
stroke:#000000; stroke-width:59.0551; stroke-opacity:1; 
stroke-linecap:round; stroke-linejoin:round;">
<path d="M3937 62992
L4724 62992
" />
</g>
<g style="fill:#000000; fill-opacity:0.0; 
stroke:#000000; stroke-width:39.3701; stroke-opacity:1; 
stroke-linecap:round; stroke-linejoin:round;">
</g>
<g style="fill:#000000; fill-opacity:0.0; 
stroke:#000000; stroke-width:59.0551; stroke-opacity:1; 
stroke-linecap:round; stroke-linejoin:round;">
<path d="M4208 13864
L4452 13864
" />
<path d="M4160 14011
L4330 13499
L4501 14011
" />
</g>
<g style="fill:#000000; fill-opacity:0.0; 
stroke:#000000; stroke-width:39.3701; stroke-opacity:1; 
stroke-linecap:round; stroke-linejoin:round;">
</g>
<g style="fill:#000000; fill-opacity:0.0; 
stroke:#000000; stroke-width:59.0551; stroke-opacity:1; 
stroke-linecap:round; stroke-linejoin:round;">
<path d="M4367 33428
L4440 33452
L4464 33476
L4489 33525
L4489 33598
L4464 33647
L4440 33671
L4391 33696
L4196 33696
L4196 33184
L4367 33184
L4416 33208
L4440 33233
L4464 33281
L4464 33330
L4440 33379
L4416 33403
L4367 33428
L4196 33428
" />
</g>
<g style="fill:#000000; fill-opacity:0.0; 
stroke:#000000; stroke-width:39.3701; stroke-opacity:1; 
stroke-linecap:round; stroke-linejoin:round;">
</g>
<g style="fill:#000000; fill-opacity:0.0; 
stroke:#000000; stroke-width:59.0551; stroke-opacity:1; 
stroke-linecap:round; stroke-linejoin:round;">
<path d="M4489 53332
L4464 53356
L4391 53381
L4342 53381
L4269 53356
L4221 53308
L4196 53259
L4172 53161
L4172 53088
L4196 52991
L4221 52942
L4269 52893
L4342 52869
L4391 52869
L4464 52893
L4489 52918
" />
</g>
<g style="fill:#000000; fill-opacity:0.0; 
stroke:#000000; stroke-width:39.3701; stroke-opacity:1; 
stroke-linecap:round; stroke-linejoin:round;">
</g>
<g style="fill:#000000; fill-opacity:0.0; 
stroke:#000000; stroke-width:59.0551; stroke-opacity:1; 
stroke-linecap:round; stroke-linejoin:round;">
<path d="M4196 73066
L4196 72554
L4318 72554
L4391 72578
L4440 72627
L4464 72676
L4489 72773
L4489 72846
L4464 72944
L4440 72993
L4391 73041
L4318 73066
L4196 73066
" />
</g>
<g style="fill:#000000; fill-opacity:0.0; 
stroke:#000000; stroke-width:39.3701; stroke-opacity:1; 
stroke-linecap:round; stroke-linejoin:round;">
</g>
<g style="fill:#000000; fill-opacity:0.0; 
stroke:#000000; stroke-width:59.0551; stroke-opacity:1; 
stroke-linecap:round; stroke-linejoin:round;">
<path d="M112992 23622
L112205 23622
" />
</g>
<g style="fill:#000000; fill-opacity:0.0; 
stroke:#000000; stroke-width:39.3701; stroke-opacity:1; 
stroke-linecap:round; stroke-linejoin:round;">
</g>
<g style="fill:#000000; fill-opacity:0.0; 
stroke:#000000; stroke-width:59.0551; stroke-opacity:1; 
stroke-linecap:round; stroke-linejoin:round;">
<path d="M112992 43307
L112205 43307
" />
</g>
<g style="fill:#000000; fill-opacity:0.0; 
stroke:#000000; stroke-width:39.3701; stroke-opacity:1; 
stroke-linecap:round; stroke-linejoin:round;">
</g>
<g style="fill:#000000; fill-opacity:0.0; 
stroke:#000000; stroke-width:59.0551; stroke-opacity:1; 
stroke-linecap:round; stroke-linejoin:round;">
<path d="M112992 62992
L112205 62992
" />
</g>
<g style="fill:#000000; fill-opacity:0.0; 
stroke:#000000; stroke-width:39.3701; stroke-opacity:1; 
stroke-linecap:round; stroke-linejoin:round;">
</g>
<g style="fill:#000000; fill-opacity:0.0; 
stroke:#000000; stroke-width:59.0551; stroke-opacity:1; 
stroke-linecap:round; stroke-linejoin:round;">
<path d="M112477 13864
L112721 13864
" />
<path d="M112428 14011
L112599 13499
L112769 14011
" />
</g>
<g style="fill:#000000; fill-opacity:0.0; 
stroke:#000000; stroke-width:39.3701; stroke-opacity:1; 
stroke-linecap:round; stroke-linejoin:round;">
</g>
<g style="fill:#000000; fill-opacity:0.0; 
stroke:#000000; stroke-width:59.0551; stroke-opacity:1; 
stroke-linecap:round; stroke-linejoin:round;">
<path d="M112635 33428
L112708 33452
L112733 33476
L112757 33525
L112757 33598
L112733 33647
L112708 33671
L112660 33696
L112465 33696
L112465 33184
L112635 33184
L112684 33208
L112708 33233
L112733 33281
L112733 33330
L112708 33379
L112684 33403
L112635 33428
L112465 33428
" />
</g>
<g style="fill:#000000; fill-opacity:0.0; 
stroke:#000000; stroke-width:39.3701; stroke-opacity:1; 
stroke-linecap:round; stroke-linejoin:round;">
</g>
<g style="fill:#000000; fill-opacity:0.0; 
stroke:#000000; stroke-width:59.0551; stroke-opacity:1; 
stroke-linecap:round; stroke-linejoin:round;">
<path d="M112757 53332
L112733 53356
L112660 53381
L112611 53381
L112538 53356
L112489 53308
L112465 53259
L112440 53161
L112440 53088
L112465 52991
L112489 52942
L112538 52893
L112611 52869
L112660 52869
L112733 52893
L112757 52918
" />
</g>
<g style="fill:#000000; fill-opacity:0.0; 
stroke:#000000; stroke-width:39.3701; stroke-opacity:1; 
stroke-linecap:round; stroke-linejoin:round;">
</g>
<g style="fill:#000000; fill-opacity:0.0; 
stroke:#000000; stroke-width:59.0551; stroke-opacity:1; 
stroke-linecap:round; stroke-linejoin:round;">
<path d="M112465 73066
L112465 72554
L112587 72554
L112660 72578
L112708 72627
L112733 72676
L112757 72773
L112757 72846
L112733 72944
L112708 72993
L112660 73041
L112587 73066
L112465 73066
" />
</g>
<g style="fill:#000000; fill-opacity:0.0; 
stroke:#000000; stroke-width:39.3701; stroke-opacity:1; 
stroke-linecap:round; stroke-linejoin:round;">
</g>
<g style="fill:#000000; fill-opacity:0.0; 
stroke:#000000; stroke-width:59.0551; stroke-opacity:1; 
stroke-linecap:round; stroke-linejoin:round;">
<path d="M78881 76293
L78881 75703
L79022 75703
L79106 75731
L79162 75787
L79190 75843
L79219 75956
L79219 76040
L79190 76153
L79162 76209
L79106 76265
L79022 76293
L78881 76293
" />
<path d="M79725 76293
L79725 75984
L79697 75928
L79640 75899
L79528 75899
L79472 75928
" />
<path d="M79725 76265
L79669 76293
L79528 76293
L79472 76265
L79444 76209
L79444 76153
L79472 76096
L79528 76068
L79669 76068
L79725 76040
" />
<path d="M79922 75899
L80147 75899
" />
<path d="M80006 75703
L80006 76209
L80034 76265
L80090 76293
L80147 76293
" />
<path d="M80568 76265
L80512 76293
L80400 76293
L80343 76265
L80315 76209
L80315 75984
L80343 75928
L80400 75899
L80512 75899
L80568 75928
L80597 75984
L80597 76040
L80315 76096
" />
<path d="M80850 76237
L80878 76265
L80850 76293
L80822 76265
L80850 76237
L80850 76293
" />
<path d="M80850 75928
L80878 75956
L80850 75984
L80822 75956
L80850 75928
L80850 75984
" />
</g>
<g style="fill:#000000; fill-opacity:0.0; 
stroke:#000000; stroke-width:39.3701; stroke-opacity:1; 
stroke-linecap:round; stroke-linejoin:round;">
</g>
<g style="fill:#000000; fill-opacity:0.0; 
stroke:#000000; stroke-width:59.0551; stroke-opacity:1; 
stroke-linecap:round; stroke-linejoin:round;">
<path d="M69685 76577
L112205 76577
" />
</g>
<g style="fill:#000000; fill-opacity:0.0; 
stroke:#000000; stroke-width:39.3701; stroke-opacity:1; 
stroke-linecap:round; stroke-linejoin:round;">
</g>
<g style="fill:#000000; fill-opacity:0.0; 
stroke:#000000; stroke-width:59.0551; stroke-opacity:1; 
stroke-linecap:round; stroke-linejoin:round;">
<path d="M70220 77395
L70220 76805
" />
<path d="M70557 77395
L70304 77058
" />
<path d="M70557 76805
L70220 77142
" />
<path d="M70810 77395
L70810 77002
" />
<path d="M70810 76805
L70782 76833
L70810 76861
L70838 76833
L70810 76805
L70810 76861
" />
<path d="M71429 77339
L71401 77367
L71316 77395
L71260 77395
L71176 77367
L71120 77311
L71091 77255
L71063 77142
L71063 77058
L71091 76946
L71120 76889
L71176 76833
L71260 76805
L71316 76805
L71401 76833
L71429 76861
" />
<path d="M71935 77395
L71935 77086
L71907 77030
L71851 77002
L71738 77002
L71682 77030
" />
<path d="M71935 77367
L71879 77395
L71738 77395
L71682 77367
L71654 77311
L71654 77255
L71682 77199
L71738 77171
L71879 77171
L71935 77142
" />
<path d="M72469 77395
L72469 76805
" />
<path d="M72469 77367
L72413 77395
L72301 77395
L72244 77367
L72216 77339
L72188 77283
L72188 77114
L72216 77058
L72244 77030
L72301 77002
L72413 77002
L72469 77030
" />
<path d="M73201 77086
L73397 77086
" />
<path d="M73482 77395
L73201 77395
L73201 76805
L73482 76805
" />
<path d="M73735 77339
L73763 77367
L73735 77395
L73707 77367
L73735 77339
L73735 77395
" />
<path d="M74016 77395
L74016 76805
L74157 76805
L74241 76833
L74297 76889
L74325 76946
L74354 77058
L74354 77142
L74325 77255
L74297 77311
L74241 77367
L74157 77395
L74016 77395
" />
<path d="M74607 77339
L74635 77367
L74607 77395
L74579 77367
L74607 77339
L74607 77395
" />
<path d="M74860 77227
L75141 77227
" />
<path d="M74804 77395
L75000 76805
L75197 77395
" />
<path d="M75394 77339
L75422 77367
L75394 77395
L75366 77367
L75394 77339
L75394 77395
" />
<path d="M76575 77395
L76575 76805
" />
<path d="M76631 77171
L76800 77395
" />
<path d="M76800 77002
L76575 77227
" />
<path d="M77053 77395
L77053 77002
" />
<path d="M77053 76805
L77025 76833
L77053 76861
L77081 76833
L77053 76805
L77053 76861
" />
<path d="M77588 77367
L77531 77395
L77419 77395
L77363 77367
L77334 77339
L77306 77283
L77306 77114
L77334 77058
L77363 77030
L77419 77002
L77531 77002
L77588 77030
" />
<path d="M78094 77395
L78094 77086
L78066 77030
L78009 77002
L77897 77002
L77841 77030
" />
<path d="M78094 77367
L78037 77395
L77897 77395
L77841 77367
L77813 77311
L77813 77255
L77841 77199
L77897 77171
L78037 77171
L78094 77142
" />
<path d="M78628 77395
L78628 76805
" />
<path d="M78628 77367
L78572 77395
L78459 77395
L78403 77367
L78375 77339
L78347 77283
L78347 77114
L78375 77058
L78403 77030
L78459 77002
L78572 77002
L78628 77030
" />
<path d="M79612 77002
L79612 77395
" />
<path d="M79472 76777
L79331 77199
L79697 77199
" />
<path d="M79922 77339
L79950 77367
L79922 77395
L79894 77367
L79922 77339
L79922 77395
" />
<path d="M80315 76805
L80372 76805
L80428 76833
L80456 76861
L80484 76917
L80512 77030
L80512 77171
L80484 77283
L80456 77339
L80428 77367
L80372 77395
L80315 77395
L80259 77367
L80231 77339
L80203 77283
L80175 77171
L80175 77030
L80203 76917
L80231 76861
L80259 76833
L80315 76805
" />
<path d="M80765 77339
L80793 77367
L80765 77395
L80737 77367
L80765 77339
L80765 77395
" />
<path d="M81300 77002
L81300 77395
" />
<path d="M81159 76777
L81018 77199
L81384 77199
" />
<path d="M81609 77171
L82059 77171
" />
<path d="M81834 77395
L81834 76946
" />
<path d="M82565 77367
L82509 77395
L82396 77395
L82340 77367
L82312 77311
L82312 77086
L82340 77030
L82396 77002
L82509 77002
L82565 77030
L82593 77086
L82593 77142
L82312 77199
" />
<path d="M83156 77395
L82818 77395
" />
<path d="M82987 77395
L82987 76805
L82931 76889
L82874 76946
L82818 76974
" />
<path d="M83409 77171
L83859 77171
" />
<path d="M84393 76805
L84280 76805
L84224 76833
L84196 76861
L84140 76946
L84112 77058
L84112 77283
L84140 77339
L84168 77367
L84224 77395
L84337 77395
L84393 77367
L84421 77339
L84449 77283
L84449 77142
L84421 77086
L84393 77058
L84337 77030
L84224 77030
L84168 77058
L84140 77086
L84112 77142
" />
<path d="M84646 76805
L85012 76805
L84815 77030
L84899 77030
L84955 77058
L84983 77086
L85012 77142
L85012 77283
L84983 77339
L84955 77367
L84899 77395
L84730 77395
L84674 77367
L84646 77339
" />
<path d="M85377 76805
L85433 76805
L85490 76833
L85518 76861
L85546 76917
L85574 77030
L85574 77171
L85546 77283
L85518 77339
L85490 77367
L85433 77395
L85377 77395
L85321 77367
L85293 77339
L85265 77283
L85237 77171
L85237 77030
L85265 76917
L85293 76861
L85321 76833
L85377 76805
" />
<path d="M85912 77058
L85855 77030
L85827 77002
L85799 76946
L85799 76917
L85827 76861
L85855 76833
L85912 76805
L86024 76805
L86080 76833
L86108 76861
L86136 76917
L86136 76946
L86108 77002
L86080 77030
L86024 77058
L85912 77058
L85855 77086
L85827 77114
L85799 77171
L85799 77283
L85827 77339
L85855 77367
L85912 77395
L86024 77395
L86080 77367
L86108 77339
L86136 77283
L86136 77171
L86108 77114
L86080 77086
L86024 77058
" />
<path d="M86643 77002
L86643 77395
" />
<path d="M86502 76777
L86361 77199
L86727 77199
" />
<path d="M87036 77058
L86980 77030
L86952 77002
L86924 76946
L86924 76917
L86952 76861
L86980 76833
L87036 76805
L87149 76805
L87205 76833
L87233 76861
L87261 76917
L87261 76946
L87233 77002
L87205 77030
L87149 77058
L87036 77058
L86980 77086
L86952 77114
L86924 77171
L86924 77283
L86952 77339
L86980 77367
L87036 77395
L87149 77395
L87205 77367
L87233 77339
L87261 77283
L87261 77171
L87233 77114
L87205 77086
L87149 77058
" />
<path d="M86249 76703
L87374 76703
" />
<path d="M87768 77002
L87768 77395
" />
<path d="M87514 77002
L87514 77311
L87543 77367
L87599 77395
L87683 77395
L87739 77367
L87768 77339
" />
<path d="M88049 77395
L88049 76805
" />
<path d="M88049 77030
L88105 77002
L88217 77002
L88274 77030
L88302 77058
L88330 77114
L88330 77283
L88302 77339
L88274 77367
L88217 77395
L88105 77395
L88049 77367
" />
<path d="M88836 77002
L88836 77395
" />
<path d="M88583 77002
L88583 77311
L88611 77367
L88667 77395
L88752 77395
L88808 77367
L88836 77339
" />
<path d="M89117 77002
L89117 77395
" />
<path d="M89117 77058
L89145 77030
L89202 77002
L89286 77002
L89342 77030
L89370 77086
L89370 77395
" />
<path d="M89567 77002
L89792 77002
" />
<path d="M89652 76805
L89652 77311
L89680 77367
L89736 77395
L89792 77395
" />
<path d="M90242 77002
L90242 77395
" />
<path d="M89989 77002
L89989 77311
L90017 77367
L90073 77395
L90158 77395
L90214 77367
L90242 77339
" />
<path d="M90833 77395
L90495 77395
" />
<path d="M90664 77395
L90664 76805
L90608 76889
L90552 76946
L90495 76974
" />
<path d="M91339 76805
L91226 76805
L91170 76833
L91142 76861
L91086 76946
L91058 77058
L91058 77283
L91086 77339
L91114 77367
L91170 77395
L91283 77395
L91339 77367
L91367 77339
L91395 77283
L91395 77142
L91367 77086
L91339 77058
L91283 77030
L91170 77030
L91114 77058
L91086 77086
L91058 77142
" />
<path d="M91648 77339
L91676 77367
L91648 77395
L91620 77367
L91648 77339
L91648 77395
" />
<path d="M92042 76805
L92098 76805
L92154 76833
L92183 76861
L92211 76917
L92239 77030
L92239 77171
L92211 77283
L92183 77339
L92154 77367
L92098 77395
L92042 77395
L91986 77367
L91958 77339
L91929 77283
L91901 77171
L91901 77030
L91929 76917
L91958 76861
L91986 76833
L92042 76805
" />
<path d="M92745 77002
L92745 77395
" />
<path d="M92604 76777
L92464 77199
L92829 77199
" />
<path d="M93054 77339
L93082 77367
L93054 77395
L93026 77367
L93054 77339
L93054 77395
" />
<path d="M93645 77395
L93307 77395
" />
<path d="M93476 77395
L93476 76805
L93420 76889
L93364 76946
L93307 76974
" />
<path d="M93898 77171
L94348 77171
" />
<path d="M94601 77367
L94657 77395
L94770 77395
L94826 77367
L94854 77311
L94854 77283
L94826 77227
L94770 77199
L94685 77199
L94629 77171
L94601 77114
L94601 77086
L94629 77030
L94685 77002
L94770 77002
L94826 77030
" />
<path d="M95023 77002
L95248 77002
" />
<path d="M95107 76805
L95107 77311
L95135 77367
L95192 77395
L95248 77395
" />
<path d="M95698 77395
L95698 77086
L95670 77030
L95613 77002
L95501 77002
L95445 77030
" />
<path d="M95698 77367
L95642 77395
L95501 77395
L95445 77367
L95417 77311
L95417 77255
L95445 77199
L95501 77171
L95642 77171
L95698 77142
" />
<path d="M95979 77395
L95979 76805
" />
<path d="M95979 77030
L96035 77002
L96148 77002
L96204 77030
L96232 77058
L96260 77114
L96260 77283
L96232 77339
L96204 77367
L96148 77395
L96035 77395
L95979 77367
" />
<path d="M96598 77395
L96541 77367
L96513 77311
L96513 76805
" />
<path d="M97048 77367
L96991 77395
L96879 77395
L96823 77367
L96795 77311
L96795 77086
L96823 77030
L96879 77002
L96991 77002
L97048 77030
L97076 77086
L97076 77142
L96795 77199
" />
</g>
<g style="fill:#000000; fill-opacity:0.0; 
stroke:#000000; stroke-width:39.3701; stroke-opacity:1; 
stroke-linecap:round; stroke-linejoin:round;">
</g>
<g style="fill:#000000; fill-opacity:0.0; 
stroke:#000000; stroke-width:59.0551; stroke-opacity:1; 
stroke-linecap:round; stroke-linejoin:round;">
<path d="M69685 75396
L112205 75396
" />
</g>
<g style="fill:#000000; fill-opacity:0.0; 
stroke:#000000; stroke-width:39.3701; stroke-opacity:1; 
stroke-linecap:round; stroke-linejoin:round;">
</g>
<g style="fill:#000000; fill-opacity:0.0; 
stroke:#000000; stroke-width:118.11; stroke-opacity:1; 
stroke-linecap:round; stroke-linejoin:round;">
<path d="M104022 76293
L103825 76012
" />
<path d="M103684 76293
L103684 75703
L103909 75703
L103965 75731
L103994 75759
L104022 75815
L104022 75899
L103994 75956
L103965 75984
L103909 76012
L103684 76012
" />
<path d="M104500 76265
L104444 76293
L104331 76293
L104275 76265
L104247 76209
L104247 75984
L104275 75928
L104331 75899
L104444 75899
L104500 75928
L104528 75984
L104528 76040
L104247 76096
" />
<path d="M104725 75899
L104865 76293
L105006 75899
" />
<path d="M105231 76237
L105259 76265
L105231 76293
L105203 76265
L105231 76237
L105231 76293
" />
<path d="M105231 75928
L105259 75956
L105231 75984
L105203 75956
L105231 75928
L105231 75984
" />
</g>
<g style="fill:#000000; fill-opacity:0.0; 
stroke:#000000; stroke-width:39.3701; stroke-opacity:1; 
stroke-linecap:round; stroke-linejoin:round;">
</g>
<g style="fill:#000000; fill-opacity:0.0; 
stroke:#000000; stroke-width:59.0551; stroke-opacity:1; 
stroke-linecap:round; stroke-linejoin:round;">
<path d="M70192 76265
L70276 76293
L70417 76293
L70473 76265
L70501 76237
L70529 76181
L70529 76124
L70501 76068
L70473 76040
L70417 76012
L70304 75984
L70248 75956
L70220 75928
L70192 75871
L70192 75815
L70220 75759
L70248 75731
L70304 75703
L70445 75703
L70529 75731
" />
<path d="M70782 76293
L70782 75899
" />
<path d="M70782 75703
L70754 75731
L70782 75759
L70810 75731
L70782 75703
L70782 75759
" />
<path d="M71007 75899
L71316 75899
L71007 76293
L71316 76293
" />
<path d="M71766 76265
L71710 76293
L71598 76293
L71541 76265
L71513 76209
L71513 75984
L71541 75928
L71598 75899
L71710 75899
L71766 75928
L71795 75984
L71795 76040
L71513 76096
" />
<path d="M72048 76237
L72076 76265
L72048 76293
L72019 76265
L72048 76237
L72048 76293
" />
<path d="M72048 75928
L72076 75956
L72048 75984
L72019 75956
L72048 75928
L72048 75984
" />
<path d="M72751 76124
L73032 76124
" />
<path d="M72694 76293
L72891 75703
L73088 76293
" />
<path d="M73538 75899
L73538 76293
" />
<path d="M73397 75674
L73257 76096
L73622 76096
" />
</g>
<g style="fill:#000000; fill-opacity:0.0; 
stroke:#000000; stroke-width:39.3701; stroke-opacity:1; 
stroke-linecap:round; stroke-linejoin:round;">
</g>
<g style="fill:#000000; fill-opacity:0.0; 
stroke:#000000; stroke-width:59.0551; stroke-opacity:1; 
stroke-linecap:round; stroke-linejoin:round;">
<path d="M103684 77395
L103684 76805
" />
<path d="M104219 77395
L104219 76805
" />
<path d="M104219 77367
L104162 77395
L104050 77395
L103994 77367
L103965 77339
L103937 77283
L103937 77114
L103965 77058
L103994 77030
L104050 77002
L104162 77002
L104219 77030
" />
<path d="M104500 77339
L104528 77367
L104500 77395
L104472 77367
L104500 77339
L104500 77395
" />
<path d="M104500 77030
L104528 77058
L104500 77086
L104472 77058
L104500 77030
L104500 77086
" />
<path d="M105540 77395
L105203 77395
" />
<path d="M105372 77395
L105372 76805
L105315 76889
L105259 76946
L105203 76974
" />
<path d="M106215 76777
L105709 77536
" />
<path d="M106721 77395
L106384 77395
" />
<path d="M106553 77395
L106553 76805
L106496 76889
L106440 76946
L106384 76974
" />
</g>
<g style="fill:#000000; fill-opacity:0.0; 
stroke:#000000; stroke-width:39.3701; stroke-opacity:1; 
stroke-linecap:round; stroke-linejoin:round;">
</g>
<g style="fill:#000000; fill-opacity:0.0; 
stroke:#000000; stroke-width:59.0551; stroke-opacity:1; 
stroke-linecap:round; stroke-linejoin:round;">
<path d="M69685 73821
L112205 73821
" />
</g>
<g style="fill:#000000; fill-opacity:0.0; 
stroke:#000000; stroke-width:39.3701; stroke-opacity:1; 
stroke-linecap:round; stroke-linejoin:round;">
</g>
<g style="fill:#000000; fill-opacity:0.0; 
stroke:#000000; stroke-width:157.48; stroke-opacity:1; 
stroke-linecap:round; stroke-linejoin:round;">
<path d="M70257 74099
L70707 74099
" />
<path d="M70384 74886
L70482 74099
" />
<path d="M70871 74886
L70937 74361
" />
<path d="M70970 74099
L70927 74136
L70960 74174
L71002 74136
L70970 74099
L70960 74174
" />
<path d="M71199 74361
L71499 74361
" />
<path d="M71345 74099
L71260 74774
L71288 74849
L71359 74886
L71434 74886
" />
<path d="M71809 74886
L71738 74849
L71710 74774
L71795 74099
" />
<path d="M72413 74849
L72334 74886
L72184 74886
L72113 74849
L72085 74774
L72123 74474
L72169 74399
L72249 74361
L72399 74361
L72469 74399
L72498 74474
L72488 74549
L72104 74624
" />
<path d="M72793 74811
L72826 74849
L72783 74886
L72751 74849
L72793 74811
L72783 74886
" />
<path d="M72844 74399
L72877 74436
L72835 74474
L72802 74436
L72844 74399
L72835 74474
" />
</g>
<g style="fill:#000000; fill-opacity:0.0; 
stroke:#000000; stroke-width:39.3701; stroke-opacity:1; 
stroke-linecap:round; stroke-linejoin:round;">
</g>
<g style="fill:#000000; fill-opacity:0.0; 
stroke:#000000; stroke-width:59.0551; stroke-opacity:1; 
stroke-linecap:round; stroke-linejoin:round;">
<path d="M70417 73070
L70220 73070
" />
<path d="M70220 73380
L70220 72789
L70501 72789
" />
<path d="M70726 73380
L70726 72986
" />
<path d="M70726 72789
L70698 72817
L70726 72845
L70754 72817
L70726 72789
L70726 72845
" />
<path d="M71091 73380
L71035 73352
L71007 73295
L71007 72789
" />
<path d="M71541 73352
L71485 73380
L71373 73380
L71316 73352
L71288 73295
L71288 73070
L71316 73014
L71373 72986
L71485 72986
L71541 73014
L71570 73070
L71570 73127
L71288 73183
" />
<path d="M71823 73323
L71851 73352
L71823 73380
L71795 73352
L71823 73323
L71823 73380
" />
<path d="M71823 73014
L71851 73042
L71823 73070
L71795 73042
L71823 73014
L71823 73070
" />
<path d="M72526 73352
L72582 73380
L72694 73380
L72751 73352
L72779 73295
L72779 73267
L72751 73211
L72694 73183
L72610 73183
L72554 73155
L72526 73099
L72526 73070
L72554 73014
L72610 72986
L72694 72986
L72751 73014
" />
<path d="M73032 73380
L73032 72789
" />
<path d="M73285 73380
L73285 73070
L73257 73014
L73201 72986
L73116 72986
L73060 73014
L73032 73042
" />
<path d="M73566 73380
L73566 72986
" />
<path d="M73566 72789
L73538 72817
L73566 72845
L73594 72817
L73566 72789
L73566 72845
" />
<path d="M74072 73352
L74016 73380
L73904 73380
L73847 73352
L73819 73295
L73819 73070
L73847 73014
L73904 72986
L74016 72986
L74072 73014
L74100 73070
L74100 73127
L73819 73183
" />
<path d="M74438 73380
L74382 73352
L74354 73295
L74354 72789
" />
<path d="M74916 73380
L74916 72789
" />
<path d="M74916 73352
L74860 73380
L74747 73380
L74691 73352
L74663 73323
L74635 73267
L74635 73099
L74663 73042
L74691 73014
L74747 72986
L74860 72986
L74916 73014
" />
<path d="M75057 73436
L75507 73436
" />
<path d="M75900 73380
L75900 73070
L75872 73014
L75816 72986
L75703 72986
L75647 73014
" />
<path d="M75900 73352
L75844 73380
L75703 73380
L75647 73352
L75619 73295
L75619 73239
L75647 73183
L75703 73155
L75844 73155
L75900 73127
" />
<path d="M76097 72986
L76322 72986
" />
<path d="M76181 72789
L76181 73295
L76210 73352
L76266 73380
L76322 73380
" />
<path d="M76435 72986
L76660 72986
" />
<path d="M76519 72789
L76519 73295
L76547 73352
L76603 73380
L76660 73380
" />
<path d="M77081 73352
L77025 73380
L76913 73380
L76856 73352
L76828 73295
L76828 73070
L76856 73014
L76913 72986
L77025 72986
L77081 73014
L77109 73070
L77109 73127
L76828 73183
" />
<path d="M77363 73380
L77363 72986
" />
<path d="M77363 73042
L77391 73014
L77447 72986
L77531 72986
L77588 73014
L77616 73070
L77616 73380
" />
<path d="M77616 73070
L77644 73014
L77700 72986
L77784 72986
L77841 73014
L77869 73070
L77869 73380
" />
<path d="M78150 72986
L78150 73577
" />
<path d="M78150 73014
L78206 72986
L78319 72986
L78375 73014
L78403 73042
L78431 73099
L78431 73267
L78403 73323
L78375 73352
L78319 73380
L78206 73380
L78150 73352
" />
<path d="M78600 72986
L78825 72986
" />
<path d="M78684 72789
L78684 73295
L78712 73352
L78769 73380
L78825 73380
" />
<path d="M79022 73323
L79050 73352
L79022 73380
L78994 73352
L79022 73323
L79022 73380
" />
<path d="M79303 73380
L79303 72789
" />
<path d="M79359 73155
L79528 73380
" />
<path d="M79528 72986
L79303 73211
" />
<path d="M79781 73380
L79781 72986
" />
<path d="M79781 72789
L79753 72817
L79781 72845
L79809 72817
L79781 72789
L79781 72845
" />
<path d="M80315 73352
L80259 73380
L80147 73380
L80090 73352
L80062 73323
L80034 73267
L80034 73099
L80062 73042
L80090 73014
L80147 72986
L80259 72986
L80315 73014
" />
<path d="M80822 73380
L80822 73070
L80793 73014
L80737 72986
L80625 72986
L80568 73014
" />
<path d="M80822 73352
L80765 73380
L80625 73380
L80568 73352
L80540 73295
L80540 73239
L80568 73183
L80625 73155
L80765 73155
L80822 73127
" />
<path d="M81356 73380
L81356 72789
" />
<path d="M81356 73352
L81300 73380
L81187 73380
L81131 73352
L81103 73323
L81075 73267
L81075 73099
L81103 73042
L81131 73014
L81187 72986
L81300 72986
L81356 73014
" />
<path d="M81496 73436
L81946 73436
" />
<path d="M82087 72986
L82087 73577
" />
<path d="M82087 73014
L82143 72986
L82256 72986
L82312 73014
L82340 73042
L82368 73099
L82368 73267
L82340 73323
L82312 73352
L82256 73380
L82143 73380
L82087 73352
" />
<path d="M82874 73352
L82818 73380
L82706 73380
L82649 73352
L82621 73323
L82593 73267
L82593 73099
L82621 73042
L82649 73014
L82706 72986
L82818 72986
L82874 73014
" />
<path d="M83127 73380
L83127 72789
" />
<path d="M83127 73014
L83184 72986
L83296 72986
L83352 73014
L83381 73042
L83409 73099
L83409 73267
L83381 73323
L83352 73352
L83296 73380
L83184 73380
L83127 73352
" />
</g>
<g style="fill:#000000; fill-opacity:0.0; 
stroke:#000000; stroke-width:39.3701; stroke-opacity:1; 
stroke-linecap:round; stroke-linejoin:round;">
</g>
<g style="fill:#000000; fill-opacity:0.0; 
stroke:#000000; stroke-width:59.0551; stroke-opacity:1; 
stroke-linecap:round; stroke-linejoin:round;">
<path d="M69685 71459
L112205 71459
" />
</g>
<g style="fill:#000000; fill-opacity:0.0; 
stroke:#000000; stroke-width:39.3701; stroke-opacity:1; 
stroke-linecap:round; stroke-linejoin:round;">
</g>
<g style="fill:#000000; fill-opacity:0.0; 
stroke:#000000; stroke-width:59.0551; stroke-opacity:1; 
stroke-linecap:round; stroke-linejoin:round;">
<path d="M70192 72289
L70276 72317
L70417 72317
L70473 72289
L70501 72260
L70529 72204
L70529 72148
L70501 72092
L70473 72064
L70417 72036
L70304 72007
L70248 71979
L70220 71951
L70192 71895
L70192 71839
L70220 71782
L70248 71754
L70304 71726
L70445 71726
L70529 71754
" />
<path d="M70782 72317
L70782 71726
" />
<path d="M71035 72317
L71035 72007
L71007 71951
L70951 71923
L70867 71923
L70810 71951
L70782 71979
" />
<path d="M71541 72289
L71485 72317
L71373 72317
L71316 72289
L71288 72232
L71288 72007
L71316 71951
L71373 71923
L71485 71923
L71541 71951
L71570 72007
L71570 72064
L71288 72120
" />
<path d="M72048 72289
L71991 72317
L71879 72317
L71823 72289
L71795 72232
L71795 72007
L71823 71951
L71879 71923
L71991 71923
L72048 71951
L72076 72007
L72076 72064
L71795 72120
" />
<path d="M72244 71923
L72469 71923
" />
<path d="M72329 71726
L72329 72232
L72357 72289
L72413 72317
L72469 72317
" />
<path d="M72666 72260
L72694 72289
L72666 72317
L72638 72289
L72666 72260
L72666 72317
" />
<path d="M72666 71951
L72694 71979
L72666 72007
L72638 71979
L72666 71951
L72666 72007
" />
</g>
<g style="fill:#000000; fill-opacity:0.0; 
stroke:#000000; stroke-width:39.3701; stroke-opacity:1; 
stroke-linecap:round; stroke-linejoin:round;">
</g>
<g style="fill:#000000; fill-opacity:0.0; 
stroke:#000000; stroke-width:59.0551; stroke-opacity:1; 
stroke-linecap:round; stroke-linejoin:round;">
<path d="M77559 75396
L77559 76577
" />
</g>
<g style="fill:#000000; fill-opacity:0.0; 
stroke:#000000; stroke-width:39.3701; stroke-opacity:1; 
stroke-linecap:round; stroke-linejoin:round;">
</g>
<g style="fill:#000000; fill-opacity:0.0; 
stroke:#000000; stroke-width:59.0551; stroke-opacity:1; 
stroke-linecap:round; stroke-linejoin:round;">
<path d="M102756 75396
L102756 77955
" />
</g>
<g style="fill:#C2C200; fill-opacity:0.0; 
stroke:#C2C200; stroke-width:59.0551; stroke-opacity:1; 
stroke-linecap:round; stroke-linejoin:round;">
<path d="M30000 55500
L30000 28500
" />
<path d="M84000 55500
L30000 55500
" />
<path d="M84000 28500
L84000 55500
" />
<path d="M30000 28500
L84000 28500
" />
<path d="M46690 35557
L46878 35557
" />
<path d="M46653 35670
L46784 35276
L46915 35670
" />
<path d="M47047 35670
L47047 35407
" />
<path d="M47047 35482
L47065 35445
L47084 35426
L47122 35407
L47159 35407
" />
<path d="M47459 35670
L47459 35276
" />
<path d="M47459 35651
L47422 35670
L47347 35670
L47309 35651
L47290 35632
L47272 35595
L47272 35482
L47290 35445
L47309 35426
L47347 35407
L47422 35407
L47459 35426
" />
<path d="M47815 35407
L47815 35670
" />
<path d="M47646 35407
L47646 35613
L47665 35651
L47703 35670
L47759 35670
L47796 35651
L47815 35632
" />
<path d="M48003 35670
L48003 35407
" />
<path d="M48003 35276
L47984 35295
L48003 35314
L48021 35295
L48003 35276
L48003 35314
" />
<path d="M48190 35407
L48190 35670
" />
<path d="M48190 35445
L48209 35426
L48246 35407
L48303 35407
L48340 35426
L48359 35464
L48359 35670
" />
<path d="M48603 35670
L48565 35651
L48546 35632
L48528 35595
L48528 35482
L48546 35445
L48565 35426
L48603 35407
L48659 35407
L48696 35426
L48715 35445
L48734 35482
L48734 35595
L48715 35632
L48696 35651
L48659 35670
L48603 35670
" />
<path d="M49109 35295
L49071 35276
L49015 35276
L48959 35295
L48921 35332
L48903 35370
L48884 35445
L48884 35501
L48903 35576
L48921 35613
L48959 35651
L49015 35670
L49053 35670
L49109 35651
L49128 35632
L49128 35501
L49053 35501
" />
<path d="M49296 35670
L49296 35276
L49521 35670
L49521 35276
" />
<path d="M49709 35670
L49709 35276
L49802 35276
L49859 35295
L49896 35332
L49915 35370
L49934 35445
L49934 35501
L49915 35576
L49896 35613
L49859 35651
L49802 35670
L49709 35670
" />
<path d="M50309 35670
L50084 35670
" />
<path d="M50196 35670
L50196 35276
L50159 35332
L50121 35370
L50084 35389
" />
<path d="M43728 35557
L43915 35557
" />
<path d="M43690 35670
L43822 35276
L43953 35670
" />
<path d="M44084 35670
L44084 35407
" />
<path d="M44084 35482
L44103 35445
L44122 35426
L44159 35407
L44197 35407
" />
<path d="M44497 35670
L44497 35276
" />
<path d="M44497 35651
L44459 35670
L44384 35670
L44347 35651
L44328 35632
L44309 35595
L44309 35482
L44328 35445
L44347 35426
L44384 35407
L44459 35407
L44497 35426
" />
<path d="M44853 35407
L44853 35670
" />
<path d="M44684 35407
L44684 35613
L44703 35651
L44740 35670
L44796 35670
L44834 35651
L44853 35632
" />
<path d="M45040 35670
L45040 35407
" />
<path d="M45040 35276
L45021 35295
L45040 35314
L45059 35295
L45040 35276
L45040 35314
" />
<path d="M45228 35407
L45228 35670
" />
<path d="M45228 35445
L45246 35426
L45284 35407
L45340 35407
L45378 35426
L45396 35464
L45396 35670
" />
<path d="M45640 35670
L45603 35651
L45584 35632
L45565 35595
L45565 35482
L45584 35445
L45603 35426
L45640 35407
L45696 35407
L45734 35426
L45753 35445
L45771 35482
L45771 35595
L45753 35632
L45734 35651
L45696 35670
L45640 35670
" />
<path d="M45884 35276
L46015 35670
L46146 35276
" />
<path d="M46503 35632
L46484 35651
L46428 35670
L46390 35670
L46334 35651
L46296 35613
L46278 35576
L46259 35501
L46259 35445
L46278 35370
L46296 35332
L46334 35295
L46390 35276
L46428 35276
L46484 35295
L46503 35314
" />
<path d="M46896 35632
L46877 35651
L46821 35670
L46784 35670
L46727 35651
L46690 35613
L46671 35576
L46652 35501
L46652 35445
L46671 35370
L46690 35332
L46727 35295
L46784 35276
L46821 35276
L46877 35295
L46896 35314
" />
<path d="M47271 35670
L47046 35670
" />
<path d="M47159 35670
L47159 35276
L47121 35332
L47084 35370
L47046 35389
" />
<path d="M78562 47407
L78562 47726
L78543 47763
L78525 47782
L78487 47801
L78431 47801
L78393 47782
" />
<path d="M78562 47651
L78525 47670
L78450 47670
L78412 47651
L78393 47632
L78375 47595
L78375 47482
L78393 47445
L78412 47426
L78450 47407
L78525 47407
L78562 47426
" />
<path d="M78750 47670
L78750 47407
" />
<path d="M78750 47482
L78768 47445
L78787 47426
L78825 47407
L78862 47407
" />
<path d="M79050 47670
L79012 47651
L78993 47632
L78975 47595
L78975 47482
L78993 47445
L79012 47426
L79050 47407
L79106 47407
L79143 47426
L79162 47445
L79181 47482
L79181 47595
L79162 47632
L79143 47651
L79106 47670
L79050 47670
" />
<path d="M79518 47407
L79518 47670
" />
<path d="M79350 47407
L79350 47613
L79368 47651
L79406 47670
L79462 47670
L79500 47651
L79518 47632
" />
<path d="M79706 47407
L79706 47670
" />
<path d="M79706 47445
L79724 47426
L79762 47407
L79818 47407
L79856 47426
L79874 47464
L79874 47670
" />
<path d="M80231 47670
L80231 47276
" />
<path d="M80231 47651
L80193 47670
L80118 47670
L80081 47651
L80062 47632
L80043 47595
L80043 47482
L80062 47445
L80081 47426
L80118 47407
L80193 47407
L80231 47426
" />
<path d="M80624 47670
L80399 47670
" />
<path d="M80512 47670
L80512 47276
L80474 47332
L80437 47370
L80399 47389
" />
<path d="M66170 49940
L66170 50128
L65776 50128
" />
<path d="M65964 49678
L65982 49621
L66001 49603
L66038 49584
L66095 49584
L66132 49603
L66151 49621
L66170 49659
L66170 49809
L65776 49809
L65776 49678
L65795 49640
L65814 49621
L65851 49603
L65889 49603
L65926 49621
L65945 49640
L65964 49678
L65964 49809
" />
<path d="M65964 49415
L65964 49284
" />
<path d="M66170 49228
L66170 49415
L65776 49415
L65776 49228
" />
<path d="M66170 48853
L66170 49078
" />
<path d="M66170 48965
L65776 48965
L65832 49003
L65870 49040
L65889 49078
" />
<path d="M68259 44670
L68071 44670
L68071 44276
" />
<path d="M68521 44464
L68578 44482
L68596 44501
L68615 44538
L68615 44595
L68596 44632
L68578 44651
L68540 44670
L68390 44670
L68390 44276
L68521 44276
L68559 44295
L68578 44314
L68596 44351
L68596 44389
L68578 44426
L68559 44445
L68521 44464
L68390 44464
" />
<path d="M68784 44464
L68915 44464
" />
<path d="M68971 44670
L68784 44670
L68784 44276
L68971 44276
" />
<path d="M69140 44670
L69140 44276
" />
<path d="M69328 44670
L69328 44276
L69553 44670
L69553 44276
" />
<path d="M69946 44670
L69721 44670
" />
<path d="M69834 44670
L69834 44276
L69796 44332
L69759 44370
L69721 44389
" />
<path d="M71670 49949
L71670 50137
L71276 50137
" />
<path d="M71464 49687
L71482 49631
L71501 49612
L71538 49593
L71595 49593
L71632 49612
L71651 49631
L71670 49668
L71670 49818
L71276 49818
L71276 49687
L71295 49649
L71314 49631
L71351 49612
L71389 49612
L71426 49631
L71445 49649
L71464 49687
L71464 49818
" />
<path d="M71651 49443
L71670 49387
L71670 49293
L71651 49256
L71632 49237
L71595 49218
L71557 49218
L71520 49237
L71501 49256
L71482 49293
L71464 49368
L71445 49406
L71426 49425
L71389 49443
L71351 49443
L71314 49425
L71295 49406
L71276 49368
L71276 49275
L71295 49218
" />
<path d="M71670 48843
L71670 49068
" />
<path d="M71670 48956
L71276 48956
L71332 48993
L71370 49031
L71389 49068
" />
<path d="M73750 44670
L73562 44670
L73562 44276
" />
<path d="M74012 44464
L74068 44482
L74087 44501
L74106 44538
L74106 44595
L74087 44632
L74068 44651
L74031 44670
L73881 44670
L73881 44276
L74012 44276
L74050 44295
L74068 44314
L74087 44351
L74087 44389
L74068 44426
L74050 44445
L74012 44464
L73881 44464
" />
<path d="M74256 44651
L74312 44670
L74406 44670
L74443 44651
L74462 44632
L74481 44595
L74481 44557
L74462 44520
L74443 44501
L74406 44482
L74331 44464
L74293 44445
L74275 44426
L74256 44389
L74256 44351
L74275 44314
L74293 44295
L74331 44276
L74425 44276
L74481 44295
" />
<path d="M74649 44670
L74649 44276
" />
<path d="M74837 44670
L74837 44276
L75062 44670
L75062 44276
" />
<path d="M75456 44670
L75231 44670
" />
<path d="M75343 44670
L75343 44276
L75306 44332
L75268 44370
L75231 44389
" />
<path d="M50170 49912
L50170 50099
L49776 50099
" />
<path d="M49964 49649
L49964 49781
" />
<path d="M50170 49781
L49776 49781
L49776 49593
" />
<path d="M49964 49443
L49964 49312
" />
<path d="M50170 49256
L50170 49443
L49776 49443
L49776 49256
" />
<path d="M50170 48881
L50170 49106
" />
<path d="M50170 48993
L49776 48993
L49832 49031
L49870 49068
L49889 49106
" />
<path d="M52287 44670
L52100 44670
L52100 44276
" />
<path d="M52550 44464
L52418 44464
" />
<path d="M52418 44670
L52418 44276
L52606 44276
" />
<path d="M52756 44464
L52887 44464
" />
<path d="M52943 44670
L52756 44670
L52756 44276
L52943 44276
" />
<path d="M53112 44670
L53112 44276
" />
<path d="M53299 44670
L53299 44276
L53524 44670
L53524 44276
" />
<path d="M53918 44670
L53693 44670
" />
<path d="M53806 44670
L53806 44276
L53768 44332
L53731 44370
L53693 44389
" />
<path d="M55670 49921
L55670 50109
L55276 50109
" />
<path d="M55464 49659
L55464 49790
" />
<path d="M55670 49790
L55276 49790
L55276 49603
" />
<path d="M55651 49471
L55670 49415
L55670 49321
L55651 49284
L55632 49265
L55595 49246
L55557 49246
L55520 49265
L55501 49284
L55482 49321
L55464 49396
L55445 49434
L55426 49453
L55389 49471
L55351 49471
L55314 49453
L55295 49434
L55276 49396
L55276 49303
L55295 49246
" />
<path d="M55670 48871
L55670 49096
" />
<path d="M55670 48984
L55276 48984
L55332 49021
L55370 49059
L55389 49096
" />
<path d="M57778 44670
L57590 44670
L57590 44276
" />
<path d="M58040 44464
L57909 44464
" />
<path d="M57909 44670
L57909 44276
L58096 44276
" />
<path d="M58228 44651
L58284 44670
L58378 44670
L58415 44651
L58434 44632
L58453 44595
L58453 44557
L58434 44520
L58415 44501
L58378 44482
L58303 44464
L58265 44445
L58246 44426
L58228 44389
L58228 44351
L58246 44314
L58265 44295
L58303 44276
L58396 44276
L58453 44295
" />
<path d="M58621 44670
L58621 44276
" />
<path d="M58809 44670
L58809 44276
L59034 44670
L59034 44276
" />
<path d="M59428 44670
L59203 44670
" />
<path d="M59315 44670
L59315 44276
L59278 44332
L59240 44370
L59203 44389
" />
<path d="M66170 37940
L65982 38071
" />
<path d="M66170 38165
L65776 38165
L65776 38015
L65795 37978
L65814 37959
L65851 37940
L65907 37940
L65945 37959
L65964 37978
L65982 38015
L65982 38165
" />
<path d="M65964 37640
L65982 37584
L66001 37565
L66038 37546
L66095 37546
L66132 37565
L66151 37584
L66170 37621
L66170 37771
L65776 37771
L65776 37640
L65795 37603
L65814 37584
L65851 37565
L65889 37565
L65926 37584
L65945 37603
L65964 37640
L65964 37771
" />
<path d="M65964 37378
L65964 37246
" />
<path d="M66170 37190
L66170 37378
L65776 37378
L65776 37190
" />
<path d="M66170 36815
L66170 37040
" />
<path d="M66170 36928
L65776 36928
L65832 36965
L65870 37003
L65889 37040
" />
<path d="M68259 38670
L68128 38482
" />
<path d="M68034 38670
L68034 38276
L68184 38276
L68221 38295
L68240 38314
L68259 38351
L68259 38407
L68240 38445
L68221 38464
L68184 38482
L68034 38482
" />
<path d="M68559 38464
L68615 38482
L68634 38501
L68653 38538
L68653 38595
L68634 38632
L68615 38651
L68578 38670
L68428 38670
L68428 38276
L68559 38276
L68596 38295
L68615 38314
L68634 38351
L68634 38389
L68615 38426
L68596 38445
L68559 38464
L68428 38464
" />
<path d="M68821 38464
L68953 38464
" />
<path d="M69009 38670
L68821 38670
L68821 38276
L69009 38276
" />
<path d="M69178 38670
L69178 38276
" />
<path d="M69365 38670
L69365 38276
L69590 38670
L69590 38276
" />
<path d="M69984 38670
L69759 38670
" />
<path d="M69871 38670
L69871 38276
L69834 38332
L69796 38370
L69759 38389
" />
<path d="M71670 37949
L71482 38081
" />
<path d="M71670 38174
L71276 38174
L71276 38024
L71295 37987
L71314 37968
L71351 37949
L71407 37949
L71445 37968
L71464 37987
L71482 38024
L71482 38174
" />
<path d="M71464 37649
L71482 37593
L71501 37574
L71538 37556
L71595 37556
L71632 37574
L71651 37593
L71670 37631
L71670 37781
L71276 37781
L71276 37649
L71295 37612
L71314 37593
L71351 37574
L71389 37574
L71426 37593
L71445 37612
L71464 37649
L71464 37781
" />
<path d="M71651 37406
L71670 37350
L71670 37256
L71651 37218
L71632 37200
L71595 37181
L71557 37181
L71520 37200
L71501 37218
L71482 37256
L71464 37331
L71445 37368
L71426 37387
L71389 37406
L71351 37406
L71314 37387
L71295 37368
L71276 37331
L71276 37237
L71295 37181
" />
<path d="M71670 36806
L71670 37031
" />
<path d="M71670 36918
L71276 36918
L71332 36956
L71370 36993
L71389 37031
" />
<path d="M73750 38670
L73618 38482
" />
<path d="M73525 38670
L73525 38276
L73675 38276
L73712 38295
L73731 38314
L73750 38351
L73750 38407
L73731 38445
L73712 38464
L73675 38482
L73525 38482
" />
<path d="M74050 38464
L74106 38482
L74125 38501
L74143 38538
L74143 38595
L74125 38632
L74106 38651
L74068 38670
L73918 38670
L73918 38276
L74050 38276
L74087 38295
L74106 38314
L74125 38351
L74125 38389
L74106 38426
L74087 38445
L74050 38464
L73918 38464
" />
<path d="M74293 38651
L74350 38670
L74443 38670
L74481 38651
L74500 38632
L74518 38595
L74518 38557
L74500 38520
L74481 38501
L74443 38482
L74368 38464
L74331 38445
L74312 38426
L74293 38389
L74293 38351
L74312 38314
L74331 38295
L74368 38276
L74462 38276
L74518 38295
" />
<path d="M74687 38670
L74687 38276
" />
<path d="M74874 38670
L74874 38276
L75099 38670
L75099 38276
" />
<path d="M75493 38670
L75268 38670
" />
<path d="M75381 38670
L75381 38276
L75343 38332
L75306 38370
L75268 38389
" />
<path d="M50170 37912
L49982 38043
" />
<path d="M50170 38137
L49776 38137
L49776 37987
L49795 37949
L49814 37931
L49851 37912
L49907 37912
L49945 37931
L49964 37949
L49982 37987
L49982 38137
" />
<path d="M49964 37612
L49964 37743
" />
<path d="M50170 37743
L49776 37743
L49776 37556
" />
<path d="M49964 37406
L49964 37275
" />
<path d="M50170 37218
L50170 37406
L49776 37406
L49776 37218
" />
<path d="M50170 36843
L50170 37068
" />
<path d="M50170 36956
L49776 36956
L49832 36993
L49870 37031
L49889 37068
" />
<path d="M52287 38670
L52156 38482
" />
<path d="M52062 38670
L52062 38276
L52212 38276
L52250 38295
L52268 38314
L52287 38351
L52287 38407
L52268 38445
L52250 38464
L52212 38482
L52062 38482
" />
<path d="M52587 38464
L52456 38464
" />
<path d="M52456 38670
L52456 38276
L52643 38276
" />
<path d="M52793 38464
L52925 38464
" />
<path d="M52981 38670
L52793 38670
L52793 38276
L52981 38276
" />
<path d="M53149 38670
L53149 38276
" />
<path d="M53337 38670
L53337 38276
L53562 38670
L53562 38276
" />
<path d="M53956 38670
L53731 38670
" />
<path d="M53843 38670
L53843 38276
L53806 38332
L53768 38370
L53731 38389
" />
<path d="M55670 37921
L55482 38053
" />
<path d="M55670 38146
L55276 38146
L55276 37996
L55295 37959
L55314 37940
L55351 37921
L55407 37921
L55445 37940
L55464 37959
L55482 37996
L55482 38146
" />
<path d="M55464 37621
L55464 37753
" />
<path d="M55670 37753
L55276 37753
L55276 37565
" />
<path d="M55651 37434
L55670 37378
L55670 37284
L55651 37246
L55632 37228
L55595 37209
L55557 37209
L55520 37228
L55501 37246
L55482 37284
L55464 37359
L55445 37396
L55426 37415
L55389 37434
L55351 37434
L55314 37415
L55295 37396
L55276 37359
L55276 37265
L55295 37209
" />
<path d="M55670 36834
L55670 37059
" />
<path d="M55670 36946
L55276 36946
L55332 36984
L55370 37021
L55389 37059
" />
<path d="M57778 38670
L57646 38482
" />
<path d="M57553 38670
L57553 38276
L57703 38276
L57740 38295
L57759 38314
L57778 38351
L57778 38407
L57759 38445
L57740 38464
L57703 38482
L57553 38482
" />
<path d="M58078 38464
L57946 38464
" />
<path d="M57946 38670
L57946 38276
L58134 38276
" />
<path d="M58265 38651
L58321 38670
L58415 38670
L58453 38651
L58471 38632
L58490 38595
L58490 38557
L58471 38520
L58453 38501
L58415 38482
L58340 38464
L58303 38445
L58284 38426
L58265 38389
L58265 38351
L58284 38314
L58303 38295
L58340 38276
L58434 38276
L58490 38295
" />
<path d="M58659 38670
L58659 38276
" />
<path d="M58846 38670
L58846 38276
L59071 38670
L59071 38276
" />
<path d="M59465 38670
L59240 38670
" />
<path d="M59353 38670
L59353 38276
L59315 38332
L59278 38370
L59240 38389
" />
<path d="M42725 41151
L42781 41170
L42875 41170
L42912 41151
L42931 41132
L42950 41095
L42950 41057
L42931 41020
L42912 41001
L42875 40982
L42800 40964
L42762 40945
L42743 40926
L42725 40889
L42725 40851
L42743 40814
L42762 40795
L42800 40776
L42893 40776
L42950 40795
" />
<path d="M43118 40964
L43250 40964
" />
<path d="M43306 41170
L43118 41170
L43118 40776
L43306 40776
" />
<path d="M43475 41170
L43475 40776
L43700 41170
L43700 40776
" />
<path d="M43868 41151
L43925 41170
L44018 41170
L44056 41151
L44074 41132
L44093 41095
L44093 41057
L44074 41020
L44056 41001
L44018 40982
L43943 40964
L43906 40945
L43887 40926
L43868 40889
L43868 40851
L43887 40814
L43906 40795
L43943 40776
L44037 40776
L44093 40795
" />
<path d="M44337 40776
L44412 40776
L44449 40795
L44487 40832
L44506 40907
L44506 41038
L44487 41113
L44449 41151
L44412 41170
L44337 41170
L44299 41151
L44262 41113
L44243 41038
L44243 40907
L44262 40832
L44299 40795
L44337 40776
" />
<path d="M44899 41170
L44768 40982
" />
<path d="M44674 41170
L44674 40776
L44824 40776
L44862 40795
L44881 40814
L44899 40851
L44899 40907
L44881 40945
L44862 40964
L44824 40982
L44674 40982
" />
<path d="M45274 41170
L45049 41170
" />
<path d="M45162 41170
L45162 40776
L45124 40832
L45087 40870
L45049 40889
" />
<path d="M44853 40151
L44909 40170
L45003 40170
L45040 40151
L45059 40132
L45078 40095
L45078 40057
L45059 40020
L45040 40001
L45003 39982
L44928 39964
L44890 39945
L44872 39926
L44853 39889
L44853 39851
L44872 39814
L44890 39795
L44928 39776
L45022 39776
L45078 39795
" />
<path d="M45247 39964
L45378 39964
" />
<path d="M45434 40170
L45247 40170
L45247 39776
L45434 39776
" />
<path d="M45603 40170
L45603 39776
L45828 40170
L45828 39776
" />
<path d="M45997 40151
L46053 40170
L46146 40170
L46184 40151
L46203 40132
L46221 40095
L46221 40057
L46203 40020
L46184 40001
L46146 39982
L46071 39964
L46034 39945
L46015 39926
L45997 39889
L45997 39851
L46015 39814
L46034 39795
L46071 39776
L46165 39776
L46221 39795
" />
<path d="M46465 39776
L46540 39776
L46578 39795
L46615 39832
L46634 39907
L46634 40038
L46615 40113
L46578 40151
L46540 40170
L46465 40170
L46428 40151
L46390 40113
L46371 40038
L46371 39907
L46390 39832
L46428 39795
L46465 39776
" />
<path d="M47028 40170
L46896 39982
" />
<path d="M46803 40170
L46803 39776
L46953 39776
L46990 39795
L47009 39814
L47028 39851
L47028 39907
L47009 39945
L46990 39964
L46953 39982
L46803 39982
" />
<path d="M47403 40170
L47178 40170
" />
<path d="M47290 40170
L47290 39776
L47253 39832
L47215 39870
L47178 39889
" />
<path d="M47571 40170
L47571 39776
L47721 39776
L47759 39795
L47778 39814
L47796 39851
L47796 39907
L47778 39945
L47759 39964
L47721 39982
L47571 39982
" />
<path d="M47965 40170
L47965 39776
" />
<path d="M48152 40170
L48152 39776
L48377 40170
L48377 39776
" />
<path d="M48546 40151
L48602 40170
L48696 40170
L48734 40151
L48752 40132
L48771 40095
L48771 40057
L48752 40020
L48734 40001
L48696 39982
L48621 39964
L48584 39945
L48565 39926
L48546 39889
L48546 39851
L48565 39814
L48584 39795
L48621 39776
L48715 39776
L48771 39795
" />
<path d="M49146 40170
L48921 40170
" />
<path d="M49034 40170
L49034 39776
L48996 39832
L48959 39870
L48921 39889
" />
<path d="M42725 47151
L42781 47170
L42875 47170
L42912 47151
L42931 47132
L42950 47095
L42950 47057
L42931 47020
L42912 47001
L42875 46982
L42800 46964
L42762 46945
L42743 46926
L42725 46889
L42725 46851
L42743 46814
L42762 46795
L42800 46776
L42893 46776
L42950 46795
" />
<path d="M43118 46964
L43250 46964
" />
<path d="M43306 47170
L43118 47170
L43118 46776
L43306 46776
" />
<path d="M43475 47170
L43475 46776
L43700 47170
L43700 46776
" />
<path d="M43868 47151
L43925 47170
L44018 47170
L44056 47151
L44074 47132
L44093 47095
L44093 47057
L44074 47020
L44056 47001
L44018 46982
L43943 46964
L43906 46945
L43887 46926
L43868 46889
L43868 46851
L43887 46814
L43906 46795
L43943 46776
L44037 46776
L44093 46795
" />
<path d="M44337 46776
L44412 46776
L44449 46795
L44487 46832
L44506 46907
L44506 47038
L44487 47113
L44449 47151
L44412 47170
L44337 47170
L44299 47151
L44262 47113
L44243 47038
L44243 46907
L44262 46832
L44299 46795
L44337 46776
" />
<path d="M44899 47170
L44768 46982
" />
<path d="M44674 47170
L44674 46776
L44824 46776
L44862 46795
L44881 46814
L44899 46851
L44899 46907
L44881 46945
L44862 46964
L44824 46982
L44674 46982
" />
<path d="M45049 46814
L45068 46795
L45106 46776
L45199 46776
L45237 46795
L45256 46814
L45274 46851
L45274 46889
L45256 46945
L45031 47170
L45274 47170
" />
<path d="M44853 46151
L44909 46170
L45003 46170
L45040 46151
L45059 46132
L45078 46095
L45078 46057
L45059 46020
L45040 46001
L45003 45982
L44928 45964
L44890 45945
L44872 45926
L44853 45889
L44853 45851
L44872 45814
L44890 45795
L44928 45776
L45022 45776
L45078 45795
" />
<path d="M45247 45964
L45378 45964
" />
<path d="M45434 46170
L45247 46170
L45247 45776
L45434 45776
" />
<path d="M45603 46170
L45603 45776
L45828 46170
L45828 45776
" />
<path d="M45997 46151
L46053 46170
L46146 46170
L46184 46151
L46203 46132
L46221 46095
L46221 46057
L46203 46020
L46184 46001
L46146 45982
L46071 45964
L46034 45945
L46015 45926
L45997 45889
L45997 45851
L46015 45814
L46034 45795
L46071 45776
L46165 45776
L46221 45795
" />
<path d="M46465 45776
L46540 45776
L46578 45795
L46615 45832
L46634 45907
L46634 46038
L46615 46113
L46578 46151
L46540 46170
L46465 46170
L46428 46151
L46390 46113
L46371 46038
L46371 45907
L46390 45832
L46428 45795
L46465 45776
" />
<path d="M47028 46170
L46896 45982
" />
<path d="M46803 46170
L46803 45776
L46953 45776
L46990 45795
L47009 45814
L47028 45851
L47028 45907
L47009 45945
L46990 45964
L46953 45982
L46803 45982
" />
<path d="M47178 45814
L47196 45795
L47234 45776
L47328 45776
L47365 45795
L47384 45814
L47403 45851
L47403 45889
L47384 45945
L47159 46170
L47403 46170
" />
<path d="M47571 46170
L47571 45776
L47721 45776
L47759 45795
L47778 45814
L47796 45851
L47796 45907
L47778 45945
L47759 45964
L47721 45982
L47571 45982
" />
<path d="M47965 46170
L47965 45776
" />
<path d="M48152 46170
L48152 45776
L48377 46170
L48377 45776
" />
<path d="M48546 46151
L48602 46170
L48696 46170
L48734 46151
L48752 46132
L48771 46095
L48771 46057
L48752 46020
L48734 46001
L48696 45982
L48621 45964
L48584 45945
L48565 45926
L48546 45889
L48546 45851
L48565 45814
L48584 45795
L48621 45776
L48715 45776
L48771 45795
" />
<path d="M49146 46170
L48921 46170
" />
<path d="M49034 46170
L49034 45776
L48996 45832
L48959 45870
L48921 45889
" />
<path d="M34725 41151
L34781 41170
L34875 41170
L34912 41151
L34931 41132
L34950 41095
L34950 41057
L34931 41020
L34912 41001
L34875 40982
L34800 40964
L34762 40945
L34743 40926
L34725 40889
L34725 40851
L34743 40814
L34762 40795
L34800 40776
L34893 40776
L34950 40795
" />
<path d="M35118 40964
L35250 40964
" />
<path d="M35306 41170
L35118 41170
L35118 40776
L35306 40776
" />
<path d="M35475 41170
L35475 40776
L35700 41170
L35700 40776
" />
<path d="M35868 41151
L35925 41170
L36018 41170
L36056 41151
L36074 41132
L36093 41095
L36093 41057
L36074 41020
L36056 41001
L36018 40982
L35943 40964
L35906 40945
L35887 40926
L35868 40889
L35868 40851
L35887 40814
L35906 40795
L35943 40776
L36037 40776
L36093 40795
" />
<path d="M36337 40776
L36412 40776
L36449 40795
L36487 40832
L36506 40907
L36506 41038
L36487 41113
L36449 41151
L36412 41170
L36337 41170
L36299 41151
L36262 41113
L36243 41038
L36243 40907
L36262 40832
L36299 40795
L36337 40776
" />
<path d="M36899 41170
L36768 40982
" />
<path d="M36674 41170
L36674 40776
L36824 40776
L36862 40795
L36881 40814
L36899 40851
L36899 40907
L36881 40945
L36862 40964
L36824 40982
L36674 40982
" />
<path d="M37031 40776
L37274 40776
L37143 40926
L37199 40926
L37237 40945
L37256 40964
L37274 41001
L37274 41095
L37256 41132
L37237 41151
L37199 41170
L37087 41170
L37049 41151
L37031 41132
" />
<path d="M36853 40151
L36909 40170
L37003 40170
L37040 40151
L37059 40132
L37078 40095
L37078 40057
L37059 40020
L37040 40001
L37003 39982
L36928 39964
L36890 39945
L36872 39926
L36853 39889
L36853 39851
L36872 39814
L36890 39795
L36928 39776
L37022 39776
L37078 39795
" />
<path d="M37247 39964
L37378 39964
" />
<path d="M37434 40170
L37247 40170
L37247 39776
L37434 39776
" />
<path d="M37603 40170
L37603 39776
L37828 40170
L37828 39776
" />
<path d="M37997 40151
L38053 40170
L38146 40170
L38184 40151
L38203 40132
L38221 40095
L38221 40057
L38203 40020
L38184 40001
L38146 39982
L38071 39964
L38034 39945
L38015 39926
L37997 39889
L37997 39851
L38015 39814
L38034 39795
L38071 39776
L38165 39776
L38221 39795
" />
<path d="M38465 39776
L38540 39776
L38578 39795
L38615 39832
L38634 39907
L38634 40038
L38615 40113
L38578 40151
L38540 40170
L38465 40170
L38428 40151
L38390 40113
L38371 40038
L38371 39907
L38390 39832
L38428 39795
L38465 39776
" />
<path d="M39028 40170
L38896 39982
" />
<path d="M38803 40170
L38803 39776
L38953 39776
L38990 39795
L39009 39814
L39028 39851
L39028 39907
L39009 39945
L38990 39964
L38953 39982
L38803 39982
" />
<path d="M39159 39776
L39403 39776
L39271 39926
L39328 39926
L39365 39945
L39384 39964
L39403 40001
L39403 40095
L39384 40132
L39365 40151
L39328 40170
L39215 40170
L39178 40151
L39159 40132
" />
<path d="M39571 40170
L39571 39776
L39721 39776
L39759 39795
L39778 39814
L39796 39851
L39796 39907
L39778 39945
L39759 39964
L39721 39982
L39571 39982
" />
<path d="M39965 40170
L39965 39776
" />
<path d="M40152 40170
L40152 39776
L40377 40170
L40377 39776
" />
<path d="M40546 40151
L40602 40170
L40696 40170
L40734 40151
L40752 40132
L40771 40095
L40771 40057
L40752 40020
L40734 40001
L40696 39982
L40621 39964
L40584 39945
L40565 39926
L40546 39889
L40546 39851
L40565 39814
L40584 39795
L40621 39776
L40715 39776
L40771 39795
" />
<path d="M41146 40170
L40921 40170
" />
<path d="M41034 40170
L41034 39776
L40996 39832
L40959 39870
L40921 39889
" />
<path d="M34725 47151
L34781 47170
L34875 47170
L34912 47151
L34931 47132
L34950 47095
L34950 47057
L34931 47020
L34912 47001
L34875 46982
L34800 46964
L34762 46945
L34743 46926
L34725 46889
L34725 46851
L34743 46814
L34762 46795
L34800 46776
L34893 46776
L34950 46795
" />
<path d="M35118 46964
L35250 46964
" />
<path d="M35306 47170
L35118 47170
L35118 46776
L35306 46776
" />
<path d="M35475 47170
L35475 46776
L35700 47170
L35700 46776
" />
<path d="M35868 47151
L35925 47170
L36018 47170
L36056 47151
L36074 47132
L36093 47095
L36093 47057
L36074 47020
L36056 47001
L36018 46982
L35943 46964
L35906 46945
L35887 46926
L35868 46889
L35868 46851
L35887 46814
L35906 46795
L35943 46776
L36037 46776
L36093 46795
" />
<path d="M36337 46776
L36412 46776
L36449 46795
L36487 46832
L36506 46907
L36506 47038
L36487 47113
L36449 47151
L36412 47170
L36337 47170
L36299 47151
L36262 47113
L36243 47038
L36243 46907
L36262 46832
L36299 46795
L36337 46776
" />
<path d="M36899 47170
L36768 46982
" />
<path d="M36674 47170
L36674 46776
L36824 46776
L36862 46795
L36881 46814
L36899 46851
L36899 46907
L36881 46945
L36862 46964
L36824 46982
L36674 46982
" />
<path d="M37237 46907
L37237 47170
" />
<path d="M37143 46757
L37049 47038
L37293 47038
" />
<path d="M36853 46151
L36909 46170
L37003 46170
L37040 46151
L37059 46132
L37078 46095
L37078 46057
L37059 46020
L37040 46001
L37003 45982
L36928 45964
L36890 45945
L36872 45926
L36853 45889
L36853 45851
L36872 45814
L36890 45795
L36928 45776
L37022 45776
L37078 45795
" />
<path d="M37247 45964
L37378 45964
" />
<path d="M37434 46170
L37247 46170
L37247 45776
L37434 45776
" />
<path d="M37603 46170
L37603 45776
L37828 46170
L37828 45776
" />
<path d="M37997 46151
L38053 46170
L38146 46170
L38184 46151
L38203 46132
L38221 46095
L38221 46057
L38203 46020
L38184 46001
L38146 45982
L38071 45964
L38034 45945
L38015 45926
L37997 45889
L37997 45851
L38015 45814
L38034 45795
L38071 45776
L38165 45776
L38221 45795
" />
<path d="M38465 45776
L38540 45776
L38578 45795
L38615 45832
L38634 45907
L38634 46038
L38615 46113
L38578 46151
L38540 46170
L38465 46170
L38428 46151
L38390 46113
L38371 46038
L38371 45907
L38390 45832
L38428 45795
L38465 45776
" />
<path d="M39028 46170
L38896 45982
" />
<path d="M38803 46170
L38803 45776
L38953 45776
L38990 45795
L39009 45814
L39028 45851
L39028 45907
L39009 45945
L38990 45964
L38953 45982
L38803 45982
" />
<path d="M39365 45907
L39365 46170
" />
<path d="M39271 45757
L39178 46038
L39421 46038
" />
<path d="M39571 46170
L39571 45776
L39721 45776
L39759 45795
L39778 45814
L39796 45851
L39796 45907
L39778 45945
L39759 45964
L39721 45982
L39571 45982
" />
<path d="M39965 46170
L39965 45776
" />
<path d="M40152 46170
L40152 45776
L40377 46170
L40377 45776
" />
<path d="M40546 46151
L40602 46170
L40696 46170
L40734 46151
L40752 46132
L40771 46095
L40771 46057
L40752 46020
L40734 46001
L40696 45982
L40621 45964
L40584 45945
L40565 45926
L40546 45889
L40546 45851
L40565 45814
L40584 45795
L40621 45776
L40715 45776
L40771 45795
" />
<path d="M41146 46170
L40921 46170
" />
<path d="M41034 46170
L41034 45776
L40996 45832
L40959 45870
L40921 45889
" />
<path d="M78881 35407
L78975 35670
L79068 35407
" />
<path d="M79387 35651
L79350 35670
L79275 35670
L79237 35651
L79218 35632
L79200 35595
L79200 35482
L79218 35445
L79237 35426
L79275 35407
L79350 35407
L79387 35426
" />
<path d="M79724 35651
L79687 35670
L79612 35670
L79574 35651
L79556 35632
L79537 35595
L79537 35482
L79556 35445
L79574 35426
L79612 35407
L79687 35407
L79724 35426
" />
<path d="M80099 35670
L79874 35670
" />
<path d="M79987 35670
L79987 35276
L79949 35332
L79912 35370
L79874 35389
" />
</g>
<g style="fill:#008484; fill-opacity:0.0; 
stroke:#008484; stroke-width:59.0551; stroke-opacity:1; 
stroke-linecap:round; stroke-linejoin:round;">
<path d="M49110 36889
L49110 37500
" />
<path d="M47889 37500
L47889 36889
" />
<path d="M47889 36889
L49110 36889
" />
<path d="M48000 38000
L49000 38000
" />
<path d="M46110 36889
L46110 37500
" />
<path d="M44889 37500
L44889 36889
" />
<path d="M44889 36889
L46110 36889
" />
<path d="M45000 38000
L46000 38000
" />
<path d="M80110 48889
L80110 49500
" />
<path d="M78889 49500
L78889 48889
" />
<path d="M78889 48889
L80110 48889
" />
<path d="M79000 50000
L80000 50000
" />
<path d="M68500 50000
L70500 50000
" />
<path d="M70500 50000
L70500 49000
" />
<path d="M70500 49000
L68500 49000
" />
<path d="M67389 48889
L68000 48889
" />
<path d="M68500 49000
L68500 50000
" />
<path d="M68000 50110
L67389 50110
" />
<path d="M67389 50110
L67389 48889
" />
<path d="M69610 45889
L69610 46500
" />
<path d="M68389 46500
L68389 45889
" />
<path d="M68389 45889
L69610 45889
" />
<path d="M68500 47000
L69500 47000
" />
<path d="M74000 50000
L76000 50000
" />
<path d="M76000 50000
L76000 49000
" />
<path d="M76000 49000
L74000 49000
" />
<path d="M72889 48889
L73500 48889
" />
<path d="M74000 49000
L74000 50000
" />
<path d="M73500 50110
L72889 50110
" />
<path d="M72889 50110
L72889 48889
" />
<path d="M75110 45889
L75110 46500
" />
<path d="M73889 46500
L73889 45889
" />
<path d="M73889 45889
L75110 45889
" />
<path d="M74000 47000
L75000 47000
" />
<path d="M52500 50000
L54500 50000
" />
<path d="M54500 50000
L54500 49000
" />
<path d="M54500 49000
L52500 49000
" />
<path d="M51389 48889
L52000 48889
" />
<path d="M52500 49000
L52500 50000
" />
<path d="M52000 50110
L51389 50110
" />
<path d="M51389 50110
L51389 48889
" />
<path d="M53610 45889
L53610 46500
" />
<path d="M52389 46500
L52389 45889
" />
<path d="M52389 45889
L53610 45889
" />
<path d="M52500 47000
L53500 47000
" />
<path d="M58000 50000
L60000 50000
" />
<path d="M60000 50000
L60000 49000
" />
<path d="M60000 49000
L58000 49000
" />
<path d="M56889 48889
L57500 48889
" />
<path d="M58000 49000
L58000 50000
" />
<path d="M57500 50110
L56889 50110
" />
<path d="M56889 50110
L56889 48889
" />
<path d="M59110 45889
L59110 46500
" />
<path d="M57889 46500
L57889 45889
" />
<path d="M57889 45889
L59110 45889
" />
<path d="M58000 47000
L59000 47000
" />
<path d="M68500 38000
L70500 38000
" />
<path d="M70500 38000
L70500 37000
" />
<path d="M70500 37000
L68500 37000
" />
<path d="M67389 36889
L68000 36889
" />
<path d="M68500 37000
L68500 38000
" />
<path d="M68000 38110
L67389 38110
" />
<path d="M67389 38110
L67389 36889
" />
<path d="M69610 39889
L69610 40500
" />
<path d="M68389 40500
L68389 39889
" />
<path d="M68389 39889
L69610 39889
" />
<path d="M68500 41000
L69500 41000
" />
<path d="M74000 38000
L76000 38000
" />
<path d="M76000 38000
L76000 37000
" />
<path d="M76000 37000
L74000 37000
" />
<path d="M72889 36889
L73500 36889
" />
<path d="M74000 37000
L74000 38000
" />
<path d="M73500 38110
L72889 38110
" />
<path d="M72889 38110
L72889 36889
" />
<path d="M75110 39889
L75110 40500
" />
<path d="M73889 40500
L73889 39889
" />
<path d="M73889 39889
L75110 39889
" />
<path d="M74000 41000
L75000 41000
" />
<path d="M52500 38000
L54500 38000
" />
<path d="M54500 38000
L54500 37000
" />
<path d="M54500 37000
L52500 37000
" />
<path d="M51389 36889
L52000 36889
" />
<path d="M52500 37000
L52500 38000
" />
<path d="M52000 38110
L51389 38110
" />
<path d="M51389 38110
L51389 36889
" />
<path d="M53610 39889
L53610 40500
" />
<path d="M52389 40500
L52389 39889
" />
<path d="M52389 39889
L53610 39889
" />
<path d="M52500 41000
L53500 41000
" />
<path d="M58000 38000
L60000 38000
" />
<path d="M60000 38000
L60000 37000
" />
<path d="M60000 37000
L58000 37000
" />
<path d="M56889 36889
L57500 36889
" />
<path d="M58000 37000
L58000 38000
" />
<path d="M57500 38110
L56889 38110
" />
<path d="M56889 38110
L56889 36889
" />
<path d="M59110 39889
L59110 40500
" />
<path d="M57889 40500
L57889 39889
" />
<path d="M57889 39889
L59110 39889
" />
<path d="M58000 41000
L59000 41000
" />
<path d="M44610 42389
L44610 43000
" />
<path d="M43389 43000
L43389 42389
" />
<path d="M43389 42389
L44610 42389
" />
<path d="M43500 43500
L44500 43500
" />
<path d="M46500 42500
L46500 44500
" />
<path d="M46500 44500
L47500 44500
" />
<path d="M47500 44500
L47500 42500
" />
<path d="M47610 41389
L47610 42000
" />
<path d="M47500 42500
L46500 42500
" />
<path d="M46389 42000
L46389 41389
" />
<path d="M46389 41389
L47610 41389
" />
<path d="M44610 48389
L44610 49000
" />
<path d="M43389 49000
L43389 48389
" />
<path d="M43389 48389
L44610 48389
" />
<path d="M43500 49500
L44500 49500
" />
<path d="M46500 48500
L46500 50500
" />
<path d="M46500 50500
L47500 50500
" />
<path d="M47500 50500
L47500 48500
" />
<path d="M47610 47389
L47610 48000
" />
<path d="M47500 48500
L46500 48500
" />
<path d="M46389 48000
L46389 47389
" />
<path d="M46389 47389
L47610 47389
" />
<path d="M36610 42389
L36610 43000
" />
<path d="M35389 43000
L35389 42389
" />
<path d="M35389 42389
L36610 42389
" />
<path d="M35500 43500
L36500 43500
" />
<path d="M38500 42500
L38500 44500
" />
<path d="M38500 44500
L39500 44500
" />
<path d="M39500 44500
L39500 42500
" />
<path d="M39610 41389
L39610 42000
" />
<path d="M39500 42500
L38500 42500
" />
<path d="M38389 42000
L38389 41389
" />
<path d="M38389 41389
L39610 41389
" />
<path d="M36610 48389
L36610 49000
" />
<path d="M35389 49000
L35389 48389
" />
<path d="M35389 48389
L36610 48389
" />
<path d="M35500 49500
L36500 49500
" />
<path d="M38500 48500
L38500 50500
" />
<path d="M38500 50500
L39500 50500
" />
<path d="M39500 50500
L39500 48500
" />
<path d="M39610 47389
L39610 48000
" />
<path d="M39500 48500
L38500 48500
" />
<path d="M38389 48000
L38389 47389
" />
<path d="M38389 47389
L39610 47389
" />
<path d="M80110 36889
L80110 37500
" />
<path d="M78889 37500
L78889 36889
" />
<path d="M78889 36889
L80110 36889
" />
<path d="M79000 38000
L80000 38000
" />
</g> 
</svg>
