solid stompy_brain_mount
facet normal 0.0 0.0 -1.0
  outer loop
    vertex 0.0 10.0 0.0
    vertex 2.7277568135664545 5.8500000000000005 0.0
    vertex 0.0 0.0 0.0
  endloop
endfacet
facet normal 0.0 0.0 -1.0
  outer loop
    vertex 2.7277568135664545 5.8500000000000005 0.0
    vertex 0.0 10.0 0.0
    vertex 2.9979184719828686 6.20208152801713 0.0
  endloop
endfacet
facet normal 0.0 0.0 -1.0
  outer loop
    vertex 2.9979184719828686 6.20208152801713 0.0
    vertex 0.0 10.0 0.0
    vertex 3.350000000000001 6.472243186433547 0.0
  endloop
endfacet
facet normal 0.0 0.0 -1.0
  outer loop
    vertex 3.350000000000001 6.472243186433547 0.0
    vertex 0.0 10.0 0.0
    vertex 3.760007623325715 6.642073904691416 0.0
  endloop
endfacet
facet normal 0.0 0.0 -1.0
  outer loop
    vertex 3.760007623325715 6.642073904691416 0.0
    vertex 0.0 10.0 0.0
    vertex 4.199999999999999 6.699999999999999 0.0
  endloop
endfacet
facet normal 0.0 0.0 -1.0
  outer loop
    vertex 4.199999999999999 6.699999999999999 0.0
    vertex 0.0 10.0 0.0
    vertex 55.0 10.0 0.0
  endloop
endfacet
facet normal 0.0 0.0 -1.0
  outer loop
    vertex 0.0 0.0 0.0
    vertex 2.7277568135664545 5.8500000000000005 0.0
    vertex 2.557926095308584 5.439992376674287 0.0
  endloop
endfacet
facet normal 0.0 0.0 -1.0
  outer loop
    vertex 0.0 0.0 0.0
    vertex 2.557926095308584 5.439992376674287 0.0
    vertex 2.4999999999999996 5.0 0.0
  endloop
endfacet
facet normal 0.0 0.0 -1.0
  outer loop
    vertex 4.199999999999999 6.699999999999999 0.0
    vertex 55.0 10.0 0.0
    vertex 50.80000000000001 6.699999999999997 0.0
  endloop
endfacet
facet normal 0.0 0.0 -1.0
  outer loop
    vertex 50.80000000000001 6.699999999999997 0.0
    vertex 55.0 10.0 0.0
    vertex 51.239992376674294 6.642073904691413 0.0
  endloop
endfacet
facet normal 0.0 0.0 -1.0
  outer loop
    vertex 51.239992376674294 6.642073904691413 0.0
    vertex 55.0 10.0 0.0
    vertex 51.650000000000006 6.472243186433544 0.0
  endloop
endfacet
facet normal 0.0 0.0 -1.0
  outer loop
    vertex 51.650000000000006 6.472243186433544 0.0
    vertex 55.0 10.0 0.0
    vertex 52.002081528017136 6.202081528017128 0.0
  endloop
endfacet
facet normal 0.0 0.0 -1.0
  outer loop
    vertex 52.002081528017136 6.202081528017128 0.0
    vertex 55.0 10.0 0.0
    vertex 52.27224318643355 5.849999999999999 0.0
  endloop
endfacet
facet normal 0.0 0.0 -1.0
  outer loop
    vertex 52.27224318643355 5.849999999999999 0.0
    vertex 55.0 10.0 0.0
    vertex 52.44207390469142 5.439992376674285 0.0
  endloop
endfacet
facet normal 0.0 0.0 -1.0
  outer loop
    vertex 52.44207390469142 5.439992376674285 0.0
    vertex 55.0 10.0 0.0
    vertex 52.50000000000001 5.0 0.0
  endloop
endfacet
facet normal 0.0 0.0 -1.0
  outer loop
    vertex 0.0 0.0 0.0
    vertex 2.5579260953085834 4.560007623325714 0.0
    vertex 3.9999999999999996 0.0 0.0
  endloop
endfacet
facet normal 0.0 0.0 -1.0
  outer loop
    vertex 2.5579260953085834 4.560007623325714 0.0
    vertex 0.0 0.0 0.0
    vertex 2.4999999999999996 5.0 0.0
  endloop
endfacet
facet normal 0.0 0.0 -1.0
  outer loop
    vertex 3.9999999999999996 0.0 0.0
    vertex 2.5579260953085834 4.560007623325714 0.0
    vertex 2.7277568135664536 4.15 0.0
  endloop
endfacet
facet normal 0.0 0.0 -1.0
  outer loop
    vertex 3.9999999999999996 0.0 0.0
    vertex 2.7277568135664536 4.15 0.0
    vertex 2.9979184719828686 3.7979184719828694 0.0
  endloop
endfacet
facet normal 0.0 0.0 -1.0
  outer loop
    vertex 3.9999999999999996 0.0 0.0
    vertex 2.9979184719828686 3.7979184719828694 0.0
    vertex 3.3499999999999996 3.5277568135664548 0.0
  endloop
endfacet
facet normal 0.0 0.0 -1.0
  outer loop
    vertex 3.9999999999999996 0.0 0.0
    vertex 3.3499999999999996 3.5277568135664548 0.0
    vertex 3.760007623325714 3.357926095308584 0.0
  endloop
endfacet
facet normal 0.0 0.0 -1.0
  outer loop
    vertex 3.9999999999999996 0.0 0.0
    vertex 3.760007623325714 3.357926095308584 0.0
    vertex 4.199999999999999 3.3000000000000003 0.0
  endloop
endfacet
facet normal 0.0 0.0 -1.0
  outer loop
    vertex 3.9999999999999996 0.0 0.0
    vertex 4.199999999999999 3.3000000000000003 0.0
    vertex 50.9 0.0 0.0
  endloop
endfacet
facet normal 0.0 0.0 -1.0
  outer loop
    vertex 50.9 0.0 0.0
    vertex 4.199999999999999 3.3000000000000003 0.0
    vertex 50.80000000000001 3.300000000000003 0.0
  endloop
endfacet
facet normal 0.0 0.0 -1.0
  outer loop
    vertex 50.9 0.0 0.0
    vertex 50.80000000000001 3.300000000000003 0.0
    vertex 51.239992376674294 3.3579260953085868 0.0
  endloop
endfacet
facet normal 0.0 0.0 -1.0
  outer loop
    vertex 50.9 0.0 0.0
    vertex 51.239992376674294 3.3579260953085868 0.0
    vertex 55.0 0.0 0.0
  endloop
endfacet
facet normal 0.0 0.0 -1.0
  outer loop
    vertex 55.0 0.0 0.0
    vertex 51.239992376674294 3.3579260953085868 0.0
    vertex 51.650000000000006 3.5277568135664565 0.0
  endloop
endfacet
facet normal 0.0 0.0 -1.0
  outer loop
    vertex 55.0 0.0 0.0
    vertex 51.650000000000006 3.5277568135664565 0.0
    vertex 52.002081528017136 3.7979184719828707 0.0
  endloop
endfacet
facet normal 0.0 0.0 -1.0
  outer loop
    vertex 55.0 0.0 0.0
    vertex 52.002081528017136 3.7979184719828707 0.0
    vertex 52.27224318643355 4.150000000000001 0.0
  endloop
endfacet
facet normal 0.0 0.0 -1.0
  outer loop
    vertex 55.0 0.0 0.0
    vertex 52.27224318643355 4.150000000000001 0.0
    vertex 52.44207390469142 4.560007623325714 0.0
  endloop
endfacet
facet normal 0.0 0.0 -1.0
  outer loop
    vertex 55.0 0.0 0.0
    vertex 52.44207390469142 4.560007623325714 0.0
    vertex 52.50000000000001 5.0 0.0
  endloop
endfacet
facet normal 0.0 0.0 -1.0
  outer loop
    vertex 55.0 0.0 0.0
    vertex 52.50000000000001 5.0 0.0
    vertex 55.0 10.0 0.0
  endloop
endfacet
facet normal 0.0 0.0 1.0
  outer loop
    vertex 55.0 -19.9 4.9999999999999964
    vertex 50.9 0.0 4.9999999999999964
    vertex 50.9 -19.9 4.9999999999999964
  endloop
endfacet
facet normal 0.0 0.0 1.0
  outer loop
    vertex 50.9 0.0 4.9999999999999964
    vertex 55.0 -19.9 4.9999999999999964
    vertex 51.239992376674294 3.3579260953085868 4.9999999999999964
  endloop
endfacet
facet normal 0.0 0.0 1.0
  outer loop
    vertex 51.239992376674294 3.3579260953085868 4.9999999999999964
    vertex 55.0 -19.9 4.9999999999999964
    vertex 51.650000000000006 3.5277568135664565 4.9999999999999964
  endloop
endfacet
facet normal 0.0 0.0 1.0
  outer loop
    vertex 51.650000000000006 3.5277568135664565 4.9999999999999964
    vertex 55.0 -19.9 4.9999999999999964
    vertex 52.002081528017136 3.7979184719828707 4.9999999999999964
  endloop
endfacet
facet normal 0.0 0.0 1.0
  outer loop
    vertex 52.002081528017136 3.7979184719828707 4.9999999999999964
    vertex 55.0 -19.9 4.9999999999999964
    vertex 52.27224318643355 4.150000000000001 4.9999999999999964
  endloop
endfacet
facet normal 0.0 0.0 1.0
  outer loop
    vertex 52.27224318643355 4.150000000000001 4.9999999999999964
    vertex 55.0 -19.9 4.9999999999999964
    vertex 52.44207390469142 4.560007623325714 4.9999999999999964
  endloop
endfacet
facet normal 0.0 0.0 1.0
  outer loop
    vertex 52.44207390469142 4.560007623325714 4.9999999999999964
    vertex 55.0 -19.9 4.9999999999999964
    vertex 52.50000000000001 5.0 4.9999999999999964
  endloop
endfacet
facet normal 0.0 0.0 1.0
  outer loop
    vertex 0.0 10.0 4.9999999999999964
    vertex 4.199999999999999 6.699999999999999 4.9999999999999964
    vertex 55.0 10.0 4.9999999999999964
  endloop
endfacet
facet normal 0.0 0.0 1.0
  outer loop
    vertex 4.199999999999999 6.699999999999999 4.9999999999999964
    vertex 0.0 10.0 4.9999999999999964
    vertex 3.760007623325715 6.642073904691416 4.9999999999999964
  endloop
endfacet
facet normal 0.0 0.0 1.0
  outer loop
    vertex 3.760007623325715 6.642073904691416 4.9999999999999964
    vertex 0.0 10.0 4.9999999999999964
    vertex 3.350000000000001 6.472243186433547 4.9999999999999964
  endloop
endfacet
facet normal 0.0 0.0 1.0
  outer loop
    vertex 3.350000000000001 6.472243186433547 4.9999999999999964
    vertex 0.0 10.0 4.9999999999999964
    vertex 2.9979184719828686 6.20208152801713 4.9999999999999964
  endloop
endfacet
facet normal 0.0 0.0 1.0
  outer loop
    vertex 2.9979184719828686 6.20208152801713 4.9999999999999964
    vertex 0.0 10.0 4.9999999999999964
    vertex 2.7277568135664545 5.8500000000000005 4.9999999999999964
  endloop
endfacet
facet normal 0.0 0.0 1.0
  outer loop
    vertex 2.7277568135664545 5.8500000000000005 4.9999999999999964
    vertex 0.0 10.0 4.9999999999999964
    vertex 2.557926095308584 5.439992376674287 4.9999999999999964
  endloop
endfacet
facet normal 0.0 0.0 1.0
  outer loop
    vertex 2.557926095308584 5.439992376674287 4.9999999999999964
    vertex 0.0 10.0 4.9999999999999964
    vertex 2.4999999999999996 5.0 4.9999999999999964
  endloop
endfacet
facet normal 0.0 0.0 1.0
  outer loop
    vertex 55.0 10.0 4.9999999999999964
    vertex 4.199999999999999 6.699999999999999 4.9999999999999964
    vertex 50.80000000000001 6.699999999999997 4.9999999999999964
  endloop
endfacet
facet normal 0.0 0.0 1.0
  outer loop
    vertex 55.0 10.0 4.9999999999999964
    vertex 50.80000000000001 6.699999999999997 4.9999999999999964
    vertex 51.239992376674294 6.642073904691413 4.9999999999999964
  endloop
endfacet
facet normal 0.0 0.0 1.0
  outer loop
    vertex 55.0 10.0 4.9999999999999964
    vertex 51.239992376674294 6.642073904691413 4.9999999999999964
    vertex 51.650000000000006 6.472243186433544 4.9999999999999964
  endloop
endfacet
facet normal 0.0 0.0 1.0
  outer loop
    vertex 55.0 10.0 4.9999999999999964
    vertex 51.650000000000006 6.472243186433544 4.9999999999999964
    vertex 52.002081528017136 6.202081528017128 4.9999999999999964
  endloop
endfacet
facet normal 0.0 0.0 1.0
  outer loop
    vertex 55.0 10.0 4.9999999999999964
    vertex 52.002081528017136 6.202081528017128 4.9999999999999964
    vertex 52.27224318643355 5.849999999999999 4.9999999999999964
  endloop
endfacet
facet normal 0.0 0.0 1.0
  outer loop
    vertex 55.0 10.0 4.9999999999999964
    vertex 52.27224318643355 5.849999999999999 4.9999999999999964
    vertex 52.44207390469142 5.439992376674285 4.9999999999999964
  endloop
endfacet
facet normal 0.0 0.0 1.0
  outer loop
    vertex 55.0 10.0 4.9999999999999964
    vertex 52.44207390469142 5.439992376674285 4.9999999999999964
    vertex 52.50000000000001 5.0 4.9999999999999964
  endloop
endfacet
facet normal 0.0 0.0 1.0
  outer loop
    vertex 55.0 10.0 4.9999999999999964
    vertex 52.50000000000001 5.0 4.9999999999999964
    vertex 55.0 -19.9 4.9999999999999964
  endloop
endfacet
facet normal 0.0 0.0 1.0
  outer loop
    vertex 55.0 10.0 4.9999999999999964
    vertex 55.0 -19.9 4.9999999999999964
    vertex 55.0 0.0 4.9999999999999964
  endloop
endfacet
facet normal 0.0 0.0 1.0
  outer loop
    vertex 3.9999999999999996 -19.9 4.9999999999999964
    vertex 0.0 0.0 4.9999999999999964
    vertex 0.0 -19.9 4.9999999999999964
  endloop
endfacet
facet normal 0.0 0.0 1.0
  outer loop
    vertex 0.0 0.0 4.9999999999999964
    vertex 3.9999999999999996 -19.9 4.9999999999999964
    vertex 0.0 10.0 4.9999999999999964
  endloop
endfacet
facet normal 0.0 0.0 1.0
  outer loop
    vertex 0.0 10.0 4.9999999999999964
    vertex 3.9999999999999996 -19.9 4.9999999999999964
    vertex 2.4999999999999996 5.0 4.9999999999999964
  endloop
endfacet
facet normal 0.0 0.0 1.0
  outer loop
    vertex 2.4999999999999996 5.0 4.9999999999999964
    vertex 3.9999999999999996 -19.9 4.9999999999999964
    vertex 2.5579260953085834 4.560007623325714 4.9999999999999964
  endloop
endfacet
facet normal 0.0 0.0 1.0
  outer loop
    vertex 2.5579260953085834 4.560007623325714 4.9999999999999964
    vertex 3.9999999999999996 -19.9 4.9999999999999964
    vertex 2.7277568135664536 4.15 4.9999999999999964
  endloop
endfacet
facet normal 0.0 0.0 1.0
  outer loop
    vertex 2.7277568135664536 4.15 4.9999999999999964
    vertex 3.9999999999999996 -19.9 4.9999999999999964
    vertex 2.9979184719828686 3.7979184719828694 4.9999999999999964
  endloop
endfacet
facet normal 0.0 0.0 1.0
  outer loop
    vertex 2.9979184719828686 3.7979184719828694 4.9999999999999964
    vertex 3.9999999999999996 -19.9 4.9999999999999964
    vertex 3.3499999999999996 3.5277568135664548 4.9999999999999964
  endloop
endfacet
facet normal 0.0 0.0 1.0
  outer loop
    vertex 3.3499999999999996 3.5277568135664548 4.9999999999999964
    vertex 3.9999999999999996 -19.9 4.9999999999999964
    vertex 3.760007623325714 3.357926095308584 4.9999999999999964
  endloop
endfacet
facet normal 0.0 0.0 1.0
  outer loop
    vertex 3.760007623325714 3.357926095308584 4.9999999999999964
    vertex 3.9999999999999996 -19.9 4.9999999999999964
    vertex 3.9999999999999996 0.0 4.9999999999999964
  endloop
endfacet
facet normal 0.0 0.0 1.0
  outer loop
    vertex 3.760007623325714 3.357926095308584 4.9999999999999964
    vertex 3.9999999999999996 0.0 4.9999999999999964
    vertex 4.199999999999999 3.3000000000000003 4.9999999999999964
  endloop
endfacet
facet normal 0.0 0.0 1.0
  outer loop
    vertex 4.199999999999999 3.3000000000000003 4.9999999999999964
    vertex 3.9999999999999996 0.0 4.9999999999999964
    vertex 50.9 0.0 4.9999999999999964
  endloop
endfacet
facet normal 0.0 0.0 1.0
  outer loop
    vertex 4.199999999999999 3.3000000000000003 4.9999999999999964
    vertex 50.9 0.0 4.9999999999999964
    vertex 50.80000000000001 3.300000000000003 4.9999999999999964
  endloop
endfacet
facet normal 0.0 0.0 1.0
  outer loop
    vertex 50.80000000000001 3.300000000000003 4.9999999999999964
    vertex 50.9 0.0 4.9999999999999964
    vertex 51.239992376674294 3.3579260953085868 4.9999999999999964
  endloop
endfacet
facet normal 1.0 -0.0 -0.0
  outer loop
    vertex 55.0 10.0 0.0
    vertex 55.0 0.0 4.9999999999999964
    vertex 55.0 0.0 0.0
  endloop
endfacet
facet normal 1.0 -0.0 -0.0
  outer loop
    vertex 55.0 0.0 4.9999999999999964
    vertex 55.0 10.0 0.0
    vertex 55.0 10.0 4.9999999999999964
  endloop
endfacet
facet normal 0.0 -1.0 0.0
  outer loop
    vertex 50.9 0.0 4.9999999999999964
    vertex 3.9999999999999996 0.0 0.0
    vertex 50.9 0.0 0.0
  endloop
endfacet
facet normal 0.0 -1.0 0.0
  outer loop
    vertex 3.9999999999999996 0.0 0.0
    vertex 50.9 0.0 4.9999999999999964
    vertex 3.9999999999999996 0.0 4.9999999999999964
  endloop
endfacet
facet normal -1.0 0.0 0.0
  outer loop
    vertex 0.0 10.0 4.9999999999999964
    vertex 0.0 0.0 0.0
    vertex 0.0 0.0 4.9999999999999964
  endloop
endfacet
facet normal -1.0 0.0 0.0
  outer loop
    vertex 0.0 0.0 0.0
    vertex 0.0 10.0 4.9999999999999964
    vertex 0.0 10.0 0.0
  endloop
endfacet
facet normal -0.0 1.0 0.0
  outer loop
    vertex 0.0 10.0 4.9999999999999964
    vertex 55.0 10.0 0.0
    vertex 0.0 10.0 0.0
  endloop
endfacet
facet normal -0.0 1.0 0.0
  outer loop
    vertex 55.0 10.0 0.0
    vertex 0.0 10.0 4.9999999999999964
    vertex 55.0 10.0 4.9999999999999964
  endloop
endfacet
facet normal -0.13052619222004985 -0.9914448613738107 -0.0
  outer loop
    vertex 51.239992376674294 6.642073904691413 4.9999999999999964
    vertex 50.80000000000001 6.699999999999997 0.0
    vertex 51.239992376674294 6.642073904691413 0.0
  endloop
endfacet
facet normal -0.13052619222004985 -0.9914448613738107 -0.0
  outer loop
    vertex 50.80000000000001 6.699999999999997 0.0
    vertex 51.239992376674294 6.642073904691413 4.9999999999999964
    vertex 50.80000000000001 6.699999999999997 4.9999999999999964
  endloop
endfacet
facet normal -6.051430220059865e-17 -1.0 -0.0
  outer loop
    vertex 50.80000000000001 6.699999999999997 4.9999999999999964
    vertex 4.199999999999999 6.699999999999999 0.0
    vertex 50.80000000000001 6.699999999999997 0.0
  endloop
endfacet
facet normal -6.051430220059865e-17 -1.0 -0.0
  outer loop
    vertex 4.199999999999999 6.699999999999999 0.0
    vertex 50.80000000000001 6.699999999999997 4.9999999999999964
    vertex 4.199999999999999 6.699999999999999 4.9999999999999964
  endloop
endfacet
facet normal 0.13052619222005007 -0.9914448613738107 0.0
  outer loop
    vertex 4.199999999999999 6.699999999999999 4.9999999999999964
    vertex 3.760007623325715 6.642073904691416 0.0
    vertex 4.199999999999999 6.699999999999999 0.0
  endloop
endfacet
facet normal 0.13052619222005007 -0.9914448613738107 0.0
  outer loop
    vertex 3.760007623325715 6.642073904691416 0.0
    vertex 4.199999999999999 6.699999999999999 4.9999999999999964
    vertex 3.760007623325715 6.642073904691416 4.9999999999999964
  endloop
endfacet
facet normal 0.38268343236508856 -0.9238795325112872 0.0
  outer loop
    vertex 3.760007623325715 6.642073904691416 4.9999999999999964
    vertex 3.350000000000001 6.472243186433547 0.0
    vertex 3.760007623325715 6.642073904691416 0.0
  endloop
endfacet
facet normal 0.38268343236508856 -0.9238795325112872 0.0
  outer loop
    vertex 3.350000000000001 6.472243186433547 0.0
    vertex 3.760007623325715 6.642073904691416 4.9999999999999964
    vertex 3.350000000000001 6.472243186433547 4.9999999999999964
  endloop
endfacet
facet normal 0.6087614290087205 -0.7933533402912352 0.0
  outer loop
    vertex 3.350000000000001 6.472243186433547 4.9999999999999964
    vertex 2.9979184719828686 6.20208152801713 0.0
    vertex 3.350000000000001 6.472243186433547 0.0
  endloop
endfacet
facet normal 0.6087614290087205 -0.7933533402912352 0.0
  outer loop
    vertex 2.9979184719828686 6.20208152801713 0.0
    vertex 3.350000000000001 6.472243186433547 4.9999999999999964
    vertex 2.9979184719828686 6.20208152801713 4.9999999999999964
  endloop
endfacet
facet normal 0.7933533402912349 -0.6087614290087209 0.0
  outer loop
    vertex 2.9979184719828686 6.20208152801713 0.0
    vertex 2.7277568135664545 5.8500000000000005 4.9999999999999964
    vertex 2.7277568135664545 5.8500000000000005 0.0
  endloop
endfacet
facet normal 0.7933533402912349 -0.6087614290087209 0.0
  outer loop
    vertex 2.7277568135664545 5.8500000000000005 4.9999999999999964
    vertex 2.9979184719828686 6.20208152801713 0.0
    vertex 2.9979184719828686 6.20208152801713 4.9999999999999964
  endloop
endfacet
facet normal 0.9238795325112865 -0.38268343236509067 0.0
  outer loop
    vertex 2.7277568135664545 5.8500000000000005 0.0
    vertex 2.557926095308584 5.439992376674287 4.9999999999999964
    vertex 2.557926095308584 5.439992376674287 0.0
  endloop
endfacet
facet normal 0.9238795325112865 -0.38268343236509067 0.0
  outer loop
    vertex 2.557926095308584 5.439992376674287 4.9999999999999964
    vertex 2.7277568135664545 5.8500000000000005 0.0
    vertex 2.7277568135664545 5.8500000000000005 4.9999999999999964
  endloop
endfacet
facet normal 0.9914448613738105 -0.1305261922200518 0.0
  outer loop
    vertex 2.557926095308584 5.439992376674287 0.0
    vertex 2.4999999999999996 5.0 4.9999999999999964
    vertex 2.4999999999999996 5.0 0.0
  endloop
endfacet
facet normal 0.9914448613738105 -0.1305261922200518 0.0
  outer loop
    vertex 2.4999999999999996 5.0 4.9999999999999964
    vertex 2.557926095308584 5.439992376674287 0.0
    vertex 2.557926095308584 5.439992376674287 4.9999999999999964
  endloop
endfacet
facet normal 0.9914448613738104 0.1305261922200514 0.0
  outer loop
    vertex 2.4999999999999996 5.0 0.0
    vertex 2.5579260953085834 4.560007623325714 4.9999999999999964
    vertex 2.5579260953085834 4.560007623325714 0.0
  endloop
endfacet
facet normal 0.9914448613738104 0.1305261922200514 0.0
  outer loop
    vertex 2.5579260953085834 4.560007623325714 4.9999999999999964
    vertex 2.4999999999999996 5.0 0.0
    vertex 2.4999999999999996 5.0 4.9999999999999964
  endloop
endfacet
facet normal 0.923879532511287 0.3826834323650894 0.0
  outer loop
    vertex 2.5579260953085834 4.560007623325714 0.0
    vertex 2.7277568135664536 4.15 4.9999999999999964
    vertex 2.7277568135664536 4.15 0.0
  endloop
endfacet
facet normal 0.923879532511287 0.3826834323650894 0.0
  outer loop
    vertex 2.7277568135664536 4.15 4.9999999999999964
    vertex 2.5579260953085834 4.560007623325714 0.0
    vertex 2.5579260953085834 4.560007623325714 4.9999999999999964
  endloop
endfacet
facet normal 0.7933533402912348 0.6087614290087212 0.0
  outer loop
    vertex 2.7277568135664536 4.15 0.0
    vertex 2.9979184719828686 3.7979184719828694 4.9999999999999964
    vertex 2.9979184719828686 3.7979184719828694 0.0
  endloop
endfacet
facet normal 0.7933533402912348 0.6087614290087212 0.0
  outer loop
    vertex 2.9979184719828686 3.7979184719828694 4.9999999999999964
    vertex 2.7277568135664536 4.15 0.0
    vertex 2.7277568135664536 4.15 4.9999999999999964
  endloop
endfacet
facet normal 0.6087614290087202 0.7933533402912356 0.0
  outer loop
    vertex 2.9979184719828686 3.7979184719828694 4.9999999999999964
    vertex 3.3499999999999996 3.5277568135664548 0.0
    vertex 2.9979184719828686 3.7979184719828694 0.0
  endloop
endfacet
facet normal 0.6087614290087202 0.7933533402912356 0.0
  outer loop
    vertex 3.3499999999999996 3.5277568135664548 0.0
    vertex 2.9979184719828686 3.7979184719828694 4.9999999999999964
    vertex 3.3499999999999996 3.5277568135664548 4.9999999999999964
  endloop
endfacet
facet normal 0.3826834323650907 0.9238795325112863 0.0
  outer loop
    vertex 3.3499999999999996 3.5277568135664548 4.9999999999999964
    vertex 3.760007623325714 3.357926095308584 0.0
    vertex 3.3499999999999996 3.5277568135664548 0.0
  endloop
endfacet
facet normal 0.3826834323650907 0.9238795325112863 0.0
  outer loop
    vertex 3.760007623325714 3.357926095308584 0.0
    vertex 3.3499999999999996 3.5277568135664548 4.9999999999999964
    vertex 3.760007623325714 3.357926095308584 4.9999999999999964
  endloop
endfacet
facet normal 0.1305261922200514 0.9914448613738104 0.0
  outer loop
    vertex 3.760007623325714 3.357926095308584 4.9999999999999964
    vertex 4.199999999999999 3.3000000000000003 0.0
    vertex 3.760007623325714 3.357926095308584 0.0
  endloop
endfacet
facet normal 0.1305261922200514 0.9914448613738104 0.0
  outer loop
    vertex 4.199999999999999 3.3000000000000003 0.0
    vertex 3.760007623325714 3.357926095308584 4.9999999999999964
    vertex 4.199999999999999 3.3000000000000003 4.9999999999999964
  endloop
endfacet
facet normal -6.051430220059865e-17 1.0 0.0
  outer loop
    vertex 4.199999999999999 3.3000000000000003 4.9999999999999964
    vertex 50.80000000000001 3.300000000000003 0.0
    vertex 4.199999999999999 3.3000000000000003 0.0
  endloop
endfacet
facet normal -6.051430220059865e-17 1.0 0.0
  outer loop
    vertex 50.80000000000001 3.300000000000003 0.0
    vertex 4.199999999999999 3.3000000000000003 4.9999999999999964
    vertex 50.80000000000001 3.300000000000003 4.9999999999999964
  endloop
endfacet
facet normal -0.1305261922200514 0.9914448613738104 0.0
  outer loop
    vertex 50.80000000000001 3.300000000000003 4.9999999999999964
    vertex 51.239992376674294 3.3579260953085868 0.0
    vertex 50.80000000000001 3.300000000000003 0.0
  endloop
endfacet
facet normal -0.1305261922200514 0.9914448613738104 0.0
  outer loop
    vertex 51.239992376674294 3.3579260953085868 0.0
    vertex 50.80000000000001 3.300000000000003 4.9999999999999964
    vertex 51.239992376674294 3.3579260953085868 4.9999999999999964
  endloop
endfacet
facet normal -0.38268343236508917 0.9238795325112871 0.0
  outer loop
    vertex 51.239992376674294 3.3579260953085868 4.9999999999999964
    vertex 51.650000000000006 3.5277568135664565 0.0
    vertex 51.239992376674294 3.3579260953085868 0.0
  endloop
endfacet
facet normal -0.38268343236508917 0.9238795325112871 0.0
  outer loop
    vertex 51.650000000000006 3.5277568135664565 0.0
    vertex 51.239992376674294 3.3579260953085868 4.9999999999999964
    vertex 51.650000000000006 3.5277568135664565 4.9999999999999964
  endloop
endfacet
facet normal -0.6087614290087224 0.7933533402912338 0.0
  outer loop
    vertex 51.650000000000006 3.5277568135664565 4.9999999999999964
    vertex 52.002081528017136 3.7979184719828707 0.0
    vertex 51.650000000000006 3.5277568135664565 0.0
  endloop
endfacet
facet normal -0.6087614290087224 0.7933533402912338 0.0
  outer loop
    vertex 52.002081528017136 3.7979184719828707 0.0
    vertex 51.650000000000006 3.5277568135664565 4.9999999999999964
    vertex 52.002081528017136 3.7979184719828707 4.9999999999999964
  endloop
endfacet
facet normal -0.7933533402912349 0.6087614290087209 0.0
  outer loop
    vertex 52.27224318643355 4.150000000000001 4.9999999999999964
    vertex 52.002081528017136 3.7979184719828707 0.0
    vertex 52.002081528017136 3.7979184719828707 4.9999999999999964
  endloop
endfacet
facet normal -0.7933533402912349 0.6087614290087209 0.0
  outer loop
    vertex 52.002081528017136 3.7979184719828707 0.0
    vertex 52.27224318643355 4.150000000000001 4.9999999999999964
    vertex 52.27224318643355 4.150000000000001 0.0
  endloop
endfacet
facet normal -0.923879532511286 0.3826834323650919 0.0
  outer loop
    vertex 52.44207390469142 4.560007623325714 4.9999999999999964
    vertex 52.27224318643355 4.150000000000001 0.0
    vertex 52.27224318643355 4.150000000000001 4.9999999999999964
  endloop
endfacet
facet normal -0.923879532511286 0.3826834323650919 0.0
  outer loop
    vertex 52.27224318643355 4.150000000000001 0.0
    vertex 52.44207390469142 4.560007623325714 4.9999999999999964
    vertex 52.44207390469142 4.560007623325714 0.0
  endloop
endfacet
facet normal -0.9914448613738103 0.1305261922200528 0.0
  outer loop
    vertex 52.50000000000001 5.0 4.9999999999999964
    vertex 52.44207390469142 4.560007623325714 0.0
    vertex 52.44207390469142 4.560007623325714 4.9999999999999964
  endloop
endfacet
facet normal -0.9914448613738103 0.1305261922200528 0.0
  outer loop
    vertex 52.44207390469142 4.560007623325714 0.0
    vertex 52.50000000000001 5.0 4.9999999999999964
    vertex 52.50000000000001 5.0 0.0
  endloop
endfacet
facet normal -0.9914448613738102 -0.13052619222005318 -0.0
  outer loop
    vertex 52.44207390469142 5.439992376674285 4.9999999999999964
    vertex 52.50000000000001 5.0 0.0
    vertex 52.50000000000001 5.0 4.9999999999999964
  endloop
endfacet
facet normal -0.9914448613738102 -0.13052619222005318 -0.0
  outer loop
    vertex 52.50000000000001 5.0 0.0
    vertex 52.44207390469142 5.439992376674285 4.9999999999999964
    vertex 52.44207390469142 5.439992376674285 0.0
  endloop
endfacet
facet normal -0.9238795325112862 -0.3826834323650914 -0.0
  outer loop
    vertex 52.27224318643355 5.849999999999999 4.9999999999999964
    vertex 52.44207390469142 5.439992376674285 0.0
    vertex 52.44207390469142 5.439992376674285 4.9999999999999964
  endloop
endfacet
facet normal -0.9238795325112862 -0.3826834323650914 -0.0
  outer loop
    vertex 52.44207390469142 5.439992376674285 0.0
    vertex 52.27224318643355 5.849999999999999 4.9999999999999964
    vertex 52.27224318643355 5.849999999999999 0.0
  endloop
endfacet
facet normal -0.7933533402912349 -0.6087614290087209 -0.0
  outer loop
    vertex 52.002081528017136 6.202081528017128 4.9999999999999964
    vertex 52.27224318643355 5.849999999999999 0.0
    vertex 52.27224318643355 5.849999999999999 4.9999999999999964
  endloop
endfacet
facet normal -0.7933533402912349 -0.6087614290087209 -0.0
  outer loop
    vertex 52.27224318643355 5.849999999999999 0.0
    vertex 52.002081528017136 6.202081528017128 4.9999999999999964
    vertex 52.002081528017136 6.202081528017128 0.0
  endloop
endfacet
facet normal -0.6087614290087234 -0.7933533402912331 -0.0
  outer loop
    vertex 52.002081528017136 6.202081528017128 4.9999999999999964
    vertex 51.650000000000006 6.472243186433544 0.0
    vertex 52.002081528017136 6.202081528017128 0.0
  endloop
endfacet
facet normal -0.6087614290087234 -0.7933533402912331 -0.0
  outer loop
    vertex 51.650000000000006 6.472243186433544 0.0
    vertex 52.002081528017136 6.202081528017128 4.9999999999999964
    vertex 51.650000000000006 6.472243186433544 4.9999999999999964
  endloop
endfacet
facet normal -0.38268343236508917 -0.9238795325112871 -0.0
  outer loop
    vertex 51.650000000000006 6.472243186433544 4.9999999999999964
    vertex 51.239992376674294 6.642073904691413 0.0
    vertex 51.650000000000006 6.472243186433544 0.0
  endloop
endfacet
facet normal -0.38268343236508917 -0.9238795325112871 -0.0
  outer loop
    vertex 51.239992376674294 6.642073904691413 0.0
    vertex 51.650000000000006 6.472243186433544 4.9999999999999964
    vertex 51.239992376674294 6.642073904691413 4.9999999999999964
  endloop
endfacet
facet normal 1.0 -0.0 -0.0
  outer loop
    vertex 55.0 0.0 0.0
    vertex 55.0 -19.9 4.9999999999999964
    vertex 55.0 -19.9 0.0
  endloop
endfacet
facet normal 1.0 -0.0 -0.0
  outer loop
    vertex 55.0 -19.9 4.9999999999999964
    vertex 55.0 0.0 0.0
    vertex 55.0 0.0 4.9999999999999964
  endloop
endfacet
facet normal -1.0 0.0 0.0
  outer loop
    vertex 50.9 0.0 4.9999999999999964
    vertex 50.9 -19.9 0.0
    vertex 50.9 -19.9 4.9999999999999964
  endloop
endfacet
facet normal -1.0 0.0 0.0
  outer loop
    vertex 50.9 -19.9 0.0
    vertex 50.9 0.0 4.9999999999999964
    vertex 50.9 0.0 0.0
  endloop
endfacet
facet normal 0.0 0.0 -1.0
  outer loop
    vertex 55.0 0.0 0.0
    vertex 50.9 -19.9 0.0
    vertex 50.9 0.0 0.0
  endloop
endfacet
facet normal 0.0 0.0 -1.0
  outer loop
    vertex 50.9 -19.9 0.0
    vertex 55.0 0.0 0.0
    vertex 55.0 -19.9 0.0
  endloop
endfacet
facet normal 0.0 -1.0 0.0
  outer loop
    vertex 55.0 -19.9 4.9999999999999964
    vertex 50.9 -19.9 0.0
    vertex 55.0 -19.9 0.0
  endloop
endfacet
facet normal 0.0 -1.0 0.0
  outer loop
    vertex 50.9 -19.9 0.0
    vertex 55.0 -19.9 4.9999999999999964
    vertex 50.9 -19.9 4.9999999999999964
  endloop
endfacet
facet normal 0.0 0.0 -1.0
  outer loop
    vertex 3.9999999999999996 0.0 0.0
    vertex 0.0 -19.9 0.0
    vertex 0.0 0.0 0.0
  endloop
endfacet
facet normal 0.0 0.0 -1.0
  outer loop
    vertex 0.0 -19.9 0.0
    vertex 3.9999999999999996 0.0 0.0
    vertex 3.9999999999999996 -19.9 0.0
  endloop
endfacet
facet normal -1.0 0.0 0.0
  outer loop
    vertex 0.0 0.0 4.9999999999999964
    vertex 0.0 -19.9 0.0
    vertex 0.0 -19.9 4.9999999999999964
  endloop
endfacet
facet normal -1.0 0.0 0.0
  outer loop
    vertex 0.0 -19.9 0.0
    vertex 0.0 0.0 4.9999999999999964
    vertex 0.0 0.0 0.0
  endloop
endfacet
facet normal 1.0 -0.0 -0.0
  outer loop
    vertex 3.9999999999999996 0.0 0.0
    vertex 3.9999999999999996 -19.9 4.9999999999999964
    vertex 3.9999999999999996 -19.9 0.0
  endloop
endfacet
facet normal 1.0 -0.0 -0.0
  outer loop
    vertex 3.9999999999999996 -19.9 4.9999999999999964
    vertex 3.9999999999999996 0.0 0.0
    vertex 3.9999999999999996 0.0 4.9999999999999964
  endloop
endfacet
facet normal 0.0 -1.0 0.0
  outer loop
    vertex 3.9999999999999996 -19.9 4.9999999999999964
    vertex 0.0 -19.9 0.0
    vertex 3.9999999999999996 -19.9 0.0
  endloop
endfacet
facet normal 0.0 -1.0 0.0
  outer loop
    vertex 0.0 -19.9 0.0
    vertex 3.9999999999999996 -19.9 4.9999999999999964
    vertex 0.0 -19.9 4.9999999999999964
  endloop
endfacet
endsolid stompy_brain_mount
