solid stompy_body_separater
facet normal -1.0 0.0 0.0
  outer loop
    vertex -11.999999999999995 0.19999999999999998 6.3
    vertex -11.999999999999972 0.5999999999999996 3.2499999999999982
    vertex -11.999999999999995 0.19999999999999998 0.0
  endloop
endfacet
facet normal -1.0 0.0 0.0
  outer loop
    vertex -11.999999999999972 0.5999999999999996 3.2499999999999982
    vertex -11.999999999999995 0.19999999999999998 6.3
    vertex -11.999999999999972 3.249999999999999 5.8999999999999995
  endloop
endfacet
facet normal -1.0 0.0 0.0
  outer loop
    vertex -11.999999999999972 3.249999999999999 5.8999999999999995
    vertex -11.999999999999995 0.19999999999999998 6.3
    vertex -11.999999999999995 6.3 6.3
  endloop
endfacet
facet normal -1.0 0.0 0.0
  outer loop
    vertex -11.999999999999972 3.249999999999999 5.8999999999999995
    vertex -11.999999999999995 6.3 6.3
    vertex -11.999999999999972 5.8999999999999995 3.2499999999999996
  endloop
endfacet
facet normal -1.0 0.0 0.0
  outer loop
    vertex -11.999999999999995 0.19999999999999998 0.0
    vertex -11.999999999999972 3.2499999999999996 0.5999999999999999
    vertex -11.999999999999995 6.3 0.0
  endloop
endfacet
facet normal -1.0 0.0 0.0
  outer loop
    vertex -11.999999999999972 3.2499999999999996 0.5999999999999999
    vertex -11.999999999999995 0.19999999999999998 0.0
    vertex -11.999999999999972 0.5999999999999996 3.2499999999999982
  endloop
endfacet
facet normal -1.0 0.0 0.0
  outer loop
    vertex -11.999999999999995 6.3 0.0
    vertex -11.999999999999972 3.2499999999999996 0.5999999999999999
    vertex -11.999999999999972 5.8999999999999995 3.2499999999999996
  endloop
endfacet
facet normal -1.0 0.0 0.0
  outer loop
    vertex -11.999999999999995 6.3 0.0
    vertex -11.999999999999972 5.8999999999999995 3.2499999999999996
    vertex -11.999999999999995 6.3 6.3
  endloop
endfacet
facet normal 0.0 1.0 0.0
  outer loop
    vertex -11.999999999999995 6.3 6.3
    vertex -9.999999999999996 6.3 0.0
    vertex -11.999999999999995 6.3 0.0
  endloop
endfacet
facet normal 0.0 1.0 0.0
  outer loop
    vertex -9.999999999999996 6.3 0.0
    vertex -11.999999999999995 6.3 6.3
    vertex -9.999999999999996 6.3 6.3
  endloop
endfacet
facet normal 1.0 0.0 0.0
  outer loop
    vertex 38.0 0.19999999999999998 0.0
    vertex 38.0 0.5999999999999996 3.2499999999999982
    vertex 38.0 0.19999999999999998 6.3
  endloop
endfacet
facet normal 1.0 0.0 0.0
  outer loop
    vertex 38.0 0.5999999999999996 3.2499999999999982
    vertex 38.0 0.19999999999999998 0.0
    vertex 38.0 3.2499999999999996 0.5999999999999999
  endloop
endfacet
facet normal 1.0 0.0 0.0
  outer loop
    vertex 38.0 3.2499999999999996 0.5999999999999999
    vertex 38.0 0.19999999999999998 0.0
    vertex 38.0 6.3 0.0
  endloop
endfacet
facet normal 1.0 0.0 0.0
  outer loop
    vertex 38.0 3.2499999999999996 0.5999999999999999
    vertex 38.0 6.3 0.0
    vertex 38.0 5.8999999999999995 3.2499999999999996
  endloop
endfacet
facet normal 1.0 0.0 0.0
  outer loop
    vertex 38.0 0.19999999999999998 6.3
    vertex 38.0 3.249999999999999 5.8999999999999995
    vertex 38.0 6.3 6.3
  endloop
endfacet
facet normal 1.0 0.0 0.0
  outer loop
    vertex 38.0 3.249999999999999 5.8999999999999995
    vertex 38.0 0.19999999999999998 6.3
    vertex 38.0 0.5999999999999996 3.2499999999999982
  endloop
endfacet
facet normal 1.0 0.0 0.0
  outer loop
    vertex 38.0 6.3 6.3
    vertex 38.0 3.249999999999999 5.8999999999999995
    vertex 38.0 5.8999999999999995 3.2499999999999996
  endloop
endfacet
facet normal 1.0 0.0 0.0
  outer loop
    vertex 38.0 6.3 6.3
    vertex 38.0 5.8999999999999995 3.2499999999999996
    vertex 38.0 6.3 0.0
  endloop
endfacet
facet normal 0.0 -1.0 0.0
  outer loop
    vertex 38.0 0.19999999999999998 6.3
    vertex 35.99999999999999 0.19999999999999998 0.0
    vertex 38.0 0.19999999999999998 0.0
  endloop
endfacet
facet normal 0.0 -1.0 0.0
  outer loop
    vertex 35.99999999999999 0.19999999999999998 0.0
    vertex 38.0 0.19999999999999998 6.3
    vertex 35.99999999999999 0.19999999999999998 6.3
  endloop
endfacet
facet normal -3.573667862486049e-17 -0.7071067811865477 0.7071067811865474
  outer loop
    vertex 38.0 3.2499999999999996 0.5999999999999999
    vertex 34.5 3.6500000000000004 1.0000000000000002
    vertex 34.5 3.2499999999999996 0.5999999999999998
  endloop
endfacet
facet normal -3.573667862486049e-17 -0.7071067811865477 0.7071067811865474
  outer loop
    vertex 34.5 3.6500000000000004 1.0000000000000002
    vertex 38.0 3.2499999999999996 0.5999999999999999
    vertex 38.0 5.8999999999999995 3.2499999999999996
  endloop
endfacet
facet normal -3.573667862486049e-17 -0.7071067811865477 0.7071067811865474
  outer loop
    vertex 34.5 3.6500000000000004 1.0000000000000002
    vertex 38.0 5.8999999999999995 3.2499999999999996
    vertex 34.5 5.8999999999999995 3.2499999999999996
  endloop
endfacet
facet normal 0.0 -0.7071067811865475 -0.7071067811865477
  outer loop
    vertex 30.49999999999999 5.8999999999999995 3.2499999999999996
    vertex -4.499999999999998 3.249999999999999 5.8999999999999995
    vertex -4.499999999999998 5.8999999999999995 3.2499999999999996
  endloop
endfacet
facet normal 0.0 -0.7071067811865475 -0.7071067811865477
  outer loop
    vertex -4.499999999999998 3.249999999999999 5.8999999999999995
    vertex 30.49999999999999 5.8999999999999995 3.2499999999999996
    vertex 30.49999999999999 3.249999999999999 5.8999999999999995
  endloop
endfacet
facet normal 0.0 -1.0 0.0
  outer loop
    vertex 28.999999999999993 0.19999999999999998 6.3
    vertex -2.999999999999995 0.19999999999999998 0.0
    vertex 28.999999999999993 0.19999999999999998 0.0
  endloop
endfacet
facet normal 0.0 -1.0 0.0
  outer loop
    vertex -2.999999999999995 0.19999999999999998 0.0
    vertex 28.999999999999993 0.19999999999999998 6.3
    vertex -2.999999999999995 0.19999999999999998 6.3
  endloop
endfacet
facet normal 0.0 -1.0 0.0
  outer loop
    vertex 35.99999999999999 -1.9999999999999998 6.3
    vertex 28.999999999999993 -1.9999999999999998 0.0
    vertex 35.99999999999999 -1.9999999999999998 0.0
  endloop
endfacet
facet normal 0.0 -1.0 0.0
  outer loop
    vertex 28.999999999999993 -1.9999999999999998 0.0
    vertex 35.99999999999999 -1.9999999999999998 6.3
    vertex 28.999999999999993 -1.9999999999999998 6.3
  endloop
endfacet
facet normal -1.0 -0.0 -0.0
  outer loop
    vertex 28.999999999999993 0.19999999999999998 6.3
    vertex 28.999999999999993 -1.9999999999999998 0.0
    vertex 28.999999999999993 -1.9999999999999998 6.3
  endloop
endfacet
facet normal -1.0 -0.0 -0.0
  outer loop
    vertex 28.999999999999993 -1.9999999999999998 0.0
    vertex 28.999999999999993 0.19999999999999998 6.3
    vertex 28.999999999999993 0.19999999999999998 0.0
  endloop
endfacet
facet normal 1.0 0.0 -0.0
  outer loop
    vertex 35.99999999999999 0.19999999999999998 0.0
    vertex 35.99999999999999 -1.9999999999999998 6.3
    vertex 35.99999999999999 -1.9999999999999998 0.0
  endloop
endfacet
facet normal 1.0 0.0 -0.0
  outer loop
    vertex 35.99999999999999 -1.9999999999999998 6.3
    vertex 35.99999999999999 0.19999999999999998 0.0
    vertex 35.99999999999999 0.19999999999999998 6.3
  endloop
endfacet
facet normal 0.0 1.0 0.0
  outer loop
    vertex 30.49999999999999 0.19999999999999998 6.3
    vertex 34.5 0.19999999999999962 2.46747067222941e-15
    vertex 30.49999999999999 0.19999999999999962 2.46747067222941e-15
  endloop
endfacet
facet normal 0.0 1.0 0.0
  outer loop
    vertex 34.5 0.19999999999999962 2.46747067222941e-15
    vertex 30.49999999999999 0.19999999999999998 6.3
    vertex 34.5 0.19999999999999998 3.2499999999999982
  endloop
endfacet
facet normal 0.0 1.0 0.0
  outer loop
    vertex 34.5 0.19999999999999998 3.2499999999999982
    vertex 30.49999999999999 0.19999999999999998 6.3
    vertex 34.5 0.19999999999999998 6.3
  endloop
endfacet
facet normal 1.615052376665195e-17 -0.7071067811865474 -0.7071067811865477
  outer loop
    vertex 38.0 5.8999999999999995 3.2499999999999996
    vertex 34.5 3.249999999999999 5.8999999999999995
    vertex 34.5 5.8999999999999995 3.2499999999999996
  endloop
endfacet
facet normal 1.615052376665195e-17 -0.7071067811865474 -0.7071067811865477
  outer loop
    vertex 34.5 3.249999999999999 5.8999999999999995
    vertex 38.0 5.8999999999999995 3.2499999999999996
    vertex 38.0 3.249999999999999 5.8999999999999995
  endloop
endfacet
facet normal -3.230104753330437e-17 0.7071067811865477 -0.7071067811865474
  outer loop
    vertex 34.5 3.249999999999999 5.8999999999999995
    vertex 38.0 0.5999999999999996 3.2499999999999982
    vertex 34.5 0.5999999999999994 3.2499999999999982
  endloop
endfacet
facet normal -3.230104753330437e-17 0.7071067811865477 -0.7071067811865474
  outer loop
    vertex 38.0 0.5999999999999996 3.2499999999999982
    vertex 34.5 3.249999999999999 5.8999999999999995
    vertex 38.0 3.249999999999999 5.8999999999999995
  endloop
endfacet
facet normal -1.0 0.0 0.0
  outer loop
    vertex 34.5 3.2499999999999996 6.3
    vertex 34.5 0.19999999999999998 3.2499999999999982
    vertex 34.5 0.19999999999999998 6.3
  endloop
endfacet
facet normal -1.0 0.0 0.0
  outer loop
    vertex 34.5 0.19999999999999998 3.2499999999999982
    vertex 34.5 3.2499999999999996 6.3
    vertex 34.5 0.5999999999999994 3.2499999999999982
  endloop
endfacet
facet normal -1.0 0.0 0.0
  outer loop
    vertex 34.5 0.5999999999999994 3.2499999999999982
    vertex 34.5 3.2499999999999996 6.3
    vertex 34.5 3.249999999999999 5.8999999999999995
  endloop
endfacet
facet normal 2.5118053229627683e-18 0.7071067811865477 -0.7071067811865474
  outer loop
    vertex -4.499999999999998 3.249999999999999 5.8999999999999995
    vertex 30.49999999999999 0.5999999999999994 3.2499999999999982
    vertex -4.499999999999998 0.5999999999999996 3.2499999999999982
  endloop
endfacet
facet normal 2.5118053229627683e-18 0.7071067811865477 -0.7071067811865474
  outer loop
    vertex 30.49999999999999 0.5999999999999994 3.2499999999999982
    vertex -4.499999999999998 3.249999999999999 5.8999999999999995
    vertex 30.49999999999999 3.249999999999999 5.8999999999999995
  endloop
endfacet
facet normal 1.3894840330237373e-18 0.7071067811865472 0.7071067811865478
  outer loop
    vertex 30.49999999999999 0.5999999999999994 3.2499999999999982
    vertex -4.499999999999998 3.2499999999999996 0.5999999999999999
    vertex -4.499999999999998 0.5999999999999996 3.2499999999999982
  endloop
endfacet
facet normal 1.3894840330237373e-18 0.7071067811865472 0.7071067811865478
  outer loop
    vertex -4.499999999999998 3.2499999999999996 0.5999999999999999
    vertex 30.49999999999999 0.5999999999999994 3.2499999999999982
    vertex 30.49999999999999 3.2499999999999996 0.6
  endloop
endfacet
facet normal -4.8451571299956864e-17 0.7071067811865472 0.7071067811865478
  outer loop
    vertex 38.0 0.5999999999999996 3.2499999999999982
    vertex 34.5 2.8499999999999974 1.0000000000000013
    vertex 34.5 0.5999999999999994 3.2499999999999982
  endloop
endfacet
facet normal -4.8451571299956864e-17 0.7071067811865472 0.7071067811865478
  outer loop
    vertex 34.5 2.8499999999999974 1.0000000000000013
    vertex 38.0 0.5999999999999996 3.2499999999999982
    vertex 34.5 3.2499999999999996 0.5999999999999998
  endloop
endfacet
facet normal -4.8451571299956864e-17 0.7071067811865472 0.7071067811865478
  outer loop
    vertex 34.5 3.2499999999999996 0.5999999999999998
    vertex 38.0 0.5999999999999996 3.2499999999999982
    vertex 38.0 3.2499999999999996 0.5999999999999999
  endloop
endfacet
facet normal 0.0 -0.7071067811865476 0.7071067811865475
  outer loop
    vertex -8.499999999999998 5.8999999999999995 3.2499999999999996
    vertex -11.999999999999972 3.2499999999999996 0.5999999999999999
    vertex -8.499999999999998 3.2499999999999996 0.5999999999999999
  endloop
endfacet
facet normal 0.0 -0.7071067811865476 0.7071067811865475
  outer loop
    vertex -11.999999999999972 3.2499999999999996 0.5999999999999999
    vertex -8.499999999999998 5.8999999999999995 3.2499999999999996
    vertex -11.999999999999972 5.8999999999999995 3.2499999999999996
  endloop
endfacet
facet normal -1.0 0.0 0.0
  outer loop
    vertex 34.5 0.19999999999999998 3.2499999999999982
    vertex 34.5 2.8499999999999974 1.4099832412739487e-15
    vertex 34.5 0.19999999999999962 2.46747067222941e-15
  endloop
endfacet
facet normal -1.0 0.0 0.0
  outer loop
    vertex 34.5 2.8499999999999974 1.4099832412739487e-15
    vertex 34.5 0.19999999999999998 3.2499999999999982
    vertex 34.5 0.5999999999999994 3.2499999999999982
  endloop
endfacet
facet normal -1.0 0.0 0.0
  outer loop
    vertex 34.5 2.8499999999999974 1.4099832412739487e-15
    vertex 34.5 0.5999999999999994 3.2499999999999982
    vertex 34.5 2.8499999999999974 1.0000000000000013
  endloop
endfacet
facet normal 0.0 1.0 0.0
  outer loop
    vertex 35.99999999999999 6.3 6.3
    vertex 38.0 6.3 0.0
    vertex 35.99999999999999 6.3 0.0
  endloop
endfacet
facet normal 0.0 1.0 0.0
  outer loop
    vertex 38.0 6.3 0.0
    vertex 35.99999999999999 6.3 6.3
    vertex 38.0 6.3 6.3
  endloop
endfacet
facet normal -1.0 0.0 0.0
  outer loop
    vertex 34.5 3.2499999999999996 0.5999999999999998
    vertex 34.5 2.8499999999999974 1.4099832412739487e-15
    vertex 34.5 2.8499999999999974 1.0000000000000013
  endloop
endfacet
facet normal -1.0 0.0 0.0
  outer loop
    vertex 34.5 2.8499999999999974 1.4099832412739487e-15
    vertex 34.5 3.2499999999999996 0.5999999999999998
    vertex 34.5 3.6500000000000004 3.524958103184872e-16
  endloop
endfacet
facet normal -1.0 0.0 0.0
  outer loop
    vertex 34.5 3.6500000000000004 3.524958103184872e-16
    vertex 34.5 3.2499999999999996 0.5999999999999998
    vertex 34.5 3.6500000000000004 1.0000000000000002
  endloop
endfacet
facet normal 1.2747639921406496e-17 -3.661458386813908e-17 -1.0
  outer loop
    vertex 35.99999999999999 8.499999999999996 0.0
    vertex 28.999999999999993 6.3 0.0
    vertex 28.999999999999993 8.499999999999996 0.0
  endloop
endfacet
facet normal 1.2747639921406496e-17 -3.661458386813908e-17 -1.0
  outer loop
    vertex 28.999999999999993 6.3 0.0
    vertex 35.99999999999999 8.499999999999996 0.0
    vertex 30.49999999999999 6.3 3.524958103184872e-16
  endloop
endfacet
facet normal 1.2747639921406496e-17 -3.661458386813908e-17 -1.0
  outer loop
    vertex 28.999999999999993 6.3 0.0
    vertex 30.49999999999999 6.3 3.524958103184872e-16
    vertex 28.999999999999993 0.19999999999999998 0.0
  endloop
endfacet
facet normal 1.2747639921406496e-17 -3.661458386813908e-17 -1.0
  outer loop
    vertex 28.999999999999993 0.19999999999999998 0.0
    vertex 30.49999999999999 6.3 3.524958103184872e-16
    vertex 28.999999999999993 -1.9999999999999998 0.0
  endloop
endfacet
facet normal 1.2747639921406496e-17 -3.661458386813908e-17 -1.0
  outer loop
    vertex 30.49999999999999 6.3 3.524958103184872e-16
    vertex 35.99999999999999 8.499999999999996 0.0
    vertex 34.5 6.3 3.524958103184872e-16
  endloop
endfacet
facet normal 1.2747639921406496e-17 -3.661458386813908e-17 -1.0
  outer loop
    vertex 34.5 6.3 3.524958103184872e-16
    vertex 35.99999999999999 8.499999999999996 0.0
    vertex 34.5 3.6500000000000004 3.524958103184872e-16
  endloop
endfacet
facet normal 1.2747639921406496e-17 -3.661458386813908e-17 -1.0
  outer loop
    vertex 34.5 3.6500000000000004 3.524958103184872e-16
    vertex 35.99999999999999 8.499999999999996 0.0
    vertex 34.5 2.8499999999999974 1.4099832412739487e-15
  endloop
endfacet
facet normal 1.2747639921406496e-17 -3.661458386813908e-17 -1.0
  outer loop
    vertex 34.5 2.8499999999999974 1.4099832412739487e-15
    vertex 35.99999999999999 8.499999999999996 0.0
    vertex 34.5 0.19999999999999962 2.46747067222941e-15
  endloop
endfacet
facet normal 1.2747639921406496e-17 -3.661458386813908e-17 -1.0
  outer loop
    vertex 38.0 6.3 0.0
    vertex 35.99999999999999 0.19999999999999998 0.0
    vertex 35.99999999999999 6.3 0.0
  endloop
endfacet
facet normal 1.2747639921406496e-17 -3.661458386813908e-17 -1.0
  outer loop
    vertex 35.99999999999999 0.19999999999999998 0.0
    vertex 38.0 6.3 0.0
    vertex 38.0 0.19999999999999998 0.0
  endloop
endfacet
facet normal 1.2747639921406496e-17 -3.661458386813908e-17 -1.0
  outer loop
    vertex 28.999999999999993 -1.9999999999999998 0.0
    vertex 30.49999999999999 0.19999999999999962 2.46747067222941e-15
    vertex 35.99999999999999 -1.9999999999999998 0.0
  endloop
endfacet
facet normal 1.2747639921406496e-17 -3.661458386813908e-17 -1.0
  outer loop
    vertex 30.49999999999999 0.19999999999999962 2.46747067222941e-15
    vertex 28.999999999999993 -1.9999999999999998 0.0
    vertex 30.49999999999999 6.3 3.524958103184872e-16
  endloop
endfacet
facet normal 1.2747639921406496e-17 -3.661458386813908e-17 -1.0
  outer loop
    vertex 35.99999999999999 -1.9999999999999998 0.0
    vertex 30.49999999999999 0.19999999999999962 2.46747067222941e-15
    vertex 34.5 0.19999999999999962 2.46747067222941e-15
  endloop
endfacet
facet normal 1.2747639921406496e-17 -3.661458386813908e-17 -1.0
  outer loop
    vertex 35.99999999999999 -1.9999999999999998 0.0
    vertex 34.5 0.19999999999999962 2.46747067222941e-15
    vertex 35.99999999999999 8.499999999999996 0.0
  endloop
endfacet
facet normal 1.2747639921406496e-17 -3.661458386813908e-17 -1.0
  outer loop
    vertex 35.99999999999999 -1.9999999999999998 0.0
    vertex 35.99999999999999 8.499999999999996 0.0
    vertex 35.99999999999999 6.3 0.0
  endloop
endfacet
facet normal 1.2747639921406496e-17 -3.661458386813908e-17 -1.0
  outer loop
    vertex 35.99999999999999 -1.9999999999999998 0.0
    vertex 35.99999999999999 6.3 0.0
    vertex 35.99999999999999 0.19999999999999998 0.0
  endloop
endfacet
facet normal 1.2747639921406496e-17 -3.661458386813908e-17 -1.0
  outer loop
    vertex -2.999999999999995 8.499999999999996 0.0
    vertex -9.999999999999996 6.3 0.0
    vertex -9.999999999999996 8.499999999999996 0.0
  endloop
endfacet
facet normal 1.2747639921406496e-17 -3.661458386813908e-17 -1.0
  outer loop
    vertex -9.999999999999996 6.3 0.0
    vertex -2.999999999999995 8.499999999999996 0.0
    vertex -8.499999999999998 6.3 3.524958103184872e-15
  endloop
endfacet
facet normal 1.2747639921406496e-17 -3.661458386813908e-17 -1.0
  outer loop
    vertex -9.999999999999996 6.3 0.0
    vertex -8.499999999999998 6.3 3.524958103184872e-15
    vertex -9.999999999999996 0.19999999999999998 0.0
  endloop
endfacet
facet normal 1.2747639921406496e-17 -3.661458386813908e-17 -1.0
  outer loop
    vertex -9.999999999999996 0.19999999999999998 0.0
    vertex -8.499999999999998 6.3 3.524958103184872e-15
    vertex -9.999999999999996 -1.9999999999999998 0.0
  endloop
endfacet
facet normal 1.2747639921406496e-17 -3.661458386813908e-17 -1.0
  outer loop
    vertex -8.499999999999998 6.3 3.524958103184872e-15
    vertex -2.999999999999995 8.499999999999996 0.0
    vertex -4.499999999999998 6.3 3.524958103184872e-15
  endloop
endfacet
facet normal 1.2747639921406496e-17 -3.661458386813908e-17 -1.0
  outer loop
    vertex -4.499999999999998 6.3 3.524958103184872e-15
    vertex -2.999999999999995 8.499999999999996 0.0
    vertex -4.499999999999998 0.19999999999999998 3.524958103184872e-15
  endloop
endfacet
facet normal 1.2747639921406496e-17 -3.661458386813908e-17 -1.0
  outer loop
    vertex 28.999999999999993 6.3 0.0
    vertex -2.999999999999995 0.19999999999999998 0.0
    vertex -2.999999999999995 6.3 0.0
  endloop
endfacet
facet normal 1.2747639921406496e-17 -3.661458386813908e-17 -1.0
  outer loop
    vertex -2.999999999999995 0.19999999999999998 0.0
    vertex 28.999999999999993 6.3 0.0
    vertex 28.999999999999993 0.19999999999999998 0.0
  endloop
endfacet
facet normal 1.2747639921406496e-17 -3.661458386813908e-17 -1.0
  outer loop
    vertex -9.999999999999996 -1.9999999999999998 0.0
    vertex -8.499999999999998 0.19999999999999998 3.524958103184872e-15
    vertex -2.999999999999995 -1.9999999999999998 0.0
  endloop
endfacet
facet normal 1.2747639921406496e-17 -3.661458386813908e-17 -1.0
  outer loop
    vertex -8.499999999999998 0.19999999999999998 3.524958103184872e-15
    vertex -9.999999999999996 -1.9999999999999998 0.0
    vertex -8.499999999999998 6.3 3.524958103184872e-15
  endloop
endfacet
facet normal 1.2747639921406496e-17 -3.661458386813908e-17 -1.0
  outer loop
    vertex -2.999999999999995 -1.9999999999999998 0.0
    vertex -8.499999999999998 0.19999999999999998 3.524958103184872e-15
    vertex -4.499999999999998 0.19999999999999998 3.524958103184872e-15
  endloop
endfacet
facet normal 1.2747639921406496e-17 -3.661458386813908e-17 -1.0
  outer loop
    vertex -2.999999999999995 -1.9999999999999998 0.0
    vertex -4.499999999999998 0.19999999999999998 3.524958103184872e-15
    vertex -2.999999999999995 8.499999999999996 0.0
  endloop
endfacet
facet normal 1.2747639921406496e-17 -3.661458386813908e-17 -1.0
  outer loop
    vertex -2.999999999999995 -1.9999999999999998 0.0
    vertex -2.999999999999995 8.499999999999996 0.0
    vertex -2.999999999999995 6.3 0.0
  endloop
endfacet
facet normal 1.2747639921406496e-17 -3.661458386813908e-17 -1.0
  outer loop
    vertex -2.999999999999995 -1.9999999999999998 0.0
    vertex -2.999999999999995 6.3 0.0
    vertex -2.999999999999995 0.19999999999999998 0.0
  endloop
endfacet
facet normal 1.2747639921406496e-17 -3.661458386813908e-17 -1.0
  outer loop
    vertex -9.999999999999996 6.3 0.0
    vertex -11.999999999999995 0.19999999999999998 0.0
    vertex -11.999999999999995 6.3 0.0
  endloop
endfacet
facet normal 1.2747639921406496e-17 -3.661458386813908e-17 -1.0
  outer loop
    vertex -11.999999999999995 0.19999999999999998 0.0
    vertex -9.999999999999996 6.3 0.0
    vertex -9.999999999999996 0.19999999999999998 0.0
  endloop
endfacet
facet normal 1.0 -0.0 -0.0
  outer loop
    vertex 30.49999999999999 0.19999999999999962 2.46747067222941e-15
    vertex 30.49999999999999 0.5999999999999994 3.2499999999999982
    vertex 30.49999999999999 0.19999999999999998 6.3
  endloop
endfacet
facet normal 1.0 -0.0 -0.0
  outer loop
    vertex 30.49999999999999 0.5999999999999994 3.2499999999999982
    vertex 30.49999999999999 0.19999999999999962 2.46747067222941e-15
    vertex 30.49999999999999 3.2499999999999996 0.6
  endloop
endfacet
facet normal 1.0 -0.0 -0.0
  outer loop
    vertex 30.49999999999999 3.2499999999999996 0.6
    vertex 30.49999999999999 0.19999999999999962 2.46747067222941e-15
    vertex 30.49999999999999 6.3 3.524958103184872e-16
  endloop
endfacet
facet normal 1.0 -0.0 -0.0
  outer loop
    vertex 30.49999999999999 3.2499999999999996 0.6
    vertex 30.49999999999999 6.3 3.524958103184872e-16
    vertex 30.49999999999999 5.8999999999999995 3.2499999999999996
  endloop
endfacet
facet normal 1.0 -0.0 -0.0
  outer loop
    vertex 30.49999999999999 0.19999999999999998 6.3
    vertex 30.49999999999999 3.249999999999999 5.8999999999999995
    vertex 30.49999999999999 6.3 6.3
  endloop
endfacet
facet normal 1.0 -0.0 -0.0
  outer loop
    vertex 30.49999999999999 3.249999999999999 5.8999999999999995
    vertex 30.49999999999999 0.19999999999999998 6.3
    vertex 30.49999999999999 0.5999999999999994 3.2499999999999982
  endloop
endfacet
facet normal 1.0 -0.0 -0.0
  outer loop
    vertex 30.49999999999999 6.3 6.3
    vertex 30.49999999999999 3.249999999999999 5.8999999999999995
    vertex 30.49999999999999 5.8999999999999995 3.2499999999999996
  endloop
endfacet
facet normal 1.0 -0.0 -0.0
  outer loop
    vertex 30.49999999999999 6.3 6.3
    vertex 30.49999999999999 5.8999999999999995 3.2499999999999996
    vertex 30.49999999999999 6.3 3.524958103184872e-16
  endloop
endfacet
facet normal -1.0 0.0 0.0
  outer loop
    vertex 28.999999999999993 8.499999999999996 6.3
    vertex 28.999999999999993 6.3 0.0
    vertex 28.999999999999993 6.3 6.3
  endloop
endfacet
facet normal -1.0 0.0 0.0
  outer loop
    vertex 28.999999999999993 6.3 0.0
    vertex 28.999999999999993 8.499999999999996 6.3
    vertex 28.999999999999993 8.499999999999996 0.0
  endloop
endfacet
facet normal -0.0 1.0 -0.0
  outer loop
    vertex 28.999999999999993 8.499999999999996 6.3
    vertex 35.99999999999999 8.499999999999996 0.0
    vertex 28.999999999999993 8.499999999999996 0.0
  endloop
endfacet
facet normal -0.0 1.0 -0.0
  outer loop
    vertex 35.99999999999999 8.499999999999996 0.0
    vertex 28.999999999999993 8.499999999999996 6.3
    vertex 35.99999999999999 8.499999999999996 6.3
  endloop
endfacet
facet normal 1.0 0.0 0.0
  outer loop
    vertex 35.99999999999999 8.499999999999996 0.0
    vertex 35.99999999999999 6.3 6.3
    vertex 35.99999999999999 6.3 0.0
  endloop
endfacet
facet normal 1.0 0.0 0.0
  outer loop
    vertex 35.99999999999999 6.3 6.3
    vertex 35.99999999999999 8.499999999999996 0.0
    vertex 35.99999999999999 8.499999999999996 6.3
  endloop
endfacet
facet normal -1.0 0.0 0.0
  outer loop
    vertex 34.5 3.2499999999999996 6.3
    vertex 34.5 5.8999999999999995 3.2499999999999996
    vertex 34.5 3.249999999999999 5.8999999999999995
  endloop
endfacet
facet normal -1.0 0.0 0.0
  outer loop
    vertex 34.5 5.8999999999999995 3.2499999999999996
    vertex 34.5 3.2499999999999996 6.3
    vertex 34.5 6.3 6.3
  endloop
endfacet
facet normal -1.0 0.0 0.0
  outer loop
    vertex 34.5 5.8999999999999995 3.2499999999999996
    vertex 34.5 3.6500000000000004 3.524958103184872e-16
    vertex 34.5 3.6500000000000004 1.0000000000000002
  endloop
endfacet
facet normal -1.0 0.0 0.0
  outer loop
    vertex 34.5 3.6500000000000004 3.524958103184872e-16
    vertex 34.5 5.8999999999999995 3.2499999999999996
    vertex 34.5 6.3 3.524958103184872e-16
  endloop
endfacet
facet normal -1.0 0.0 0.0
  outer loop
    vertex 34.5 6.3 3.524958103184872e-16
    vertex 34.5 5.8999999999999995 3.2499999999999996
    vertex 34.5 6.3 6.3
  endloop
endfacet
facet normal 0.0 -1.0 0.0
  outer loop
    vertex 34.5 6.3 6.3
    vertex 30.49999999999999 6.3 3.524958103184872e-16
    vertex 34.5 6.3 3.524958103184872e-16
  endloop
endfacet
facet normal 0.0 -1.0 0.0
  outer loop
    vertex 30.49999999999999 6.3 3.524958103184872e-16
    vertex 34.5 6.3 6.3
    vertex 30.49999999999999 6.3 6.3
  endloop
endfacet
facet normal 0.0 -1.0 0.0
  outer loop
    vertex -9.999999999999996 0.19999999999999998 6.3
    vertex -11.999999999999995 0.19999999999999998 0.0
    vertex -9.999999999999996 0.19999999999999998 0.0
  endloop
endfacet
facet normal 0.0 -1.0 0.0
  outer loop
    vertex -11.999999999999995 0.19999999999999998 0.0
    vertex -9.999999999999996 0.19999999999999998 6.3
    vertex -11.999999999999995 0.19999999999999998 6.3
  endloop
endfacet
facet normal 0.0 -1.0 0.0
  outer loop
    vertex -2.999999999999995 -1.9999999999999998 6.3
    vertex -9.999999999999996 -1.9999999999999998 0.0
    vertex -2.999999999999995 -1.9999999999999998 0.0
  endloop
endfacet
facet normal 0.0 -1.0 0.0
  outer loop
    vertex -9.999999999999996 -1.9999999999999998 0.0
    vertex -2.999999999999995 -1.9999999999999998 6.3
    vertex -9.999999999999996 -1.9999999999999998 6.3
  endloop
endfacet
facet normal 1.0 -0.0 -0.0
  outer loop
    vertex -2.999999999999995 0.19999999999999998 0.0
    vertex -2.999999999999995 -1.9999999999999998 6.3
    vertex -2.999999999999995 -1.9999999999999998 0.0
  endloop
endfacet
facet normal 1.0 -0.0 -0.0
  outer loop
    vertex -2.999999999999995 -1.9999999999999998 6.3
    vertex -2.999999999999995 0.19999999999999998 0.0
    vertex -2.999999999999995 0.19999999999999998 6.3
  endloop
endfacet
facet normal -1.0 0.0 0.0
  outer loop
    vertex -9.999999999999996 0.19999999999999998 6.3
    vertex -9.999999999999996 -1.9999999999999998 0.0
    vertex -9.999999999999996 -1.9999999999999998 6.3
  endloop
endfacet
facet normal -1.0 0.0 0.0
  outer loop
    vertex -9.999999999999996 -1.9999999999999998 0.0
    vertex -9.999999999999996 0.19999999999999998 6.3
    vertex -9.999999999999996 0.19999999999999998 0.0
  endloop
endfacet
facet normal 0.0 0.0 1.0
  outer loop
    vertex -2.999999999999995 -1.9999999999999998 6.3
    vertex -9.999999999999996 0.19999999999999998 6.3
    vertex -9.999999999999996 -1.9999999999999998 6.3
  endloop
endfacet
facet normal 0.0 0.0 1.0
  outer loop
    vertex -9.999999999999996 0.19999999999999998 6.3
    vertex -2.999999999999995 -1.9999999999999998 6.3
    vertex -8.499999999999998 0.19999999999999998 6.3
  endloop
endfacet
facet normal 0.0 0.0 1.0
  outer loop
    vertex -9.999999999999996 0.19999999999999998 6.3
    vertex -8.499999999999998 0.19999999999999998 6.3
    vertex -9.999999999999996 6.3 6.3
  endloop
endfacet
facet normal 0.0 0.0 1.0
  outer loop
    vertex -9.999999999999996 6.3 6.3
    vertex -8.499999999999998 0.19999999999999998 6.3
    vertex -9.999999999999996 8.499999999999996 6.3
  endloop
endfacet
facet normal 0.0 0.0 1.0
  outer loop
    vertex -8.499999999999998 0.19999999999999998 6.3
    vertex -2.999999999999995 -1.9999999999999998 6.3
    vertex -4.499999999999998 0.19999999999999998 6.3
  endloop
endfacet
facet normal 0.0 0.0 1.0
  outer loop
    vertex -4.499999999999998 0.19999999999999998 6.3
    vertex -2.999999999999995 -1.9999999999999998 6.3
    vertex -4.499999999999998 6.3 6.3
  endloop
endfacet
facet normal 0.0 0.0 1.0
  outer loop
    vertex 28.999999999999993 0.19999999999999998 6.3
    vertex -2.999999999999995 6.3 6.3
    vertex -2.999999999999995 0.19999999999999998 6.3
  endloop
endfacet
facet normal 0.0 0.0 1.0
  outer loop
    vertex -2.999999999999995 6.3 6.3
    vertex 28.999999999999993 0.19999999999999998 6.3
    vertex 28.999999999999993 6.3 6.3
  endloop
endfacet
facet normal 0.0 0.0 1.0
  outer loop
    vertex -9.999999999999996 8.499999999999996 6.3
    vertex -8.499999999999998 6.3 6.3
    vertex -2.999999999999995 8.499999999999996 6.3
  endloop
endfacet
facet normal 0.0 0.0 1.0
  outer loop
    vertex -8.499999999999998 6.3 6.3
    vertex -9.999999999999996 8.499999999999996 6.3
    vertex -8.499999999999998 0.19999999999999998 6.3
  endloop
endfacet
facet normal 0.0 0.0 1.0
  outer loop
    vertex -2.999999999999995 8.499999999999996 6.3
    vertex -8.499999999999998 6.3 6.3
    vertex -4.499999999999998 6.3 6.3
  endloop
endfacet
facet normal 0.0 0.0 1.0
  outer loop
    vertex -2.999999999999995 8.499999999999996 6.3
    vertex -4.499999999999998 6.3 6.3
    vertex -2.999999999999995 -1.9999999999999998 6.3
  endloop
endfacet
facet normal 0.0 0.0 1.0
  outer loop
    vertex -2.999999999999995 8.499999999999996 6.3
    vertex -2.999999999999995 -1.9999999999999998 6.3
    vertex -2.999999999999995 0.19999999999999998 6.3
  endloop
endfacet
facet normal 0.0 0.0 1.0
  outer loop
    vertex -2.999999999999995 8.499999999999996 6.3
    vertex -2.999999999999995 0.19999999999999998 6.3
    vertex -2.999999999999995 6.3 6.3
  endloop
endfacet
facet normal 0.0 0.0 1.0
  outer loop
    vertex 35.99999999999999 -1.9999999999999998 6.3
    vertex 28.999999999999993 0.19999999999999998 6.3
    vertex 28.999999999999993 -1.9999999999999998 6.3
  endloop
endfacet
facet normal 0.0 0.0 1.0
  outer loop
    vertex 28.999999999999993 0.19999999999999998 6.3
    vertex 35.99999999999999 -1.9999999999999998 6.3
    vertex 30.49999999999999 0.19999999999999998 6.3
  endloop
endfacet
facet normal 0.0 0.0 1.0
  outer loop
    vertex 28.999999999999993 0.19999999999999998 6.3
    vertex 30.49999999999999 0.19999999999999998 6.3
    vertex 28.999999999999993 6.3 6.3
  endloop
endfacet
facet normal 0.0 0.0 1.0
  outer loop
    vertex 28.999999999999993 6.3 6.3
    vertex 30.49999999999999 0.19999999999999998 6.3
    vertex 28.999999999999993 8.499999999999996 6.3
  endloop
endfacet
facet normal 0.0 0.0 1.0
  outer loop
    vertex 30.49999999999999 0.19999999999999998 6.3
    vertex 35.99999999999999 -1.9999999999999998 6.3
    vertex 34.5 0.19999999999999998 6.3
  endloop
endfacet
facet normal 0.0 0.0 1.0
  outer loop
    vertex 34.5 0.19999999999999998 6.3
    vertex 35.99999999999999 -1.9999999999999998 6.3
    vertex 34.5 3.2499999999999996 6.3
  endloop
endfacet
facet normal 0.0 0.0 1.0
  outer loop
    vertex 34.5 3.2499999999999996 6.3
    vertex 35.99999999999999 -1.9999999999999998 6.3
    vertex 34.5 6.3 6.3
  endloop
endfacet
facet normal 0.0 0.0 1.0
  outer loop
    vertex 38.0 0.19999999999999998 6.3
    vertex 35.99999999999999 6.3 6.3
    vertex 35.99999999999999 0.19999999999999998 6.3
  endloop
endfacet
facet normal 0.0 0.0 1.0
  outer loop
    vertex 35.99999999999999 6.3 6.3
    vertex 38.0 0.19999999999999998 6.3
    vertex 38.0 6.3 6.3
  endloop
endfacet
facet normal 0.0 0.0 1.0
  outer loop
    vertex 28.999999999999993 8.499999999999996 6.3
    vertex 30.49999999999999 6.3 6.3
    vertex 35.99999999999999 8.499999999999996 6.3
  endloop
endfacet
facet normal 0.0 0.0 1.0
  outer loop
    vertex 30.49999999999999 6.3 6.3
    vertex 28.999999999999993 8.499999999999996 6.3
    vertex 30.49999999999999 0.19999999999999998 6.3
  endloop
endfacet
facet normal 0.0 0.0 1.0
  outer loop
    vertex 35.99999999999999 8.499999999999996 6.3
    vertex 30.49999999999999 6.3 6.3
    vertex 34.5 6.3 6.3
  endloop
endfacet
facet normal 0.0 0.0 1.0
  outer loop
    vertex 35.99999999999999 8.499999999999996 6.3
    vertex 34.5 6.3 6.3
    vertex 35.99999999999999 -1.9999999999999998 6.3
  endloop
endfacet
facet normal 0.0 0.0 1.0
  outer loop
    vertex 35.99999999999999 8.499999999999996 6.3
    vertex 35.99999999999999 -1.9999999999999998 6.3
    vertex 35.99999999999999 0.19999999999999998 6.3
  endloop
endfacet
facet normal 0.0 0.0 1.0
  outer loop
    vertex 35.99999999999999 8.499999999999996 6.3
    vertex 35.99999999999999 0.19999999999999998 6.3
    vertex 35.99999999999999 6.3 6.3
  endloop
endfacet
facet normal 0.0 0.0 1.0
  outer loop
    vertex -9.999999999999996 0.19999999999999998 6.3
    vertex -11.999999999999995 6.3 6.3
    vertex -11.999999999999995 0.19999999999999998 6.3
  endloop
endfacet
facet normal 0.0 0.0 1.0
  outer loop
    vertex -11.999999999999995 6.3 6.3
    vertex -9.999999999999996 0.19999999999999998 6.3
    vertex -9.999999999999996 6.3 6.3
  endloop
endfacet
facet normal 0.0 1.0 0.0
  outer loop
    vertex -2.999999999999995 6.3 6.3
    vertex 28.999999999999993 6.3 0.0
    vertex -2.999999999999995 6.3 0.0
  endloop
endfacet
facet normal 0.0 1.0 0.0
  outer loop
    vertex 28.999999999999993 6.3 0.0
    vertex -2.999999999999995 6.3 6.3
    vertex 28.999999999999993 6.3 6.3
  endloop
endfacet
facet normal -0.0 1.0 -0.0
  outer loop
    vertex -9.999999999999996 8.499999999999996 6.3
    vertex -2.999999999999995 8.499999999999996 0.0
    vertex -9.999999999999996 8.499999999999996 0.0
  endloop
endfacet
facet normal -0.0 1.0 -0.0
  outer loop
    vertex -2.999999999999995 8.499999999999996 0.0
    vertex -9.999999999999996 8.499999999999996 6.3
    vertex -2.999999999999995 8.499999999999996 6.3
  endloop
endfacet
facet normal 1.0 -0.0 -0.0
  outer loop
    vertex -2.999999999999995 8.499999999999996 0.0
    vertex -2.999999999999995 6.3 6.3
    vertex -2.999999999999995 6.3 0.0
  endloop
endfacet
facet normal 1.0 -0.0 -0.0
  outer loop
    vertex -2.999999999999995 6.3 6.3
    vertex -2.999999999999995 8.499999999999996 0.0
    vertex -2.999999999999995 8.499999999999996 6.3
  endloop
endfacet
facet normal -1.0 0.0 0.0
  outer loop
    vertex -9.999999999999996 8.499999999999996 6.3
    vertex -9.999999999999996 6.3 0.0
    vertex -9.999999999999996 6.3 6.3
  endloop
endfacet
facet normal -1.0 0.0 0.0
  outer loop
    vertex -9.999999999999996 6.3 0.0
    vertex -9.999999999999996 8.499999999999996 6.3
    vertex -9.999999999999996 8.499999999999996 0.0
  endloop
endfacet
facet normal -1.0 0.0 0.0
  outer loop
    vertex -4.499999999999998 0.19999999999999998 6.3
    vertex -4.499999999999998 0.5999999999999996 3.2499999999999982
    vertex -4.499999999999998 0.19999999999999998 3.524958103184872e-15
  endloop
endfacet
facet normal -1.0 0.0 0.0
  outer loop
    vertex -4.499999999999998 0.5999999999999996 3.2499999999999982
    vertex -4.499999999999998 0.19999999999999998 6.3
    vertex -4.499999999999998 3.249999999999999 5.8999999999999995
  endloop
endfacet
facet normal -1.0 0.0 0.0
  outer loop
    vertex -4.499999999999998 3.249999999999999 5.8999999999999995
    vertex -4.499999999999998 0.19999999999999998 6.3
    vertex -4.499999999999998 6.3 6.3
  endloop
endfacet
facet normal -1.0 0.0 0.0
  outer loop
    vertex -4.499999999999998 3.249999999999999 5.8999999999999995
    vertex -4.499999999999998 6.3 6.3
    vertex -4.499999999999998 5.8999999999999995 3.2499999999999996
  endloop
endfacet
facet normal -1.0 0.0 0.0
  outer loop
    vertex -4.499999999999998 0.19999999999999998 3.524958103184872e-15
    vertex -4.499999999999998 3.2499999999999996 0.5999999999999999
    vertex -4.499999999999998 6.3 3.524958103184872e-15
  endloop
endfacet
facet normal -1.0 0.0 0.0
  outer loop
    vertex -4.499999999999998 3.2499999999999996 0.5999999999999999
    vertex -4.499999999999998 0.19999999999999998 3.524958103184872e-15
    vertex -4.499999999999998 0.5999999999999996 3.2499999999999982
  endloop
endfacet
facet normal -1.0 0.0 0.0
  outer loop
    vertex -4.499999999999998 6.3 3.524958103184872e-15
    vertex -4.499999999999998 3.2499999999999996 0.5999999999999999
    vertex -4.499999999999998 5.8999999999999995 3.2499999999999996
  endloop
endfacet
facet normal -1.0 0.0 0.0
  outer loop
    vertex -4.499999999999998 6.3 3.524958103184872e-15
    vertex -4.499999999999998 5.8999999999999995 3.2499999999999996
    vertex -4.499999999999998 6.3 6.3
  endloop
endfacet
facet normal 0.0 -1.0 0.0
  outer loop
    vertex -4.499999999999998 6.3 6.3
    vertex -8.499999999999998 6.3 3.524958103184872e-15
    vertex -4.499999999999998 6.3 3.524958103184872e-15
  endloop
endfacet
facet normal 0.0 -1.0 0.0
  outer loop
    vertex -8.499999999999998 6.3 3.524958103184872e-15
    vertex -4.499999999999998 6.3 6.3
    vertex -8.499999999999998 6.3 6.3
  endloop
endfacet
facet normal 1.0 0.0 0.0
  outer loop
    vertex -8.499999999999998 0.19999999999999998 3.524958103184872e-15
    vertex -8.499999999999998 0.5999999999999996 3.2499999999999982
    vertex -8.499999999999998 0.19999999999999998 6.3
  endloop
endfacet
facet normal 1.0 0.0 0.0
  outer loop
    vertex -8.499999999999998 0.5999999999999996 3.2499999999999982
    vertex -8.499999999999998 0.19999999999999998 3.524958103184872e-15
    vertex -8.499999999999998 3.2499999999999996 0.5999999999999999
  endloop
endfacet
facet normal 1.0 0.0 0.0
  outer loop
    vertex -8.499999999999998 3.2499999999999996 0.5999999999999999
    vertex -8.499999999999998 0.19999999999999998 3.524958103184872e-15
    vertex -8.499999999999998 6.3 3.524958103184872e-15
  endloop
endfacet
facet normal 1.0 0.0 0.0
  outer loop
    vertex -8.499999999999998 3.2499999999999996 0.5999999999999999
    vertex -8.499999999999998 6.3 3.524958103184872e-15
    vertex -8.499999999999998 5.8999999999999995 3.2499999999999996
  endloop
endfacet
facet normal 1.0 0.0 0.0
  outer loop
    vertex -8.499999999999998 0.19999999999999998 6.3
    vertex -8.499999999999998 3.249999999999999 5.8999999999999995
    vertex -8.499999999999998 6.3 6.3
  endloop
endfacet
facet normal 1.0 0.0 0.0
  outer loop
    vertex -8.499999999999998 3.249999999999999 5.8999999999999995
    vertex -8.499999999999998 0.19999999999999998 6.3
    vertex -8.499999999999998 0.5999999999999996 3.2499999999999982
  endloop
endfacet
facet normal 1.0 0.0 0.0
  outer loop
    vertex -8.499999999999998 6.3 6.3
    vertex -8.499999999999998 3.249999999999999 5.8999999999999995
    vertex -8.499999999999998 5.8999999999999995 3.2499999999999996
  endloop
endfacet
facet normal 1.0 0.0 0.0
  outer loop
    vertex -8.499999999999998 6.3 6.3
    vertex -8.499999999999998 5.8999999999999995 3.2499999999999996
    vertex -8.499999999999998 6.3 3.524958103184872e-15
  endloop
endfacet
facet normal 0.0 1.0 0.0
  outer loop
    vertex -8.499999999999998 0.19999999999999998 6.3
    vertex -4.499999999999998 0.19999999999999998 3.524958103184872e-15
    vertex -8.499999999999998 0.19999999999999998 3.524958103184872e-15
  endloop
endfacet
facet normal 0.0 1.0 0.0
  outer loop
    vertex -4.499999999999998 0.19999999999999998 3.524958103184872e-15
    vertex -8.499999999999998 0.19999999999999998 6.3
    vertex -4.499999999999998 0.19999999999999998 6.3
  endloop
endfacet
facet normal 5.5579361320949485e-18 -0.7071067811865477 0.7071067811865474
  outer loop
    vertex 30.49999999999999 3.2499999999999996 0.6
    vertex -4.499999999999998 5.8999999999999995 3.2499999999999996
    vertex -4.499999999999998 3.2499999999999996 0.5999999999999999
  endloop
endfacet
facet normal 5.5579361320949485e-18 -0.7071067811865477 0.7071067811865474
  outer loop
    vertex -4.499999999999998 5.8999999999999995 3.2499999999999996
    vertex 30.49999999999999 3.2499999999999996 0.6
    vertex 30.49999999999999 5.8999999999999995 3.2499999999999996
  endloop
endfacet
facet normal -0.0 0.7071067811865474 0.7071067811865477
  outer loop
    vertex -8.499999999999998 0.5999999999999996 3.2499999999999982
    vertex -11.999999999999972 3.2499999999999996 0.5999999999999999
    vertex -11.999999999999972 0.5999999999999996 3.2499999999999982
  endloop
endfacet
facet normal -0.0 0.7071067811865474 0.7071067811865477
  outer loop
    vertex -11.999999999999972 3.2499999999999996 0.5999999999999999
    vertex -8.499999999999998 0.5999999999999996 3.2499999999999982
    vertex -8.499999999999998 3.2499999999999996 0.5999999999999999
  endloop
endfacet
facet normal -0.0 0.7071067811865477 -0.7071067811865474
  outer loop
    vertex -11.999999999999972 3.249999999999999 5.8999999999999995
    vertex -8.499999999999998 0.5999999999999996 3.2499999999999982
    vertex -11.999999999999972 0.5999999999999996 3.2499999999999982
  endloop
endfacet
facet normal -0.0 0.7071067811865477 -0.7071067811865474
  outer loop
    vertex -8.499999999999998 0.5999999999999996 3.2499999999999982
    vertex -11.999999999999972 3.249999999999999 5.8999999999999995
    vertex -8.499999999999998 3.249999999999999 5.8999999999999995
  endloop
endfacet
facet normal 0.0 -0.7071067811865475 -0.7071067811865476
  outer loop
    vertex -8.499999999999998 5.8999999999999995 3.2499999999999996
    vertex -11.999999999999972 3.249999999999999 5.8999999999999995
    vertex -11.999999999999972 5.8999999999999995 3.2499999999999996
  endloop
endfacet
facet normal 0.0 -0.7071067811865475 -0.7071067811865476
  outer loop
    vertex -11.999999999999972 3.249999999999999 5.8999999999999995
    vertex -8.499999999999998 5.8999999999999995 3.2499999999999996
    vertex -8.499999999999998 3.249999999999999 5.8999999999999995
  endloop
endfacet
endsolid stompy_body_separater
