solid stompy_bottom_servo_armhorn_clamp
facet normal 0.0 0.0 -1.0
  outer loop
    vertex 0.0 12.999999999999996 0.0
    vertex 2.4340741737109317 8.758819045102522 0.0
    vertex 0.0 0.0 0.0
  endloop
endfacet
facet normal 0.0 0.0 -1.0
  outer loop
    vertex 2.4340741737109317 8.758819045102522 0.0
    vertex 0.0 12.999999999999996 0.0
    vertex 2.533974596215561 9.0 0.0
  endloop
endfacet
facet normal 0.0 0.0 -1.0
  outer loop
    vertex 2.533974596215561 9.0 0.0
    vertex 0.0 12.999999999999996 0.0
    vertex 2.6928932188134524 9.207106781186548 0.0
  endloop
endfacet
facet normal 0.0 0.0 -1.0
  outer loop
    vertex 2.6928932188134524 9.207106781186548 0.0
    vertex 0.0 12.999999999999996 0.0
    vertex 6.8 12.999999999999996 0.0
  endloop
endfacet
facet normal 0.0 0.0 -1.0
  outer loop
    vertex 0.0 0.0 0.0
    vertex 2.4340741737109317 8.758819045102522 0.0
    vertex 2.4 8.5 0.0
  endloop
endfacet
facet normal 0.0 0.0 -1.0
  outer loop
    vertex 2.6928932188134524 9.207106781186548 0.0
    vertex 6.8 12.999999999999996 0.0
    vertex 2.9000000000000004 9.36602540378444 0.0
  endloop
endfacet
facet normal 0.0 0.0 -1.0
  outer loop
    vertex 2.9000000000000004 9.36602540378444 0.0
    vertex 6.8 12.999999999999996 0.0
    vertex 3.1411809548974796 9.465925826289068 0.0
  endloop
endfacet
facet normal 0.0 0.0 -1.0
  outer loop
    vertex 3.1411809548974796 9.465925826289068 0.0
    vertex 6.8 12.999999999999996 0.0
    vertex 3.4 9.5 0.0
  endloop
endfacet
facet normal 0.0 0.0 -1.0
  outer loop
    vertex 3.4 9.5 0.0
    vertex 6.8 12.999999999999996 0.0
    vertex 3.6588190451025215 9.465925826289068 0.0
  endloop
endfacet
facet normal 0.0 0.0 -1.0
  outer loop
    vertex 3.6588190451025215 9.465925826289068 0.0
    vertex 6.8 12.999999999999996 0.0
    vertex 3.900000000000001 9.36602540378444 0.0
  endloop
endfacet
facet normal 0.0 0.0 -1.0
  outer loop
    vertex 3.900000000000001 9.36602540378444 0.0
    vertex 6.8 12.999999999999996 0.0
    vertex 4.107106781186548 9.207106781186548 0.0
  endloop
endfacet
facet normal 0.0 0.0 -1.0
  outer loop
    vertex 4.107106781186548 9.207106781186548 0.0
    vertex 6.8 12.999999999999996 0.0
    vertex 4.26602540378444 9.0 0.0
  endloop
endfacet
facet normal 0.0 0.0 -1.0
  outer loop
    vertex 4.26602540378444 9.0 0.0
    vertex 6.8 12.999999999999996 0.0
    vertex 4.365925826289069 8.758819045102522 0.0
  endloop
endfacet
facet normal 0.0 0.0 -1.0
  outer loop
    vertex 4.365925826289069 8.758819045102522 0.0
    vertex 6.8 12.999999999999996 0.0
    vertex 4.4 8.5 0.0
  endloop
endfacet
facet normal 0.0 0.0 -1.0
  outer loop
    vertex 4.4 8.5 0.0
    vertex 6.8 12.999999999999996 0.0
    vertex 4.4 4.499999999999999 0.0
  endloop
endfacet
facet normal 0.0 0.0 -1.0
  outer loop
    vertex 0.0 0.0 0.0
    vertex 2.692893218813452 3.7928932188134525 0.0
    vertex 6.8 0.0 0.0
  endloop
endfacet
facet normal 0.0 0.0 -1.0
  outer loop
    vertex 2.692893218813452 3.7928932188134525 0.0
    vertex 0.0 0.0 0.0
    vertex 2.533974596215561 3.9999999999999996 0.0
  endloop
endfacet
facet normal 0.0 0.0 -1.0
  outer loop
    vertex 2.533974596215561 3.9999999999999996 0.0
    vertex 0.0 0.0 0.0
    vertex 2.4340741737109317 4.241180954897479 0.0
  endloop
endfacet
facet normal 0.0 0.0 -1.0
  outer loop
    vertex 2.4340741737109317 4.241180954897479 0.0
    vertex 0.0 0.0 0.0
    vertex 2.4 4.499999999999999 0.0
  endloop
endfacet
facet normal 0.0 0.0 -1.0
  outer loop
    vertex 2.4 4.499999999999999 0.0
    vertex 0.0 0.0 0.0
    vertex 2.4 8.5 0.0
  endloop
endfacet
facet normal 0.0 0.0 -1.0
  outer loop
    vertex 6.8 0.0 0.0
    vertex 2.692893218813452 3.7928932188134525 0.0
    vertex 2.8999999999999995 3.633974596215561 0.0
  endloop
endfacet
facet normal 0.0 0.0 -1.0
  outer loop
    vertex 6.8 0.0 0.0
    vertex 2.8999999999999995 3.633974596215561 0.0
    vertex 3.1411809548974783 3.534074173710931 0.0
  endloop
endfacet
facet normal 0.0 0.0 -1.0
  outer loop
    vertex 6.8 0.0 0.0
    vertex 3.1411809548974783 3.534074173710931 0.0
    vertex 3.4 3.499999999999999 0.0
  endloop
endfacet
facet normal 0.0 0.0 -1.0
  outer loop
    vertex 6.8 0.0 0.0
    vertex 3.4 3.499999999999999 0.0
    vertex 3.6588190451025207 3.534074173710931 0.0
  endloop
endfacet
facet normal 0.0 0.0 -1.0
  outer loop
    vertex 6.8 0.0 0.0
    vertex 3.6588190451025207 3.534074173710931 0.0
    vertex 3.9 3.6339745962155603 0.0
  endloop
endfacet
facet normal 0.0 0.0 -1.0
  outer loop
    vertex 6.8 0.0 0.0
    vertex 3.9 3.6339745962155603 0.0
    vertex 4.107106781186547 3.7928932188134517 0.0
  endloop
endfacet
facet normal 0.0 0.0 -1.0
  outer loop
    vertex 6.8 0.0 0.0
    vertex 4.107106781186547 3.7928932188134517 0.0
    vertex 4.266025403784439 3.999999999999999 0.0
  endloop
endfacet
facet normal 0.0 0.0 -1.0
  outer loop
    vertex 6.8 0.0 0.0
    vertex 4.266025403784439 3.999999999999999 0.0
    vertex 4.365925826289069 4.241180954897478 0.0
  endloop
endfacet
facet normal 0.0 0.0 -1.0
  outer loop
    vertex 6.8 0.0 0.0
    vertex 4.365925826289069 4.241180954897478 0.0
    vertex 4.4 4.499999999999999 0.0
  endloop
endfacet
facet normal 0.0 0.0 -1.0
  outer loop
    vertex 6.8 0.0 0.0
    vertex 4.4 4.499999999999999 0.0
    vertex 6.8 12.999999999999996 0.0
  endloop
endfacet
facet normal 0.0 0.0 -1.0
  outer loop
    vertex 2.4340741737109317 8.24118095489748 0.0
    vertex 2.4 4.499999999999999 0.0
    vertex 2.4 8.5 0.0
  endloop
endfacet
facet normal 0.0 0.0 -1.0
  outer loop
    vertex 2.4 4.499999999999999 0.0
    vertex 2.4340741737109317 8.24118095489748 0.0
    vertex 2.4340741737109317 4.758819045102521 0.0
  endloop
endfacet
facet normal 0.0 0.0 -1.0
  outer loop
    vertex 2.4340741737109317 4.758819045102521 0.0
    vertex 2.4340741737109317 8.24118095489748 0.0
    vertex 2.533974596215561 7.999999999999999 0.0
  endloop
endfacet
facet normal 0.0 0.0 -1.0
  outer loop
    vertex 2.4340741737109317 4.758819045102521 0.0
    vertex 2.533974596215561 7.999999999999999 0.0
    vertex 2.533974596215561 5.0 0.0
  endloop
endfacet
facet normal 0.0 0.0 -1.0
  outer loop
    vertex 2.533974596215561 5.0 0.0
    vertex 2.533974596215561 7.999999999999999 0.0
    vertex 2.692893218813452 7.792893218813452 0.0
  endloop
endfacet
facet normal 0.0 0.0 -1.0
  outer loop
    vertex 2.533974596215561 5.0 0.0
    vertex 2.692893218813452 7.792893218813452 0.0
    vertex 2.6928932188134524 5.207106781186547 0.0
  endloop
endfacet
facet normal 0.0 0.0 -1.0
  outer loop
    vertex 2.6928932188134524 5.207106781186547 0.0
    vertex 2.692893218813452 7.792893218813452 0.0
    vertex 2.8999999999999995 7.633974596215561 0.0
  endloop
endfacet
facet normal 0.0 0.0 -1.0
  outer loop
    vertex 2.6928932188134524 5.207106781186547 0.0
    vertex 2.8999999999999995 7.633974596215561 0.0
    vertex 2.9000000000000004 5.366025403784438 0.0
  endloop
endfacet
facet normal 0.0 0.0 -1.0
  outer loop
    vertex 2.9000000000000004 5.366025403784438 0.0
    vertex 2.8999999999999995 7.633974596215561 0.0
    vertex 3.1411809548974783 7.534074173710932 0.0
  endloop
endfacet
facet normal 0.0 0.0 -1.0
  outer loop
    vertex 2.9000000000000004 5.366025403784438 0.0
    vertex 3.1411809548974783 7.534074173710932 0.0
    vertex 3.1411809548974796 5.465925826289068 0.0
  endloop
endfacet
facet normal 0.0 0.0 -1.0
  outer loop
    vertex 3.1411809548974796 5.465925826289068 0.0
    vertex 3.1411809548974783 7.534074173710932 0.0
    vertex 3.4 7.5 0.0
  endloop
endfacet
facet normal 0.0 0.0 -1.0
  outer loop
    vertex 3.1411809548974796 5.465925826289068 0.0
    vertex 3.4 7.5 0.0
    vertex 3.4 5.5 0.0
  endloop
endfacet
facet normal 0.0 0.0 -1.0
  outer loop
    vertex 3.4 5.5 0.0
    vertex 3.4 7.5 0.0
    vertex 3.6588190451025207 7.5340741737109305 0.0
  endloop
endfacet
facet normal 0.0 0.0 -1.0
  outer loop
    vertex 3.4 5.5 0.0
    vertex 3.6588190451025207 7.5340741737109305 0.0
    vertex 3.6588190451025215 5.465925826289068 0.0
  endloop
endfacet
facet normal 0.0 0.0 -1.0
  outer loop
    vertex 3.6588190451025215 5.465925826289068 0.0
    vertex 3.6588190451025207 7.5340741737109305 0.0
    vertex 3.9 7.633974596215561 0.0
  endloop
endfacet
facet normal 0.0 0.0 -1.0
  outer loop
    vertex 3.6588190451025215 5.465925826289068 0.0
    vertex 3.9 7.633974596215561 0.0
    vertex 3.900000000000001 5.366025403784438 0.0
  endloop
endfacet
facet normal 0.0 0.0 -1.0
  outer loop
    vertex 3.900000000000001 5.366025403784438 0.0
    vertex 3.9 7.633974596215561 0.0
    vertex 4.107106781186547 7.792893218813452 0.0
  endloop
endfacet
facet normal 0.0 0.0 -1.0
  outer loop
    vertex 3.900000000000001 5.366025403784438 0.0
    vertex 4.107106781186547 7.792893218813452 0.0
    vertex 4.107106781186548 5.207106781186547 0.0
  endloop
endfacet
facet normal 0.0 0.0 -1.0
  outer loop
    vertex 4.107106781186548 5.207106781186547 0.0
    vertex 4.107106781186547 7.792893218813452 0.0
    vertex 4.266025403784439 7.999999999999999 0.0
  endloop
endfacet
facet normal 0.0 0.0 -1.0
  outer loop
    vertex 4.107106781186548 5.207106781186547 0.0
    vertex 4.266025403784439 7.999999999999999 0.0
    vertex 4.26602540378444 4.999999999999999 0.0
  endloop
endfacet
facet normal 0.0 0.0 -1.0
  outer loop
    vertex 4.26602540378444 4.999999999999999 0.0
    vertex 4.266025403784439 7.999999999999999 0.0
    vertex 4.365925826289069 8.241180954897478 0.0
  endloop
endfacet
facet normal 0.0 0.0 -1.0
  outer loop
    vertex 4.26602540378444 4.999999999999999 0.0
    vertex 4.365925826289069 8.241180954897478 0.0
    vertex 4.365925826289069 4.75881904510252 0.0
  endloop
endfacet
facet normal 0.0 0.0 -1.0
  outer loop
    vertex 4.365925826289069 4.75881904510252 0.0
    vertex 4.365925826289069 8.241180954897478 0.0
    vertex 4.4 8.5 0.0
  endloop
endfacet
facet normal 0.0 0.0 -1.0
  outer loop
    vertex 4.365925826289069 4.75881904510252 0.0
    vertex 4.4 8.5 0.0
    vertex 4.4 4.499999999999999 0.0
  endloop
endfacet
facet normal 0.0 0.0 1.0
  outer loop
    vertex 0.0 0.0 1.9999999999999998
    vertex 2.4340741737109317 4.241180954897479 1.9999999999999998
    vertex 0.0 12.999999999999996 1.9999999999999998
  endloop
endfacet
facet normal 0.0 0.0 1.0
  outer loop
    vertex 2.4340741737109317 4.241180954897479 1.9999999999999998
    vertex 0.0 0.0 1.9999999999999998
    vertex 2.533974596215561 3.9999999999999996 1.9999999999999998
  endloop
endfacet
facet normal 0.0 0.0 1.0
  outer loop
    vertex 2.533974596215561 3.9999999999999996 1.9999999999999998
    vertex 0.0 0.0 1.9999999999999998
    vertex 2.692893218813452 3.7928932188134525 1.9999999999999998
  endloop
endfacet
facet normal 0.0 0.0 1.0
  outer loop
    vertex 2.692893218813452 3.7928932188134525 1.9999999999999998
    vertex 0.0 0.0 1.9999999999999998
    vertex 6.8 0.0 1.9999999999999998
  endloop
endfacet
facet normal 0.0 0.0 1.0
  outer loop
    vertex 0.0 12.999999999999996 1.9999999999999998
    vertex 2.4340741737109317 4.241180954897479 1.9999999999999998
    vertex 2.4 4.499999999999999 1.9999999999999998
  endloop
endfacet
facet normal 0.0 0.0 1.0
  outer loop
    vertex 2.692893218813452 3.7928932188134525 1.9999999999999998
    vertex 6.8 0.0 1.9999999999999998
    vertex 2.8999999999999995 3.633974596215561 1.9999999999999998
  endloop
endfacet
facet normal 0.0 0.0 1.0
  outer loop
    vertex 2.8999999999999995 3.633974596215561 1.9999999999999998
    vertex 6.8 0.0 1.9999999999999998
    vertex 3.1411809548974783 3.534074173710931 1.9999999999999998
  endloop
endfacet
facet normal 0.0 0.0 1.0
  outer loop
    vertex 3.1411809548974783 3.534074173710931 1.9999999999999998
    vertex 6.8 0.0 1.9999999999999998
    vertex 3.4 3.499999999999999 1.9999999999999998
  endloop
endfacet
facet normal 0.0 0.0 1.0
  outer loop
    vertex 3.4 3.499999999999999 1.9999999999999998
    vertex 6.8 0.0 1.9999999999999998
    vertex 3.6588190451025207 3.534074173710931 1.9999999999999998
  endloop
endfacet
facet normal 0.0 0.0 1.0
  outer loop
    vertex 3.6588190451025207 3.534074173710931 1.9999999999999998
    vertex 6.8 0.0 1.9999999999999998
    vertex 3.9 3.6339745962155603 1.9999999999999998
  endloop
endfacet
facet normal 0.0 0.0 1.0
  outer loop
    vertex 3.9 3.6339745962155603 1.9999999999999998
    vertex 6.8 0.0 1.9999999999999998
    vertex 4.107106781186547 3.7928932188134517 1.9999999999999998
  endloop
endfacet
facet normal 0.0 0.0 1.0
  outer loop
    vertex 4.107106781186547 3.7928932188134517 1.9999999999999998
    vertex 6.8 0.0 1.9999999999999998
    vertex 4.266025403784439 3.999999999999999 1.9999999999999998
  endloop
endfacet
facet normal 0.0 0.0 1.0
  outer loop
    vertex 4.266025403784439 3.999999999999999 1.9999999999999998
    vertex 6.8 0.0 1.9999999999999998
    vertex 4.365925826289069 4.241180954897478 1.9999999999999998
  endloop
endfacet
facet normal 0.0 0.0 1.0
  outer loop
    vertex 4.365925826289069 4.241180954897478 1.9999999999999998
    vertex 6.8 0.0 1.9999999999999998
    vertex 4.4 4.499999999999999 1.9999999999999998
  endloop
endfacet
facet normal 0.0 0.0 1.0
  outer loop
    vertex 4.4 4.499999999999999 1.9999999999999998
    vertex 6.8 0.0 1.9999999999999998
    vertex 4.4 8.5 1.9999999999999998
  endloop
endfacet
facet normal 0.0 0.0 1.0
  outer loop
    vertex 0.0 12.999999999999996 1.9999999999999998
    vertex 2.6928932188134524 9.207106781186548 1.9999999999999998
    vertex 6.8 12.999999999999996 1.9999999999999998
  endloop
endfacet
facet normal 0.0 0.0 1.0
  outer loop
    vertex 2.6928932188134524 9.207106781186548 1.9999999999999998
    vertex 0.0 12.999999999999996 1.9999999999999998
    vertex 2.533974596215561 9.0 1.9999999999999998
  endloop
endfacet
facet normal 0.0 0.0 1.0
  outer loop
    vertex 2.533974596215561 9.0 1.9999999999999998
    vertex 0.0 12.999999999999996 1.9999999999999998
    vertex 2.4340741737109317 8.758819045102522 1.9999999999999998
  endloop
endfacet
facet normal 0.0 0.0 1.0
  outer loop
    vertex 2.4340741737109317 8.758819045102522 1.9999999999999998
    vertex 0.0 12.999999999999996 1.9999999999999998
    vertex 2.4 8.5 1.9999999999999998
  endloop
endfacet
facet normal 0.0 0.0 1.0
  outer loop
    vertex 2.4 8.5 1.9999999999999998
    vertex 0.0 12.999999999999996 1.9999999999999998
    vertex 2.4 4.499999999999999 1.9999999999999998
  endloop
endfacet
facet normal 0.0 0.0 1.0
  outer loop
    vertex 6.8 12.999999999999996 1.9999999999999998
    vertex 2.6928932188134524 9.207106781186548 1.9999999999999998
    vertex 2.9000000000000004 9.36602540378444 1.9999999999999998
  endloop
endfacet
facet normal 0.0 0.0 1.0
  outer loop
    vertex 6.8 12.999999999999996 1.9999999999999998
    vertex 2.9000000000000004 9.36602540378444 1.9999999999999998
    vertex 3.1411809548974796 9.465925826289068 1.9999999999999998
  endloop
endfacet
facet normal 0.0 0.0 1.0
  outer loop
    vertex 6.8 12.999999999999996 1.9999999999999998
    vertex 3.1411809548974796 9.465925826289068 1.9999999999999998
    vertex 3.4 9.5 1.9999999999999998
  endloop
endfacet
facet normal 0.0 0.0 1.0
  outer loop
    vertex 6.8 12.999999999999996 1.9999999999999998
    vertex 3.4 9.5 1.9999999999999998
    vertex 3.6588190451025215 9.465925826289068 1.9999999999999998
  endloop
endfacet
facet normal 0.0 0.0 1.0
  outer loop
    vertex 6.8 12.999999999999996 1.9999999999999998
    vertex 3.6588190451025215 9.465925826289068 1.9999999999999998
    vertex 3.900000000000001 9.36602540378444 1.9999999999999998
  endloop
endfacet
facet normal 0.0 0.0 1.0
  outer loop
    vertex 6.8 12.999999999999996 1.9999999999999998
    vertex 3.900000000000001 9.36602540378444 1.9999999999999998
    vertex 4.107106781186548 9.207106781186548 1.9999999999999998
  endloop
endfacet
facet normal 0.0 0.0 1.0
  outer loop
    vertex 6.8 12.999999999999996 1.9999999999999998
    vertex 4.107106781186548 9.207106781186548 1.9999999999999998
    vertex 4.26602540378444 9.0 1.9999999999999998
  endloop
endfacet
facet normal 0.0 0.0 1.0
  outer loop
    vertex 6.8 12.999999999999996 1.9999999999999998
    vertex 4.26602540378444 9.0 1.9999999999999998
    vertex 4.365925826289069 8.758819045102522 1.9999999999999998
  endloop
endfacet
facet normal 0.0 0.0 1.0
  outer loop
    vertex 6.8 12.999999999999996 1.9999999999999998
    vertex 4.365925826289069 8.758819045102522 1.9999999999999998
    vertex 4.4 8.5 1.9999999999999998
  endloop
endfacet
facet normal 0.0 0.0 1.0
  outer loop
    vertex 6.8 12.999999999999996 1.9999999999999998
    vertex 4.4 8.5 1.9999999999999998
    vertex 6.8 0.0 1.9999999999999998
  endloop
endfacet
facet normal 0.0 0.0 1.0
  outer loop
    vertex 2.4340741737109317 4.758819045102521 1.9999999999999998
    vertex 2.4 8.5 1.9999999999999998
    vertex 2.4 4.499999999999999 1.9999999999999998
  endloop
endfacet
facet normal 0.0 0.0 1.0
  outer loop
    vertex 2.4 8.5 1.9999999999999998
    vertex 2.4340741737109317 4.758819045102521 1.9999999999999998
    vertex 2.4340741737109317 8.24118095489748 1.9999999999999998
  endloop
endfacet
facet normal 0.0 0.0 1.0
  outer loop
    vertex 2.4340741737109317 8.24118095489748 1.9999999999999998
    vertex 2.4340741737109317 4.758819045102521 1.9999999999999998
    vertex 2.533974596215561 5.0 1.9999999999999998
  endloop
endfacet
facet normal 0.0 0.0 1.0
  outer loop
    vertex 2.4340741737109317 8.24118095489748 1.9999999999999998
    vertex 2.533974596215561 5.0 1.9999999999999998
    vertex 2.533974596215561 7.999999999999999 1.9999999999999998
  endloop
endfacet
facet normal 0.0 0.0 1.0
  outer loop
    vertex 2.533974596215561 7.999999999999999 1.9999999999999998
    vertex 2.533974596215561 5.0 1.9999999999999998
    vertex 2.692893218813452 7.792893218813452 1.9999999999999998
  endloop
endfacet
facet normal 0.0 0.0 1.0
  outer loop
    vertex 2.692893218813452 7.792893218813452 1.9999999999999998
    vertex 2.533974596215561 5.0 1.9999999999999998
    vertex 2.6928932188134524 5.207106781186547 1.9999999999999998
  endloop
endfacet
facet normal 0.0 0.0 1.0
  outer loop
    vertex 2.692893218813452 7.792893218813452 1.9999999999999998
    vertex 2.6928932188134524 5.207106781186547 1.9999999999999998
    vertex 2.8999999999999995 7.633974596215561 1.9999999999999998
  endloop
endfacet
facet normal 0.0 0.0 1.0
  outer loop
    vertex 2.8999999999999995 7.633974596215561 1.9999999999999998
    vertex 2.6928932188134524 5.207106781186547 1.9999999999999998
    vertex 2.9000000000000004 5.366025403784438 1.9999999999999998
  endloop
endfacet
facet normal 0.0 0.0 1.0
  outer loop
    vertex 2.8999999999999995 7.633974596215561 1.9999999999999998
    vertex 2.9000000000000004 5.366025403784438 1.9999999999999998
    vertex 3.1411809548974783 7.534074173710932 1.9999999999999998
  endloop
endfacet
facet normal 0.0 0.0 1.0
  outer loop
    vertex 3.1411809548974783 7.534074173710932 1.9999999999999998
    vertex 2.9000000000000004 5.366025403784438 1.9999999999999998
    vertex 3.1411809548974796 5.465925826289068 1.9999999999999998
  endloop
endfacet
facet normal 0.0 0.0 1.0
  outer loop
    vertex 3.1411809548974783 7.534074173710932 1.9999999999999998
    vertex 3.1411809548974796 5.465925826289068 1.9999999999999998
    vertex 3.4 7.5 1.9999999999999998
  endloop
endfacet
facet normal 0.0 0.0 1.0
  outer loop
    vertex 3.4 7.5 1.9999999999999998
    vertex 3.1411809548974796 5.465925826289068 1.9999999999999998
    vertex 3.4 5.5 1.9999999999999998
  endloop
endfacet
facet normal 0.0 0.0 1.0
  outer loop
    vertex 3.4 7.5 1.9999999999999998
    vertex 3.4 5.5 1.9999999999999998
    vertex 3.6588190451025215 5.465925826289068 1.9999999999999998
  endloop
endfacet
facet normal 0.0 0.0 1.0
  outer loop
    vertex 3.4 7.5 1.9999999999999998
    vertex 3.6588190451025215 5.465925826289068 1.9999999999999998
    vertex 3.6588190451025207 7.5340741737109305 1.9999999999999998
  endloop
endfacet
facet normal 0.0 0.0 1.0
  outer loop
    vertex 3.6588190451025207 7.5340741737109305 1.9999999999999998
    vertex 3.6588190451025215 5.465925826289068 1.9999999999999998
    vertex 3.9 7.633974596215561 1.9999999999999998
  endloop
endfacet
facet normal 0.0 0.0 1.0
  outer loop
    vertex 3.9 7.633974596215561 1.9999999999999998
    vertex 3.6588190451025215 5.465925826289068 1.9999999999999998
    vertex 3.900000000000001 5.366025403784438 1.9999999999999998
  endloop
endfacet
facet normal 0.0 0.0 1.0
  outer loop
    vertex 3.9 7.633974596215561 1.9999999999999998
    vertex 3.900000000000001 5.366025403784438 1.9999999999999998
    vertex 4.107106781186547 7.792893218813452 1.9999999999999998
  endloop
endfacet
facet normal 0.0 0.0 1.0
  outer loop
    vertex 4.107106781186547 7.792893218813452 1.9999999999999998
    vertex 3.900000000000001 5.366025403784438 1.9999999999999998
    vertex 4.107106781186548 5.207106781186547 1.9999999999999998
  endloop
endfacet
facet normal 0.0 0.0 1.0
  outer loop
    vertex 4.107106781186547 7.792893218813452 1.9999999999999998
    vertex 4.107106781186548 5.207106781186547 1.9999999999999998
    vertex 4.266025403784439 7.999999999999999 1.9999999999999998
  endloop
endfacet
facet normal 0.0 0.0 1.0
  outer loop
    vertex 4.266025403784439 7.999999999999999 1.9999999999999998
    vertex 4.107106781186548 5.207106781186547 1.9999999999999998
    vertex 4.26602540378444 4.999999999999999 1.9999999999999998
  endloop
endfacet
facet normal 0.0 0.0 1.0
  outer loop
    vertex 4.266025403784439 7.999999999999999 1.9999999999999998
    vertex 4.26602540378444 4.999999999999999 1.9999999999999998
    vertex 4.365925826289069 8.241180954897478 1.9999999999999998
  endloop
endfacet
facet normal 0.0 0.0 1.0
  outer loop
    vertex 4.365925826289069 8.241180954897478 1.9999999999999998
    vertex 4.26602540378444 4.999999999999999 1.9999999999999998
    vertex 4.365925826289069 4.75881904510252 1.9999999999999998
  endloop
endfacet
facet normal 0.0 0.0 1.0
  outer loop
    vertex 4.365925826289069 8.241180954897478 1.9999999999999998
    vertex 4.365925826289069 4.75881904510252 1.9999999999999998
    vertex 4.4 4.499999999999999 1.9999999999999998
  endloop
endfacet
facet normal 0.0 0.0 1.0
  outer loop
    vertex 4.365925826289069 8.241180954897478 1.9999999999999998
    vertex 4.4 4.499999999999999 1.9999999999999998
    vertex 4.4 8.5 1.9999999999999998
  endloop
endfacet
facet normal -1.0 0.0 0.0
  outer loop
    vertex 0.0 12.999999999999996 1.9999999999999998
    vertex 0.0 0.0 0.0
    vertex 0.0 0.0 1.9999999999999998
  endloop
endfacet
facet normal -1.0 0.0 0.0
  outer loop
    vertex 0.0 0.0 0.0
    vertex 0.0 12.999999999999996 1.9999999999999998
    vertex 0.0 12.999999999999996 0.0
  endloop
endfacet
facet normal 0.0 1.0 0.0
  outer loop
    vertex 0.0 12.999999999999996 1.9999999999999998
    vertex 6.8 12.999999999999996 0.0
    vertex 0.0 12.999999999999996 0.0
  endloop
endfacet
facet normal 0.0 1.0 0.0
  outer loop
    vertex 6.8 12.999999999999996 0.0
    vertex 0.0 12.999999999999996 1.9999999999999998
    vertex 6.8 12.999999999999996 1.9999999999999998
  endloop
endfacet
facet normal 1.0 0.0 0.0
  outer loop
    vertex 6.8 12.999999999999996 0.0
    vertex 6.8 0.0 1.9999999999999998
    vertex 6.8 0.0 0.0
  endloop
endfacet
facet normal 1.0 0.0 0.0
  outer loop
    vertex 6.8 0.0 1.9999999999999998
    vertex 6.8 12.999999999999996 0.0
    vertex 6.8 12.999999999999996 1.9999999999999998
  endloop
endfacet
facet normal -0.0 -1.0 -0.0
  outer loop
    vertex 6.8 0.0 1.9999999999999998
    vertex 0.0 0.0 0.0
    vertex 6.8 0.0 0.0
  endloop
endfacet
facet normal -0.0 -1.0 -0.0
  outer loop
    vertex 0.0 0.0 0.0
    vertex 6.8 0.0 1.9999999999999998
    vertex 0.0 0.0 1.9999999999999998
  endloop
endfacet
facet normal -0.9914448613738105 0.13052619222005143 0.0
  outer loop
    vertex 4.4 4.499999999999999 1.9999999999999998
    vertex 4.365925826289069 4.241180954897478 0.0
    vertex 4.365925826289069 4.241180954897478 1.9999999999999998
  endloop
endfacet
facet normal -0.9914448613738105 0.13052619222005143 0.0
  outer loop
    vertex 4.365925826289069 4.241180954897478 0.0
    vertex 4.4 4.499999999999999 1.9999999999999998
    vertex 4.4 4.499999999999999 0.0
  endloop
endfacet
facet normal -0.9914448613738104 -0.1305261922200518 -0.0
  outer loop
    vertex 4.365925826289069 4.75881904510252 1.9999999999999998
    vertex 4.4 4.499999999999999 0.0
    vertex 4.4 4.499999999999999 1.9999999999999998
  endloop
endfacet
facet normal -0.9914448613738104 -0.1305261922200518 -0.0
  outer loop
    vertex 4.4 4.499999999999999 0.0
    vertex 4.365925826289069 4.75881904510252 1.9999999999999998
    vertex 4.365925826289069 4.75881904510252 0.0
  endloop
endfacet
facet normal -0.9238795325112871 -0.38268343236508895 -0.0
  outer loop
    vertex 4.26602540378444 4.999999999999999 1.9999999999999998
    vertex 4.365925826289069 4.75881904510252 0.0
    vertex 4.365925826289069 4.75881904510252 1.9999999999999998
  endloop
endfacet
facet normal -0.9238795325112871 -0.38268343236508895 -0.0
  outer loop
    vertex 4.365925826289069 4.75881904510252 0.0
    vertex 4.26602540378444 4.999999999999999 1.9999999999999998
    vertex 4.26602540378444 4.999999999999999 0.0
  endloop
endfacet
facet normal -0.7933533402912358 -0.6087614290087201 -0.0
  outer loop
    vertex 4.107106781186548 5.207106781186547 1.9999999999999998
    vertex 4.26602540378444 4.999999999999999 0.0
    vertex 4.26602540378444 4.999999999999999 1.9999999999999998
  endloop
endfacet
facet normal -0.7933533402912358 -0.6087614290087201 -0.0
  outer loop
    vertex 4.26602540378444 4.999999999999999 0.0
    vertex 4.107106781186548 5.207106781186547 1.9999999999999998
    vertex 4.107106781186548 5.207106781186547 0.0
  endloop
endfacet
facet normal -0.6087614290087197 -0.7933533402912359 -0.0
  outer loop
    vertex 4.107106781186548 5.207106781186547 1.9999999999999998
    vertex 3.900000000000001 5.366025403784438 0.0
    vertex 4.107106781186548 5.207106781186547 0.0
  endloop
endfacet
facet normal -0.6087614290087197 -0.7933533402912359 -0.0
  outer loop
    vertex 3.900000000000001 5.366025403784438 0.0
    vertex 4.107106781186548 5.207106781186547 1.9999999999999998
    vertex 3.900000000000001 5.366025403784438 1.9999999999999998
  endloop
endfacet
facet normal -0.3826834323650914 -0.9238795325112863 -0.0
  outer loop
    vertex 3.900000000000001 5.366025403784438 1.9999999999999998
    vertex 3.6588190451025215 5.465925826289068 0.0
    vertex 3.900000000000001 5.366025403784438 0.0
  endloop
endfacet
facet normal -0.3826834323650914 -0.9238795325112863 -0.0
  outer loop
    vertex 3.6588190451025215 5.465925826289068 0.0
    vertex 3.900000000000001 5.366025403784438 1.9999999999999998
    vertex 3.6588190451025215 5.465925826289068 1.9999999999999998
  endloop
endfacet
facet normal -0.13052619222005143 -0.9914448613738105 -0.0
  outer loop
    vertex 3.6588190451025215 5.465925826289068 1.9999999999999998
    vertex 3.4 5.5 0.0
    vertex 3.6588190451025215 5.465925826289068 0.0
  endloop
endfacet
facet normal -0.13052619222005143 -0.9914448613738105 -0.0
  outer loop
    vertex 3.4 5.5 0.0
    vertex 3.6588190451025215 5.465925826289068 1.9999999999999998
    vertex 3.4 5.5 1.9999999999999998
  endloop
endfacet
facet normal 0.1305261922200518 -0.9914448613738104 0.0
  outer loop
    vertex 3.4 5.5 1.9999999999999998
    vertex 3.1411809548974796 5.465925826289068 0.0
    vertex 3.4 5.5 0.0
  endloop
endfacet
facet normal 0.1305261922200518 -0.9914448613738104 0.0
  outer loop
    vertex 3.1411809548974796 5.465925826289068 0.0
    vertex 3.4 5.5 1.9999999999999998
    vertex 3.1411809548974796 5.465925826289068 1.9999999999999998
  endloop
endfacet
facet normal 0.38268343236508895 -0.9238795325112871 0.0
  outer loop
    vertex 3.1411809548974796 5.465925826289068 1.9999999999999998
    vertex 2.9000000000000004 5.366025403784438 0.0
    vertex 3.1411809548974796 5.465925826289068 0.0
  endloop
endfacet
facet normal 0.38268343236508895 -0.9238795325112871 0.0
  outer loop
    vertex 2.9000000000000004 5.366025403784438 0.0
    vertex 3.1411809548974796 5.465925826289068 1.9999999999999998
    vertex 2.9000000000000004 5.366025403784438 1.9999999999999998
  endloop
endfacet
facet normal 0.6087614290087201 -0.7933533402912358 0.0
  outer loop
    vertex 2.9000000000000004 5.366025403784438 1.9999999999999998
    vertex 2.6928932188134524 5.207106781186547 0.0
    vertex 2.9000000000000004 5.366025403784438 0.0
  endloop
endfacet
facet normal 0.6087614290087201 -0.7933533402912358 0.0
  outer loop
    vertex 2.6928932188134524 5.207106781186547 0.0
    vertex 2.9000000000000004 5.366025403784438 1.9999999999999998
    vertex 2.6928932188134524 5.207106781186547 1.9999999999999998
  endloop
endfacet
facet normal 0.7933533402912354 -0.6087614290087205 0.0
  outer loop
    vertex 2.6928932188134524 5.207106781186547 0.0
    vertex 2.533974596215561 5.0 1.9999999999999998
    vertex 2.533974596215561 5.0 0.0
  endloop
endfacet
facet normal 0.7933533402912354 -0.6087614290087205 0.0
  outer loop
    vertex 2.533974596215561 5.0 1.9999999999999998
    vertex 2.6928932188134524 5.207106781186547 0.0
    vertex 2.6928932188134524 5.207106781186547 1.9999999999999998
  endloop
endfacet
facet normal 0.9238795325112867 -0.3826834323650902 0.0
  outer loop
    vertex 2.533974596215561 5.0 0.0
    vertex 2.4340741737109317 4.758819045102521 1.9999999999999998
    vertex 2.4340741737109317 4.758819045102521 0.0
  endloop
endfacet
facet normal 0.9238795325112867 -0.3826834323650902 0.0
  outer loop
    vertex 2.4340741737109317 4.758819045102521 1.9999999999999998
    vertex 2.533974596215561 5.0 0.0
    vertex 2.533974596215561 5.0 1.9999999999999998
  endloop
endfacet
facet normal 0.9914448613738105 -0.13052619222005143 0.0
  outer loop
    vertex 2.4340741737109317 4.758819045102521 0.0
    vertex 2.4 4.499999999999999 1.9999999999999998
    vertex 2.4 4.499999999999999 0.0
  endloop
endfacet
facet normal 0.9914448613738105 -0.13052619222005143 0.0
  outer loop
    vertex 2.4 4.499999999999999 1.9999999999999998
    vertex 2.4340741737109317 4.758819045102521 0.0
    vertex 2.4340741737109317 4.758819045102521 1.9999999999999998
  endloop
endfacet
facet normal 0.9914448613738104 0.1305261922200518 0.0
  outer loop
    vertex 2.4 4.499999999999999 0.0
    vertex 2.4340741737109317 4.241180954897479 1.9999999999999998
    vertex 2.4340741737109317 4.241180954897479 0.0
  endloop
endfacet
facet normal 0.9914448613738104 0.1305261922200518 0.0
  outer loop
    vertex 2.4340741737109317 4.241180954897479 1.9999999999999998
    vertex 2.4 4.499999999999999 0.0
    vertex 2.4 4.499999999999999 1.9999999999999998
  endloop
endfacet
facet normal 0.9238795325112871 0.38268343236508895 0.0
  outer loop
    vertex 2.4340741737109317 4.241180954897479 0.0
    vertex 2.533974596215561 3.9999999999999996 1.9999999999999998
    vertex 2.533974596215561 3.9999999999999996 0.0
  endloop
endfacet
facet normal 0.9238795325112871 0.38268343236508895 0.0
  outer loop
    vertex 2.533974596215561 3.9999999999999996 1.9999999999999998
    vertex 2.4340741737109317 4.241180954897479 0.0
    vertex 2.4340741737109317 4.241180954897479 1.9999999999999998
  endloop
endfacet
facet normal 0.7933533402912354 0.6087614290087205 0.0
  outer loop
    vertex 2.533974596215561 3.9999999999999996 0.0
    vertex 2.692893218813452 3.7928932188134525 1.9999999999999998
    vertex 2.692893218813452 3.7928932188134525 0.0
  endloop
endfacet
facet normal 0.7933533402912354 0.6087614290087205 0.0
  outer loop
    vertex 2.692893218813452 3.7928932188134525 1.9999999999999998
    vertex 2.533974596215561 3.9999999999999996 0.0
    vertex 2.533974596215561 3.9999999999999996 1.9999999999999998
  endloop
endfacet
facet normal 0.6087614290087207 0.793353340291235 0.0
  outer loop
    vertex 2.692893218813452 3.7928932188134525 1.9999999999999998
    vertex 2.8999999999999995 3.633974596215561 0.0
    vertex 2.692893218813452 3.7928932188134525 0.0
  endloop
endfacet
facet normal 0.6087614290087207 0.793353340291235 0.0
  outer loop
    vertex 2.8999999999999995 3.633974596215561 0.0
    vertex 2.692893218813452 3.7928932188134525 1.9999999999999998
    vertex 2.8999999999999995 3.633974596215561 1.9999999999999998
  endloop
endfacet
facet normal 0.3826834323650917 0.9238795325112859 0.0
  outer loop
    vertex 2.8999999999999995 3.633974596215561 1.9999999999999998
    vertex 3.1411809548974783 3.534074173710931 0.0
    vertex 2.8999999999999995 3.633974596215561 0.0
  endloop
endfacet
facet normal 0.3826834323650917 0.9238795325112859 0.0
  outer loop
    vertex 3.1411809548974783 3.534074173710931 0.0
    vertex 2.8999999999999995 3.633974596215561 1.9999999999999998
    vertex 3.1411809548974783 3.534074173710931 1.9999999999999998
  endloop
endfacet
facet normal 0.1305261922200513 0.9914448613738106 0.0
  outer loop
    vertex 3.1411809548974783 3.534074173710931 1.9999999999999998
    vertex 3.4 3.499999999999999 0.0
    vertex 3.1411809548974783 3.534074173710931 0.0
  endloop
endfacet
facet normal 0.1305261922200513 0.9914448613738106 0.0
  outer loop
    vertex 3.4 3.499999999999999 0.0
    vertex 3.1411809548974783 3.534074173710931 1.9999999999999998
    vertex 3.4 3.499999999999999 1.9999999999999998
  endloop
endfacet
facet normal -0.1305261922200518 0.9914448613738104 0.0
  outer loop
    vertex 3.4 3.499999999999999 1.9999999999999998
    vertex 3.6588190451025207 3.534074173710931 0.0
    vertex 3.4 3.499999999999999 0.0
  endloop
endfacet
facet normal -0.1305261922200518 0.9914448613738104 0.0
  outer loop
    vertex 3.6588190451025207 3.534074173710931 0.0
    vertex 3.4 3.499999999999999 1.9999999999999998
    vertex 3.6588190451025207 3.534074173710931 1.9999999999999998
  endloop
endfacet
facet normal -0.38268343236508895 0.9238795325112871 0.0
  outer loop
    vertex 3.6588190451025207 3.534074173710931 1.9999999999999998
    vertex 3.9 3.6339745962155603 0.0
    vertex 3.6588190451025207 3.534074173710931 0.0
  endloop
endfacet
facet normal -0.38268343236508895 0.9238795325112871 0.0
  outer loop
    vertex 3.9 3.6339745962155603 0.0
    vertex 3.6588190451025207 3.534074173710931 1.9999999999999998
    vertex 3.9 3.6339745962155603 1.9999999999999998
  endloop
endfacet
facet normal -0.6087614290087213 0.7933533402912347 0.0
  outer loop
    vertex 3.9 3.6339745962155603 1.9999999999999998
    vertex 4.107106781186547 3.7928932188134517 0.0
    vertex 3.9 3.6339745962155603 0.0
  endloop
endfacet
facet normal -0.6087614290087213 0.7933533402912347 0.0
  outer loop
    vertex 4.107106781186547 3.7928932188134517 0.0
    vertex 3.9 3.6339745962155603 1.9999999999999998
    vertex 4.107106781186547 3.7928932188134517 1.9999999999999998
  endloop
endfacet
facet normal -0.7933533402912347 0.6087614290087213 0.0
  outer loop
    vertex 4.266025403784439 3.999999999999999 1.9999999999999998
    vertex 4.107106781186547 3.7928932188134517 0.0
    vertex 4.107106781186547 3.7928932188134517 1.9999999999999998
  endloop
endfacet
facet normal -0.7933533402912347 0.6087614290087213 0.0
  outer loop
    vertex 4.107106781186547 3.7928932188134517 0.0
    vertex 4.266025403784439 3.999999999999999 1.9999999999999998
    vertex 4.266025403784439 3.999999999999999 0.0
  endloop
endfacet
facet normal -0.9238795325112863 0.3826834323650914 0.0
  outer loop
    vertex 4.365925826289069 4.241180954897478 1.9999999999999998
    vertex 4.266025403784439 3.999999999999999 0.0
    vertex 4.266025403784439 3.999999999999999 1.9999999999999998
  endloop
endfacet
facet normal -0.9238795325112863 0.3826834323650914 0.0
  outer loop
    vertex 4.266025403784439 3.999999999999999 0.0
    vertex 4.365925826289069 4.241180954897478 1.9999999999999998
    vertex 4.365925826289069 4.241180954897478 0.0
  endloop
endfacet
facet normal -0.9914448613738105 -0.13052619222005143 -0.0
  outer loop
    vertex 4.365925826289069 8.758819045102522 1.9999999999999998
    vertex 4.4 8.5 0.0
    vertex 4.4 8.5 1.9999999999999998
  endloop
endfacet
facet normal -0.9914448613738105 -0.13052619222005143 -0.0
  outer loop
    vertex 4.4 8.5 0.0
    vertex 4.365925826289069 8.758819045102522 1.9999999999999998
    vertex 4.365925826289069 8.758819045102522 0.0
  endloop
endfacet
facet normal -0.9238795325112871 -0.38268343236508895 -0.0
  outer loop
    vertex 4.26602540378444 9.0 1.9999999999999998
    vertex 4.365925826289069 8.758819045102522 0.0
    vertex 4.365925826289069 8.758819045102522 1.9999999999999998
  endloop
endfacet
facet normal -0.9238795325112871 -0.38268343236508895 -0.0
  outer loop
    vertex 4.365925826289069 8.758819045102522 0.0
    vertex 4.26602540378444 9.0 1.9999999999999998
    vertex 4.26602540378444 9.0 0.0
  endloop
endfacet
facet normal -0.7933533402912347 -0.6087614290087213 -0.0
  outer loop
    vertex 4.107106781186548 9.207106781186548 1.9999999999999998
    vertex 4.26602540378444 9.0 0.0
    vertex 4.26602540378444 9.0 1.9999999999999998
  endloop
endfacet
facet normal -0.7933533402912347 -0.6087614290087213 -0.0
  outer loop
    vertex 4.26602540378444 9.0 0.0
    vertex 4.107106781186548 9.207106781186548 1.9999999999999998
    vertex 4.107106781186548 9.207106781186548 0.0
  endloop
endfacet
facet normal -0.6087614290087213 -0.7933533402912347 -0.0
  outer loop
    vertex 4.107106781186548 9.207106781186548 1.9999999999999998
    vertex 3.900000000000001 9.36602540378444 0.0
    vertex 4.107106781186548 9.207106781186548 0.0
  endloop
endfacet
facet normal -0.6087614290087213 -0.7933533402912347 -0.0
  outer loop
    vertex 3.900000000000001 9.36602540378444 0.0
    vertex 4.107106781186548 9.207106781186548 1.9999999999999998
    vertex 3.900000000000001 9.36602540378444 1.9999999999999998
  endloop
endfacet
facet normal -0.3826834323650867 -0.9238795325112881 -0.0
  outer loop
    vertex 3.900000000000001 9.36602540378444 1.9999999999999998
    vertex 3.6588190451025215 9.465925826289068 0.0
    vertex 3.900000000000001 9.36602540378444 0.0
  endloop
endfacet
facet normal -0.3826834323650867 -0.9238795325112881 -0.0
  outer loop
    vertex 3.6588190451025215 9.465925826289068 0.0
    vertex 3.900000000000001 9.36602540378444 1.9999999999999998
    vertex 3.6588190451025215 9.465925826289068 1.9999999999999998
  endloop
endfacet
facet normal -0.13052619222005143 -0.9914448613738105 -0.0
  outer loop
    vertex 3.6588190451025215 9.465925826289068 1.9999999999999998
    vertex 3.4 9.5 0.0
    vertex 3.6588190451025215 9.465925826289068 0.0
  endloop
endfacet
facet normal -0.13052619222005143 -0.9914448613738105 -0.0
  outer loop
    vertex 3.4 9.5 0.0
    vertex 3.6588190451025215 9.465925826289068 1.9999999999999998
    vertex 3.4 9.5 1.9999999999999998
  endloop
endfacet
facet normal 0.1305261922200518 -0.9914448613738104 0.0
  outer loop
    vertex 3.4 9.5 1.9999999999999998
    vertex 3.1411809548974796 9.465925826289068 0.0
    vertex 3.4 9.5 0.0
  endloop
endfacet
facet normal 0.1305261922200518 -0.9914448613738104 0.0
  outer loop
    vertex 3.1411809548974796 9.465925826289068 0.0
    vertex 3.4 9.5 1.9999999999999998
    vertex 3.1411809548974796 9.465925826289068 1.9999999999999998
  endloop
endfacet
facet normal 0.3826834323650867 -0.9238795325112881 0.0
  outer loop
    vertex 3.1411809548974796 9.465925826289068 1.9999999999999998
    vertex 2.9000000000000004 9.36602540378444 0.0
    vertex 3.1411809548974796 9.465925826289068 0.0
  endloop
endfacet
facet normal 0.3826834323650867 -0.9238795325112881 0.0
  outer loop
    vertex 2.9000000000000004 9.36602540378444 0.0
    vertex 3.1411809548974796 9.465925826289068 1.9999999999999998
    vertex 2.9000000000000004 9.36602540378444 1.9999999999999998
  endloop
endfacet
facet normal 0.6087614290087201 -0.7933533402912358 0.0
  outer loop
    vertex 2.9000000000000004 9.36602540378444 1.9999999999999998
    vertex 2.6928932188134524 9.207106781186548 0.0
    vertex 2.9000000000000004 9.36602540378444 0.0
  endloop
endfacet
facet normal 0.6087614290087201 -0.7933533402912358 0.0
  outer loop
    vertex 2.6928932188134524 9.207106781186548 0.0
    vertex 2.9000000000000004 9.36602540378444 1.9999999999999998
    vertex 2.6928932188134524 9.207106781186548 1.9999999999999998
  endloop
endfacet
facet normal 0.7933533402912354 -0.6087614290087205 0.0
  outer loop
    vertex 2.6928932188134524 9.207106781186548 0.0
    vertex 2.533974596215561 9.0 1.9999999999999998
    vertex 2.533974596215561 9.0 0.0
  endloop
endfacet
facet normal 0.7933533402912354 -0.6087614290087205 0.0
  outer loop
    vertex 2.533974596215561 9.0 1.9999999999999998
    vertex 2.6928932188134524 9.207106781186548 0.0
    vertex 2.6928932188134524 9.207106781186548 1.9999999999999998
  endloop
endfacet
facet normal 0.9238795325112867 -0.3826834323650902 0.0
  outer loop
    vertex 2.533974596215561 9.0 0.0
    vertex 2.4340741737109317 8.758819045102522 1.9999999999999998
    vertex 2.4340741737109317 8.758819045102522 0.0
  endloop
endfacet
facet normal 0.9238795325112867 -0.3826834323650902 0.0
  outer loop
    vertex 2.4340741737109317 8.758819045102522 1.9999999999999998
    vertex 2.533974596215561 9.0 0.0
    vertex 2.533974596215561 9.0 1.9999999999999998
  endloop
endfacet
facet normal 0.9914448613738105 -0.13052619222005143 0.0
  outer loop
    vertex 2.4340741737109317 8.758819045102522 0.0
    vertex 2.4 8.5 1.9999999999999998
    vertex 2.4 8.5 0.0
  endloop
endfacet
facet normal 0.9914448613738105 -0.13052619222005143 0.0
  outer loop
    vertex 2.4 8.5 1.9999999999999998
    vertex 2.4340741737109317 8.758819045102522 0.0
    vertex 2.4340741737109317 8.758819045102522 1.9999999999999998
  endloop
endfacet
facet normal 0.9914448613738104 0.13052619222005216 0.0
  outer loop
    vertex 2.4 8.5 0.0
    vertex 2.4340741737109317 8.24118095489748 1.9999999999999998
    vertex 2.4340741737109317 8.24118095489748 0.0
  endloop
endfacet
facet normal 0.9914448613738104 0.13052619222005216 0.0
  outer loop
    vertex 2.4340741737109317 8.24118095489748 1.9999999999999998
    vertex 2.4 8.5 0.0
    vertex 2.4 8.5 1.9999999999999998
  endloop
endfacet
facet normal 0.923879532511288 0.3826834323650871 0.0
  outer loop
    vertex 2.4340741737109317 8.24118095489748 0.0
    vertex 2.533974596215561 7.999999999999999 1.9999999999999998
    vertex 2.533974596215561 7.999999999999999 0.0
  endloop
endfacet
facet normal 0.923879532511288 0.3826834323650871 0.0
  outer loop
    vertex 2.533974596215561 7.999999999999999 1.9999999999999998
    vertex 2.4340741737109317 8.24118095489748 0.0
    vertex 2.4340741737109317 8.24118095489748 1.9999999999999998
  endloop
endfacet
facet normal 0.7933533402912354 0.6087614290087205 0.0
  outer loop
    vertex 2.533974596215561 7.999999999999999 0.0
    vertex 2.692893218813452 7.792893218813452 1.9999999999999998
    vertex 2.692893218813452 7.792893218813452 0.0
  endloop
endfacet
facet normal 0.7933533402912354 0.6087614290087205 0.0
  outer loop
    vertex 2.692893218813452 7.792893218813452 1.9999999999999998
    vertex 2.533974596215561 7.999999999999999 0.0
    vertex 2.533974596215561 7.999999999999999 1.9999999999999998
  endloop
endfacet
facet normal 0.6087614290087207 0.793353340291235 0.0
  outer loop
    vertex 2.692893218813452 7.792893218813452 1.9999999999999998
    vertex 2.8999999999999995 7.633974596215561 0.0
    vertex 2.692893218813452 7.792893218813452 0.0
  endloop
endfacet
facet normal 0.6087614290087207 0.793353340291235 0.0
  outer loop
    vertex 2.8999999999999995 7.633974596215561 0.0
    vertex 2.692893218813452 7.792893218813452 1.9999999999999998
    vertex 2.8999999999999995 7.633974596215561 1.9999999999999998
  endloop
endfacet
facet normal 0.38268343236508723 0.923879532511288 0.0
  outer loop
    vertex 2.8999999999999995 7.633974596215561 1.9999999999999998
    vertex 3.1411809548974783 7.534074173710932 0.0
    vertex 2.8999999999999995 7.633974596215561 0.0
  endloop
endfacet
facet normal 0.38268343236508723 0.923879532511288 0.0
  outer loop
    vertex 3.1411809548974783 7.534074173710932 0.0
    vertex 2.8999999999999995 7.633974596215561 1.9999999999999998
    vertex 3.1411809548974783 7.534074173710932 1.9999999999999998
  endloop
endfacet
facet normal 0.1305261922200513 0.9914448613738106 0.0
  outer loop
    vertex 3.1411809548974783 7.534074173710932 1.9999999999999998
    vertex 3.4 7.5 0.0
    vertex 3.1411809548974783 7.534074173710932 0.0
  endloop
endfacet
facet normal 0.1305261922200513 0.9914448613738106 0.0
  outer loop
    vertex 3.4 7.5 0.0
    vertex 3.1411809548974783 7.534074173710932 1.9999999999999998
    vertex 3.4 7.5 1.9999999999999998
  endloop
endfacet
facet normal -0.1305261922200465 0.991444861373811 0.0
  outer loop
    vertex 3.4 7.5 1.9999999999999998
    vertex 3.6588190451025207 7.5340741737109305 0.0
    vertex 3.4 7.5 0.0
  endloop
endfacet
facet normal -0.1305261922200465 0.991444861373811 0.0
  outer loop
    vertex 3.6588190451025207 7.5340741737109305 0.0
    vertex 3.4 7.5 1.9999999999999998
    vertex 3.6588190451025207 7.5340741737109305 1.9999999999999998
  endloop
endfacet
facet normal -0.3826834323650914 0.9238795325112863 0.0
  outer loop
    vertex 3.6588190451025207 7.5340741737109305 1.9999999999999998
    vertex 3.9 7.633974596215561 0.0
    vertex 3.6588190451025207 7.5340741737109305 0.0
  endloop
endfacet
facet normal -0.3826834323650914 0.9238795325112863 0.0
  outer loop
    vertex 3.9 7.633974596215561 0.0
    vertex 3.6588190451025207 7.5340741737109305 1.9999999999999998
    vertex 3.9 7.633974596215561 1.9999999999999998
  endloop
endfacet
facet normal -0.6087614290087213 0.7933533402912347 0.0
  outer loop
    vertex 3.9 7.633974596215561 1.9999999999999998
    vertex 4.107106781186547 7.792893218813452 0.0
    vertex 3.9 7.633974596215561 0.0
  endloop
endfacet
facet normal -0.6087614290087213 0.7933533402912347 0.0
  outer loop
    vertex 4.107106781186547 7.792893218813452 0.0
    vertex 3.9 7.633974596215561 1.9999999999999998
    vertex 4.107106781186547 7.792893218813452 1.9999999999999998
  endloop
endfacet
facet normal -0.7933533402912347 0.6087614290087213 0.0
  outer loop
    vertex 4.266025403784439 7.999999999999999 1.9999999999999998
    vertex 4.107106781186547 7.792893218813452 0.0
    vertex 4.107106781186547 7.792893218813452 1.9999999999999998
  endloop
endfacet
facet normal -0.7933533402912347 0.6087614290087213 0.0
  outer loop
    vertex 4.107106781186547 7.792893218813452 0.0
    vertex 4.266025403784439 7.999999999999999 1.9999999999999998
    vertex 4.266025403784439 7.999999999999999 0.0
  endloop
endfacet
facet normal -0.9238795325112863 0.3826834323650914 0.0
  outer loop
    vertex 4.365925826289069 8.241180954897478 1.9999999999999998
    vertex 4.266025403784439 7.999999999999999 0.0
    vertex 4.266025403784439 7.999999999999999 1.9999999999999998
  endloop
endfacet
facet normal -0.9238795325112863 0.3826834323650914 0.0
  outer loop
    vertex 4.266025403784439 7.999999999999999 0.0
    vertex 4.365925826289069 8.241180954897478 1.9999999999999998
    vertex 4.365925826289069 8.241180954897478 0.0
  endloop
endfacet
facet normal -0.9914448613738105 0.13052619222005143 0.0
  outer loop
    vertex 4.4 8.5 1.9999999999999998
    vertex 4.365925826289069 8.241180954897478 0.0
    vertex 4.365925826289069 8.241180954897478 1.9999999999999998
  endloop
endfacet
facet normal -0.9914448613738105 0.13052619222005143 0.0
  outer loop
    vertex 4.365925826289069 8.241180954897478 0.0
    vertex 4.4 8.5 1.9999999999999998
    vertex 4.4 8.5 0.0
  endloop
endfacet
endsolid stompy_bottom_servo_armhorn_clamp
