solid stompy_shoulder_brace_mount
facet normal 0.0 0.0 -1.0
  outer loop
    vertex 0.0 12.999999999999998 0.0
    vertex 9.781325920117743 7.70208152801713 0.0
    vertex 0.0 0.0 0.0
  endloop
endfacet
facet normal 0.0 0.0 -1.0
  outer loop
    vertex 9.781325920117743 7.70208152801713 0.0
    vertex 0.0 12.999999999999998 0.0
    vertex 10.133407448134873 7.972243186433545 0.0
  endloop
endfacet
facet normal 0.0 0.0 -1.0
  outer loop
    vertex 10.133407448134873 7.972243186433545 0.0
    vertex 0.0 12.999999999999998 0.0
    vertex 10.543415071460586 8.142073904691415 0.0
  endloop
endfacet
facet normal 0.0 0.0 -1.0
  outer loop
    vertex 10.543415071460586 8.142073904691415 0.0
    vertex 0.0 12.999999999999998 0.0
    vertex 25.0 12.999999999999998 0.0
  endloop
endfacet
facet normal 0.0 0.0 -1.0
  outer loop
    vertex 0.0 0.0 0.0
    vertex 9.781325920117743 7.70208152801713 0.0
    vertex 9.511164261701326 7.35 0.0
  endloop
endfacet
facet normal 0.0 0.0 -1.0
  outer loop
    vertex 0.0 0.0 0.0
    vertex 9.511164261701326 7.35 0.0
    vertex 9.341333543443458 6.939992376674285 0.0
  endloop
endfacet
facet normal 0.0 0.0 -1.0
  outer loop
    vertex 0.0 0.0 0.0
    vertex 9.341333543443458 6.939992376674285 0.0
    vertex 9.283407448134874 6.499999999999999 0.0
  endloop
endfacet
facet normal 0.0 0.0 -1.0
  outer loop
    vertex 10.543415071460586 8.142073904691415 0.0
    vertex 25.0 12.999999999999998 0.0
    vertex 10.983407448134873 8.2 0.0
  endloop
endfacet
facet normal 0.0 0.0 -1.0
  outer loop
    vertex 10.983407448134873 8.2 0.0
    vertex 25.0 12.999999999999998 0.0
    vertex 11.42339982480916 8.142073904691415 0.0
  endloop
endfacet
facet normal 0.0 0.0 -1.0
  outer loop
    vertex 11.42339982480916 8.142073904691415 0.0
    vertex 25.0 12.999999999999998 0.0
    vertex 11.833407448134874 7.972243186433544 0.0
  endloop
endfacet
facet normal 0.0 0.0 -1.0
  outer loop
    vertex 11.833407448134874 7.972243186433544 0.0
    vertex 25.0 12.999999999999998 0.0
    vertex 12.185488976152003 7.702081528017129 0.0
  endloop
endfacet
facet normal 0.0 0.0 -1.0
  outer loop
    vertex 12.185488976152003 7.702081528017129 0.0
    vertex 25.0 12.999999999999998 0.0
    vertex 12.455650634568418 7.349999999999998 0.0
  endloop
endfacet
facet normal 0.0 0.0 -1.0
  outer loop
    vertex 12.455650634568418 7.349999999999998 0.0
    vertex 25.0 12.999999999999998 0.0
    vertex 12.625481352826288 6.939992376674283 0.0
  endloop
endfacet
facet normal 0.0 0.0 -1.0
  outer loop
    vertex 12.625481352826288 6.939992376674283 0.0
    vertex 25.0 12.999999999999998 0.0
    vertex 12.683407448134872 6.499999999999999 0.0
  endloop
endfacet
facet normal 0.0 0.0 -1.0
  outer loop
    vertex 12.683407448134872 6.499999999999999 0.0
    vertex 25.0 12.999999999999998 0.0
    vertex 19.79791847198287 7.70208152801713 0.0
  endloop
endfacet
facet normal 0.0 0.0 -1.0
  outer loop
    vertex 12.683407448134872 6.499999999999999 0.0
    vertex 19.79791847198287 7.70208152801713 0.0
    vertex 19.527756813566455 7.35 0.0
  endloop
endfacet
facet normal 0.0 0.0 -1.0
  outer loop
    vertex 12.683407448134872 6.499999999999999 0.0
    vertex 19.527756813566455 7.35 0.0
    vertex 19.357926095308585 6.939992376674285 0.0
  endloop
endfacet
facet normal 0.0 0.0 -1.0
  outer loop
    vertex 12.683407448134872 6.499999999999999 0.0
    vertex 19.357926095308585 6.939992376674285 0.0
    vertex 19.3 6.499999999999999 0.0
  endloop
endfacet
facet normal 0.0 0.0 -1.0
  outer loop
    vertex 19.79791847198287 7.70208152801713 0.0
    vertex 25.0 12.999999999999998 0.0
    vertex 20.150000000000002 7.972243186433545 0.0
  endloop
endfacet
facet normal 0.0 0.0 -1.0
  outer loop
    vertex 20.150000000000002 7.972243186433545 0.0
    vertex 25.0 12.999999999999998 0.0
    vertex 20.560007623325717 8.142073904691415 0.0
  endloop
endfacet
facet normal 0.0 0.0 -1.0
  outer loop
    vertex 20.560007623325717 8.142073904691415 0.0
    vertex 25.0 12.999999999999998 0.0
    vertex 21.0 8.2 0.0
  endloop
endfacet
facet normal 0.0 0.0 -1.0
  outer loop
    vertex 21.0 8.2 0.0
    vertex 25.0 12.999999999999998 0.0
    vertex 21.439992376674287 8.142073904691415 0.0
  endloop
endfacet
facet normal 0.0 0.0 -1.0
  outer loop
    vertex 21.439992376674287 8.142073904691415 0.0
    vertex 25.0 12.999999999999998 0.0
    vertex 21.85 7.972243186433544 0.0
  endloop
endfacet
facet normal 0.0 0.0 -1.0
  outer loop
    vertex 21.85 7.972243186433544 0.0
    vertex 25.0 12.999999999999998 0.0
    vertex 22.202081528017132 7.702081528017129 0.0
  endloop
endfacet
facet normal 0.0 0.0 -1.0
  outer loop
    vertex 22.202081528017132 7.702081528017129 0.0
    vertex 25.0 12.999999999999998 0.0
    vertex 22.47224318643355 7.349999999999998 0.0
  endloop
endfacet
facet normal 0.0 0.0 -1.0
  outer loop
    vertex 22.47224318643355 7.349999999999998 0.0
    vertex 25.0 12.999999999999998 0.0
    vertex 22.642073904691415 6.939992376674283 0.0
  endloop
endfacet
facet normal 0.0 0.0 -1.0
  outer loop
    vertex 22.642073904691415 6.939992376674283 0.0
    vertex 25.0 12.999999999999998 0.0
    vertex 22.7 6.499999999999999 0.0
  endloop
endfacet
facet normal 0.0 0.0 -1.0
  outer loop
    vertex 0.0 0.0 0.0
    vertex 10.543415071460586 4.857926095308584 0.0
    vertex 25.0 0.0 0.0
  endloop
endfacet
facet normal 0.0 0.0 -1.0
  outer loop
    vertex 10.543415071460586 4.857926095308584 0.0
    vertex 0.0 0.0 0.0
    vertex 10.133407448134873 5.027756813566454 0.0
  endloop
endfacet
facet normal 0.0 0.0 -1.0
  outer loop
    vertex 10.133407448134873 5.027756813566454 0.0
    vertex 0.0 0.0 0.0
    vertex 9.781325920117741 5.297918471982869 0.0
  endloop
endfacet
facet normal 0.0 0.0 -1.0
  outer loop
    vertex 9.781325920117741 5.297918471982869 0.0
    vertex 0.0 0.0 0.0
    vertex 9.511164261701326 5.6499999999999995 0.0
  endloop
endfacet
facet normal 0.0 0.0 -1.0
  outer loop
    vertex 9.511164261701326 5.6499999999999995 0.0
    vertex 0.0 0.0 0.0
    vertex 9.341333543443458 6.060007623325714 0.0
  endloop
endfacet
facet normal 0.0 0.0 -1.0
  outer loop
    vertex 9.341333543443458 6.060007623325714 0.0
    vertex 0.0 0.0 0.0
    vertex 9.283407448134874 6.499999999999999 0.0
  endloop
endfacet
facet normal 0.0 0.0 -1.0
  outer loop
    vertex 25.0 0.0 0.0
    vertex 10.543415071460586 4.857926095308584 0.0
    vertex 10.983407448134873 4.8 0.0
  endloop
endfacet
facet normal 0.0 0.0 -1.0
  outer loop
    vertex 25.0 0.0 0.0
    vertex 10.983407448134873 4.8 0.0
    vertex 11.423399824809156 4.857926095308583 0.0
  endloop
endfacet
facet normal 0.0 0.0 -1.0
  outer loop
    vertex 25.0 0.0 0.0
    vertex 11.423399824809156 4.857926095308583 0.0
    vertex 11.833407448134873 5.027756813566453 0.0
  endloop
endfacet
facet normal 0.0 0.0 -1.0
  outer loop
    vertex 25.0 0.0 0.0
    vertex 11.833407448134873 5.027756813566453 0.0
    vertex 12.185488976152003 5.297918471982868 0.0
  endloop
endfacet
facet normal 0.0 0.0 -1.0
  outer loop
    vertex 25.0 0.0 0.0
    vertex 12.185488976152003 5.297918471982868 0.0
    vertex 12.455650634568418 5.649999999999999 0.0
  endloop
endfacet
facet normal 0.0 0.0 -1.0
  outer loop
    vertex 25.0 0.0 0.0
    vertex 12.455650634568418 5.649999999999999 0.0
    vertex 12.625481352826288 6.0600076233257125 0.0
  endloop
endfacet
facet normal 0.0 0.0 -1.0
  outer loop
    vertex 25.0 0.0 0.0
    vertex 12.625481352826288 6.0600076233257125 0.0
    vertex 12.683407448134872 6.499999999999999 0.0
  endloop
endfacet
facet normal 0.0 0.0 -1.0
  outer loop
    vertex 25.0 0.0 0.0
    vertex 12.683407448134872 6.499999999999999 0.0
    vertex 19.79791847198287 5.297918471982869 0.0
  endloop
endfacet
facet normal 0.0 0.0 -1.0
  outer loop
    vertex 19.79791847198287 5.297918471982869 0.0
    vertex 12.683407448134872 6.499999999999999 0.0
    vertex 19.527756813566455 5.6499999999999995 0.0
  endloop
endfacet
facet normal 0.0 0.0 -1.0
  outer loop
    vertex 19.527756813566455 5.6499999999999995 0.0
    vertex 12.683407448134872 6.499999999999999 0.0
    vertex 19.357926095308585 6.060007623325714 0.0
  endloop
endfacet
facet normal 0.0 0.0 -1.0
  outer loop
    vertex 19.357926095308585 6.060007623325714 0.0
    vertex 12.683407448134872 6.499999999999999 0.0
    vertex 19.3 6.499999999999999 0.0
  endloop
endfacet
facet normal 0.0 0.0 -1.0
  outer loop
    vertex 25.0 0.0 0.0
    vertex 19.79791847198287 5.297918471982869 0.0
    vertex 20.15 5.027756813566454 0.0
  endloop
endfacet
facet normal 0.0 0.0 -1.0
  outer loop
    vertex 25.0 0.0 0.0
    vertex 20.15 5.027756813566454 0.0
    vertex 20.560007623325717 4.857926095308584 0.0
  endloop
endfacet
facet normal 0.0 0.0 -1.0
  outer loop
    vertex 25.0 0.0 0.0
    vertex 20.560007623325717 4.857926095308584 0.0
    vertex 21.0 4.8 0.0
  endloop
endfacet
facet normal 0.0 0.0 -1.0
  outer loop
    vertex 25.0 0.0 0.0
    vertex 21.0 4.8 0.0
    vertex 21.439992376674287 4.857926095308583 0.0
  endloop
endfacet
facet normal 0.0 0.0 -1.0
  outer loop
    vertex 25.0 0.0 0.0
    vertex 21.439992376674287 4.857926095308583 0.0
    vertex 21.849999999999998 5.027756813566453 0.0
  endloop
endfacet
facet normal 0.0 0.0 -1.0
  outer loop
    vertex 25.0 0.0 0.0
    vertex 21.849999999999998 5.027756813566453 0.0
    vertex 22.202081528017132 5.297918471982868 0.0
  endloop
endfacet
facet normal 0.0 0.0 -1.0
  outer loop
    vertex 25.0 0.0 0.0
    vertex 22.202081528017132 5.297918471982868 0.0
    vertex 22.472243186433545 5.649999999999999 0.0
  endloop
endfacet
facet normal 0.0 0.0 -1.0
  outer loop
    vertex 25.0 0.0 0.0
    vertex 22.472243186433545 5.649999999999999 0.0
    vertex 22.642073904691415 6.0600076233257125 0.0
  endloop
endfacet
facet normal 0.0 0.0 -1.0
  outer loop
    vertex 25.0 0.0 0.0
    vertex 22.642073904691415 6.0600076233257125 0.0
    vertex 22.7 6.499999999999999 0.0
  endloop
endfacet
facet normal 0.0 0.0 -1.0
  outer loop
    vertex 25.0 0.0 0.0
    vertex 22.7 6.499999999999999 0.0
    vertex 25.0 12.999999999999998 0.0
  endloop
endfacet
facet normal -0.0 -0.0 1.0
  outer loop
    vertex 0.0 0.0 3.9999999999999996
    vertex 9.781325920117741 5.297918471982869 3.9999999999999996
    vertex 0.0 12.999999999999998 3.9999999999999996
  endloop
endfacet
facet normal -0.0 -0.0 1.0
  outer loop
    vertex 9.781325920117741 5.297918471982869 3.9999999999999996
    vertex 0.0 0.0 3.9999999999999996
    vertex 10.133407448134873 5.027756813566454 3.9999999999999996
  endloop
endfacet
facet normal -0.0 -0.0 1.0
  outer loop
    vertex 10.133407448134873 5.027756813566454 3.9999999999999996
    vertex 0.0 0.0 3.9999999999999996
    vertex 10.543415071460586 4.857926095308584 3.9999999999999996
  endloop
endfacet
facet normal -0.0 -0.0 1.0
  outer loop
    vertex 10.543415071460586 4.857926095308584 3.9999999999999996
    vertex 0.0 0.0 3.9999999999999996
    vertex 25.0 0.0 3.9999999999999996
  endloop
endfacet
facet normal -0.0 -0.0 1.0
  outer loop
    vertex 0.0 12.999999999999998 3.9999999999999996
    vertex 9.781325920117741 5.297918471982869 3.9999999999999996
    vertex 9.511164261701326 5.6499999999999995 3.9999999999999996
  endloop
endfacet
facet normal -0.0 -0.0 1.0
  outer loop
    vertex 0.0 12.999999999999998 3.9999999999999996
    vertex 9.511164261701326 5.6499999999999995 3.9999999999999996
    vertex 9.341333543443458 6.060007623325714 3.9999999999999996
  endloop
endfacet
facet normal -0.0 -0.0 1.0
  outer loop
    vertex 0.0 12.999999999999998 3.9999999999999996
    vertex 9.341333543443458 6.060007623325714 3.9999999999999996
    vertex 9.283407448134874 6.499999999999999 3.9999999999999996
  endloop
endfacet
facet normal -0.0 -0.0 1.0
  outer loop
    vertex 10.543415071460586 4.857926095308584 3.9999999999999996
    vertex 25.0 0.0 3.9999999999999996
    vertex 10.983407448134873 4.8 3.9999999999999996
  endloop
endfacet
facet normal -0.0 -0.0 1.0
  outer loop
    vertex 10.983407448134873 4.8 3.9999999999999996
    vertex 25.0 0.0 3.9999999999999996
    vertex 11.423399824809156 4.857926095308583 3.9999999999999996
  endloop
endfacet
facet normal -0.0 -0.0 1.0
  outer loop
    vertex 11.423399824809156 4.857926095308583 3.9999999999999996
    vertex 25.0 0.0 3.9999999999999996
    vertex 11.833407448134873 5.027756813566453 3.9999999999999996
  endloop
endfacet
facet normal -0.0 -0.0 1.0
  outer loop
    vertex 11.833407448134873 5.027756813566453 3.9999999999999996
    vertex 25.0 0.0 3.9999999999999996
    vertex 12.185488976152003 5.297918471982868 3.9999999999999996
  endloop
endfacet
facet normal -0.0 -0.0 1.0
  outer loop
    vertex 12.185488976152003 5.297918471982868 3.9999999999999996
    vertex 25.0 0.0 3.9999999999999996
    vertex 12.455650634568418 5.649999999999999 3.9999999999999996
  endloop
endfacet
facet normal -0.0 -0.0 1.0
  outer loop
    vertex 12.455650634568418 5.649999999999999 3.9999999999999996
    vertex 25.0 0.0 3.9999999999999996
    vertex 12.625481352826288 6.0600076233257125 3.9999999999999996
  endloop
endfacet
facet normal -0.0 -0.0 1.0
  outer loop
    vertex 12.625481352826288 6.0600076233257125 3.9999999999999996
    vertex 25.0 0.0 3.9999999999999996
    vertex 12.683407448134872 6.499999999999999 3.9999999999999996
  endloop
endfacet
facet normal -0.0 -0.0 1.0
  outer loop
    vertex 12.683407448134872 6.499999999999999 3.9999999999999996
    vertex 25.0 0.0 3.9999999999999996
    vertex 16.650000000000002 5.027756813566453 3.9999999999999996
  endloop
endfacet
facet normal -0.0 -0.0 1.0
  outer loop
    vertex 12.683407448134872 6.499999999999999 3.9999999999999996
    vertex 16.650000000000002 5.027756813566453 3.9999999999999996
    vertex 16.29791847198287 5.297918471982868 3.9999999999999996
  endloop
endfacet
facet normal -0.0 -0.0 1.0
  outer loop
    vertex 12.683407448134872 6.499999999999999 3.9999999999999996
    vertex 16.29791847198287 5.297918471982868 3.9999999999999996
    vertex 16.02775681356646 5.649999999999999 3.9999999999999996
  endloop
endfacet
facet normal -0.0 -0.0 1.0
  outer loop
    vertex 12.683407448134872 6.499999999999999 3.9999999999999996
    vertex 16.02775681356646 5.649999999999999 3.9999999999999996
    vertex 15.857926095308587 6.0600076233257125 3.9999999999999996
  endloop
endfacet
facet normal -0.0 -0.0 1.0
  outer loop
    vertex 12.683407448134872 6.499999999999999 3.9999999999999996
    vertex 15.857926095308587 6.0600076233257125 3.9999999999999996
    vertex 15.800000000000002 6.499999999999999 3.9999999999999996
  endloop
endfacet
facet normal -0.0 -0.0 1.0
  outer loop
    vertex 16.650000000000002 5.027756813566453 3.9999999999999996
    vertex 25.0 0.0 3.9999999999999996
    vertex 17.060007623325717 4.857926095308583 3.9999999999999996
  endloop
endfacet
facet normal -0.0 -0.0 1.0
  outer loop
    vertex 17.060007623325717 4.857926095308583 3.9999999999999996
    vertex 25.0 0.0 3.9999999999999996
    vertex 17.5 4.8 3.9999999999999996
  endloop
endfacet
facet normal -0.0 -0.0 1.0
  outer loop
    vertex 17.5 4.8 3.9999999999999996
    vertex 25.0 0.0 3.9999999999999996
    vertex 17.939992376674287 4.857926095308584 3.9999999999999996
  endloop
endfacet
facet normal -0.0 -0.0 1.0
  outer loop
    vertex 17.939992376674287 4.857926095308584 3.9999999999999996
    vertex 25.0 0.0 3.9999999999999996
    vertex 18.35 5.027756813566454 3.9999999999999996
  endloop
endfacet
facet normal -0.0 -0.0 1.0
  outer loop
    vertex 18.35 5.027756813566454 3.9999999999999996
    vertex 25.0 0.0 3.9999999999999996
    vertex 18.702081528017132 5.297918471982869 3.9999999999999996
  endloop
endfacet
facet normal -0.0 -0.0 1.0
  outer loop
    vertex 18.702081528017132 5.297918471982869 3.9999999999999996
    vertex 25.0 0.0 3.9999999999999996
    vertex 18.972243186433545 5.6499999999999995 3.9999999999999996
  endloop
endfacet
facet normal -0.0 -0.0 1.0
  outer loop
    vertex 18.972243186433545 5.6499999999999995 3.9999999999999996
    vertex 25.0 0.0 3.9999999999999996
    vertex 19.79791847198287 5.297918471982869 3.9999999999999996
  endloop
endfacet
facet normal -0.0 -0.0 1.0
  outer loop
    vertex 18.972243186433545 5.6499999999999995 3.9999999999999996
    vertex 19.79791847198287 5.297918471982869 3.9999999999999996
    vertex 19.14207390469142 6.060007623325714 3.9999999999999996
  endloop
endfacet
facet normal -0.0 -0.0 1.0
  outer loop
    vertex 19.14207390469142 6.060007623325714 3.9999999999999996
    vertex 19.79791847198287 5.297918471982869 3.9999999999999996
    vertex 19.527756813566455 5.6499999999999995 3.9999999999999996
  endloop
endfacet
facet normal -0.0 -0.0 1.0
  outer loop
    vertex 19.14207390469142 6.060007623325714 3.9999999999999996
    vertex 19.527756813566455 5.6499999999999995 3.9999999999999996
    vertex 19.357926095308585 6.060007623325714 3.9999999999999996
  endloop
endfacet
facet normal -0.0 -0.0 1.0
  outer loop
    vertex 19.14207390469142 6.060007623325714 3.9999999999999996
    vertex 19.357926095308585 6.060007623325714 3.9999999999999996
    vertex 19.200000000000003 6.499999999999999 3.9999999999999996
  endloop
endfacet
facet normal -0.0 -0.0 1.0
  outer loop
    vertex 19.200000000000003 6.499999999999999 3.9999999999999996
    vertex 19.357926095308585 6.060007623325714 3.9999999999999996
    vertex 19.3 6.499999999999999 3.9999999999999996
  endloop
endfacet
facet normal -0.0 -0.0 1.0
  outer loop
    vertex 19.79791847198287 5.297918471982869 3.9999999999999996
    vertex 25.0 0.0 3.9999999999999996
    vertex 20.15 5.027756813566454 3.9999999999999996
  endloop
endfacet
facet normal -0.0 -0.0 1.0
  outer loop
    vertex 20.15 5.027756813566454 3.9999999999999996
    vertex 25.0 0.0 3.9999999999999996
    vertex 20.560007623325717 4.857926095308584 3.9999999999999996
  endloop
endfacet
facet normal -0.0 -0.0 1.0
  outer loop
    vertex 20.560007623325717 4.857926095308584 3.9999999999999996
    vertex 25.0 0.0 3.9999999999999996
    vertex 21.0 4.8 3.9999999999999996
  endloop
endfacet
facet normal -0.0 -0.0 1.0
  outer loop
    vertex 21.0 4.8 3.9999999999999996
    vertex 25.0 0.0 3.9999999999999996
    vertex 21.439992376674287 4.857926095308583 3.9999999999999996
  endloop
endfacet
facet normal -0.0 -0.0 1.0
  outer loop
    vertex 21.439992376674287 4.857926095308583 3.9999999999999996
    vertex 25.0 0.0 3.9999999999999996
    vertex 21.849999999999998 5.027756813566453 3.9999999999999996
  endloop
endfacet
facet normal -0.0 -0.0 1.0
  outer loop
    vertex 21.849999999999998 5.027756813566453 3.9999999999999996
    vertex 25.0 0.0 3.9999999999999996
    vertex 22.202081528017132 5.297918471982868 3.9999999999999996
  endloop
endfacet
facet normal -0.0 -0.0 1.0
  outer loop
    vertex 22.202081528017132 5.297918471982868 3.9999999999999996
    vertex 25.0 0.0 3.9999999999999996
    vertex 22.472243186433545 5.649999999999999 3.9999999999999996
  endloop
endfacet
facet normal -0.0 -0.0 1.0
  outer loop
    vertex 22.472243186433545 5.649999999999999 3.9999999999999996
    vertex 25.0 0.0 3.9999999999999996
    vertex 22.642073904691415 6.0600076233257125 3.9999999999999996
  endloop
endfacet
facet normal -0.0 -0.0 1.0
  outer loop
    vertex 22.642073904691415 6.0600076233257125 3.9999999999999996
    vertex 25.0 0.0 3.9999999999999996
    vertex 22.7 6.499999999999999 3.9999999999999996
  endloop
endfacet
facet normal -0.0 -0.0 1.0
  outer loop
    vertex 0.0 12.999999999999998 3.9999999999999996
    vertex 10.543415071460586 8.142073904691415 3.9999999999999996
    vertex 25.0 12.999999999999998 3.9999999999999996
  endloop
endfacet
facet normal -0.0 -0.0 1.0
  outer loop
    vertex 10.543415071460586 8.142073904691415 3.9999999999999996
    vertex 0.0 12.999999999999998 3.9999999999999996
    vertex 10.133407448134873 7.972243186433545 3.9999999999999996
  endloop
endfacet
facet normal -0.0 -0.0 1.0
  outer loop
    vertex 10.133407448134873 7.972243186433545 3.9999999999999996
    vertex 0.0 12.999999999999998 3.9999999999999996
    vertex 9.781325920117743 7.70208152801713 3.9999999999999996
  endloop
endfacet
facet normal -0.0 -0.0 1.0
  outer loop
    vertex 9.781325920117743 7.70208152801713 3.9999999999999996
    vertex 0.0 12.999999999999998 3.9999999999999996
    vertex 9.511164261701326 7.35 3.9999999999999996
  endloop
endfacet
facet normal -0.0 -0.0 1.0
  outer loop
    vertex 9.511164261701326 7.35 3.9999999999999996
    vertex 0.0 12.999999999999998 3.9999999999999996
    vertex 9.341333543443458 6.939992376674285 3.9999999999999996
  endloop
endfacet
facet normal -0.0 -0.0 1.0
  outer loop
    vertex 9.341333543443458 6.939992376674285 3.9999999999999996
    vertex 0.0 12.999999999999998 3.9999999999999996
    vertex 9.283407448134874 6.499999999999999 3.9999999999999996
  endloop
endfacet
facet normal -0.0 -0.0 1.0
  outer loop
    vertex 25.0 12.999999999999998 3.9999999999999996
    vertex 10.543415071460586 8.142073904691415 3.9999999999999996
    vertex 10.983407448134873 8.2 3.9999999999999996
  endloop
endfacet
facet normal -0.0 -0.0 1.0
  outer loop
    vertex 25.0 12.999999999999998 3.9999999999999996
    vertex 10.983407448134873 8.2 3.9999999999999996
    vertex 11.42339982480916 8.142073904691415 3.9999999999999996
  endloop
endfacet
facet normal -0.0 -0.0 1.0
  outer loop
    vertex 25.0 12.999999999999998 3.9999999999999996
    vertex 11.42339982480916 8.142073904691415 3.9999999999999996
    vertex 11.833407448134874 7.972243186433544 3.9999999999999996
  endloop
endfacet
facet normal -0.0 -0.0 1.0
  outer loop
    vertex 25.0 12.999999999999998 3.9999999999999996
    vertex 11.833407448134874 7.972243186433544 3.9999999999999996
    vertex 12.185488976152003 7.702081528017129 3.9999999999999996
  endloop
endfacet
facet normal -0.0 -0.0 1.0
  outer loop
    vertex 25.0 12.999999999999998 3.9999999999999996
    vertex 12.185488976152003 7.702081528017129 3.9999999999999996
    vertex 12.455650634568418 7.349999999999998 3.9999999999999996
  endloop
endfacet
facet normal -0.0 -0.0 1.0
  outer loop
    vertex 25.0 12.999999999999998 3.9999999999999996
    vertex 12.455650634568418 7.349999999999998 3.9999999999999996
    vertex 12.625481352826288 6.939992376674283 3.9999999999999996
  endloop
endfacet
facet normal -0.0 -0.0 1.0
  outer loop
    vertex 25.0 12.999999999999998 3.9999999999999996
    vertex 12.625481352826288 6.939992376674283 3.9999999999999996
    vertex 12.683407448134872 6.499999999999999 3.9999999999999996
  endloop
endfacet
facet normal -0.0 -0.0 1.0
  outer loop
    vertex 25.0 12.999999999999998 3.9999999999999996
    vertex 12.683407448134872 6.499999999999999 3.9999999999999996
    vertex 16.650000000000002 7.972243186433544 3.9999999999999996
  endloop
endfacet
facet normal -0.0 -0.0 1.0
  outer loop
    vertex 16.650000000000002 7.972243186433544 3.9999999999999996
    vertex 12.683407448134872 6.499999999999999 3.9999999999999996
    vertex 16.29791847198287 7.702081528017129 3.9999999999999996
  endloop
endfacet
facet normal -0.0 -0.0 1.0
  outer loop
    vertex 16.29791847198287 7.702081528017129 3.9999999999999996
    vertex 12.683407448134872 6.499999999999999 3.9999999999999996
    vertex 16.027756813566455 7.349999999999998 3.9999999999999996
  endloop
endfacet
facet normal -0.0 -0.0 1.0
  outer loop
    vertex 16.027756813566455 7.349999999999998 3.9999999999999996
    vertex 12.683407448134872 6.499999999999999 3.9999999999999996
    vertex 15.857926095308587 6.939992376674283 3.9999999999999996
  endloop
endfacet
facet normal -0.0 -0.0 1.0
  outer loop
    vertex 15.857926095308587 6.939992376674283 3.9999999999999996
    vertex 12.683407448134872 6.499999999999999 3.9999999999999996
    vertex 15.800000000000002 6.499999999999999 3.9999999999999996
  endloop
endfacet
facet normal -0.0 -0.0 1.0
  outer loop
    vertex 25.0 12.999999999999998 3.9999999999999996
    vertex 16.650000000000002 7.972243186433544 3.9999999999999996
    vertex 17.060007623325717 8.142073904691415 3.9999999999999996
  endloop
endfacet
facet normal -0.0 -0.0 1.0
  outer loop
    vertex 25.0 12.999999999999998 3.9999999999999996
    vertex 17.060007623325717 8.142073904691415 3.9999999999999996
    vertex 17.5 8.2 3.9999999999999996
  endloop
endfacet
facet normal -0.0 -0.0 1.0
  outer loop
    vertex 25.0 12.999999999999998 3.9999999999999996
    vertex 17.5 8.2 3.9999999999999996
    vertex 17.939992376674287 8.142073904691415 3.9999999999999996
  endloop
endfacet
facet normal -0.0 -0.0 1.0
  outer loop
    vertex 25.0 12.999999999999998 3.9999999999999996
    vertex 17.939992376674287 8.142073904691415 3.9999999999999996
    vertex 18.35 7.972243186433545 3.9999999999999996
  endloop
endfacet
facet normal -0.0 -0.0 1.0
  outer loop
    vertex 25.0 12.999999999999998 3.9999999999999996
    vertex 18.35 7.972243186433545 3.9999999999999996
    vertex 18.702081528017132 7.70208152801713 3.9999999999999996
  endloop
endfacet
facet normal -0.0 -0.0 1.0
  outer loop
    vertex 25.0 12.999999999999998 3.9999999999999996
    vertex 18.702081528017132 7.70208152801713 3.9999999999999996
    vertex 18.972243186433545 7.35 3.9999999999999996
  endloop
endfacet
facet normal -0.0 -0.0 1.0
  outer loop
    vertex 25.0 12.999999999999998 3.9999999999999996
    vertex 18.972243186433545 7.35 3.9999999999999996
    vertex 19.79791847198287 7.70208152801713 3.9999999999999996
  endloop
endfacet
facet normal -0.0 -0.0 1.0
  outer loop
    vertex 19.79791847198287 7.70208152801713 3.9999999999999996
    vertex 18.972243186433545 7.35 3.9999999999999996
    vertex 19.14207390469142 6.939992376674285 3.9999999999999996
  endloop
endfacet
facet normal -0.0 -0.0 1.0
  outer loop
    vertex 19.79791847198287 7.70208152801713 3.9999999999999996
    vertex 19.14207390469142 6.939992376674285 3.9999999999999996
    vertex 19.527756813566455 7.35 3.9999999999999996
  endloop
endfacet
facet normal -0.0 -0.0 1.0
  outer loop
    vertex 19.527756813566455 7.35 3.9999999999999996
    vertex 19.14207390469142 6.939992376674285 3.9999999999999996
    vertex 19.357926095308585 6.939992376674285 3.9999999999999996
  endloop
endfacet
facet normal -0.0 -0.0 1.0
  outer loop
    vertex 19.357926095308585 6.939992376674285 3.9999999999999996
    vertex 19.14207390469142 6.939992376674285 3.9999999999999996
    vertex 19.200000000000003 6.499999999999999 3.9999999999999996
  endloop
endfacet
facet normal -0.0 -0.0 1.0
  outer loop
    vertex 19.357926095308585 6.939992376674285 3.9999999999999996
    vertex 19.200000000000003 6.499999999999999 3.9999999999999996
    vertex 19.3 6.499999999999999 3.9999999999999996
  endloop
endfacet
facet normal -0.0 -0.0 1.0
  outer loop
    vertex 25.0 12.999999999999998 3.9999999999999996
    vertex 19.79791847198287 7.70208152801713 3.9999999999999996
    vertex 20.150000000000002 7.972243186433545 3.9999999999999996
  endloop
endfacet
facet normal -0.0 -0.0 1.0
  outer loop
    vertex 25.0 12.999999999999998 3.9999999999999996
    vertex 20.150000000000002 7.972243186433545 3.9999999999999996
    vertex 20.560007623325717 8.142073904691415 3.9999999999999996
  endloop
endfacet
facet normal -0.0 -0.0 1.0
  outer loop
    vertex 25.0 12.999999999999998 3.9999999999999996
    vertex 20.560007623325717 8.142073904691415 3.9999999999999996
    vertex 21.0 8.2 3.9999999999999996
  endloop
endfacet
facet normal -0.0 -0.0 1.0
  outer loop
    vertex 25.0 12.999999999999998 3.9999999999999996
    vertex 21.0 8.2 3.9999999999999996
    vertex 21.439992376674287 8.142073904691415 3.9999999999999996
  endloop
endfacet
facet normal -0.0 -0.0 1.0
  outer loop
    vertex 25.0 12.999999999999998 3.9999999999999996
    vertex 21.439992376674287 8.142073904691415 3.9999999999999996
    vertex 21.85 7.972243186433544 3.9999999999999996
  endloop
endfacet
facet normal -0.0 -0.0 1.0
  outer loop
    vertex 25.0 12.999999999999998 3.9999999999999996
    vertex 21.85 7.972243186433544 3.9999999999999996
    vertex 22.202081528017132 7.702081528017129 3.9999999999999996
  endloop
endfacet
facet normal -0.0 -0.0 1.0
  outer loop
    vertex 25.0 12.999999999999998 3.9999999999999996
    vertex 22.202081528017132 7.702081528017129 3.9999999999999996
    vertex 22.47224318643355 7.349999999999998 3.9999999999999996
  endloop
endfacet
facet normal -0.0 -0.0 1.0
  outer loop
    vertex 25.0 12.999999999999998 3.9999999999999996
    vertex 22.47224318643355 7.349999999999998 3.9999999999999996
    vertex 22.642073904691415 6.939992376674283 3.9999999999999996
  endloop
endfacet
facet normal -0.0 -0.0 1.0
  outer loop
    vertex 25.0 12.999999999999998 3.9999999999999996
    vertex 22.642073904691415 6.939992376674283 3.9999999999999996
    vertex 22.7 6.499999999999999 3.9999999999999996
  endloop
endfacet
facet normal -0.0 -0.0 1.0
  outer loop
    vertex 25.0 12.999999999999998 3.9999999999999996
    vertex 22.7 6.499999999999999 3.9999999999999996
    vertex 25.0 0.0 3.9999999999999996
  endloop
endfacet
facet normal -0.0 1.0 0.0
  outer loop
    vertex 0.0 12.999999999999998 3.9999999999999996
    vertex 25.0 12.999999999999998 0.0
    vertex 0.0 12.999999999999998 0.0
  endloop
endfacet
facet normal -0.0 1.0 0.0
  outer loop
    vertex 25.0 12.999999999999998 0.0
    vertex 0.0 12.999999999999998 3.9999999999999996
    vertex 25.0 12.999999999999998 3.9999999999999996
  endloop
endfacet
facet normal 1.0 0.0 0.0
  outer loop
    vertex 25.0 12.999999999999998 0.0
    vertex 25.0 0.0 3.9999999999999996
    vertex 25.0 0.0 0.0
  endloop
endfacet
facet normal 1.0 0.0 0.0
  outer loop
    vertex 25.0 0.0 3.9999999999999996
    vertex 25.0 12.999999999999998 0.0
    vertex 25.0 12.999999999999998 3.9999999999999996
  endloop
endfacet
facet normal -0.0 -1.0 -0.0
  outer loop
    vertex 25.0 0.0 3.9999999999999996
    vertex 0.0 0.0 0.0
    vertex 25.0 0.0 0.0
  endloop
endfacet
facet normal -0.0 -1.0 -0.0
  outer loop
    vertex 0.0 0.0 0.0
    vertex 25.0 0.0 3.9999999999999996
    vertex 0.0 0.0 3.9999999999999996
  endloop
endfacet
facet normal -1.0 0.0 0.0
  outer loop
    vertex 0.0 12.999999999999998 3.9999999999999996
    vertex 0.0 0.0 0.0
    vertex 0.0 0.0 3.9999999999999996
  endloop
endfacet
facet normal -1.0 0.0 0.0
  outer loop
    vertex 0.0 0.0 0.0
    vertex 0.0 12.999999999999998 3.9999999999999996
    vertex 0.0 12.999999999999998 0.0
  endloop
endfacet
facet normal 0.130526192220053 0.9914448613738103 0.0
  outer loop
    vertex 10.543415071460586 4.857926095308584 3.9999999999999996
    vertex 10.983407448134873 4.8 0.0
    vertex 10.543415071460586 4.857926095308584 0.0
  endloop
endfacet
facet normal 0.130526192220053 0.9914448613738103 0.0
  outer loop
    vertex 10.983407448134873 4.8 0.0
    vertex 10.543415071460586 4.857926095308584 3.9999999999999996
    vertex 10.983407448134873 4.8 3.9999999999999996
  endloop
endfacet
facet normal -0.13052619222005185 0.9914448613738105 0.0
  outer loop
    vertex 10.983407448134873 4.8 3.9999999999999996
    vertex 11.423399824809156 4.857926095308583 0.0
    vertex 10.983407448134873 4.8 0.0
  endloop
endfacet
facet normal -0.13052619222005185 0.9914448613738105 0.0
  outer loop
    vertex 11.423399824809156 4.857926095308583 0.0
    vertex 10.983407448134873 4.8 3.9999999999999996
    vertex 11.423399824809156 4.857926095308583 3.9999999999999996
  endloop
endfacet
facet normal -0.3826834323650884 0.9238795325112875 0.0
  outer loop
    vertex 11.423399824809156 4.857926095308583 3.9999999999999996
    vertex 11.833407448134873 5.027756813566453 0.0
    vertex 11.423399824809156 4.857926095308583 0.0
  endloop
endfacet
facet normal -0.3826834323650884 0.9238795325112875 0.0
  outer loop
    vertex 11.833407448134873 5.027756813566453 0.0
    vertex 11.423399824809156 4.857926095308583 3.9999999999999996
    vertex 11.833407448134873 5.027756813566453 3.9999999999999996
  endloop
endfacet
facet normal -0.6087614290087209 0.7933533402912349 0.0
  outer loop
    vertex 11.833407448134873 5.027756813566453 3.9999999999999996
    vertex 12.185488976152003 5.297918471982868 0.0
    vertex 11.833407448134873 5.027756813566453 0.0
  endloop
endfacet
facet normal -0.6087614290087209 0.7933533402912349 0.0
  outer loop
    vertex 12.185488976152003 5.297918471982868 0.0
    vertex 11.833407448134873 5.027756813566453 3.9999999999999996
    vertex 12.185488976152003 5.297918471982868 3.9999999999999996
  endloop
endfacet
facet normal -0.7933533402912356 0.6087614290087202 0.0
  outer loop
    vertex 12.455650634568418 5.649999999999999 3.9999999999999996
    vertex 12.185488976152003 5.297918471982868 0.0
    vertex 12.185488976152003 5.297918471982868 3.9999999999999996
  endloop
endfacet
facet normal -0.7933533402912356 0.6087614290087202 0.0
  outer loop
    vertex 12.185488976152003 5.297918471982868 0.0
    vertex 12.455650634568418 5.649999999999999 3.9999999999999996
    vertex 12.455650634568418 5.649999999999999 0.0
  endloop
endfacet
facet normal -0.9238795325112862 0.3826834323650914 0.0
  outer loop
    vertex 12.625481352826288 6.0600076233257125 3.9999999999999996
    vertex 12.455650634568418 5.649999999999999 0.0
    vertex 12.455650634568418 5.649999999999999 3.9999999999999996
  endloop
endfacet
facet normal -0.9238795325112862 0.3826834323650914 0.0
  outer loop
    vertex 12.455650634568418 5.649999999999999 0.0
    vertex 12.625481352826288 6.0600076233257125 3.9999999999999996
    vertex 12.625481352826288 6.0600076233257125 0.0
  endloop
endfacet
facet normal -0.9914448613738103 0.13052619222005257 0.0
  outer loop
    vertex 12.683407448134872 6.499999999999999 3.9999999999999996
    vertex 12.625481352826288 6.0600076233257125 0.0
    vertex 12.625481352826288 6.0600076233257125 3.9999999999999996
  endloop
endfacet
facet normal -0.9914448613738103 0.13052619222005257 0.0
  outer loop
    vertex 12.625481352826288 6.0600076233257125 0.0
    vertex 12.683407448134872 6.499999999999999 3.9999999999999996
    vertex 12.683407448134872 6.499999999999999 0.0
  endloop
endfacet
facet normal -0.9914448613738102 -0.1305261922200534 -0.0
  outer loop
    vertex 12.625481352826288 6.939992376674283 3.9999999999999996
    vertex 12.683407448134872 6.499999999999999 0.0
    vertex 12.683407448134872 6.499999999999999 3.9999999999999996
  endloop
endfacet
facet normal -0.9914448613738102 -0.1305261922200534 -0.0
  outer loop
    vertex 12.683407448134872 6.499999999999999 0.0
    vertex 12.625481352826288 6.939992376674283 3.9999999999999996
    vertex 12.625481352826288 6.939992376674283 0.0
  endloop
endfacet
facet normal -0.9238795325112875 -0.38268343236508806 -0.0
  outer loop
    vertex 12.455650634568418 7.349999999999998 3.9999999999999996
    vertex 12.625481352826288 6.939992376674283 0.0
    vertex 12.625481352826288 6.939992376674283 3.9999999999999996
  endloop
endfacet
facet normal -0.9238795325112875 -0.38268343236508806 -0.0
  outer loop
    vertex 12.625481352826288 6.939992376674283 0.0
    vertex 12.455650634568418 7.349999999999998 3.9999999999999996
    vertex 12.455650634568418 7.349999999999998 0.0
  endloop
endfacet
facet normal -0.7933533402912362 -0.6087614290087194 -0.0
  outer loop
    vertex 12.185488976152003 7.702081528017129 3.9999999999999996
    vertex 12.455650634568418 7.349999999999998 0.0
    vertex 12.455650634568418 7.349999999999998 3.9999999999999996
  endloop
endfacet
facet normal -0.7933533402912362 -0.6087614290087194 -0.0
  outer loop
    vertex 12.455650634568418 7.349999999999998 0.0
    vertex 12.185488976152003 7.702081528017129 3.9999999999999996
    vertex 12.185488976152003 7.702081528017129 0.0
  endloop
endfacet
facet normal -0.6087614290087209 -0.7933533402912349 -0.0
  outer loop
    vertex 12.185488976152003 7.702081528017129 3.9999999999999996
    vertex 11.833407448134874 7.972243186433544 0.0
    vertex 12.185488976152003 7.702081528017129 0.0
  endloop
endfacet
facet normal -0.6087614290087209 -0.7933533402912349 -0.0
  outer loop
    vertex 11.833407448134874 7.972243186433544 0.0
    vertex 12.185488976152003 7.702081528017129 3.9999999999999996
    vertex 11.833407448134874 7.972243186433544 3.9999999999999996
  endloop
endfacet
facet normal -0.38268343236509084 -0.9238795325112865 -0.0
  outer loop
    vertex 11.833407448134874 7.972243186433544 3.9999999999999996
    vertex 11.42339982480916 8.142073904691415 0.0
    vertex 11.833407448134874 7.972243186433544 0.0
  endloop
endfacet
facet normal -0.38268343236509084 -0.9238795325112865 -0.0
  outer loop
    vertex 11.42339982480916 8.142073904691415 0.0
    vertex 11.833407448134874 7.972243186433544 3.9999999999999996
    vertex 11.42339982480916 8.142073904691415 3.9999999999999996
  endloop
endfacet
facet normal -0.13052619222005257 -0.9914448613738103 -0.0
  outer loop
    vertex 11.42339982480916 8.142073904691415 3.9999999999999996
    vertex 10.983407448134873 8.2 0.0
    vertex 11.42339982480916 8.142073904691415 0.0
  endloop
endfacet
facet normal -0.13052619222005257 -0.9914448613738103 -0.0
  outer loop
    vertex 10.983407448134873 8.2 0.0
    vertex 11.42339982480916 8.142073904691415 3.9999999999999996
    vertex 10.983407448134873 8.2 3.9999999999999996
  endloop
endfacet
facet normal 0.130526192220053 -0.9914448613738103 0.0
  outer loop
    vertex 10.983407448134873 8.2 3.9999999999999996
    vertex 10.543415071460586 8.142073904691415 0.0
    vertex 10.983407448134873 8.2 0.0
  endloop
endfacet
facet normal 0.130526192220053 -0.9914448613738103 0.0
  outer loop
    vertex 10.543415071460586 8.142073904691415 0.0
    vertex 10.983407448134873 8.2 3.9999999999999996
    vertex 10.543415071460586 8.142073904691415 3.9999999999999996
  endloop
endfacet
facet normal 0.38268343236508806 -0.9238795325112875 0.0
  outer loop
    vertex 10.543415071460586 8.142073904691415 3.9999999999999996
    vertex 10.133407448134873 7.972243186433545 0.0
    vertex 10.543415071460586 8.142073904691415 0.0
  endloop
endfacet
facet normal 0.38268343236508806 -0.9238795325112875 0.0
  outer loop
    vertex 10.133407448134873 7.972243186433545 0.0
    vertex 10.543415071460586 8.142073904691415 3.9999999999999996
    vertex 10.133407448134873 7.972243186433545 3.9999999999999996
  endloop
endfacet
facet normal 0.6087614290087209 -0.7933533402912349 0.0
  outer loop
    vertex 10.133407448134873 7.972243186433545 3.9999999999999996
    vertex 9.781325920117743 7.70208152801713 0.0
    vertex 10.133407448134873 7.972243186433545 0.0
  endloop
endfacet
facet normal 0.6087614290087209 -0.7933533402912349 0.0
  outer loop
    vertex 9.781325920117743 7.70208152801713 0.0
    vertex 10.133407448134873 7.972243186433545 3.9999999999999996
    vertex 9.781325920117743 7.70208152801713 3.9999999999999996
  endloop
endfacet
facet normal 0.7933533402912346 -0.6087614290087214 0.0
  outer loop
    vertex 9.781325920117743 7.70208152801713 0.0
    vertex 9.511164261701326 7.35 3.9999999999999996
    vertex 9.511164261701326 7.35 0.0
  endloop
endfacet
facet normal 0.7933533402912346 -0.6087614290087214 0.0
  outer loop
    vertex 9.511164261701326 7.35 3.9999999999999996
    vertex 9.781325920117743 7.70208152801713 0.0
    vertex 9.781325920117743 7.70208152801713 3.9999999999999996
  endloop
endfacet
facet normal 0.9238795325112875 -0.38268343236508806 0.0
  outer loop
    vertex 9.511164261701326 7.35 0.0
    vertex 9.341333543443458 6.939992376674285 3.9999999999999996
    vertex 9.341333543443458 6.939992376674285 0.0
  endloop
endfacet
facet normal 0.9238795325112875 -0.38268343236508806 0.0
  outer loop
    vertex 9.341333543443458 6.939992376674285 3.9999999999999996
    vertex 9.511164261701326 7.35 0.0
    vertex 9.511164261701326 7.35 3.9999999999999996
  endloop
endfacet
facet normal 0.9914448613738103 -0.130526192220053 0.0
  outer loop
    vertex 9.341333543443458 6.939992376674285 0.0
    vertex 9.283407448134874 6.499999999999999 3.9999999999999996
    vertex 9.283407448134874 6.499999999999999 0.0
  endloop
endfacet
facet normal 0.9914448613738103 -0.130526192220053 0.0
  outer loop
    vertex 9.283407448134874 6.499999999999999 3.9999999999999996
    vertex 9.341333543443458 6.939992376674285 0.0
    vertex 9.341333543443458 6.939992376674285 3.9999999999999996
  endloop
endfacet
facet normal 0.9914448613738103 0.130526192220053 0.0
  outer loop
    vertex 9.283407448134874 6.499999999999999 0.0
    vertex 9.341333543443458 6.060007623325714 3.9999999999999996
    vertex 9.341333543443458 6.060007623325714 0.0
  endloop
endfacet
facet normal 0.9914448613738103 0.130526192220053 0.0
  outer loop
    vertex 9.341333543443458 6.060007623325714 3.9999999999999996
    vertex 9.283407448134874 6.499999999999999 0.0
    vertex 9.283407448134874 6.499999999999999 3.9999999999999996
  endloop
endfacet
facet normal 0.9238795325112875 0.38268343236508806 0.0
  outer loop
    vertex 9.341333543443458 6.060007623325714 0.0
    vertex 9.511164261701326 5.6499999999999995 3.9999999999999996
    vertex 9.511164261701326 5.6499999999999995 0.0
  endloop
endfacet
facet normal 0.9238795325112875 0.38268343236508806 0.0
  outer loop
    vertex 9.511164261701326 5.6499999999999995 3.9999999999999996
    vertex 9.341333543443458 6.060007623325714 0.0
    vertex 9.341333543443458 6.060007623325714 3.9999999999999996
  endloop
endfacet
facet normal 0.7933533402912356 0.6087614290087202 0.0
  outer loop
    vertex 9.511164261701326 5.6499999999999995 0.0
    vertex 9.781325920117741 5.297918471982869 3.9999999999999996
    vertex 9.781325920117741 5.297918471982869 0.0
  endloop
endfacet
facet normal 0.7933533402912356 0.6087614290087202 0.0
  outer loop
    vertex 9.781325920117741 5.297918471982869 3.9999999999999996
    vertex 9.511164261701326 5.6499999999999995 0.0
    vertex 9.511164261701326 5.6499999999999995 3.9999999999999996
  endloop
endfacet
facet normal 0.6087614290087194 0.7933533402912362 0.0
  outer loop
    vertex 9.781325920117741 5.297918471982869 3.9999999999999996
    vertex 10.133407448134873 5.027756813566454 0.0
    vertex 9.781325920117741 5.297918471982869 0.0
  endloop
endfacet
facet normal 0.6087614290087194 0.7933533402912362 0.0
  outer loop
    vertex 10.133407448134873 5.027756813566454 0.0
    vertex 9.781325920117741 5.297918471982869 3.9999999999999996
    vertex 10.133407448134873 5.027756813566454 3.9999999999999996
  endloop
endfacet
facet normal 0.3826834323650894 0.923879532511287 0.0
  outer loop
    vertex 10.133407448134873 5.027756813566454 3.9999999999999996
    vertex 10.543415071460586 4.857926095308584 0.0
    vertex 10.133407448134873 5.027756813566454 0.0
  endloop
endfacet
facet normal 0.3826834323650894 0.923879532511287 0.0
  outer loop
    vertex 10.543415071460586 4.857926095308584 0.0
    vertex 10.133407448134873 5.027756813566454 3.9999999999999996
    vertex 10.543415071460586 4.857926095308584 3.9999999999999996
  endloop
endfacet
facet normal -0.7933533402912356 0.6087614290087202 0.0
  outer loop
    vertex 22.472243186433545 5.649999999999999 3.9999999999999996
    vertex 22.202081528017132 5.297918471982868 0.0
    vertex 22.202081528017132 5.297918471982868 3.9999999999999996
  endloop
endfacet
facet normal -0.7933533402912356 0.6087614290087202 0.0
  outer loop
    vertex 22.202081528017132 5.297918471982868 0.0
    vertex 22.472243186433545 5.649999999999999 3.9999999999999996
    vertex 22.472243186433545 5.649999999999999 0.0
  endloop
endfacet
facet normal -0.9238795325112862 0.3826834323650914 0.0
  outer loop
    vertex 22.642073904691415 6.0600076233257125 3.9999999999999996
    vertex 22.472243186433545 5.649999999999999 0.0
    vertex 22.472243186433545 5.649999999999999 3.9999999999999996
  endloop
endfacet
facet normal -0.9238795325112862 0.3826834323650914 0.0
  outer loop
    vertex 22.472243186433545 5.649999999999999 0.0
    vertex 22.642073904691415 6.0600076233257125 3.9999999999999996
    vertex 22.642073904691415 6.0600076233257125 0.0
  endloop
endfacet
facet normal -0.9914448613738103 0.13052619222005257 0.0
  outer loop
    vertex 22.7 6.499999999999999 3.9999999999999996
    vertex 22.642073904691415 6.0600076233257125 0.0
    vertex 22.642073904691415 6.0600076233257125 3.9999999999999996
  endloop
endfacet
facet normal -0.9914448613738103 0.13052619222005257 0.0
  outer loop
    vertex 22.642073904691415 6.0600076233257125 0.0
    vertex 22.7 6.499999999999999 3.9999999999999996
    vertex 22.7 6.499999999999999 0.0
  endloop
endfacet
facet normal -0.9914448613738102 -0.1305261922200534 -0.0
  outer loop
    vertex 22.642073904691415 6.939992376674283 3.9999999999999996
    vertex 22.7 6.499999999999999 0.0
    vertex 22.7 6.499999999999999 3.9999999999999996
  endloop
endfacet
facet normal -0.9914448613738102 -0.1305261922200534 -0.0
  outer loop
    vertex 22.7 6.499999999999999 0.0
    vertex 22.642073904691415 6.939992376674283 3.9999999999999996
    vertex 22.642073904691415 6.939992376674283 0.0
  endloop
endfacet
facet normal -0.9238795325112887 -0.3826834323650854 -0.0
  outer loop
    vertex 22.47224318643355 7.349999999999998 3.9999999999999996
    vertex 22.642073904691415 6.939992376674283 0.0
    vertex 22.642073904691415 6.939992376674283 3.9999999999999996
  endloop
endfacet
facet normal -0.9238795325112887 -0.3826834323650854 -0.0
  outer loop
    vertex 22.642073904691415 6.939992376674283 0.0
    vertex 22.47224318643355 7.349999999999998 3.9999999999999996
    vertex 22.47224318643355 7.349999999999998 0.0
  endloop
endfacet
facet normal -0.7933533402912331 -0.6087614290087234 -0.0
  outer loop
    vertex 22.202081528017132 7.702081528017129 3.9999999999999996
    vertex 22.47224318643355 7.349999999999998 0.0
    vertex 22.47224318643355 7.349999999999998 3.9999999999999996
  endloop
endfacet
facet normal -0.7933533402912331 -0.6087614290087234 -0.0
  outer loop
    vertex 22.47224318643355 7.349999999999998 0.0
    vertex 22.202081528017132 7.702081528017129 3.9999999999999996
    vertex 22.202081528017132 7.702081528017129 0.0
  endloop
endfacet
facet normal -0.6087614290087224 -0.7933533402912338 -0.0
  outer loop
    vertex 22.202081528017132 7.702081528017129 3.9999999999999996
    vertex 21.85 7.972243186433544 0.0
    vertex 22.202081528017132 7.702081528017129 0.0
  endloop
endfacet
facet normal -0.6087614290087224 -0.7933533402912338 -0.0
  outer loop
    vertex 21.85 7.972243186433544 0.0
    vertex 22.202081528017132 7.702081528017129 3.9999999999999996
    vertex 21.85 7.972243186433544 3.9999999999999996
  endloop
endfacet
facet normal -0.3826834323650896 -0.9238795325112867 -0.0
  outer loop
    vertex 21.85 7.972243186433544 3.9999999999999996
    vertex 21.439992376674287 8.142073904691415 0.0
    vertex 21.85 7.972243186433544 0.0
  endloop
endfacet
facet normal -0.3826834323650896 -0.9238795325112867 -0.0
  outer loop
    vertex 21.439992376674287 8.142073904691415 0.0
    vertex 21.85 7.972243186433544 3.9999999999999996
    vertex 21.439992376674287 8.142073904691415 3.9999999999999996
  endloop
endfacet
facet normal -0.130526192220053 -0.9914448613738103 -0.0
  outer loop
    vertex 21.439992376674287 8.142073904691415 3.9999999999999996
    vertex 21.0 8.2 0.0
    vertex 21.439992376674287 8.142073904691415 0.0
  endloop
endfacet
facet normal -0.130526192220053 -0.9914448613738103 -0.0
  outer loop
    vertex 21.0 8.2 0.0
    vertex 21.439992376674287 8.142073904691415 3.9999999999999996
    vertex 21.0 8.2 3.9999999999999996
  endloop
endfacet
facet normal 0.130526192220053 -0.9914448613738103 0.0
  outer loop
    vertex 21.0 8.2 3.9999999999999996
    vertex 20.560007623325717 8.142073904691415 0.0
    vertex 21.0 8.2 0.0
  endloop
endfacet
facet normal 0.130526192220053 -0.9914448613738103 0.0
  outer loop
    vertex 20.560007623325717 8.142073904691415 0.0
    vertex 21.0 8.2 3.9999999999999996
    vertex 20.560007623325717 8.142073904691415 3.9999999999999996
  endloop
endfacet
facet normal 0.38268343236508917 -0.9238795325112871 0.0
  outer loop
    vertex 20.560007623325717 8.142073904691415 3.9999999999999996
    vertex 20.150000000000002 7.972243186433545 0.0
    vertex 20.560007623325717 8.142073904691415 0.0
  endloop
endfacet
facet normal 0.38268343236508917 -0.9238795325112871 0.0
  outer loop
    vertex 20.150000000000002 7.972243186433545 0.0
    vertex 20.560007623325717 8.142073904691415 3.9999999999999996
    vertex 20.150000000000002 7.972243186433545 3.9999999999999996
  endloop
endfacet
facet normal 0.6087614290087194 -0.7933533402912362 0.0
  outer loop
    vertex 20.150000000000002 7.972243186433545 3.9999999999999996
    vertex 19.79791847198287 7.70208152801713 0.0
    vertex 20.150000000000002 7.972243186433545 0.0
  endloop
endfacet
facet normal 0.6087614290087194 -0.7933533402912362 0.0
  outer loop
    vertex 19.79791847198287 7.70208152801713 0.0
    vertex 20.150000000000002 7.972243186433545 3.9999999999999996
    vertex 19.79791847198287 7.70208152801713 3.9999999999999996
  endloop
endfacet
facet normal 0.7933533402912362 -0.6087614290087194 0.0
  outer loop
    vertex 19.79791847198287 7.70208152801713 0.0
    vertex 19.527756813566455 7.35 3.9999999999999996
    vertex 19.527756813566455 7.35 0.0
  endloop
endfacet
facet normal 0.7933533402912362 -0.6087614290087194 0.0
  outer loop
    vertex 19.527756813566455 7.35 3.9999999999999996
    vertex 19.79791847198287 7.70208152801713 0.0
    vertex 19.79791847198287 7.70208152801713 3.9999999999999996
  endloop
endfacet
facet normal 0.9238795325112865 -0.38268343236509084 0.0
  outer loop
    vertex 19.527756813566455 7.35 0.0
    vertex 19.357926095308585 6.939992376674285 3.9999999999999996
    vertex 19.357926095308585 6.939992376674285 0.0
  endloop
endfacet
facet normal 0.9238795325112865 -0.38268343236509084 0.0
  outer loop
    vertex 19.357926095308585 6.939992376674285 3.9999999999999996
    vertex 19.527756813566455 7.35 0.0
    vertex 19.527756813566455 7.35 3.9999999999999996
  endloop
endfacet
facet normal 0.9914448613738103 -0.130526192220053 0.0
  outer loop
    vertex 19.357926095308585 6.939992376674285 0.0
    vertex 19.3 6.499999999999999 3.9999999999999996
    vertex 19.3 6.499999999999999 0.0
  endloop
endfacet
facet normal 0.9914448613738103 -0.130526192220053 0.0
  outer loop
    vertex 19.3 6.499999999999999 3.9999999999999996
    vertex 19.357926095308585 6.939992376674285 0.0
    vertex 19.357926095308585 6.939992376674285 3.9999999999999996
  endloop
endfacet
facet normal 0.9914448613738103 0.130526192220053 0.0
  outer loop
    vertex 19.3 6.499999999999999 0.0
    vertex 19.357926095308585 6.060007623325714 3.9999999999999996
    vertex 19.357926095308585 6.060007623325714 0.0
  endloop
endfacet
facet normal 0.9914448613738103 0.130526192220053 0.0
  outer loop
    vertex 19.357926095308585 6.060007623325714 3.9999999999999996
    vertex 19.3 6.499999999999999 0.0
    vertex 19.3 6.499999999999999 3.9999999999999996
  endloop
endfacet
facet normal 0.9238795325112865 0.38268343236509084 0.0
  outer loop
    vertex 19.357926095308585 6.060007623325714 0.0
    vertex 19.527756813566455 5.6499999999999995 3.9999999999999996
    vertex 19.527756813566455 5.6499999999999995 0.0
  endloop
endfacet
facet normal 0.9238795325112865 0.38268343236509084 0.0
  outer loop
    vertex 19.527756813566455 5.6499999999999995 3.9999999999999996
    vertex 19.357926095308585 6.060007623325714 0.0
    vertex 19.357926095308585 6.060007623325714 3.9999999999999996
  endloop
endfacet
facet normal 0.7933533402912356 0.6087614290087202 0.0
  outer loop
    vertex 19.527756813566455 5.6499999999999995 0.0
    vertex 19.79791847198287 5.297918471982869 3.9999999999999996
    vertex 19.79791847198287 5.297918471982869 0.0
  endloop
endfacet
facet normal 0.7933533402912356 0.6087614290087202 0.0
  outer loop
    vertex 19.79791847198287 5.297918471982869 3.9999999999999996
    vertex 19.527756813566455 5.6499999999999995 0.0
    vertex 19.527756813566455 5.6499999999999995 3.9999999999999996
  endloop
endfacet
facet normal 0.6087614290087224 0.7933533402912338 0.0
  outer loop
    vertex 19.79791847198287 5.297918471982869 3.9999999999999996
    vertex 20.15 5.027756813566454 0.0
    vertex 19.79791847198287 5.297918471982869 0.0
  endloop
endfacet
facet normal 0.6087614290087224 0.7933533402912338 0.0
  outer loop
    vertex 20.15 5.027756813566454 0.0
    vertex 19.79791847198287 5.297918471982869 3.9999999999999996
    vertex 20.15 5.027756813566454 3.9999999999999996
  endloop
endfacet
facet normal 0.3826834323650884 0.9238795325112875 0.0
  outer loop
    vertex 20.15 5.027756813566454 3.9999999999999996
    vertex 20.560007623325717 4.857926095308584 0.0
    vertex 20.15 5.027756813566454 0.0
  endloop
endfacet
facet normal 0.3826834323650884 0.9238795325112875 0.0
  outer loop
    vertex 20.560007623325717 4.857926095308584 0.0
    vertex 20.15 5.027756813566454 3.9999999999999996
    vertex 20.560007623325717 4.857926095308584 3.9999999999999996
  endloop
endfacet
facet normal 0.130526192220053 0.9914448613738103 0.0
  outer loop
    vertex 20.560007623325717 4.857926095308584 3.9999999999999996
    vertex 21.0 4.8 0.0
    vertex 20.560007623325717 4.857926095308584 0.0
  endloop
endfacet
facet normal 0.130526192220053 0.9914448613738103 0.0
  outer loop
    vertex 21.0 4.8 0.0
    vertex 20.560007623325717 4.857926095308584 3.9999999999999996
    vertex 21.0 4.8 3.9999999999999996
  endloop
endfacet
facet normal -0.13052619222005143 0.9914448613738106 0.0
  outer loop
    vertex 21.0 4.8 3.9999999999999996
    vertex 21.439992376674287 4.857926095308583 0.0
    vertex 21.0 4.8 0.0
  endloop
endfacet
facet normal -0.13052619222005143 0.9914448613738106 0.0
  outer loop
    vertex 21.439992376674287 4.857926095308583 0.0
    vertex 21.0 4.8 3.9999999999999996
    vertex 21.439992376674287 4.857926095308583 3.9999999999999996
  endloop
endfacet
facet normal -0.38268343236509056 0.9238795325112865 0.0
  outer loop
    vertex 21.439992376674287 4.857926095308583 3.9999999999999996
    vertex 21.849999999999998 5.027756813566453 0.0
    vertex 21.439992376674287 4.857926095308583 0.0
  endloop
endfacet
facet normal -0.38268343236509056 0.9238795325112865 0.0
  outer loop
    vertex 21.849999999999998 5.027756813566453 0.0
    vertex 21.439992376674287 4.857926095308583 3.9999999999999996
    vertex 21.849999999999998 5.027756813566453 3.9999999999999996
  endloop
endfacet
facet normal -0.6087614290087194 0.7933533402912362 0.0
  outer loop
    vertex 21.849999999999998 5.027756813566453 3.9999999999999996
    vertex 22.202081528017132 5.297918471982868 0.0
    vertex 21.849999999999998 5.027756813566453 0.0
  endloop
endfacet
facet normal -0.6087614290087194 0.7933533402912362 0.0
  outer loop
    vertex 22.202081528017132 5.297918471982868 0.0
    vertex 21.849999999999998 5.027756813566453 3.9999999999999996
    vertex 22.202081528017132 5.297918471982868 3.9999999999999996
  endloop
endfacet
facet normal -0.0 -0.0 1.0
  outer loop
    vertex 15.857926095308587 6.0600076233257125 9.999999999999996
    vertex 15.857926095308587 6.939992376674283 9.999999999999996
    vertex 15.800000000000002 6.499999999999999 9.999999999999996
  endloop
endfacet
facet normal -0.0 -0.0 1.0
  outer loop
    vertex 15.857926095308587 6.939992376674283 9.999999999999996
    vertex 15.857926095308587 6.0600076233257125 9.999999999999996
    vertex 16.02775681356646 5.649999999999999 9.999999999999996
  endloop
endfacet
facet normal -0.0 -0.0 1.0
  outer loop
    vertex 15.857926095308587 6.939992376674283 9.999999999999996
    vertex 16.02775681356646 5.649999999999999 9.999999999999996
    vertex 16.027756813566455 7.349999999999998 9.999999999999996
  endloop
endfacet
facet normal -0.0 -0.0 1.0
  outer loop
    vertex 16.027756813566455 7.349999999999998 9.999999999999996
    vertex 16.02775681356646 5.649999999999999 9.999999999999996
    vertex 16.29791847198287 7.702081528017129 9.999999999999996
  endloop
endfacet
facet normal -0.0 -0.0 1.0
  outer loop
    vertex 16.29791847198287 7.702081528017129 9.999999999999996
    vertex 16.02775681356646 5.649999999999999 9.999999999999996
    vertex 16.29791847198287 5.297918471982868 9.999999999999996
  endloop
endfacet
facet normal -0.0 -0.0 1.0
  outer loop
    vertex 16.29791847198287 7.702081528017129 9.999999999999996
    vertex 16.29791847198287 5.297918471982868 9.999999999999996
    vertex 16.650000000000002 5.027756813566453 9.999999999999996
  endloop
endfacet
facet normal -0.0 -0.0 1.0
  outer loop
    vertex 16.29791847198287 7.702081528017129 9.999999999999996
    vertex 16.650000000000002 5.027756813566453 9.999999999999996
    vertex 16.650000000000002 7.972243186433544 9.999999999999996
  endloop
endfacet
facet normal -0.0 -0.0 1.0
  outer loop
    vertex 16.650000000000002 7.972243186433544 9.999999999999996
    vertex 16.650000000000002 5.027756813566453 9.999999999999996
    vertex 17.060007623325717 8.142073904691415 9.999999999999996
  endloop
endfacet
facet normal -0.0 -0.0 1.0
  outer loop
    vertex 17.060007623325717 8.142073904691415 9.999999999999996
    vertex 16.650000000000002 5.027756813566453 9.999999999999996
    vertex 17.060007623325717 4.857926095308583 9.999999999999996
  endloop
endfacet
facet normal -0.0 -0.0 1.0
  outer loop
    vertex 17.060007623325717 8.142073904691415 9.999999999999996
    vertex 17.060007623325717 4.857926095308583 9.999999999999996
    vertex 17.5 4.8 9.999999999999996
  endloop
endfacet
facet normal -0.0 -0.0 1.0
  outer loop
    vertex 17.060007623325717 8.142073904691415 9.999999999999996
    vertex 17.5 4.8 9.999999999999996
    vertex 17.5 8.2 9.999999999999996
  endloop
endfacet
facet normal -0.0 -0.0 1.0
  outer loop
    vertex 17.5 8.2 9.999999999999996
    vertex 17.5 4.8 9.999999999999996
    vertex 17.939992376674287 4.857926095308584 9.999999999999996
  endloop
endfacet
facet normal -0.0 -0.0 1.0
  outer loop
    vertex 17.5 8.2 9.999999999999996
    vertex 17.939992376674287 4.857926095308584 9.999999999999996
    vertex 17.939992376674287 8.142073904691415 9.999999999999996
  endloop
endfacet
facet normal 0.130526192220053 0.9914448613738103 -0.0
  outer loop
    vertex 17.5 8.2 9.999999999999996
    vertex 17.939992376674287 8.142073904691415 3.9999999999999996
    vertex 17.5 8.2 3.9999999999999996
  endloop
endfacet
facet normal 0.130526192220053 0.9914448613738103 -0.0
  outer loop
    vertex 17.939992376674287 8.142073904691415 3.9999999999999996
    vertex 17.5 8.2 9.999999999999996
    vertex 17.939992376674287 8.142073904691415 9.999999999999996
  endloop
endfacet
facet normal -0.130526192220053 0.9914448613738103 0.0
  outer loop
    vertex 17.060007623325717 8.142073904691415 9.999999999999996
    vertex 17.5 8.2 3.9999999999999996
    vertex 17.060007623325717 8.142073904691415 3.9999999999999996
  endloop
endfacet
facet normal -0.130526192220053 0.9914448613738103 0.0
  outer loop
    vertex 17.5 8.2 3.9999999999999996
    vertex 17.060007623325717 8.142073904691415 9.999999999999996
    vertex 17.5 8.2 9.999999999999996
  endloop
endfacet
facet normal -0.3826834323650896 0.9238795325112867 0.0
  outer loop
    vertex 16.650000000000002 7.972243186433544 9.999999999999996
    vertex 17.060007623325717 8.142073904691415 3.9999999999999996
    vertex 16.650000000000002 7.972243186433544 3.9999999999999996
  endloop
endfacet
facet normal -0.3826834323650896 0.9238795325112867 0.0
  outer loop
    vertex 17.060007623325717 8.142073904691415 3.9999999999999996
    vertex 16.650000000000002 7.972243186433544 9.999999999999996
    vertex 17.060007623325717 8.142073904691415 9.999999999999996
  endloop
endfacet
facet normal -0.6087614290087224 0.7933533402912338 0.0
  outer loop
    vertex 16.29791847198287 7.702081528017129 9.999999999999996
    vertex 16.650000000000002 7.972243186433544 3.9999999999999996
    vertex 16.29791847198287 7.702081528017129 3.9999999999999996
  endloop
endfacet
facet normal -0.6087614290087224 0.7933533402912338 0.0
  outer loop
    vertex 16.650000000000002 7.972243186433544 3.9999999999999996
    vertex 16.29791847198287 7.702081528017129 9.999999999999996
    vertex 16.650000000000002 7.972243186433544 9.999999999999996
  endloop
endfacet
facet normal -0.7933533402912331 0.6087614290087234 0.0
  outer loop
    vertex 16.29791847198287 7.702081528017129 9.999999999999996
    vertex 16.027756813566455 7.349999999999998 3.9999999999999996
    vertex 16.027756813566455 7.349999999999998 9.999999999999996
  endloop
endfacet
facet normal -0.7933533402912331 0.6087614290087234 0.0
  outer loop
    vertex 16.027756813566455 7.349999999999998 3.9999999999999996
    vertex 16.29791847198287 7.702081528017129 9.999999999999996
    vertex 16.29791847198287 7.702081528017129 3.9999999999999996
  endloop
endfacet
facet normal -0.9238795325112887 0.3826834323650854 0.0
  outer loop
    vertex 16.027756813566455 7.349999999999998 9.999999999999996
    vertex 15.857926095308587 6.939992376674283 3.9999999999999996
    vertex 15.857926095308587 6.939992376674283 9.999999999999996
  endloop
endfacet
facet normal -0.9238795325112887 0.3826834323650854 0.0
  outer loop
    vertex 15.857926095308587 6.939992376674283 3.9999999999999996
    vertex 16.027756813566455 7.349999999999998 9.999999999999996
    vertex 16.027756813566455 7.349999999999998 3.9999999999999996
  endloop
endfacet
facet normal -0.9914448613738102 0.1305261922200534 0.0
  outer loop
    vertex 15.857926095308587 6.939992376674283 9.999999999999996
    vertex 15.800000000000002 6.499999999999999 3.9999999999999996
    vertex 15.800000000000002 6.499999999999999 9.999999999999996
  endloop
endfacet
facet normal -0.9914448613738102 0.1305261922200534 0.0
  outer loop
    vertex 15.800000000000002 6.499999999999999 3.9999999999999996
    vertex 15.857926095308587 6.939992376674283 9.999999999999996
    vertex 15.857926095308587 6.939992376674283 3.9999999999999996
  endloop
endfacet
facet normal -0.9914448613738103 -0.13052619222005257 -0.0
  outer loop
    vertex 15.800000000000002 6.499999999999999 9.999999999999996
    vertex 15.857926095308587 6.0600076233257125 3.9999999999999996
    vertex 15.857926095308587 6.0600076233257125 9.999999999999996
  endloop
endfacet
facet normal -0.9914448613738103 -0.13052619222005257 -0.0
  outer loop
    vertex 15.857926095308587 6.0600076233257125 3.9999999999999996
    vertex 15.800000000000002 6.499999999999999 9.999999999999996
    vertex 15.800000000000002 6.499999999999999 3.9999999999999996
  endloop
endfacet
facet normal -0.9238795325112862 -0.3826834323650914 -0.0
  outer loop
    vertex 15.857926095308587 6.0600076233257125 9.999999999999996
    vertex 16.02775681356646 5.649999999999999 3.9999999999999996
    vertex 16.02775681356646 5.649999999999999 9.999999999999996
  endloop
endfacet
facet normal -0.9238795325112862 -0.3826834323650914 -0.0
  outer loop
    vertex 16.02775681356646 5.649999999999999 3.9999999999999996
    vertex 15.857926095308587 6.0600076233257125 9.999999999999996
    vertex 15.857926095308587 6.0600076233257125 3.9999999999999996
  endloop
endfacet
facet normal -0.7933533402912356 -0.6087614290087202 -0.0
  outer loop
    vertex 16.02775681356646 5.649999999999999 9.999999999999996
    vertex 16.29791847198287 5.297918471982868 3.9999999999999996
    vertex 16.29791847198287 5.297918471982868 9.999999999999996
  endloop
endfacet
facet normal -0.7933533402912356 -0.6087614290087202 -0.0
  outer loop
    vertex 16.29791847198287 5.297918471982868 3.9999999999999996
    vertex 16.02775681356646 5.649999999999999 9.999999999999996
    vertex 16.02775681356646 5.649999999999999 3.9999999999999996
  endloop
endfacet
facet normal -0.6087614290087194 -0.7933533402912362 -0.0
  outer loop
    vertex 16.650000000000002 5.027756813566453 9.999999999999996
    vertex 16.29791847198287 5.297918471982868 3.9999999999999996
    vertex 16.650000000000002 5.027756813566453 3.9999999999999996
  endloop
endfacet
facet normal -0.6087614290087194 -0.7933533402912362 -0.0
  outer loop
    vertex 16.29791847198287 5.297918471982868 3.9999999999999996
    vertex 16.650000000000002 5.027756813566453 9.999999999999996
    vertex 16.29791847198287 5.297918471982868 9.999999999999996
  endloop
endfacet
facet normal -0.38268343236509056 -0.9238795325112865 -0.0
  outer loop
    vertex 17.060007623325717 4.857926095308583 9.999999999999996
    vertex 16.650000000000002 5.027756813566453 3.9999999999999996
    vertex 17.060007623325717 4.857926095308583 3.9999999999999996
  endloop
endfacet
facet normal -0.38268343236509056 -0.9238795325112865 -0.0
  outer loop
    vertex 16.650000000000002 5.027756813566453 3.9999999999999996
    vertex 17.060007623325717 4.857926095308583 9.999999999999996
    vertex 16.650000000000002 5.027756813566453 9.999999999999996
  endloop
endfacet
facet normal -0.13052619222005143 -0.9914448613738106 -0.0
  outer loop
    vertex 17.5 4.8 9.999999999999996
    vertex 17.060007623325717 4.857926095308583 3.9999999999999996
    vertex 17.5 4.8 3.9999999999999996
  endloop
endfacet
facet normal -0.13052619222005143 -0.9914448613738106 -0.0
  outer loop
    vertex 17.060007623325717 4.857926095308583 3.9999999999999996
    vertex 17.5 4.8 9.999999999999996
    vertex 17.060007623325717 4.857926095308583 9.999999999999996
  endloop
endfacet
facet normal 0.130526192220053 -0.9914448613738103 0.0
  outer loop
    vertex 17.939992376674287 4.857926095308584 9.999999999999996
    vertex 17.5 4.8 3.9999999999999996
    vertex 17.939992376674287 4.857926095308584 3.9999999999999996
  endloop
endfacet
facet normal 0.130526192220053 -0.9914448613738103 0.0
  outer loop
    vertex 17.5 4.8 3.9999999999999996
    vertex 17.939992376674287 4.857926095308584 9.999999999999996
    vertex 17.5 4.8 9.999999999999996
  endloop
endfacet
facet normal -0.0 -0.0 1.0
  outer loop
    vertex 18.35 5.027756813566454 3.9999999999999996
    vertex 17.939992376674287 8.142073904691415 3.9999999999999996
    vertex 17.939992376674287 4.857926095308584 3.9999999999999996
  endloop
endfacet
facet normal -0.0 -0.0 1.0
  outer loop
    vertex 17.939992376674287 8.142073904691415 3.9999999999999996
    vertex 18.35 5.027756813566454 3.9999999999999996
    vertex 18.35 7.972243186433545 3.9999999999999996
  endloop
endfacet
facet normal -0.0 -0.0 1.0
  outer loop
    vertex 18.35 7.972243186433545 3.9999999999999996
    vertex 18.35 5.027756813566454 3.9999999999999996
    vertex 18.702081528017132 7.70208152801713 3.9999999999999996
  endloop
endfacet
facet normal -0.0 -0.0 1.0
  outer loop
    vertex 18.702081528017132 7.70208152801713 3.9999999999999996
    vertex 18.35 5.027756813566454 3.9999999999999996
    vertex 18.702081528017132 5.297918471982869 3.9999999999999996
  endloop
endfacet
facet normal -0.0 -0.0 1.0
  outer loop
    vertex 18.702081528017132 7.70208152801713 3.9999999999999996
    vertex 18.702081528017132 5.297918471982869 3.9999999999999996
    vertex 18.972243186433545 5.6499999999999995 3.9999999999999996
  endloop
endfacet
facet normal -0.0 -0.0 1.0
  outer loop
    vertex 18.702081528017132 7.70208152801713 3.9999999999999996
    vertex 18.972243186433545 5.6499999999999995 3.9999999999999996
    vertex 18.972243186433545 7.35 3.9999999999999996
  endloop
endfacet
facet normal -0.0 -0.0 1.0
  outer loop
    vertex 18.972243186433545 7.35 3.9999999999999996
    vertex 18.972243186433545 5.6499999999999995 3.9999999999999996
    vertex 19.14207390469142 6.060007623325714 3.9999999999999996
  endloop
endfacet
facet normal -0.0 -0.0 1.0
  outer loop
    vertex 18.972243186433545 7.35 3.9999999999999996
    vertex 19.14207390469142 6.060007623325714 3.9999999999999996
    vertex 19.14207390469142 6.939992376674285 3.9999999999999996
  endloop
endfacet
facet normal -0.0 -0.0 1.0
  outer loop
    vertex 19.14207390469142 6.939992376674285 3.9999999999999996
    vertex 19.14207390469142 6.060007623325714 3.9999999999999996
    vertex 19.200000000000003 6.499999999999999 3.9999999999999996
  endloop
endfacet
facet normal 1.0 -0.0 -0.0
  outer loop
    vertex 17.939992376674287 8.142073904691415 3.9999999999999996
    vertex 17.939992376674287 4.857926095308584 9.999999999999996
    vertex 17.939992376674287 4.857926095308584 3.9999999999999996
  endloop
endfacet
facet normal 1.0 -0.0 -0.0
  outer loop
    vertex 17.939992376674287 4.857926095308584 9.999999999999996
    vertex 17.939992376674287 8.142073904691415 3.9999999999999996
    vertex 17.939992376674287 8.142073904691415 9.999999999999996
  endloop
endfacet
endsolid stompy_shoulder_brace_mount
