solid stompy_shoulder_brace_mount
facet normal 0.0 0.0 -1.0
  outer loop
    vertex 0.0 12.999999999999998 0.0
    vertex 9.781325920117743 7.70208152801713 0.0
    vertex 0.0 0.0 0.0
  endloop
endfacet
facet normal 0.0 0.0 -1.0
  outer loop
    vertex 9.781325920117743 7.70208152801713 0.0
    vertex 0.0 12.999999999999998 0.0
    vertex 10.133407448134873 7.972243186433545 0.0
  endloop
endfacet
facet normal 0.0 0.0 -1.0
  outer loop
    vertex 10.133407448134873 7.972243186433545 0.0
    vertex 0.0 12.999999999999998 0.0
    vertex 10.543415071460586 8.142073904691415 0.0
  endloop
endfacet
facet normal 0.0 0.0 -1.0
  outer loop
    vertex 10.543415071460586 8.142073904691415 0.0
    vertex 0.0 12.999999999999998 0.0
    vertex 25.0 12.999999999999998 0.0
  endloop
endfacet
facet normal 0.0 0.0 -1.0
  outer loop
    vertex 0.0 0.0 0.0
    vertex 9.781325920117743 7.70208152801713 0.0
    vertex 9.511164261701326 7.35 0.0
  endloop
endfacet
facet normal 0.0 0.0 -1.0
  outer loop
    vertex 0.0 0.0 0.0
    vertex 9.511164261701326 7.35 0.0
    vertex 9.341333543443458 6.939992376674285 0.0
  endloop
endfacet
facet normal 0.0 0.0 -1.0
  outer loop
    vertex 0.0 0.0 0.0
    vertex 9.341333543443458 6.939992376674285 0.0
    vertex 9.283407448134874 6.499999999999999 0.0
  endloop
endfacet
facet normal 0.0 0.0 -1.0
  outer loop
    vertex 10.543415071460586 8.142073904691415 0.0
    vertex 25.0 12.999999999999998 0.0
    vertex 10.983407448134873 8.2 0.0
  endloop
endfacet
facet normal 0.0 0.0 -1.0
  outer loop
    vertex 10.983407448134873 8.2 0.0
    vertex 25.0 12.999999999999998 0.0
    vertex 11.42339982480916 8.142073904691415 0.0
  endloop
endfacet
facet normal 0.0 0.0 -1.0
  outer loop
    vertex 11.42339982480916 8.142073904691415 0.0
    vertex 25.0 12.999999999999998 0.0
    vertex 11.833407448134874 7.972243186433544 0.0
  endloop
endfacet
facet normal 0.0 0.0 -1.0
  outer loop
    vertex 11.833407448134874 7.972243186433544 0.0
    vertex 25.0 12.999999999999998 0.0
    vertex 12.185488976152003 7.702081528017129 0.0
  endloop
endfacet
facet normal 0.0 0.0 -1.0
  outer loop
    vertex 12.185488976152003 7.702081528017129 0.0
    vertex 25.0 12.999999999999998 0.0
    vertex 12.455650634568418 7.349999999999998 0.0
  endloop
endfacet
facet normal 0.0 0.0 -1.0
  outer loop
    vertex 12.455650634568418 7.349999999999998 0.0
    vertex 25.0 12.999999999999998 0.0
    vertex 12.625481352826288 6.939992376674283 0.0
  endloop
endfacet
facet normal 0.0 0.0 -1.0
  outer loop
    vertex 12.625481352826288 6.939992376674283 0.0
    vertex 25.0 12.999999999999998 0.0
    vertex 12.683407448134872 6.499999999999999 0.0
  endloop
endfacet
facet normal 0.0 0.0 -1.0
  outer loop
    vertex 12.683407448134872 6.499999999999999 0.0
    vertex 25.0 12.999999999999998 0.0
    vertex 19.79791847198287 7.70208152801713 0.0
  endloop
endfacet
facet normal 0.0 0.0 -1.0
  outer loop
    vertex 12.683407448134872 6.499999999999999 0.0
    vertex 19.79791847198287 7.70208152801713 0.0
    vertex 19.527756813566455 7.35 0.0
  endloop
endfacet
facet normal 0.0 0.0 -1.0
  outer loop
    vertex 12.683407448134872 6.499999999999999 0.0
    vertex 19.527756813566455 7.35 0.0
    vertex 19.357926095308585 6.939992376674285 0.0
  endloop
endfacet
facet normal 0.0 0.0 -1.0
  outer loop
    vertex 12.683407448134872 6.499999999999999 0.0
    vertex 19.357926095308585 6.939992376674285 0.0
    vertex 19.3 6.499999999999999 0.0
  endloop
endfacet
facet normal 0.0 0.0 -1.0
  outer loop
    vertex 19.79791847198287 7.70208152801713 0.0
    vertex 25.0 12.999999999999998 0.0
    vertex 20.150000000000002 7.972243186433545 0.0
  endloop
endfacet
facet normal 0.0 0.0 -1.0
  outer loop
    vertex 20.150000000000002 7.972243186433545 0.0
    vertex 25.0 12.999999999999998 0.0
    vertex 20.560007623325717 8.142073904691415 0.0
  endloop
endfacet
facet normal 0.0 0.0 -1.0
  outer loop
    vertex 20.560007623325717 8.142073904691415 0.0
    vertex 25.0 12.999999999999998 0.0
    vertex 21.0 8.2 0.0
  endloop
endfacet
facet normal 0.0 0.0 -1.0
  outer loop
    vertex 21.0 8.2 0.0
    vertex 25.0 12.999999999999998 0.0
    vertex 21.439992376674287 8.142073904691415 0.0
  endloop
endfacet
facet normal 0.0 0.0 -1.0
  outer loop
    vertex 21.439992376674287 8.142073904691415 0.0
    vertex 25.0 12.999999999999998 0.0
    vertex 21.85 7.972243186433544 0.0
  endloop
endfacet
facet normal 0.0 0.0 -1.0
  outer loop
    vertex 21.85 7.972243186433544 0.0
    vertex 25.0 12.999999999999998 0.0
    vertex 22.202081528017132 7.702081528017129 0.0
  endloop
endfacet
facet normal 0.0 0.0 -1.0
  outer loop
    vertex 22.202081528017132 7.702081528017129 0.0
    vertex 25.0 12.999999999999998 0.0
    vertex 22.47224318643355 7.349999999999998 0.0
  endloop
endfacet
facet normal 0.0 0.0 -1.0
  outer loop
    vertex 22.47224318643355 7.349999999999998 0.0
    vertex 25.0 12.999999999999998 0.0
    vertex 22.642073904691415 6.939992376674283 0.0
  endloop
endfacet
facet normal 0.0 0.0 -1.0
  outer loop
    vertex 22.642073904691415 6.939992376674283 0.0
    vertex 25.0 12.999999999999998 0.0
    vertex 22.7 6.499999999999999 0.0
  endloop
endfacet
facet normal 0.0 0.0 -1.0
  outer loop
    vertex 0.0 0.0 0.0
    vertex 10.543415071460586 4.857926095308584 0.0
    vertex 25.0 0.0 0.0
  endloop
endfacet
facet normal 0.0 0.0 -1.0
  outer loop
    vertex 10.543415071460586 4.857926095308584 0.0
    vertex 0.0 0.0 0.0
    vertex 10.133407448134873 5.027756813566454 0.0
  endloop
endfacet
facet normal 0.0 0.0 -1.0
  outer loop
    vertex 10.133407448134873 5.027756813566454 0.0
    vertex 0.0 0.0 0.0
    vertex 9.781325920117741 5.297918471982869 0.0
  endloop
endfacet
facet normal 0.0 0.0 -1.0
  outer loop
    vertex 9.781325920117741 5.297918471982869 0.0
    vertex 0.0 0.0 0.0
    vertex 9.511164261701326 5.6499999999999995 0.0
  endloop
endfacet
facet normal 0.0 0.0 -1.0
  outer loop
    vertex 9.511164261701326 5.6499999999999995 0.0
    vertex 0.0 0.0 0.0
    vertex 9.341333543443458 6.060007623325714 0.0
  endloop
endfacet
facet normal 0.0 0.0 -1.0
  outer loop
    vertex 9.341333543443458 6.060007623325714 0.0
    vertex 0.0 0.0 0.0
    vertex 9.283407448134874 6.499999999999999 0.0
  endloop
endfacet
facet normal 0.0 0.0 -1.0
  outer loop
    vertex 25.0 0.0 0.0
    vertex 10.543415071460586 4.857926095308584 0.0
    vertex 10.983407448134873 4.8 0.0
  endloop
endfacet
facet normal 0.0 0.0 -1.0
  outer loop
    vertex 25.0 0.0 0.0
    vertex 10.983407448134873 4.8 0.0
    vertex 11.423399824809156 4.857926095308583 0.0
  endloop
endfacet
facet normal 0.0 0.0 -1.0
  outer loop
    vertex 25.0 0.0 0.0
    vertex 11.423399824809156 4.857926095308583 0.0
    vertex 11.833407448134873 5.027756813566453 0.0
  endloop
endfacet
facet normal 0.0 0.0 -1.0
  outer loop
    vertex 25.0 0.0 0.0
    vertex 11.833407448134873 5.027756813566453 0.0
    vertex 12.185488976152003 5.297918471982868 0.0
  endloop
endfacet
facet normal 0.0 0.0 -1.0
  outer loop
    vertex 25.0 0.0 0.0
    vertex 12.185488976152003 5.297918471982868 0.0
    vertex 12.455650634568418 5.649999999999999 0.0
  endloop
endfacet
facet normal 0.0 0.0 -1.0
  outer loop
    vertex 25.0 0.0 0.0
    vertex 12.455650634568418 5.649999999999999 0.0
    vertex 12.625481352826288 6.0600076233257125 0.0
  endloop
endfacet
facet normal 0.0 0.0 -1.0
  outer loop
    vertex 25.0 0.0 0.0
    vertex 12.625481352826288 6.0600076233257125 0.0
    vertex 12.683407448134872 6.499999999999999 0.0
  endloop
endfacet
facet normal 0.0 0.0 -1.0
  outer loop
    vertex 25.0 0.0 0.0
    vertex 12.683407448134872 6.499999999999999 0.0
    vertex 19.79791847198287 5.297918471982869 0.0
  endloop
endfacet
facet normal 0.0 0.0 -1.0
  outer loop
    vertex 19.79791847198287 5.297918471982869 0.0
    vertex 12.683407448134872 6.499999999999999 0.0
    vertex 19.527756813566455 5.6499999999999995 0.0
  endloop
endfacet
facet normal 0.0 0.0 -1.0
  outer loop
    vertex 19.527756813566455 5.6499999999999995 0.0
    vertex 12.683407448134872 6.499999999999999 0.0
    vertex 19.357926095308585 6.060007623325714 0.0
  endloop
endfacet
facet normal 0.0 0.0 -1.0
  outer loop
    vertex 19.357926095308585 6.060007623325714 0.0
    vertex 12.683407448134872 6.499999999999999 0.0
    vertex 19.3 6.499999999999999 0.0
  endloop
endfacet
facet normal 0.0 0.0 -1.0
  outer loop
    vertex 25.0 0.0 0.0
    vertex 19.79791847198287 5.297918471982869 0.0
    vertex 20.15 5.027756813566454 0.0
  endloop
endfacet
facet normal 0.0 0.0 -1.0
  outer loop
    vertex 25.0 0.0 0.0
    vertex 20.15 5.027756813566454 0.0
    vertex 20.560007623325717 4.857926095308584 0.0
  endloop
endfacet
facet normal 0.0 0.0 -1.0
  outer loop
    vertex 25.0 0.0 0.0
    vertex 20.560007623325717 4.857926095308584 0.0
    vertex 21.0 4.8 0.0
  endloop
endfacet
facet normal 0.0 0.0 -1.0
  outer loop
    vertex 25.0 0.0 0.0
    vertex 21.0 4.8 0.0
    vertex 21.439992376674287 4.857926095308583 0.0
  endloop
endfacet
facet normal 0.0 0.0 -1.0
  outer loop
    vertex 25.0 0.0 0.0
    vertex 21.439992376674287 4.857926095308583 0.0
    vertex 21.849999999999998 5.027756813566453 0.0
  endloop
endfacet
facet normal 0.0 0.0 -1.0
  outer loop
    vertex 25.0 0.0 0.0
    vertex 21.849999999999998 5.027756813566453 0.0
    vertex 22.202081528017132 5.297918471982868 0.0
  endloop
endfacet
facet normal 0.0 0.0 -1.0
  outer loop
    vertex 25.0 0.0 0.0
    vertex 22.202081528017132 5.297918471982868 0.0
    vertex 22.472243186433545 5.649999999999999 0.0
  endloop
endfacet
facet normal 0.0 0.0 -1.0
  outer loop
    vertex 25.0 0.0 0.0
    vertex 22.472243186433545 5.649999999999999 0.0
    vertex 22.642073904691415 6.0600076233257125 0.0
  endloop
endfacet
facet normal 0.0 0.0 -1.0
  outer loop
    vertex 25.0 0.0 0.0
    vertex 22.642073904691415 6.0600076233257125 0.0
    vertex 22.7 6.499999999999999 0.0
  endloop
endfacet
facet normal 0.0 0.0 -1.0
  outer loop
    vertex 25.0 0.0 0.0
    vertex 22.7 6.499999999999999 0.0
    vertex 25.0 12.999999999999998 0.0
  endloop
endfacet
facet normal -0.0 -0.0 1.0
  outer loop
    vertex 13.104727791694515 4.378679656440355 3.9999999999999996
    vertex 13.03513721027529 8.674719074791762 3.9999999999999996
    vertex 13.03513721027529 4.325280925208237 3.9999999999999996
  endloop
endfacet
facet normal -0.0 -0.0 1.0
  outer loop
    vertex 13.03513721027529 8.674719074791762 3.9999999999999996
    vertex 13.104727791694515 4.378679656440355 3.9999999999999996
    vertex 13.104727791694515 8.621320343559642 3.9999999999999996
  endloop
endfacet
facet normal -0.0 -0.0 1.0
  outer loop
    vertex 13.104727791694515 8.621320343559642 3.9999999999999996
    vertex 13.104727791694515 4.378679656440355 3.9999999999999996
    vertex 13.581483659488187 4.999999999999998 3.9999999999999996
  endloop
endfacet
facet normal -0.0 -0.0 1.0
  outer loop
    vertex 13.104727791694515 8.621320343559642 3.9999999999999996
    vertex 13.581483659488187 4.999999999999998 3.9999999999999996
    vertex 13.581483659488187 7.999999999999999 3.9999999999999996
  endloop
endfacet
facet normal -0.0 -0.0 1.0
  outer loop
    vertex 13.581483659488187 7.999999999999999 3.9999999999999996
    vertex 13.581483659488187 4.999999999999998 3.9999999999999996
    vertex 13.881184927002078 5.723542864692434 3.9999999999999996
  endloop
endfacet
facet normal -0.0 -0.0 1.0
  outer loop
    vertex 13.581483659488187 7.999999999999999 3.9999999999999996
    vertex 13.881184927002078 5.723542864692434 3.9999999999999996
    vertex 13.881184927002078 7.276457135307562 3.9999999999999996
  endloop
endfacet
facet normal -0.0 -0.0 1.0
  outer loop
    vertex 13.881184927002078 7.276457135307562 3.9999999999999996
    vertex 13.881184927002078 5.723542864692434 3.9999999999999996
    vertex 13.983407448134873 6.499999999999999 3.9999999999999996
  endloop
endfacet
facet normal -0.0 -0.0 1.0
  outer loop
    vertex 0.0 0.0 3.9999999999999996
    vertex 9.781325920117741 5.297918471982869 3.9999999999999996
    vertex 0.0 12.999999999999998 3.9999999999999996
  endloop
endfacet
facet normal -0.0 -0.0 1.0
  outer loop
    vertex 9.781325920117741 5.297918471982869 3.9999999999999996
    vertex 0.0 0.0 3.9999999999999996
    vertex 10.133407448134873 5.027756813566454 3.9999999999999996
  endloop
endfacet
facet normal -0.0 -0.0 1.0
  outer loop
    vertex 10.133407448134873 5.027756813566454 3.9999999999999996
    vertex 0.0 0.0 3.9999999999999996
    vertex 15.000000000000004 2.1698729810778064 3.9999999999999996
  endloop
endfacet
facet normal -0.0 -0.0 1.0
  outer loop
    vertex 15.000000000000004 2.1698729810778064 3.9999999999999996
    vertex 0.0 0.0 3.9999999999999996
    vertex 16.2059047744874 1.6703708685546588 3.9999999999999996
  endloop
endfacet
facet normal -0.0 -0.0 1.0
  outer loop
    vertex 16.2059047744874 1.6703708685546588 3.9999999999999996
    vertex 0.0 0.0 3.9999999999999996
    vertex 25.0 0.0 3.9999999999999996
  endloop
endfacet
facet normal -0.0 -0.0 1.0
  outer loop
    vertex 0.0 12.999999999999998 3.9999999999999996
    vertex 9.781325920117741 5.297918471982869 3.9999999999999996
    vertex 9.511164261701326 5.6499999999999995 3.9999999999999996
  endloop
endfacet
facet normal -0.0 -0.0 1.0
  outer loop
    vertex 0.0 12.999999999999998 3.9999999999999996
    vertex 9.511164261701326 5.6499999999999995 3.9999999999999996
    vertex 9.341333543443458 6.060007623325714 3.9999999999999996
  endloop
endfacet
facet normal -0.0 -0.0 1.0
  outer loop
    vertex 0.0 12.999999999999998 3.9999999999999996
    vertex 9.341333543443458 6.060007623325714 3.9999999999999996
    vertex 9.283407448134874 6.499999999999999 3.9999999999999996
  endloop
endfacet
facet normal -0.0 -0.0 1.0
  outer loop
    vertex 10.133407448134873 5.027756813566454 3.9999999999999996
    vertex 15.000000000000004 2.1698729810778064 3.9999999999999996
    vertex 10.543415071460586 4.857926095308584 3.9999999999999996
  endloop
endfacet
facet normal -0.0 -0.0 1.0
  outer loop
    vertex 10.543415071460586 4.857926095308584 3.9999999999999996
    vertex 15.000000000000004 2.1698729810778064 3.9999999999999996
    vertex 10.983407448134873 4.8 3.9999999999999996
  endloop
endfacet
facet normal -0.0 -0.0 1.0
  outer loop
    vertex 10.983407448134873 4.8 3.9999999999999996
    vertex 15.000000000000004 2.1698729810778064 3.9999999999999996
    vertex 11.423399824809156 4.857926095308583 3.9999999999999996
  endloop
endfacet
facet normal -0.0 -0.0 1.0
  outer loop
    vertex 11.423399824809156 4.857926095308583 3.9999999999999996
    vertex 15.000000000000004 2.1698729810778064 3.9999999999999996
    vertex 13.964466094067266 2.9644660940672614 3.9999999999999996
  endloop
endfacet
facet normal -0.0 -0.0 1.0
  outer loop
    vertex 11.423399824809156 4.857926095308583 3.9999999999999996
    vertex 13.964466094067266 2.9644660940672614 3.9999999999999996
    vertex 11.833407448134873 5.027756813566453 3.9999999999999996
  endloop
endfacet
facet normal -0.0 -0.0 1.0
  outer loop
    vertex 11.833407448134873 5.027756813566453 3.9999999999999996
    vertex 13.964466094067266 2.9644660940672614 3.9999999999999996
    vertex 13.16987298107781 3.9999999999999982 3.9999999999999996
  endloop
endfacet
facet normal -0.0 -0.0 1.0
  outer loop
    vertex 11.833407448134873 5.027756813566453 3.9999999999999996
    vertex 13.16987298107781 3.9999999999999982 3.9999999999999996
    vertex 12.185488976152003 5.297918471982868 3.9999999999999996
  endloop
endfacet
facet normal -0.0 -0.0 1.0
  outer loop
    vertex 12.185488976152003 5.297918471982868 3.9999999999999996
    vertex 13.16987298107781 3.9999999999999982 3.9999999999999996
    vertex 12.455650634568418 5.649999999999999 3.9999999999999996
  endloop
endfacet
facet normal -0.0 -0.0 1.0
  outer loop
    vertex 12.455650634568418 5.649999999999999 3.9999999999999996
    vertex 13.16987298107781 3.9999999999999982 3.9999999999999996
    vertex 13.03513721027529 4.325280925208237 3.9999999999999996
  endloop
endfacet
facet normal -0.0 -0.0 1.0
  outer loop
    vertex 12.455650634568418 5.649999999999999 3.9999999999999996
    vertex 13.03513721027529 4.325280925208237 3.9999999999999996
    vertex 12.574219136825052 5.936249686218228 3.9999999999999996
  endloop
endfacet
facet normal -0.0 -0.0 1.0
  outer loop
    vertex 12.574219136825052 5.936249686218228 3.9999999999999996
    vertex 13.03513721027529 4.325280925208237 3.9999999999999996
    vertex 12.625481352826288 6.0600076233257125 3.9999999999999996
  endloop
endfacet
facet normal -0.0 -0.0 1.0
  outer loop
    vertex 12.625481352826288 6.0600076233257125 3.9999999999999996
    vertex 13.03513721027529 4.325280925208237 3.9999999999999996
    vertex 12.683407448134872 6.499999999999999 3.9999999999999996
  endloop
endfacet
facet normal -0.0 -0.0 1.0
  outer loop
    vertex 16.2059047744874 1.6703708685546588 3.9999999999999996
    vertex 25.0 0.0 3.9999999999999996
    vertex 17.5 1.5000000000000007 3.9999999999999996
  endloop
endfacet
facet normal -0.0 -0.0 1.0
  outer loop
    vertex 17.5 1.5000000000000007 3.9999999999999996
    vertex 25.0 0.0 3.9999999999999996
    vertex 18.794095225512606 1.6703708685546594 3.9999999999999996
  endloop
endfacet
facet normal -0.0 -0.0 1.0
  outer loop
    vertex 18.794095225512606 1.6703708685546594 3.9999999999999996
    vertex 25.0 0.0 3.9999999999999996
    vertex 20.000000000000004 2.1698729810778086 3.9999999999999996
  endloop
endfacet
facet normal -0.0 -0.0 1.0
  outer loop
    vertex 20.000000000000004 2.1698729810778086 3.9999999999999996
    vertex 25.0 0.0 3.9999999999999996
    vertex 21.03553390593274 2.9644660940672636 3.9999999999999996
  endloop
endfacet
facet normal -0.0 -0.0 1.0
  outer loop
    vertex 21.03553390593274 2.9644660940672636 3.9999999999999996
    vertex 25.0 0.0 3.9999999999999996
    vertex 21.830127018922195 4.000000000000001 3.9999999999999996
  endloop
endfacet
facet normal -0.0 -0.0 1.0
  outer loop
    vertex 21.830127018922195 4.000000000000001 3.9999999999999996
    vertex 25.0 0.0 3.9999999999999996
    vertex 22.32962913144534 5.205904774487397 3.9999999999999996
  endloop
endfacet
facet normal -0.0 -0.0 1.0
  outer loop
    vertex 22.32962913144534 5.205904774487397 3.9999999999999996
    vertex 25.0 0.0 3.9999999999999996
    vertex 22.37066779510554 5.517624372765064 3.9999999999999996
  endloop
endfacet
facet normal -0.0 -0.0 1.0
  outer loop
    vertex 22.37066779510554 5.517624372765064 3.9999999999999996
    vertex 25.0 0.0 3.9999999999999996
    vertex 22.472243186433545 5.649999999999999 3.9999999999999996
  endloop
endfacet
facet normal -0.0 -0.0 1.0
  outer loop
    vertex 22.472243186433545 5.649999999999999 3.9999999999999996
    vertex 25.0 0.0 3.9999999999999996
    vertex 22.642073904691415 6.0600076233257125 3.9999999999999996
  endloop
endfacet
facet normal -0.0 -0.0 1.0
  outer loop
    vertex 22.642073904691415 6.0600076233257125 3.9999999999999996
    vertex 25.0 0.0 3.9999999999999996
    vertex 22.7 6.499999999999999 3.9999999999999996
  endloop
endfacet
facet normal -0.0 -0.0 1.0
  outer loop
    vertex 0.0 12.999999999999998 3.9999999999999996
    vertex 16.205904774487394 11.329629131445339 3.9999999999999996
    vertex 25.0 12.999999999999998 3.9999999999999996
  endloop
endfacet
facet normal -0.0 -0.0 1.0
  outer loop
    vertex 16.205904774487394 11.329629131445339 3.9999999999999996
    vertex 0.0 12.999999999999998 3.9999999999999996
    vertex 15.0 10.83012701892219 3.9999999999999996
  endloop
endfacet
facet normal -0.0 -0.0 1.0
  outer loop
    vertex 15.0 10.83012701892219 3.9999999999999996
    vertex 0.0 12.999999999999998 3.9999999999999996
    vertex 10.133407448134873 7.972243186433545 3.9999999999999996
  endloop
endfacet
facet normal -0.0 -0.0 1.0
  outer loop
    vertex 10.133407448134873 7.972243186433545 3.9999999999999996
    vertex 0.0 12.999999999999998 3.9999999999999996
    vertex 9.781325920117743 7.70208152801713 3.9999999999999996
  endloop
endfacet
facet normal -0.0 -0.0 1.0
  outer loop
    vertex 9.781325920117743 7.70208152801713 3.9999999999999996
    vertex 0.0 12.999999999999998 3.9999999999999996
    vertex 9.511164261701326 7.35 3.9999999999999996
  endloop
endfacet
facet normal -0.0 -0.0 1.0
  outer loop
    vertex 9.511164261701326 7.35 3.9999999999999996
    vertex 0.0 12.999999999999998 3.9999999999999996
    vertex 9.341333543443458 6.939992376674285 3.9999999999999996
  endloop
endfacet
facet normal -0.0 -0.0 1.0
  outer loop
    vertex 9.341333543443458 6.939992376674285 3.9999999999999996
    vertex 0.0 12.999999999999998 3.9999999999999996
    vertex 9.283407448134874 6.499999999999999 3.9999999999999996
  endloop
endfacet
facet normal -0.0 -0.0 1.0
  outer loop
    vertex 15.0 10.83012701892219 3.9999999999999996
    vertex 10.133407448134873 7.972243186433545 3.9999999999999996
    vertex 10.543415071460586 8.142073904691415 3.9999999999999996
  endloop
endfacet
facet normal -0.0 -0.0 1.0
  outer loop
    vertex 15.0 10.83012701892219 3.9999999999999996
    vertex 10.543415071460586 8.142073904691415 3.9999999999999996
    vertex 10.983407448134873 8.2 3.9999999999999996
  endloop
endfacet
facet normal -0.0 -0.0 1.0
  outer loop
    vertex 15.0 10.83012701892219 3.9999999999999996
    vertex 10.983407448134873 8.2 3.9999999999999996
    vertex 11.42339982480916 8.142073904691415 3.9999999999999996
  endloop
endfacet
facet normal -0.0 -0.0 1.0
  outer loop
    vertex 15.0 10.83012701892219 3.9999999999999996
    vertex 11.42339982480916 8.142073904691415 3.9999999999999996
    vertex 13.964466094067264 10.035533905932734 3.9999999999999996
  endloop
endfacet
facet normal -0.0 -0.0 1.0
  outer loop
    vertex 13.964466094067264 10.035533905932734 3.9999999999999996
    vertex 11.42339982480916 8.142073904691415 3.9999999999999996
    vertex 11.833407448134874 7.972243186433544 3.9999999999999996
  endloop
endfacet
facet normal -0.0 -0.0 1.0
  outer loop
    vertex 13.964466094067264 10.035533905932734 3.9999999999999996
    vertex 11.833407448134874 7.972243186433544 3.9999999999999996
    vertex 13.169872981077805 8.999999999999995 3.9999999999999996
  endloop
endfacet
facet normal -0.0 -0.0 1.0
  outer loop
    vertex 13.169872981077805 8.999999999999995 3.9999999999999996
    vertex 11.833407448134874 7.972243186433544 3.9999999999999996
    vertex 12.185488976152003 7.702081528017129 3.9999999999999996
  endloop
endfacet
facet normal -0.0 -0.0 1.0
  outer loop
    vertex 13.169872981077805 8.999999999999995 3.9999999999999996
    vertex 12.185488976152003 7.702081528017129 3.9999999999999996
    vertex 12.455650634568418 7.349999999999998 3.9999999999999996
  endloop
endfacet
facet normal -0.0 -0.0 1.0
  outer loop
    vertex 13.169872981077805 8.999999999999995 3.9999999999999996
    vertex 12.455650634568418 7.349999999999998 3.9999999999999996
    vertex 13.03513721027529 8.674719074791762 3.9999999999999996
  endloop
endfacet
facet normal -0.0 -0.0 1.0
  outer loop
    vertex 13.03513721027529 8.674719074791762 3.9999999999999996
    vertex 12.455650634568418 7.349999999999998 3.9999999999999996
    vertex 12.574219136825052 7.063750313781768 3.9999999999999996
  endloop
endfacet
facet normal -0.0 -0.0 1.0
  outer loop
    vertex 13.03513721027529 8.674719074791762 3.9999999999999996
    vertex 12.574219136825052 7.063750313781768 3.9999999999999996
    vertex 12.625481352826288 6.939992376674283 3.9999999999999996
  endloop
endfacet
facet normal -0.0 -0.0 1.0
  outer loop
    vertex 13.03513721027529 8.674719074791762 3.9999999999999996
    vertex 12.625481352826288 6.939992376674283 3.9999999999999996
    vertex 12.683407448134872 6.499999999999999 3.9999999999999996
  endloop
endfacet
facet normal -0.0 -0.0 1.0
  outer loop
    vertex 13.03513721027529 8.674719074791762 3.9999999999999996
    vertex 12.683407448134872 6.499999999999999 3.9999999999999996
    vertex 13.03513721027529 4.325280925208237 3.9999999999999996
  endloop
endfacet
facet normal -0.0 -0.0 1.0
  outer loop
    vertex 25.0 12.999999999999998 3.9999999999999996
    vertex 16.205904774487394 11.329629131445339 3.9999999999999996
    vertex 17.5 11.499999999999998 3.9999999999999996
  endloop
endfacet
facet normal -0.0 -0.0 1.0
  outer loop
    vertex 25.0 12.999999999999998 3.9999999999999996
    vertex 17.5 11.499999999999998 3.9999999999999996
    vertex 18.794095225512603 11.32962913144534 3.9999999999999996
  endloop
endfacet
facet normal -0.0 -0.0 1.0
  outer loop
    vertex 25.0 12.999999999999998 3.9999999999999996
    vertex 18.794095225512603 11.32962913144534 3.9999999999999996
    vertex 20.0 10.830127018922193 3.9999999999999996
  endloop
endfacet
facet normal -0.0 -0.0 1.0
  outer loop
    vertex 25.0 12.999999999999998 3.9999999999999996
    vertex 20.0 10.830127018922193 3.9999999999999996
    vertex 21.035533905932738 10.035533905932736 3.9999999999999996
  endloop
endfacet
facet normal -0.0 -0.0 1.0
  outer loop
    vertex 25.0 12.999999999999998 3.9999999999999996
    vertex 21.035533905932738 10.035533905932736 3.9999999999999996
    vertex 21.830127018922195 8.999999999999998 3.9999999999999996
  endloop
endfacet
facet normal -0.0 -0.0 1.0
  outer loop
    vertex 25.0 12.999999999999998 3.9999999999999996
    vertex 21.830127018922195 8.999999999999998 3.9999999999999996
    vertex 22.32962913144534 7.794095225512604 3.9999999999999996
  endloop
endfacet
facet normal -0.0 -0.0 1.0
  outer loop
    vertex 25.0 12.999999999999998 3.9999999999999996
    vertex 22.32962913144534 7.794095225512604 3.9999999999999996
    vertex 22.37066779510554 7.482375627234936 3.9999999999999996
  endloop
endfacet
facet normal -0.0 -0.0 1.0
  outer loop
    vertex 25.0 12.999999999999998 3.9999999999999996
    vertex 22.37066779510554 7.482375627234936 3.9999999999999996
    vertex 22.47224318643355 7.349999999999998 3.9999999999999996
  endloop
endfacet
facet normal -0.0 -0.0 1.0
  outer loop
    vertex 25.0 12.999999999999998 3.9999999999999996
    vertex 22.47224318643355 7.349999999999998 3.9999999999999996
    vertex 22.642073904691415 6.939992376674283 3.9999999999999996
  endloop
endfacet
facet normal -0.0 -0.0 1.0
  outer loop
    vertex 25.0 12.999999999999998 3.9999999999999996
    vertex 22.642073904691415 6.939992376674283 3.9999999999999996
    vertex 22.7 6.499999999999999 3.9999999999999996
  endloop
endfacet
facet normal -0.0 -0.0 1.0
  outer loop
    vertex 25.0 12.999999999999998 3.9999999999999996
    vertex 22.7 6.499999999999999 3.9999999999999996
    vertex 25.0 0.0 3.9999999999999996
  endloop
endfacet
facet normal -0.0 1.0 0.0
  outer loop
    vertex 0.0 12.999999999999998 3.9999999999999996
    vertex 25.0 12.999999999999998 0.0
    vertex 0.0 12.999999999999998 0.0
  endloop
endfacet
facet normal -0.0 1.0 0.0
  outer loop
    vertex 25.0 12.999999999999998 0.0
    vertex 0.0 12.999999999999998 3.9999999999999996
    vertex 25.0 12.999999999999998 3.9999999999999996
  endloop
endfacet
facet normal 1.0 0.0 0.0
  outer loop
    vertex 25.0 12.999999999999998 0.0
    vertex 25.0 0.0 3.9999999999999996
    vertex 25.0 0.0 0.0
  endloop
endfacet
facet normal 1.0 0.0 0.0
  outer loop
    vertex 25.0 0.0 3.9999999999999996
    vertex 25.0 12.999999999999998 0.0
    vertex 25.0 12.999999999999998 3.9999999999999996
  endloop
endfacet
facet normal -0.0 -1.0 -0.0
  outer loop
    vertex 25.0 0.0 3.9999999999999996
    vertex 0.0 0.0 0.0
    vertex 25.0 0.0 0.0
  endloop
endfacet
facet normal -0.0 -1.0 -0.0
  outer loop
    vertex 0.0 0.0 0.0
    vertex 25.0 0.0 3.9999999999999996
    vertex 0.0 0.0 3.9999999999999996
  endloop
endfacet
facet normal -1.0 0.0 0.0
  outer loop
    vertex 0.0 12.999999999999998 3.9999999999999996
    vertex 0.0 0.0 0.0
    vertex 0.0 0.0 3.9999999999999996
  endloop
endfacet
facet normal -1.0 0.0 0.0
  outer loop
    vertex 0.0 0.0 0.0
    vertex 0.0 12.999999999999998 3.9999999999999996
    vertex 0.0 12.999999999999998 0.0
  endloop
endfacet
facet normal 0.130526192220053 0.9914448613738103 0.0
  outer loop
    vertex 10.543415071460586 4.857926095308584 3.9999999999999996
    vertex 10.983407448134873 4.8 0.0
    vertex 10.543415071460586 4.857926095308584 0.0
  endloop
endfacet
facet normal 0.130526192220053 0.9914448613738103 0.0
  outer loop
    vertex 10.983407448134873 4.8 0.0
    vertex 10.543415071460586 4.857926095308584 3.9999999999999996
    vertex 10.983407448134873 4.8 3.9999999999999996
  endloop
endfacet
facet normal -0.13052619222005185 0.9914448613738105 0.0
  outer loop
    vertex 10.983407448134873 4.8 3.9999999999999996
    vertex 11.423399824809156 4.857926095308583 0.0
    vertex 10.983407448134873 4.8 0.0
  endloop
endfacet
facet normal -0.13052619222005185 0.9914448613738105 0.0
  outer loop
    vertex 11.423399824809156 4.857926095308583 0.0
    vertex 10.983407448134873 4.8 3.9999999999999996
    vertex 11.423399824809156 4.857926095308583 3.9999999999999996
  endloop
endfacet
facet normal -0.3826834323650883 0.9238795325112873 0.0
  outer loop
    vertex 11.423399824809156 4.857926095308583 3.9999999999999996
    vertex 11.833407448134873 5.027756813566453 0.0
    vertex 11.423399824809156 4.857926095308583 0.0
  endloop
endfacet
facet normal -0.3826834323650883 0.9238795325112873 0.0
  outer loop
    vertex 11.833407448134873 5.027756813566453 0.0
    vertex 11.423399824809156 4.857926095308583 3.9999999999999996
    vertex 11.833407448134873 5.027756813566453 3.9999999999999996
  endloop
endfacet
facet normal -0.6087614290087209 0.7933533402912349 0.0
  outer loop
    vertex 11.833407448134873 5.027756813566453 3.9999999999999996
    vertex 12.185488976152003 5.297918471982868 0.0
    vertex 11.833407448134873 5.027756813566453 0.0
  endloop
endfacet
facet normal -0.6087614290087209 0.7933533402912349 0.0
  outer loop
    vertex 12.185488976152003 5.297918471982868 0.0
    vertex 11.833407448134873 5.027756813566453 3.9999999999999996
    vertex 12.185488976152003 5.297918471982868 3.9999999999999996
  endloop
endfacet
facet normal -0.7933533402912356 0.6087614290087202 0.0
  outer loop
    vertex 12.455650634568418 5.649999999999999 3.9999999999999996
    vertex 12.185488976152003 5.297918471982868 0.0
    vertex 12.185488976152003 5.297918471982868 3.9999999999999996
  endloop
endfacet
facet normal -0.7933533402912356 0.6087614290087202 0.0
  outer loop
    vertex 12.185488976152003 5.297918471982868 0.0
    vertex 12.455650634568418 5.649999999999999 3.9999999999999996
    vertex 12.455650634568418 5.649999999999999 0.0
  endloop
endfacet
facet normal -0.9238795325112862 0.38268343236509156 4.801898768038179e-17
  outer loop
    vertex 12.574219136825052 5.936249686218228 3.9999999999999996
    vertex 12.455650634568418 5.649999999999999 0.0
    vertex 12.455650634568418 5.649999999999999 3.9999999999999996
  endloop
endfacet
facet normal -0.9238795325112862 0.38268343236509156 4.801898768038179e-17
  outer loop
    vertex 12.455650634568418 5.649999999999999 0.0
    vertex 12.574219136825052 5.936249686218228 3.9999999999999996
    vertex 12.625481352826288 6.0600076233257125 0.0
  endloop
endfacet
facet normal -0.9238795325112862 0.38268343236509156 4.801898768038179e-17
  outer loop
    vertex 12.625481352826288 6.0600076233257125 0.0
    vertex 12.574219136825052 5.936249686218228 3.9999999999999996
    vertex 12.625481352826288 6.0600076233257125 3.9999999999999996
  endloop
endfacet
facet normal -0.9914448613738103 0.13052619222005257 0.0
  outer loop
    vertex 12.683407448134872 6.499999999999999 3.9999999999999996
    vertex 12.625481352826288 6.0600076233257125 0.0
    vertex 12.625481352826288 6.0600076233257125 3.9999999999999996
  endloop
endfacet
facet normal -0.9914448613738103 0.13052619222005257 0.0
  outer loop
    vertex 12.625481352826288 6.0600076233257125 0.0
    vertex 12.683407448134872 6.499999999999999 3.9999999999999996
    vertex 12.683407448134872 6.499999999999999 0.0
  endloop
endfacet
facet normal -0.9914448613738102 -0.1305261922200534 -0.0
  outer loop
    vertex 12.625481352826288 6.939992376674283 3.9999999999999996
    vertex 12.683407448134872 6.499999999999999 0.0
    vertex 12.683407448134872 6.499999999999999 3.9999999999999996
  endloop
endfacet
facet normal -0.9914448613738102 -0.1305261922200534 -0.0
  outer loop
    vertex 12.683407448134872 6.499999999999999 0.0
    vertex 12.625481352826288 6.939992376674283 3.9999999999999996
    vertex 12.625481352826288 6.939992376674283 0.0
  endloop
endfacet
facet normal -0.9238795325112875 -0.3826834323650881 7.683038028861072e-18
  outer loop
    vertex 12.574219136825052 7.063750313781768 3.9999999999999996
    vertex 12.625481352826288 6.939992376674283 0.0
    vertex 12.625481352826288 6.939992376674283 3.9999999999999996
  endloop
endfacet
facet normal -0.9238795325112875 -0.3826834323650881 7.683038028861072e-18
  outer loop
    vertex 12.625481352826288 6.939992376674283 0.0
    vertex 12.574219136825052 7.063750313781768 3.9999999999999996
    vertex 12.455650634568418 7.349999999999998 0.0
  endloop
endfacet
facet normal -0.9238795325112875 -0.3826834323650881 7.683038028861072e-18
  outer loop
    vertex 12.455650634568418 7.349999999999998 0.0
    vertex 12.574219136825052 7.063750313781768 3.9999999999999996
    vertex 12.455650634568418 7.349999999999998 3.9999999999999996
  endloop
endfacet
facet normal -0.7933533402912362 -0.6087614290087194 -0.0
  outer loop
    vertex 12.185488976152003 7.702081528017129 3.9999999999999996
    vertex 12.455650634568418 7.349999999999998 0.0
    vertex 12.455650634568418 7.349999999999998 3.9999999999999996
  endloop
endfacet
facet normal -0.7933533402912362 -0.6087614290087194 -0.0
  outer loop
    vertex 12.455650634568418 7.349999999999998 0.0
    vertex 12.185488976152003 7.702081528017129 3.9999999999999996
    vertex 12.185488976152003 7.702081528017129 0.0
  endloop
endfacet
facet normal -0.6087614290087209 -0.7933533402912349 -0.0
  outer loop
    vertex 12.185488976152003 7.702081528017129 3.9999999999999996
    vertex 11.833407448134874 7.972243186433544 0.0
    vertex 12.185488976152003 7.702081528017129 0.0
  endloop
endfacet
facet normal -0.6087614290087209 -0.7933533402912349 -0.0
  outer loop
    vertex 11.833407448134874 7.972243186433544 0.0
    vertex 12.185488976152003 7.702081528017129 3.9999999999999996
    vertex 11.833407448134874 7.972243186433544 3.9999999999999996
  endloop
endfacet
facet normal -0.3826834323650907 -0.9238795325112863 -0.0
  outer loop
    vertex 11.833407448134874 7.972243186433544 3.9999999999999996
    vertex 11.42339982480916 8.142073904691415 0.0
    vertex 11.833407448134874 7.972243186433544 0.0
  endloop
endfacet
facet normal -0.3826834323650907 -0.9238795325112863 -0.0
  outer loop
    vertex 11.42339982480916 8.142073904691415 0.0
    vertex 11.833407448134874 7.972243186433544 3.9999999999999996
    vertex 11.42339982480916 8.142073904691415 3.9999999999999996
  endloop
endfacet
facet normal -0.13052619222005257 -0.9914448613738103 -0.0
  outer loop
    vertex 11.42339982480916 8.142073904691415 3.9999999999999996
    vertex 10.983407448134873 8.2 0.0
    vertex 11.42339982480916 8.142073904691415 0.0
  endloop
endfacet
facet normal -0.13052619222005257 -0.9914448613738103 -0.0
  outer loop
    vertex 10.983407448134873 8.2 0.0
    vertex 11.42339982480916 8.142073904691415 3.9999999999999996
    vertex 10.983407448134873 8.2 3.9999999999999996
  endloop
endfacet
facet normal 0.130526192220053 -0.9914448613738103 0.0
  outer loop
    vertex 10.983407448134873 8.2 3.9999999999999996
    vertex 10.543415071460586 8.142073904691415 0.0
    vertex 10.983407448134873 8.2 0.0
  endloop
endfacet
facet normal 0.130526192220053 -0.9914448613738103 0.0
  outer loop
    vertex 10.543415071460586 8.142073904691415 0.0
    vertex 10.983407448134873 8.2 3.9999999999999996
    vertex 10.543415071460586 8.142073904691415 3.9999999999999996
  endloop
endfacet
facet normal 0.38268343236508806 -0.9238795325112875 0.0
  outer loop
    vertex 10.543415071460586 8.142073904691415 3.9999999999999996
    vertex 10.133407448134873 7.972243186433545 0.0
    vertex 10.543415071460586 8.142073904691415 0.0
  endloop
endfacet
facet normal 0.38268343236508806 -0.9238795325112875 0.0
  outer loop
    vertex 10.133407448134873 7.972243186433545 0.0
    vertex 10.543415071460586 8.142073904691415 3.9999999999999996
    vertex 10.133407448134873 7.972243186433545 3.9999999999999996
  endloop
endfacet
facet normal 0.6087614290087209 -0.7933533402912349 0.0
  outer loop
    vertex 10.133407448134873 7.972243186433545 3.9999999999999996
    vertex 9.781325920117743 7.70208152801713 0.0
    vertex 10.133407448134873 7.972243186433545 0.0
  endloop
endfacet
facet normal 0.6087614290087209 -0.7933533402912349 0.0
  outer loop
    vertex 9.781325920117743 7.70208152801713 0.0
    vertex 10.133407448134873 7.972243186433545 3.9999999999999996
    vertex 9.781325920117743 7.70208152801713 3.9999999999999996
  endloop
endfacet
facet normal 0.7933533402912346 -0.6087614290087214 0.0
  outer loop
    vertex 9.781325920117743 7.70208152801713 0.0
    vertex 9.511164261701326 7.35 3.9999999999999996
    vertex 9.511164261701326 7.35 0.0
  endloop
endfacet
facet normal 0.7933533402912346 -0.6087614290087214 0.0
  outer loop
    vertex 9.511164261701326 7.35 3.9999999999999996
    vertex 9.781325920117743 7.70208152801713 0.0
    vertex 9.781325920117743 7.70208152801713 3.9999999999999996
  endloop
endfacet
facet normal 0.9238795325112875 -0.38268343236508806 0.0
  outer loop
    vertex 9.511164261701326 7.35 0.0
    vertex 9.341333543443458 6.939992376674285 3.9999999999999996
    vertex 9.341333543443458 6.939992376674285 0.0
  endloop
endfacet
facet normal 0.9238795325112875 -0.38268343236508806 0.0
  outer loop
    vertex 9.341333543443458 6.939992376674285 3.9999999999999996
    vertex 9.511164261701326 7.35 0.0
    vertex 9.511164261701326 7.35 3.9999999999999996
  endloop
endfacet
facet normal 0.9914448613738103 -0.130526192220053 0.0
  outer loop
    vertex 9.341333543443458 6.939992376674285 0.0
    vertex 9.283407448134874 6.499999999999999 3.9999999999999996
    vertex 9.283407448134874 6.499999999999999 0.0
  endloop
endfacet
facet normal 0.9914448613738103 -0.130526192220053 0.0
  outer loop
    vertex 9.283407448134874 6.499999999999999 3.9999999999999996
    vertex 9.341333543443458 6.939992376674285 0.0
    vertex 9.341333543443458 6.939992376674285 3.9999999999999996
  endloop
endfacet
facet normal 0.9914448613738103 0.130526192220053 0.0
  outer loop
    vertex 9.283407448134874 6.499999999999999 0.0
    vertex 9.341333543443458 6.060007623325714 3.9999999999999996
    vertex 9.341333543443458 6.060007623325714 0.0
  endloop
endfacet
facet normal 0.9914448613738103 0.130526192220053 0.0
  outer loop
    vertex 9.341333543443458 6.060007623325714 3.9999999999999996
    vertex 9.283407448134874 6.499999999999999 0.0
    vertex 9.283407448134874 6.499999999999999 3.9999999999999996
  endloop
endfacet
facet normal 0.9238795325112875 0.38268343236508806 0.0
  outer loop
    vertex 9.341333543443458 6.060007623325714 0.0
    vertex 9.511164261701326 5.6499999999999995 3.9999999999999996
    vertex 9.511164261701326 5.6499999999999995 0.0
  endloop
endfacet
facet normal 0.9238795325112875 0.38268343236508806 0.0
  outer loop
    vertex 9.511164261701326 5.6499999999999995 3.9999999999999996
    vertex 9.341333543443458 6.060007623325714 0.0
    vertex 9.341333543443458 6.060007623325714 3.9999999999999996
  endloop
endfacet
facet normal 0.7933533402912356 0.6087614290087202 0.0
  outer loop
    vertex 9.511164261701326 5.6499999999999995 0.0
    vertex 9.781325920117741 5.297918471982869 3.9999999999999996
    vertex 9.781325920117741 5.297918471982869 0.0
  endloop
endfacet
facet normal 0.7933533402912356 0.6087614290087202 0.0
  outer loop
    vertex 9.781325920117741 5.297918471982869 3.9999999999999996
    vertex 9.511164261701326 5.6499999999999995 0.0
    vertex 9.511164261701326 5.6499999999999995 3.9999999999999996
  endloop
endfacet
facet normal 0.6087614290087194 0.7933533402912362 0.0
  outer loop
    vertex 9.781325920117741 5.297918471982869 3.9999999999999996
    vertex 10.133407448134873 5.027756813566454 0.0
    vertex 9.781325920117741 5.297918471982869 0.0
  endloop
endfacet
facet normal 0.6087614290087194 0.7933533402912362 0.0
  outer loop
    vertex 10.133407448134873 5.027756813566454 0.0
    vertex 9.781325920117741 5.297918471982869 3.9999999999999996
    vertex 10.133407448134873 5.027756813566454 3.9999999999999996
  endloop
endfacet
facet normal 0.3826834323650894 0.923879532511287 0.0
  outer loop
    vertex 10.133407448134873 5.027756813566454 3.9999999999999996
    vertex 10.543415071460586 4.857926095308584 0.0
    vertex 10.133407448134873 5.027756813566454 0.0
  endloop
endfacet
facet normal 0.3826834323650894 0.923879532511287 0.0
  outer loop
    vertex 10.543415071460586 4.857926095308584 0.0
    vertex 10.133407448134873 5.027756813566454 3.9999999999999996
    vertex 10.543415071460586 4.857926095308584 3.9999999999999996
  endloop
endfacet
facet normal -0.7933533402912354 0.6087614290087203 7.770334159195356e-17
  outer loop
    vertex 22.37066779510554 5.517624372765064 3.9999999999999996
    vertex 22.202081528017132 5.297918471982868 0.0
    vertex 22.202081528017132 5.297918471982868 3.9999999999999996
  endloop
endfacet
facet normal -0.7933533402912354 0.6087614290087203 7.770334159195356e-17
  outer loop
    vertex 22.202081528017132 5.297918471982868 0.0
    vertex 22.37066779510554 5.517624372765064 3.9999999999999996
    vertex 22.472243186433545 5.649999999999999 0.0
  endloop
endfacet
facet normal -0.7933533402912354 0.6087614290087203 7.770334159195356e-17
  outer loop
    vertex 22.472243186433545 5.649999999999999 0.0
    vertex 22.37066779510554 5.517624372765064 3.9999999999999996
    vertex 22.472243186433545 5.649999999999999 3.9999999999999996
  endloop
endfacet
facet normal -0.9238795325112862 0.3826834323650914 0.0
  outer loop
    vertex 22.642073904691415 6.0600076233257125 3.9999999999999996
    vertex 22.472243186433545 5.649999999999999 0.0
    vertex 22.472243186433545 5.649999999999999 3.9999999999999996
  endloop
endfacet
facet normal -0.9238795325112862 0.3826834323650914 0.0
  outer loop
    vertex 22.472243186433545 5.649999999999999 0.0
    vertex 22.642073904691415 6.0600076233257125 3.9999999999999996
    vertex 22.642073904691415 6.0600076233257125 0.0
  endloop
endfacet
facet normal -0.9914448613738103 0.13052619222005257 0.0
  outer loop
    vertex 22.7 6.499999999999999 3.9999999999999996
    vertex 22.642073904691415 6.0600076233257125 0.0
    vertex 22.642073904691415 6.0600076233257125 3.9999999999999996
  endloop
endfacet
facet normal -0.9914448613738103 0.13052619222005257 0.0
  outer loop
    vertex 22.642073904691415 6.0600076233257125 0.0
    vertex 22.7 6.499999999999999 3.9999999999999996
    vertex 22.7 6.499999999999999 0.0
  endloop
endfacet
facet normal -0.9914448613738102 -0.1305261922200534 -0.0
  outer loop
    vertex 22.642073904691415 6.939992376674283 3.9999999999999996
    vertex 22.7 6.499999999999999 0.0
    vertex 22.7 6.499999999999999 3.9999999999999996
  endloop
endfacet
facet normal -0.9914448613738102 -0.1305261922200534 -0.0
  outer loop
    vertex 22.7 6.499999999999999 0.0
    vertex 22.642073904691415 6.939992376674283 3.9999999999999996
    vertex 22.642073904691415 6.939992376674283 0.0
  endloop
endfacet
facet normal -0.9238795325112887 -0.3826834323650854 -0.0
  outer loop
    vertex 22.47224318643355 7.349999999999998 3.9999999999999996
    vertex 22.642073904691415 6.939992376674283 0.0
    vertex 22.642073904691415 6.939992376674283 3.9999999999999996
  endloop
endfacet
facet normal -0.9238795325112887 -0.3826834323650854 -0.0
  outer loop
    vertex 22.642073904691415 6.939992376674283 0.0
    vertex 22.47224318643355 7.349999999999998 3.9999999999999996
    vertex 22.47224318643355 7.349999999999998 0.0
  endloop
endfacet
facet normal -0.7933533402912331 -0.6087614290087235 8.951788475798106e-17
  outer loop
    vertex 22.37066779510554 7.482375627234936 3.9999999999999996
    vertex 22.47224318643355 7.349999999999998 0.0
    vertex 22.47224318643355 7.349999999999998 3.9999999999999996
  endloop
endfacet
facet normal -0.7933533402912331 -0.6087614290087235 8.951788475798106e-17
  outer loop
    vertex 22.47224318643355 7.349999999999998 0.0
    vertex 22.37066779510554 7.482375627234936 3.9999999999999996
    vertex 22.202081528017132 7.702081528017129 0.0
  endloop
endfacet
facet normal -0.7933533402912331 -0.6087614290087235 8.951788475798106e-17
  outer loop
    vertex 22.202081528017132 7.702081528017129 0.0
    vertex 22.37066779510554 7.482375627234936 3.9999999999999996
    vertex 22.202081528017132 7.702081528017129 3.9999999999999996
  endloop
endfacet
facet normal -0.6087614290087224 -0.7933533402912338 -0.0
  outer loop
    vertex 22.202081528017132 7.702081528017129 3.9999999999999996
    vertex 21.85 7.972243186433544 0.0
    vertex 22.202081528017132 7.702081528017129 0.0
  endloop
endfacet
facet normal -0.6087614290087224 -0.7933533402912338 -0.0
  outer loop
    vertex 21.85 7.972243186433544 0.0
    vertex 22.202081528017132 7.702081528017129 3.9999999999999996
    vertex 21.85 7.972243186433544 3.9999999999999996
  endloop
endfacet
facet normal -0.3826834323650897 -0.923879532511287 -0.0
  outer loop
    vertex 21.85 7.972243186433544 3.9999999999999996
    vertex 21.439992376674287 8.142073904691415 0.0
    vertex 21.85 7.972243186433544 0.0
  endloop
endfacet
facet normal -0.3826834323650897 -0.923879532511287 -0.0
  outer loop
    vertex 21.439992376674287 8.142073904691415 0.0
    vertex 21.85 7.972243186433544 3.9999999999999996
    vertex 21.439992376674287 8.142073904691415 3.9999999999999996
  endloop
endfacet
facet normal -0.130526192220053 -0.9914448613738103 -0.0
  outer loop
    vertex 21.439992376674287 8.142073904691415 3.9999999999999996
    vertex 21.0 8.2 0.0
    vertex 21.439992376674287 8.142073904691415 0.0
  endloop
endfacet
facet normal -0.130526192220053 -0.9914448613738103 -0.0
  outer loop
    vertex 21.0 8.2 0.0
    vertex 21.439992376674287 8.142073904691415 3.9999999999999996
    vertex 21.0 8.2 3.9999999999999996
  endloop
endfacet
facet normal 0.130526192220053 -0.9914448613738103 0.0
  outer loop
    vertex 21.0 8.2 3.9999999999999996
    vertex 20.560007623325717 8.142073904691415 0.0
    vertex 21.0 8.2 0.0
  endloop
endfacet
facet normal 0.130526192220053 -0.9914448613738103 0.0
  outer loop
    vertex 20.560007623325717 8.142073904691415 0.0
    vertex 21.0 8.2 3.9999999999999996
    vertex 20.560007623325717 8.142073904691415 3.9999999999999996
  endloop
endfacet
facet normal 0.38268343236508917 -0.9238795325112871 0.0
  outer loop
    vertex 20.560007623325717 8.142073904691415 3.9999999999999996
    vertex 20.150000000000002 7.972243186433545 0.0
    vertex 20.560007623325717 8.142073904691415 0.0
  endloop
endfacet
facet normal 0.38268343236508917 -0.9238795325112871 0.0
  outer loop
    vertex 20.150000000000002 7.972243186433545 0.0
    vertex 20.560007623325717 8.142073904691415 3.9999999999999996
    vertex 20.150000000000002 7.972243186433545 3.9999999999999996
  endloop
endfacet
facet normal 0.6087614290087194 -0.7933533402912362 0.0
  outer loop
    vertex 20.150000000000002 7.972243186433545 3.9999999999999996
    vertex 19.79791847198287 7.70208152801713 0.0
    vertex 20.150000000000002 7.972243186433545 0.0
  endloop
endfacet
facet normal 0.6087614290087194 -0.7933533402912362 0.0
  outer loop
    vertex 19.79791847198287 7.70208152801713 0.0
    vertex 20.150000000000002 7.972243186433545 3.9999999999999996
    vertex 19.79791847198287 7.70208152801713 3.9999999999999996
  endloop
endfacet
facet normal 0.7933533402912362 -0.6087614290087194 0.0
  outer loop
    vertex 19.79791847198287 7.70208152801713 0.0
    vertex 19.527756813566455 7.35 3.9999999999999996
    vertex 19.527756813566455 7.35 0.0
  endloop
endfacet
facet normal 0.7933533402912362 -0.6087614290087194 0.0
  outer loop
    vertex 19.527756813566455 7.35 3.9999999999999996
    vertex 19.79791847198287 7.70208152801713 0.0
    vertex 19.79791847198287 7.70208152801713 3.9999999999999996
  endloop
endfacet
facet normal 0.9238795325112863 -0.3826834323650907 0.0
  outer loop
    vertex 19.527756813566455 7.35 0.0
    vertex 19.357926095308585 6.939992376674285 3.9999999999999996
    vertex 19.357926095308585 6.939992376674285 0.0
  endloop
endfacet
facet normal 0.9238795325112863 -0.3826834323650907 0.0
  outer loop
    vertex 19.357926095308585 6.939992376674285 3.9999999999999996
    vertex 19.527756813566455 7.35 0.0
    vertex 19.527756813566455 7.35 3.9999999999999996
  endloop
endfacet
facet normal 0.9914448613738103 -0.130526192220053 0.0
  outer loop
    vertex 19.357926095308585 6.939992376674285 0.0
    vertex 19.3 6.499999999999999 3.9999999999999996
    vertex 19.3 6.499999999999999 0.0
  endloop
endfacet
facet normal 0.9914448613738103 -0.130526192220053 0.0
  outer loop
    vertex 19.3 6.499999999999999 3.9999999999999996
    vertex 19.357926095308585 6.939992376674285 0.0
    vertex 19.357926095308585 6.939992376674285 3.9999999999999996
  endloop
endfacet
facet normal 0.9914448613738103 0.130526192220053 0.0
  outer loop
    vertex 19.3 6.499999999999999 0.0
    vertex 19.357926095308585 6.060007623325714 3.9999999999999996
    vertex 19.357926095308585 6.060007623325714 0.0
  endloop
endfacet
facet normal 0.9914448613738103 0.130526192220053 0.0
  outer loop
    vertex 19.357926095308585 6.060007623325714 3.9999999999999996
    vertex 19.3 6.499999999999999 0.0
    vertex 19.3 6.499999999999999 3.9999999999999996
  endloop
endfacet
facet normal 0.9238795325112863 0.3826834323650907 0.0
  outer loop
    vertex 19.357926095308585 6.060007623325714 0.0
    vertex 19.527756813566455 5.6499999999999995 3.9999999999999996
    vertex 19.527756813566455 5.6499999999999995 0.0
  endloop
endfacet
facet normal 0.9238795325112863 0.3826834323650907 0.0
  outer loop
    vertex 19.527756813566455 5.6499999999999995 3.9999999999999996
    vertex 19.357926095308585 6.060007623325714 0.0
    vertex 19.357926095308585 6.060007623325714 3.9999999999999996
  endloop
endfacet
facet normal 0.7933533402912356 0.6087614290087202 0.0
  outer loop
    vertex 19.527756813566455 5.6499999999999995 0.0
    vertex 19.79791847198287 5.297918471982869 3.9999999999999996
    vertex 19.79791847198287 5.297918471982869 0.0
  endloop
endfacet
facet normal 0.7933533402912356 0.6087614290087202 0.0
  outer loop
    vertex 19.79791847198287 5.297918471982869 3.9999999999999996
    vertex 19.527756813566455 5.6499999999999995 0.0
    vertex 19.527756813566455 5.6499999999999995 3.9999999999999996
  endloop
endfacet
facet normal 0.6087614290087224 0.7933533402912338 0.0
  outer loop
    vertex 19.79791847198287 5.297918471982869 3.9999999999999996
    vertex 20.15 5.027756813566454 0.0
    vertex 19.79791847198287 5.297918471982869 0.0
  endloop
endfacet
facet normal 0.6087614290087224 0.7933533402912338 0.0
  outer loop
    vertex 20.15 5.027756813566454 0.0
    vertex 19.79791847198287 5.297918471982869 3.9999999999999996
    vertex 20.15 5.027756813566454 3.9999999999999996
  endloop
endfacet
facet normal 0.3826834323650883 0.9238795325112873 0.0
  outer loop
    vertex 20.15 5.027756813566454 3.9999999999999996
    vertex 20.560007623325717 4.857926095308584 0.0
    vertex 20.15 5.027756813566454 0.0
  endloop
endfacet
facet normal 0.3826834323650883 0.9238795325112873 0.0
  outer loop
    vertex 20.560007623325717 4.857926095308584 0.0
    vertex 20.15 5.027756813566454 3.9999999999999996
    vertex 20.560007623325717 4.857926095308584 3.9999999999999996
  endloop
endfacet
facet normal 0.130526192220053 0.9914448613738103 0.0
  outer loop
    vertex 20.560007623325717 4.857926095308584 3.9999999999999996
    vertex 21.0 4.8 0.0
    vertex 20.560007623325717 4.857926095308584 0.0
  endloop
endfacet
facet normal 0.130526192220053 0.9914448613738103 0.0
  outer loop
    vertex 21.0 4.8 0.0
    vertex 20.560007623325717 4.857926095308584 3.9999999999999996
    vertex 21.0 4.8 3.9999999999999996
  endloop
endfacet
facet normal -0.1305261922200514 0.9914448613738104 0.0
  outer loop
    vertex 21.0 4.8 3.9999999999999996
    vertex 21.439992376674287 4.857926095308583 0.0
    vertex 21.0 4.8 0.0
  endloop
endfacet
facet normal -0.1305261922200514 0.9914448613738104 0.0
  outer loop
    vertex 21.439992376674287 4.857926095308583 0.0
    vertex 21.0 4.8 3.9999999999999996
    vertex 21.439992376674287 4.857926095308583 3.9999999999999996
  endloop
endfacet
facet normal -0.38268343236509056 0.9238795325112865 0.0
  outer loop
    vertex 21.439992376674287 4.857926095308583 3.9999999999999996
    vertex 21.849999999999998 5.027756813566453 0.0
    vertex 21.439992376674287 4.857926095308583 0.0
  endloop
endfacet
facet normal -0.38268343236509056 0.9238795325112865 0.0
  outer loop
    vertex 21.849999999999998 5.027756813566453 0.0
    vertex 21.439992376674287 4.857926095308583 3.9999999999999996
    vertex 21.849999999999998 5.027756813566453 3.9999999999999996
  endloop
endfacet
facet normal -0.6087614290087194 0.7933533402912362 0.0
  outer loop
    vertex 21.849999999999998 5.027756813566453 3.9999999999999996
    vertex 22.202081528017132 5.297918471982868 0.0
    vertex 21.849999999999998 5.027756813566453 0.0
  endloop
endfacet
facet normal -0.6087614290087194 0.7933533402912362 0.0
  outer loop
    vertex 22.202081528017132 5.297918471982868 0.0
    vertex 21.849999999999998 5.027756813566453 3.9999999999999996
    vertex 22.202081528017132 5.297918471982868 3.9999999999999996
  endloop
endfacet
facet normal -0.0 -0.0 1.0
  outer loop
    vertex 18.0 2.9644660940672622 3.9999999999999996
    vertex 19.357926095308585 6.060007623325714 3.9999999999999996
    vertex 18.0 10.035533905932736 3.9999999999999996
  endloop
endfacet
facet normal -0.0 -0.0 1.0
  outer loop
    vertex 19.357926095308585 6.060007623325714 3.9999999999999996
    vertex 18.0 2.9644660940672622 3.9999999999999996
    vertex 19.527756813566455 5.6499999999999995 3.9999999999999996
  endloop
endfacet
facet normal -0.0 -0.0 1.0
  outer loop
    vertex 19.527756813566455 5.6499999999999995 3.9999999999999996
    vertex 18.0 2.9644660940672622 3.9999999999999996
    vertex 21.03553390593274 2.9644660940672636 3.9999999999999996
  endloop
endfacet
facet normal -0.0 -0.0 1.0
  outer loop
    vertex 18.0 10.035533905932736 3.9999999999999996
    vertex 19.357926095308585 6.060007623325714 3.9999999999999996
    vertex 19.3 6.499999999999999 3.9999999999999996
  endloop
endfacet
facet normal -0.0 -0.0 1.0
  outer loop
    vertex 19.527756813566455 5.6499999999999995 3.9999999999999996
    vertex 21.03553390593274 2.9644660940672636 3.9999999999999996
    vertex 19.79791847198287 5.297918471982869 3.9999999999999996
  endloop
endfacet
facet normal -0.0 -0.0 1.0
  outer loop
    vertex 19.79791847198287 5.297918471982869 3.9999999999999996
    vertex 21.03553390593274 2.9644660940672636 3.9999999999999996
    vertex 20.15 5.027756813566454 3.9999999999999996
  endloop
endfacet
facet normal -0.0 -0.0 1.0
  outer loop
    vertex 20.15 5.027756813566454 3.9999999999999996
    vertex 21.03553390593274 2.9644660940672636 3.9999999999999996
    vertex 20.560007623325717 4.857926095308584 3.9999999999999996
  endloop
endfacet
facet normal -0.0 -0.0 1.0
  outer loop
    vertex 20.560007623325717 4.857926095308584 3.9999999999999996
    vertex 21.03553390593274 2.9644660940672636 3.9999999999999996
    vertex 21.0 4.8 3.9999999999999996
  endloop
endfacet
facet normal -0.0 -0.0 1.0
  outer loop
    vertex 21.0 4.8 3.9999999999999996
    vertex 21.03553390593274 2.9644660940672636 3.9999999999999996
    vertex 21.439992376674287 4.857926095308583 3.9999999999999996
  endloop
endfacet
facet normal -0.0 -0.0 1.0
  outer loop
    vertex 21.439992376674287 4.857926095308583 3.9999999999999996
    vertex 21.03553390593274 2.9644660940672636 3.9999999999999996
    vertex 21.830127018922195 4.000000000000001 3.9999999999999996
  endloop
endfacet
facet normal -0.0 -0.0 1.0
  outer loop
    vertex 21.439992376674287 4.857926095308583 3.9999999999999996
    vertex 21.830127018922195 4.000000000000001 3.9999999999999996
    vertex 21.849999999999998 5.027756813566453 3.9999999999999996
  endloop
endfacet
facet normal -0.0 -0.0 1.0
  outer loop
    vertex 21.849999999999998 5.027756813566453 3.9999999999999996
    vertex 21.830127018922195 4.000000000000001 3.9999999999999996
    vertex 22.32962913144534 5.205904774487397 3.9999999999999996
  endloop
endfacet
facet normal -0.0 -0.0 1.0
  outer loop
    vertex 21.849999999999998 5.027756813566453 3.9999999999999996
    vertex 22.32962913144534 5.205904774487397 3.9999999999999996
    vertex 22.202081528017132 5.297918471982868 3.9999999999999996
  endloop
endfacet
facet normal -0.0 -0.0 1.0
  outer loop
    vertex 22.202081528017132 5.297918471982868 3.9999999999999996
    vertex 22.32962913144534 5.205904774487397 3.9999999999999996
    vertex 22.37066779510554 5.517624372765064 3.9999999999999996
  endloop
endfacet
facet normal -0.0 -0.0 1.0
  outer loop
    vertex 18.0 10.035533905932736 3.9999999999999996
    vertex 19.527756813566455 7.35 3.9999999999999996
    vertex 21.035533905932738 10.035533905932736 3.9999999999999996
  endloop
endfacet
facet normal -0.0 -0.0 1.0
  outer loop
    vertex 19.527756813566455 7.35 3.9999999999999996
    vertex 18.0 10.035533905932736 3.9999999999999996
    vertex 19.357926095308585 6.939992376674285 3.9999999999999996
  endloop
endfacet
facet normal -0.0 -0.0 1.0
  outer loop
    vertex 19.357926095308585 6.939992376674285 3.9999999999999996
    vertex 18.0 10.035533905932736 3.9999999999999996
    vertex 19.3 6.499999999999999 3.9999999999999996
  endloop
endfacet
facet normal -0.0 -0.0 1.0
  outer loop
    vertex 21.035533905932738 10.035533905932736 3.9999999999999996
    vertex 19.527756813566455 7.35 3.9999999999999996
    vertex 19.79791847198287 7.70208152801713 3.9999999999999996
  endloop
endfacet
facet normal -0.0 -0.0 1.0
  outer loop
    vertex 21.035533905932738 10.035533905932736 3.9999999999999996
    vertex 19.79791847198287 7.70208152801713 3.9999999999999996
    vertex 20.150000000000002 7.972243186433545 3.9999999999999996
  endloop
endfacet
facet normal -0.0 -0.0 1.0
  outer loop
    vertex 21.035533905932738 10.035533905932736 3.9999999999999996
    vertex 20.150000000000002 7.972243186433545 3.9999999999999996
    vertex 20.560007623325717 8.142073904691415 3.9999999999999996
  endloop
endfacet
facet normal -0.0 -0.0 1.0
  outer loop
    vertex 21.035533905932738 10.035533905932736 3.9999999999999996
    vertex 20.560007623325717 8.142073904691415 3.9999999999999996
    vertex 21.0 8.2 3.9999999999999996
  endloop
endfacet
facet normal -0.0 -0.0 1.0
  outer loop
    vertex 21.035533905932738 10.035533905932736 3.9999999999999996
    vertex 21.0 8.2 3.9999999999999996
    vertex 21.439992376674287 8.142073904691415 3.9999999999999996
  endloop
endfacet
facet normal -0.0 -0.0 1.0
  outer loop
    vertex 21.035533905932738 10.035533905932736 3.9999999999999996
    vertex 21.439992376674287 8.142073904691415 3.9999999999999996
    vertex 21.830127018922195 8.999999999999998 3.9999999999999996
  endloop
endfacet
facet normal -0.0 -0.0 1.0
  outer loop
    vertex 21.830127018922195 8.999999999999998 3.9999999999999996
    vertex 21.439992376674287 8.142073904691415 3.9999999999999996
    vertex 21.85 7.972243186433544 3.9999999999999996
  endloop
endfacet
facet normal -0.0 -0.0 1.0
  outer loop
    vertex 21.830127018922195 8.999999999999998 3.9999999999999996
    vertex 21.85 7.972243186433544 3.9999999999999996
    vertex 22.32962913144534 7.794095225512604 3.9999999999999996
  endloop
endfacet
facet normal -0.0 -0.0 1.0
  outer loop
    vertex 22.32962913144534 7.794095225512604 3.9999999999999996
    vertex 21.85 7.972243186433544 3.9999999999999996
    vertex 22.202081528017132 7.702081528017129 3.9999999999999996
  endloop
endfacet
facet normal -0.0 -0.0 1.0
  outer loop
    vertex 22.32962913144534 7.794095225512604 3.9999999999999996
    vertex 22.202081528017132 7.702081528017129 3.9999999999999996
    vertex 22.37066779510554 7.482375627234936 3.9999999999999996
  endloop
endfacet
facet normal 0.0 0.0 1.0
  outer loop
    vertex 13.104727791694515 8.621320343559642 13.999999999999986
    vertex 13.169872981077805 8.999999999999995 13.999999999999986
    vertex 13.03513721027529 8.674719074791762 13.999999999999986
  endloop
endfacet
facet normal 0.0 0.0 1.0
  outer loop
    vertex 13.169872981077805 8.999999999999995 13.999999999999986
    vertex 13.104727791694515 8.621320343559642 13.999999999999986
    vertex 13.581483659488187 7.999999999999999 13.999999999999986
  endloop
endfacet
facet normal 0.0 0.0 1.0
  outer loop
    vertex 13.169872981077805 8.999999999999995 13.999999999999986
    vertex 13.581483659488187 7.999999999999999 13.999999999999986
    vertex 13.964466094067264 10.035533905932734 13.999999999999986
  endloop
endfacet
facet normal 0.0 0.0 1.0
  outer loop
    vertex 13.964466094067264 10.035533905932734 13.999999999999986
    vertex 13.581483659488187 7.999999999999999 13.999999999999986
    vertex 13.881184927002078 7.276457135307562 13.999999999999986
  endloop
endfacet
facet normal 0.0 0.0 1.0
  outer loop
    vertex 13.964466094067264 10.035533905932734 13.999999999999986
    vertex 13.881184927002078 7.276457135307562 13.999999999999986
    vertex 13.983407448134873 6.499999999999999 13.999999999999986
  endloop
endfacet
facet normal 0.0 0.0 1.0
  outer loop
    vertex 13.964466094067264 10.035533905932734 13.999999999999986
    vertex 13.983407448134873 6.499999999999999 13.999999999999986
    vertex 15.0 10.83012701892219 13.999999999999986
  endloop
endfacet
facet normal 0.0 0.0 1.0
  outer loop
    vertex 13.16987298107781 3.9999999999999982 13.999999999999986
    vertex 13.104727791694515 4.378679656440355 13.999999999999986
    vertex 13.03513721027529 4.325280925208237 13.999999999999986
  endloop
endfacet
facet normal 0.0 0.0 1.0
  outer loop
    vertex 13.104727791694515 4.378679656440355 13.999999999999986
    vertex 13.16987298107781 3.9999999999999982 13.999999999999986
    vertex 13.581483659488187 4.999999999999998 13.999999999999986
  endloop
endfacet
facet normal 0.0 0.0 1.0
  outer loop
    vertex 13.581483659488187 4.999999999999998 13.999999999999986
    vertex 13.16987298107781 3.9999999999999982 13.999999999999986
    vertex 13.964466094067266 2.9644660940672614 13.999999999999986
  endloop
endfacet
facet normal 0.0 0.0 1.0
  outer loop
    vertex 13.581483659488187 4.999999999999998 13.999999999999986
    vertex 13.964466094067266 2.9644660940672614 13.999999999999986
    vertex 13.881184927002078 5.723542864692434 13.999999999999986
  endloop
endfacet
facet normal 0.0 0.0 1.0
  outer loop
    vertex 13.881184927002078 5.723542864692434 13.999999999999986
    vertex 13.964466094067266 2.9644660940672614 13.999999999999986
    vertex 13.983407448134873 6.499999999999999 13.999999999999986
  endloop
endfacet
facet normal 0.0 0.0 1.0
  outer loop
    vertex 13.983407448134873 6.499999999999999 13.999999999999986
    vertex 13.964466094067266 2.9644660940672614 13.999999999999986
    vertex 15.000000000000004 2.1698729810778064 13.999999999999986
  endloop
endfacet
facet normal 0.0 0.0 1.0
  outer loop
    vertex 13.983407448134873 6.499999999999999 13.999999999999986
    vertex 15.000000000000004 2.1698729810778064 13.999999999999986
    vertex 15.0 10.83012701892219 13.999999999999986
  endloop
endfacet
facet normal 0.0 0.0 1.0
  outer loop
    vertex 15.0 10.83012701892219 13.999999999999986
    vertex 15.000000000000004 2.1698729810778064 13.999999999999986
    vertex 16.205904774487394 11.329629131445339 13.999999999999986
  endloop
endfacet
facet normal 0.0 0.0 1.0
  outer loop
    vertex 16.205904774487394 11.329629131445339 13.999999999999986
    vertex 15.000000000000004 2.1698729810778064 13.999999999999986
    vertex 16.2059047744874 1.6703708685546588 13.999999999999986
  endloop
endfacet
facet normal 0.0 0.0 1.0
  outer loop
    vertex 16.205904774487394 11.329629131445339 13.999999999999986
    vertex 16.2059047744874 1.6703708685546588 13.999999999999986
    vertex 17.5 11.499999999999998 13.999999999999986
  endloop
endfacet
facet normal 0.0 0.0 1.0
  outer loop
    vertex 17.5 11.499999999999998 13.999999999999986
    vertex 16.2059047744874 1.6703708685546588 13.999999999999986
    vertex 17.5 1.5000000000000007 13.999999999999986
  endloop
endfacet
facet normal 0.0 0.0 1.0
  outer loop
    vertex 17.5 11.499999999999998 13.999999999999986
    vertex 17.5 1.5000000000000007 13.999999999999986
    vertex 18.0 2.9644660940672622 13.999999999999986
  endloop
endfacet
facet normal 0.0 0.0 1.0
  outer loop
    vertex 18.0 2.9644660940672622 13.999999999999986
    vertex 17.5 1.5000000000000007 13.999999999999986
    vertex 18.794095225512606 1.6703708685546594 13.999999999999986
  endloop
endfacet
facet normal 0.0 0.0 1.0
  outer loop
    vertex 18.0 2.9644660940672622 13.999999999999986
    vertex 18.794095225512606 1.6703708685546594 13.999999999999986
    vertex 21.03553390593274 2.9644660940672636 13.999999999999986
  endloop
endfacet
facet normal 0.0 0.0 1.0
  outer loop
    vertex 21.03553390593274 2.9644660940672636 13.999999999999986
    vertex 18.794095225512606 1.6703708685546594 13.999999999999986
    vertex 20.000000000000004 2.1698729810778086 13.999999999999986
  endloop
endfacet
facet normal 0.0 0.0 1.0
  outer loop
    vertex 17.5 11.499999999999998 13.999999999999986
    vertex 18.0 10.035533905932736 13.999999999999986
    vertex 18.794095225512603 11.32962913144534 13.999999999999986
  endloop
endfacet
facet normal 0.0 0.0 1.0
  outer loop
    vertex 18.0 10.035533905932736 13.999999999999986
    vertex 17.5 11.499999999999998 13.999999999999986
    vertex 18.0 2.9644660940672622 13.999999999999986
  endloop
endfacet
facet normal 0.0 0.0 1.0
  outer loop
    vertex 18.794095225512603 11.32962913144534 13.999999999999986
    vertex 18.0 10.035533905932736 13.999999999999986
    vertex 21.035533905932738 10.035533905932736 13.999999999999986
  endloop
endfacet
facet normal 0.0 0.0 1.0
  outer loop
    vertex 18.794095225512603 11.32962913144534 13.999999999999986
    vertex 21.035533905932738 10.035533905932736 13.999999999999986
    vertex 20.0 10.830127018922193 13.999999999999986
  endloop
endfacet
facet normal -0.9238795325112882 0.3826834323650868 0.0
  outer loop
    vertex 13.169872981077805 8.999999999999995 13.999999999999986
    vertex 13.03513721027529 8.674719074791762 3.9999999999999996
    vertex 13.03513721027529 8.674719074791762 13.999999999999986
  endloop
endfacet
facet normal -0.9238795325112882 0.3826834323650868 0.0
  outer loop
    vertex 13.03513721027529 8.674719074791762 3.9999999999999996
    vertex 13.169872981077805 8.999999999999995 13.999999999999986
    vertex 13.169872981077805 8.999999999999995 3.9999999999999996
  endloop
endfacet
facet normal -0.6087614290087313 -0.793353340291227 -0.0
  outer loop
    vertex 13.104727791694515 8.621320343559642 13.999999999999986
    vertex 13.03513721027529 8.674719074791762 3.9999999999999996
    vertex 13.104727791694515 8.621320343559642 3.9999999999999996
  endloop
endfacet
facet normal -0.6087614290087313 -0.793353340291227 -0.0
  outer loop
    vertex 13.03513721027529 8.674719074791762 3.9999999999999996
    vertex 13.104727791694515 8.621320343559642 13.999999999999986
    vertex 13.03513721027529 8.674719074791762 13.999999999999986
  endloop
endfacet
facet normal -0.7933533402912355 -0.6087614290087202 -0.0
  outer loop
    vertex 13.104727791694515 8.621320343559642 13.999999999999986
    vertex 13.581483659488187 7.999999999999999 3.9999999999999996
    vertex 13.581483659488187 7.999999999999999 13.999999999999986
  endloop
endfacet
facet normal -0.7933533402912355 -0.6087614290087202 -0.0
  outer loop
    vertex 13.581483659488187 7.999999999999999 3.9999999999999996
    vertex 13.104727791694515 8.621320343559642 13.999999999999986
    vertex 13.104727791694515 8.621320343559642 3.9999999999999996
  endloop
endfacet
facet normal -0.9238795325112862 -0.38268343236509134 -0.0
  outer loop
    vertex 13.581483659488187 7.999999999999999 13.999999999999986
    vertex 13.881184927002078 7.276457135307562 3.9999999999999996
    vertex 13.881184927002078 7.276457135307562 13.999999999999986
  endloop
endfacet
facet normal -0.9238795325112862 -0.38268343236509134 -0.0
  outer loop
    vertex 13.881184927002078 7.276457135307562 3.9999999999999996
    vertex 13.581483659488187 7.999999999999999 13.999999999999986
    vertex 13.581483659488187 7.999999999999999 3.9999999999999996
  endloop
endfacet
facet normal -0.9914448613738105 -0.13052619222005168 -0.0
  outer loop
    vertex 13.881184927002078 7.276457135307562 13.999999999999986
    vertex 13.983407448134873 6.499999999999999 3.9999999999999996
    vertex 13.983407448134873 6.499999999999999 13.999999999999986
  endloop
endfacet
facet normal -0.9914448613738105 -0.13052619222005168 -0.0
  outer loop
    vertex 13.983407448134873 6.499999999999999 3.9999999999999996
    vertex 13.881184927002078 7.276457135307562 13.999999999999986
    vertex 13.881184927002078 7.276457135307562 3.9999999999999996
  endloop
endfacet
facet normal -0.9914448613738104 0.13052619222005132 0.0
  outer loop
    vertex 13.983407448134873 6.499999999999999 13.999999999999986
    vertex 13.881184927002078 5.723542864692434 3.9999999999999996
    vertex 13.881184927002078 5.723542864692434 13.999999999999986
  endloop
endfacet
facet normal -0.9914448613738104 0.13052619222005132 0.0
  outer loop
    vertex 13.881184927002078 5.723542864692434 3.9999999999999996
    vertex 13.983407448134873 6.499999999999999 13.999999999999986
    vertex 13.983407448134873 6.499999999999999 3.9999999999999996
  endloop
endfacet
facet normal -0.9238795325112861 0.38268343236509167 0.0
  outer loop
    vertex 13.881184927002078 5.723542864692434 13.999999999999986
    vertex 13.581483659488187 4.999999999999998 3.9999999999999996
    vertex 13.581483659488187 4.999999999999998 13.999999999999986
  endloop
endfacet
facet normal -0.9238795325112861 0.38268343236509167 0.0
  outer loop
    vertex 13.581483659488187 4.999999999999998 3.9999999999999996
    vertex 13.881184927002078 5.723542864692434 13.999999999999986
    vertex 13.881184927002078 5.723542864692434 3.9999999999999996
  endloop
endfacet
facet normal -0.7933533402912355 0.6087614290087202 0.0
  outer loop
    vertex 13.581483659488187 4.999999999999998 13.999999999999986
    vertex 13.104727791694515 4.378679656440355 3.9999999999999996
    vertex 13.104727791694515 4.378679656440355 13.999999999999986
  endloop
endfacet
facet normal -0.7933533402912355 0.6087614290087202 0.0
  outer loop
    vertex 13.104727791694515 4.378679656440355 3.9999999999999996
    vertex 13.581483659488187 4.999999999999998 13.999999999999986
    vertex 13.581483659488187 4.999999999999998 3.9999999999999996
  endloop
endfacet
facet normal -0.6087614290087162 0.7933533402912387 0.0
  outer loop
    vertex 13.03513721027529 4.325280925208237 13.999999999999986
    vertex 13.104727791694515 4.378679656440355 3.9999999999999996
    vertex 13.03513721027529 4.325280925208237 3.9999999999999996
  endloop
endfacet
facet normal -0.6087614290087162 0.7933533402912387 0.0
  outer loop
    vertex 13.104727791694515 4.378679656440355 3.9999999999999996
    vertex 13.03513721027529 4.325280925208237 13.999999999999986
    vertex 13.104727791694515 4.378679656440355 13.999999999999986
  endloop
endfacet
facet normal -0.9238795325112851 -0.382683432365094 -0.0
  outer loop
    vertex 13.03513721027529 4.325280925208237 13.999999999999986
    vertex 13.16987298107781 3.9999999999999982 3.9999999999999996
    vertex 13.16987298107781 3.9999999999999982 13.999999999999986
  endloop
endfacet
facet normal -0.9238795325112851 -0.382683432365094 -0.0
  outer loop
    vertex 13.16987298107781 3.9999999999999982 3.9999999999999996
    vertex 13.03513721027529 4.325280925208237 13.999999999999986
    vertex 13.03513721027529 4.325280925208237 3.9999999999999996
  endloop
endfacet
facet normal -0.7933533402912354 -0.6087614290087207 -0.0
  outer loop
    vertex 13.16987298107781 3.9999999999999982 13.999999999999986
    vertex 13.964466094067266 2.9644660940672614 3.9999999999999996
    vertex 13.964466094067266 2.9644660940672614 13.999999999999986
  endloop
endfacet
facet normal -0.7933533402912354 -0.6087614290087207 -0.0
  outer loop
    vertex 13.964466094067266 2.9644660940672614 3.9999999999999996
    vertex 13.16987298107781 3.9999999999999982 13.999999999999986
    vertex 13.16987298107781 3.9999999999999982 3.9999999999999996
  endloop
endfacet
facet normal -0.6087614290087207 -0.7933533402912354 -0.0
  outer loop
    vertex 15.000000000000004 2.1698729810778064 13.999999999999986
    vertex 13.964466094067266 2.9644660940672614 3.9999999999999996
    vertex 15.000000000000004 2.1698729810778064 3.9999999999999996
  endloop
endfacet
facet normal -0.6087614290087207 -0.7933533402912354 -0.0
  outer loop
    vertex 13.964466094067266 2.9644660940672614 3.9999999999999996
    vertex 15.000000000000004 2.1698729810778064 13.999999999999986
    vertex 13.964466094067266 2.9644660940672614 13.999999999999986
  endloop
endfacet
facet normal -0.3826834323650895 -0.923879532511287 -0.0
  outer loop
    vertex 16.2059047744874 1.6703708685546588 13.999999999999986
    vertex 15.000000000000004 2.1698729810778064 3.9999999999999996
    vertex 16.2059047744874 1.6703708685546588 3.9999999999999996
  endloop
endfacet
facet normal -0.3826834323650895 -0.923879532511287 -0.0
  outer loop
    vertex 15.000000000000004 2.1698729810778064 3.9999999999999996
    vertex 16.2059047744874 1.6703708685546588 13.999999999999986
    vertex 15.000000000000004 2.1698729810778064 13.999999999999986
  endloop
endfacet
facet normal -0.13052619222005135 -0.9914448613738106 -0.0
  outer loop
    vertex 17.5 1.5000000000000007 13.999999999999986
    vertex 16.2059047744874 1.6703708685546588 3.9999999999999996
    vertex 17.5 1.5000000000000007 3.9999999999999996
  endloop
endfacet
facet normal -0.13052619222005135 -0.9914448613738106 -0.0
  outer loop
    vertex 16.2059047744874 1.6703708685546588 3.9999999999999996
    vertex 17.5 1.5000000000000007 13.999999999999986
    vertex 16.2059047744874 1.6703708685546588 13.999999999999986
  endloop
endfacet
facet normal 0.13052619222005157 -0.9914448613738104 0.0
  outer loop
    vertex 18.794095225512606 1.6703708685546594 13.999999999999986
    vertex 17.5 1.5000000000000007 3.9999999999999996
    vertex 18.794095225512606 1.6703708685546594 3.9999999999999996
  endloop
endfacet
facet normal 0.13052619222005157 -0.9914448613738104 0.0
  outer loop
    vertex 17.5 1.5000000000000007 3.9999999999999996
    vertex 18.794095225512606 1.6703708685546594 13.999999999999986
    vertex 17.5 1.5000000000000007 13.999999999999986
  endloop
endfacet
facet normal 0.38268343236509045 -0.9238795325112866 0.0
  outer loop
    vertex 20.000000000000004 2.1698729810778086 13.999999999999986
    vertex 18.794095225512606 1.6703708685546594 3.9999999999999996
    vertex 20.000000000000004 2.1698729810778086 3.9999999999999996
  endloop
endfacet
facet normal 0.38268343236509045 -0.9238795325112866 0.0
  outer loop
    vertex 18.794095225512606 1.6703708685546594 3.9999999999999996
    vertex 20.000000000000004 2.1698729810778086 13.999999999999986
    vertex 18.794095225512606 1.6703708685546594 13.999999999999986
  endloop
endfacet
facet normal 0.6087614290087207 -0.7933533402912354 0.0
  outer loop
    vertex 21.03553390593274 2.9644660940672636 13.999999999999986
    vertex 20.000000000000004 2.1698729810778086 3.9999999999999996
    vertex 21.03553390593274 2.9644660940672636 3.9999999999999996
  endloop
endfacet
facet normal 0.6087614290087207 -0.7933533402912354 0.0
  outer loop
    vertex 20.000000000000004 2.1698729810778086 3.9999999999999996
    vertex 21.03553390593274 2.9644660940672636 13.999999999999986
    vertex 20.000000000000004 2.1698729810778086 13.999999999999986
  endloop
endfacet
facet normal -3.4836950063007905e-16 1.0 0.0
  outer loop
    vertex 18.0 2.9644660940672622 13.999999999999986
    vertex 21.03553390593274 2.9644660940672636 3.9999999999999996
    vertex 18.0 2.9644660940672622 3.9999999999999996
  endloop
endfacet
facet normal -3.4836950063007905e-16 1.0 0.0
  outer loop
    vertex 21.03553390593274 2.9644660940672636 3.9999999999999996
    vertex 18.0 2.9644660940672622 13.999999999999986
    vertex 21.03553390593274 2.9644660940672636 13.999999999999986
  endloop
endfacet
facet normal 1.0 -0.0 0.0
  outer loop
    vertex 18.0 10.035533905932736 3.9999999999999996
    vertex 18.0 2.9644660940672622 13.999999999999986
    vertex 18.0 2.9644660940672622 3.9999999999999996
  endloop
endfacet
facet normal 1.0 -0.0 0.0
  outer loop
    vertex 18.0 2.9644660940672622 13.999999999999986
    vertex 18.0 10.035533905932736 3.9999999999999996
    vertex 18.0 10.035533905932736 13.999999999999986
  endloop
endfacet
facet normal 0.0 -1.0 0.0
  outer loop
    vertex 21.035533905932738 10.035533905932736 13.999999999999986
    vertex 18.0 10.035533905932736 3.9999999999999996
    vertex 21.035533905932738 10.035533905932736 3.9999999999999996
  endloop
endfacet
facet normal 0.0 -1.0 0.0
  outer loop
    vertex 18.0 10.035533905932736 3.9999999999999996
    vertex 21.035533905932738 10.035533905932736 13.999999999999986
    vertex 18.0 10.035533905932736 13.999999999999986
  endloop
endfacet
facet normal 0.6087614290087213 0.7933533402912347 0.0
  outer loop
    vertex 20.0 10.830127018922193 13.999999999999986
    vertex 21.035533905932738 10.035533905932736 3.9999999999999996
    vertex 20.0 10.830127018922193 3.9999999999999996
  endloop
endfacet
facet normal 0.6087614290087213 0.7933533402912347 0.0
  outer loop
    vertex 21.035533905932738 10.035533905932736 3.9999999999999996
    vertex 20.0 10.830127018922193 13.999999999999986
    vertex 21.035533905932738 10.035533905932736 13.999999999999986
  endloop
endfacet
facet normal 0.3826834323650895 0.923879532511287 0.0
  outer loop
    vertex 18.794095225512603 11.32962913144534 13.999999999999986
    vertex 20.0 10.830127018922193 3.9999999999999996
    vertex 18.794095225512603 11.32962913144534 3.9999999999999996
  endloop
endfacet
facet normal 0.3826834323650895 0.923879532511287 0.0
  outer loop
    vertex 20.0 10.830127018922193 3.9999999999999996
    vertex 18.794095225512603 11.32962913144534 13.999999999999986
    vertex 20.0 10.830127018922193 13.999999999999986
  endloop
endfacet
facet normal 0.13052619222005188 0.9914448613738104 0.0
  outer loop
    vertex 17.5 11.499999999999998 13.999999999999986
    vertex 18.794095225512603 11.32962913144534 3.9999999999999996
    vertex 17.5 11.499999999999998 3.9999999999999996
  endloop
endfacet
facet normal 0.13052619222005188 0.9914448613738104 0.0
  outer loop
    vertex 18.794095225512603 11.32962913144534 3.9999999999999996
    vertex 17.5 11.499999999999998 13.999999999999986
    vertex 18.794095225512603 11.32962913144534 13.999999999999986
  endloop
endfacet
facet normal -0.13052619222005238 0.9914448613738105 0.0
  outer loop
    vertex 16.205904774487394 11.329629131445339 13.999999999999986
    vertex 17.5 11.499999999999998 3.9999999999999996
    vertex 16.205904774487394 11.329629131445339 3.9999999999999996
  endloop
endfacet
facet normal -0.13052619222005238 0.9914448613738105 0.0
  outer loop
    vertex 17.5 11.499999999999998 3.9999999999999996
    vertex 16.205904774487394 11.329629131445339 13.999999999999986
    vertex 17.5 11.499999999999998 13.999999999999986
  endloop
endfacet
facet normal -0.38268343236509117 0.9238795325112863 0.0
  outer loop
    vertex 15.0 10.83012701892219 13.999999999999986
    vertex 16.205904774487394 11.329629131445339 3.9999999999999996
    vertex 15.0 10.83012701892219 3.9999999999999996
  endloop
endfacet
facet normal -0.38268343236509117 0.9238795325112863 0.0
  outer loop
    vertex 16.205904774487394 11.329629131445339 3.9999999999999996
    vertex 15.0 10.83012701892219 13.999999999999986
    vertex 16.205904774487394 11.329629131445339 13.999999999999986
  endloop
endfacet
facet normal -0.6087614290087207 0.7933533402912354 0.0
  outer loop
    vertex 13.964466094067264 10.035533905932734 13.999999999999986
    vertex 15.0 10.83012701892219 3.9999999999999996
    vertex 13.964466094067264 10.035533905932734 3.9999999999999996
  endloop
endfacet
facet normal -0.6087614290087207 0.7933533402912354 0.0
  outer loop
    vertex 15.0 10.83012701892219 3.9999999999999996
    vertex 13.964466094067264 10.035533905932734 13.999999999999986
    vertex 15.0 10.83012701892219 13.999999999999986
  endloop
endfacet
facet normal -0.7933533402912349 0.608761429008721 0.0
  outer loop
    vertex 13.964466094067264 10.035533905932734 13.999999999999986
    vertex 13.169872981077805 8.999999999999995 3.9999999999999996
    vertex 13.169872981077805 8.999999999999995 13.999999999999986
  endloop
endfacet
facet normal -0.7933533402912349 0.608761429008721 0.0
  outer loop
    vertex 13.169872981077805 8.999999999999995 3.9999999999999996
    vertex 13.964466094067264 10.035533905932734 13.999999999999986
    vertex 13.964466094067264 10.035533905932734 3.9999999999999996
  endloop
endfacet
endsolid stompy_shoulder_brace_mount
