<?xml version="1.0" standalone="no"?>
 <!DOCTYPE svg PUBLIC "-//W3C//DTD SVG 1.1//EN" 
 "http://www.w3.org/Graphics/SVG/1.1/DTD/svg11.dtd"> 
<svg xmlns="http://www.w3.org/2000/svg" version="1.1" 
    width="29.7002cm" height="21.0007cm" viewBox="0 0 116930 82680 ">
<title>SVG Picture created as shield_attempt-F.SilkS.svg date 2016/11/04 22:59:19 </title>
  <desc>Picture generated by PCBNEW </desc>
<g style="fill:#000000; fill-opacity:1;stroke:#000000; stroke-opacity:1;
stroke-linecap:round; stroke-linejoin:round; "
 transform="translate(0 0) scale(1 1)">
</g>
<g style="fill:#000000; fill-opacity:0.0; 
stroke:#000000; stroke-width:-0.000393701; stroke-opacity:1; 
stroke-linecap:round; stroke-linejoin:round;">
</g>
<g style="fill:#000000; fill-opacity:0.0; 
stroke:#000000; stroke-width:39.3701; stroke-opacity:1; 
stroke-linecap:round; stroke-linejoin:round;">
</g>
<g style="fill:#000000; fill-opacity:0.0; 
stroke:#000000; stroke-width:59.0551; stroke-opacity:1; 
stroke-linecap:round; stroke-linejoin:round;">
<rect x="69685.9" y="65357.2" width="42519.7" height="12598.4" rx="0" />
</g>
<g style="fill:#000000; fill-opacity:0.0; 
stroke:#000000; stroke-width:39.3701; stroke-opacity:1; 
stroke-linecap:round; stroke-linejoin:round;">
</g>
<g style="fill:#000000; fill-opacity:0.0; 
stroke:#000000; stroke-width:59.0551; stroke-opacity:1; 
stroke-linecap:round; stroke-linejoin:round;">
<rect x="3937.01" y="3937.01" width="109056" height="74806" rx="0" />
</g>
<g style="fill:#000000; fill-opacity:0.0; 
stroke:#000000; stroke-width:39.3701; stroke-opacity:1; 
stroke-linecap:round; stroke-linejoin:round;">
</g>
<g style="fill:#000000; fill-opacity:0.0; 
stroke:#000000; stroke-width:59.0551; stroke-opacity:1; 
stroke-linecap:round; stroke-linejoin:round;">
<rect x="4724.41" y="4724.41" width="107481" height="73231.2" rx="0" />
</g>
<g style="fill:#000000; fill-opacity:0.0; 
stroke:#000000; stroke-width:39.3701; stroke-opacity:1; 
stroke-linecap:round; stroke-linejoin:round;">
</g>
<g style="fill:#000000; fill-opacity:0.0; 
stroke:#000000; stroke-width:59.0551; stroke-opacity:1; 
stroke-linecap:round; stroke-linejoin:round;">
<path d="M23622 4724
L23622 3937
" />
</g>
<g style="fill:#000000; fill-opacity:0.0; 
stroke:#000000; stroke-width:39.3701; stroke-opacity:1; 
stroke-linecap:round; stroke-linejoin:round;">
</g>
<g style="fill:#000000; fill-opacity:0.0; 
stroke:#000000; stroke-width:59.0551; stroke-opacity:1; 
stroke-linecap:round; stroke-linejoin:round;">
<path d="M43307 4724
L43307 3937
" />
</g>
<g style="fill:#000000; fill-opacity:0.0; 
stroke:#000000; stroke-width:39.3701; stroke-opacity:1; 
stroke-linecap:round; stroke-linejoin:round;">
</g>
<g style="fill:#000000; fill-opacity:0.0; 
stroke:#000000; stroke-width:59.0551; stroke-opacity:1; 
stroke-linecap:round; stroke-linejoin:round;">
<path d="M62992 4724
L62992 3937
" />
</g>
<g style="fill:#000000; fill-opacity:0.0; 
stroke:#000000; stroke-width:39.3701; stroke-opacity:1; 
stroke-linecap:round; stroke-linejoin:round;">
</g>
<g style="fill:#000000; fill-opacity:0.0; 
stroke:#000000; stroke-width:59.0551; stroke-opacity:1; 
stroke-linecap:round; stroke-linejoin:round;">
<path d="M82677 4724
L82677 3937
" />
</g>
<g style="fill:#000000; fill-opacity:0.0; 
stroke:#000000; stroke-width:39.3701; stroke-opacity:1; 
stroke-linecap:round; stroke-linejoin:round;">
</g>
<g style="fill:#000000; fill-opacity:0.0; 
stroke:#000000; stroke-width:59.0551; stroke-opacity:1; 
stroke-linecap:round; stroke-linejoin:round;">
<path d="M102362 4724
L102362 3937
" />
</g>
<g style="fill:#000000; fill-opacity:0.0; 
stroke:#000000; stroke-width:39.3701; stroke-opacity:1; 
stroke-linecap:round; stroke-linejoin:round;">
</g>
<g style="fill:#000000; fill-opacity:0.0; 
stroke:#000000; stroke-width:59.0551; stroke-opacity:1; 
stroke-linecap:round; stroke-linejoin:round;">
<path d="M14169 4562
L13877 4562
" />
<path d="M14023 4562
L14023 4050
L13974 4123
L13925 4172
L13877 4196
" />
</g>
<g style="fill:#000000; fill-opacity:0.0; 
stroke:#000000; stroke-width:39.3701; stroke-opacity:1; 
stroke-linecap:round; stroke-linejoin:round;">
</g>
<g style="fill:#000000; fill-opacity:0.0; 
stroke:#000000; stroke-width:59.0551; stroke-opacity:1; 
stroke-linecap:round; stroke-linejoin:round;">
<path d="M33562 4099
L33586 4074
L33635 4050
L33757 4050
L33805 4074
L33830 4099
L33854 4147
L33854 4196
L33830 4269
L33537 4562
L33854 4562
" />
</g>
<g style="fill:#000000; fill-opacity:0.0; 
stroke:#000000; stroke-width:39.3701; stroke-opacity:1; 
stroke-linecap:round; stroke-linejoin:round;">
</g>
<g style="fill:#000000; fill-opacity:0.0; 
stroke:#000000; stroke-width:59.0551; stroke-opacity:1; 
stroke-linecap:round; stroke-linejoin:round;">
<path d="M53222 4050
L53539 4050
L53368 4245
L53442 4245
L53490 4269
L53515 4294
L53539 4342
L53539 4464
L53515 4513
L53490 4537
L53442 4562
L53295 4562
L53247 4537
L53222 4513
" />
</g>
<g style="fill:#000000; fill-opacity:0.0; 
stroke:#000000; stroke-width:39.3701; stroke-opacity:1; 
stroke-linecap:round; stroke-linejoin:round;">
</g>
<g style="fill:#000000; fill-opacity:0.0; 
stroke:#000000; stroke-width:59.0551; stroke-opacity:1; 
stroke-linecap:round; stroke-linejoin:round;">
<path d="M73175 4221
L73175 4562
" />
<path d="M73053 4026
L72932 4391
L73248 4391
" />
</g>
<g style="fill:#000000; fill-opacity:0.0; 
stroke:#000000; stroke-width:39.3701; stroke-opacity:1; 
stroke-linecap:round; stroke-linejoin:round;">
</g>
<g style="fill:#000000; fill-opacity:0.0; 
stroke:#000000; stroke-width:59.0551; stroke-opacity:1; 
stroke-linecap:round; stroke-linejoin:round;">
<path d="M92885 4050
L92641 4050
L92617 4294
L92641 4269
L92690 4245
L92812 4245
L92860 4269
L92885 4294
L92909 4342
L92909 4464
L92885 4513
L92860 4537
L92812 4562
L92690 4562
L92641 4537
L92617 4513
" />
</g>
<g style="fill:#000000; fill-opacity:0.0; 
stroke:#000000; stroke-width:39.3701; stroke-opacity:1; 
stroke-linecap:round; stroke-linejoin:round;">
</g>
<g style="fill:#000000; fill-opacity:0.0; 
stroke:#000000; stroke-width:59.0551; stroke-opacity:1; 
stroke-linecap:round; stroke-linejoin:round;">
<path d="M112545 4050
L112448 4050
L112399 4074
L112375 4099
L112326 4172
L112302 4269
L112302 4464
L112326 4513
L112350 4537
L112399 4562
L112497 4562
L112545 4537
L112570 4513
L112594 4464
L112594 4342
L112570 4294
L112545 4269
L112497 4245
L112399 4245
L112350 4269
L112326 4294
L112302 4342
" />
</g>
<g style="fill:#000000; fill-opacity:0.0; 
stroke:#000000; stroke-width:39.3701; stroke-opacity:1; 
stroke-linecap:round; stroke-linejoin:round;">
</g>
<g style="fill:#000000; fill-opacity:0.0; 
stroke:#000000; stroke-width:59.0551; stroke-opacity:1; 
stroke-linecap:round; stroke-linejoin:round;">
<path d="M23622 77955
L23622 78742
" />
</g>
<g style="fill:#000000; fill-opacity:0.0; 
stroke:#000000; stroke-width:39.3701; stroke-opacity:1; 
stroke-linecap:round; stroke-linejoin:round;">
</g>
<g style="fill:#000000; fill-opacity:0.0; 
stroke:#000000; stroke-width:59.0551; stroke-opacity:1; 
stroke-linecap:round; stroke-linejoin:round;">
<path d="M43307 77955
L43307 78742
" />
</g>
<g style="fill:#000000; fill-opacity:0.0; 
stroke:#000000; stroke-width:39.3701; stroke-opacity:1; 
stroke-linecap:round; stroke-linejoin:round;">
</g>
<g style="fill:#000000; fill-opacity:0.0; 
stroke:#000000; stroke-width:59.0551; stroke-opacity:1; 
stroke-linecap:round; stroke-linejoin:round;">
<path d="M62992 77955
L62992 78742
" />
</g>
<g style="fill:#000000; fill-opacity:0.0; 
stroke:#000000; stroke-width:39.3701; stroke-opacity:1; 
stroke-linecap:round; stroke-linejoin:round;">
</g>
<g style="fill:#000000; fill-opacity:0.0; 
stroke:#000000; stroke-width:59.0551; stroke-opacity:1; 
stroke-linecap:round; stroke-linejoin:round;">
<path d="M82677 77955
L82677 78742
" />
</g>
<g style="fill:#000000; fill-opacity:0.0; 
stroke:#000000; stroke-width:39.3701; stroke-opacity:1; 
stroke-linecap:round; stroke-linejoin:round;">
</g>
<g style="fill:#000000; fill-opacity:0.0; 
stroke:#000000; stroke-width:59.0551; stroke-opacity:1; 
stroke-linecap:round; stroke-linejoin:round;">
<path d="M102362 77955
L102362 78742
" />
</g>
<g style="fill:#000000; fill-opacity:0.0; 
stroke:#000000; stroke-width:39.3701; stroke-opacity:1; 
stroke-linecap:round; stroke-linejoin:round;">
</g>
<g style="fill:#000000; fill-opacity:0.0; 
stroke:#000000; stroke-width:59.0551; stroke-opacity:1; 
stroke-linecap:round; stroke-linejoin:round;">
<path d="M14169 78580
L13877 78580
" />
<path d="M14023 78580
L14023 78069
L13974 78142
L13925 78190
L13877 78215
" />
</g>
<g style="fill:#000000; fill-opacity:0.0; 
stroke:#000000; stroke-width:39.3701; stroke-opacity:1; 
stroke-linecap:round; stroke-linejoin:round;">
</g>
<g style="fill:#000000; fill-opacity:0.0; 
stroke:#000000; stroke-width:59.0551; stroke-opacity:1; 
stroke-linecap:round; stroke-linejoin:round;">
<path d="M33562 78117
L33586 78093
L33635 78069
L33757 78069
L33805 78093
L33830 78117
L33854 78166
L33854 78215
L33830 78288
L33537 78580
L33854 78580
" />
</g>
<g style="fill:#000000; fill-opacity:0.0; 
stroke:#000000; stroke-width:39.3701; stroke-opacity:1; 
stroke-linecap:round; stroke-linejoin:round;">
</g>
<g style="fill:#000000; fill-opacity:0.0; 
stroke:#000000; stroke-width:59.0551; stroke-opacity:1; 
stroke-linecap:round; stroke-linejoin:round;">
<path d="M53222 78069
L53539 78069
L53368 78263
L53442 78263
L53490 78288
L53515 78312
L53539 78361
L53539 78483
L53515 78532
L53490 78556
L53442 78580
L53295 78580
L53247 78556
L53222 78532
" />
</g>
<g style="fill:#000000; fill-opacity:0.0; 
stroke:#000000; stroke-width:39.3701; stroke-opacity:1; 
stroke-linecap:round; stroke-linejoin:round;">
</g>
<g style="fill:#000000; fill-opacity:0.0; 
stroke:#000000; stroke-width:59.0551; stroke-opacity:1; 
stroke-linecap:round; stroke-linejoin:round;">
<path d="M73175 78239
L73175 78580
" />
<path d="M73053 78044
L72932 78410
L73248 78410
" />
</g>
<g style="fill:#000000; fill-opacity:0.0; 
stroke:#000000; stroke-width:39.3701; stroke-opacity:1; 
stroke-linecap:round; stroke-linejoin:round;">
</g>
<g style="fill:#000000; fill-opacity:0.0; 
stroke:#000000; stroke-width:59.0551; stroke-opacity:1; 
stroke-linecap:round; stroke-linejoin:round;">
<path d="M92885 78069
L92641 78069
L92617 78312
L92641 78288
L92690 78263
L92812 78263
L92860 78288
L92885 78312
L92909 78361
L92909 78483
L92885 78532
L92860 78556
L92812 78580
L92690 78580
L92641 78556
L92617 78532
" />
</g>
<g style="fill:#000000; fill-opacity:0.0; 
stroke:#000000; stroke-width:39.3701; stroke-opacity:1; 
stroke-linecap:round; stroke-linejoin:round;">
</g>
<g style="fill:#000000; fill-opacity:0.0; 
stroke:#000000; stroke-width:59.0551; stroke-opacity:1; 
stroke-linecap:round; stroke-linejoin:round;">
<path d="M112545 78069
L112448 78069
L112399 78093
L112375 78117
L112326 78190
L112302 78288
L112302 78483
L112326 78532
L112350 78556
L112399 78580
L112497 78580
L112545 78556
L112570 78532
L112594 78483
L112594 78361
L112570 78312
L112545 78288
L112497 78263
L112399 78263
L112350 78288
L112326 78312
L112302 78361
" />
</g>
<g style="fill:#000000; fill-opacity:0.0; 
stroke:#000000; stroke-width:39.3701; stroke-opacity:1; 
stroke-linecap:round; stroke-linejoin:round;">
</g>
<g style="fill:#000000; fill-opacity:0.0; 
stroke:#000000; stroke-width:59.0551; stroke-opacity:1; 
stroke-linecap:round; stroke-linejoin:round;">
<path d="M3937 23622
L4724 23622
" />
</g>
<g style="fill:#000000; fill-opacity:0.0; 
stroke:#000000; stroke-width:39.3701; stroke-opacity:1; 
stroke-linecap:round; stroke-linejoin:round;">
</g>
<g style="fill:#000000; fill-opacity:0.0; 
stroke:#000000; stroke-width:59.0551; stroke-opacity:1; 
stroke-linecap:round; stroke-linejoin:round;">
<path d="M3937 43307
L4724 43307
" />
</g>
<g style="fill:#000000; fill-opacity:0.0; 
stroke:#000000; stroke-width:39.3701; stroke-opacity:1; 
stroke-linecap:round; stroke-linejoin:round;">
</g>
<g style="fill:#000000; fill-opacity:0.0; 
stroke:#000000; stroke-width:59.0551; stroke-opacity:1; 
stroke-linecap:round; stroke-linejoin:round;">
<path d="M3937 62992
L4724 62992
" />
</g>
<g style="fill:#000000; fill-opacity:0.0; 
stroke:#000000; stroke-width:39.3701; stroke-opacity:1; 
stroke-linecap:round; stroke-linejoin:round;">
</g>
<g style="fill:#000000; fill-opacity:0.0; 
stroke:#000000; stroke-width:59.0551; stroke-opacity:1; 
stroke-linecap:round; stroke-linejoin:round;">
<path d="M4208 13864
L4452 13864
" />
<path d="M4160 14011
L4330 13499
L4501 14011
" />
</g>
<g style="fill:#000000; fill-opacity:0.0; 
stroke:#000000; stroke-width:39.3701; stroke-opacity:1; 
stroke-linecap:round; stroke-linejoin:round;">
</g>
<g style="fill:#000000; fill-opacity:0.0; 
stroke:#000000; stroke-width:59.0551; stroke-opacity:1; 
stroke-linecap:round; stroke-linejoin:round;">
<path d="M4367 33428
L4440 33452
L4464 33476
L4489 33525
L4489 33598
L4464 33647
L4440 33671
L4391 33696
L4196 33696
L4196 33184
L4367 33184
L4416 33208
L4440 33233
L4464 33281
L4464 33330
L4440 33379
L4416 33403
L4367 33428
L4196 33428
" />
</g>
<g style="fill:#000000; fill-opacity:0.0; 
stroke:#000000; stroke-width:39.3701; stroke-opacity:1; 
stroke-linecap:round; stroke-linejoin:round;">
</g>
<g style="fill:#000000; fill-opacity:0.0; 
stroke:#000000; stroke-width:59.0551; stroke-opacity:1; 
stroke-linecap:round; stroke-linejoin:round;">
<path d="M4489 53332
L4464 53356
L4391 53381
L4342 53381
L4269 53356
L4221 53308
L4196 53259
L4172 53161
L4172 53088
L4196 52991
L4221 52942
L4269 52893
L4342 52869
L4391 52869
L4464 52893
L4489 52918
" />
</g>
<g style="fill:#000000; fill-opacity:0.0; 
stroke:#000000; stroke-width:39.3701; stroke-opacity:1; 
stroke-linecap:round; stroke-linejoin:round;">
</g>
<g style="fill:#000000; fill-opacity:0.0; 
stroke:#000000; stroke-width:59.0551; stroke-opacity:1; 
stroke-linecap:round; stroke-linejoin:round;">
<path d="M4196 73066
L4196 72554
L4318 72554
L4391 72578
L4440 72627
L4464 72676
L4489 72773
L4489 72846
L4464 72944
L4440 72993
L4391 73041
L4318 73066
L4196 73066
" />
</g>
<g style="fill:#000000; fill-opacity:0.0; 
stroke:#000000; stroke-width:39.3701; stroke-opacity:1; 
stroke-linecap:round; stroke-linejoin:round;">
</g>
<g style="fill:#000000; fill-opacity:0.0; 
stroke:#000000; stroke-width:59.0551; stroke-opacity:1; 
stroke-linecap:round; stroke-linejoin:round;">
<path d="M112992 23622
L112205 23622
" />
</g>
<g style="fill:#000000; fill-opacity:0.0; 
stroke:#000000; stroke-width:39.3701; stroke-opacity:1; 
stroke-linecap:round; stroke-linejoin:round;">
</g>
<g style="fill:#000000; fill-opacity:0.0; 
stroke:#000000; stroke-width:59.0551; stroke-opacity:1; 
stroke-linecap:round; stroke-linejoin:round;">
<path d="M112992 43307
L112205 43307
" />
</g>
<g style="fill:#000000; fill-opacity:0.0; 
stroke:#000000; stroke-width:39.3701; stroke-opacity:1; 
stroke-linecap:round; stroke-linejoin:round;">
</g>
<g style="fill:#000000; fill-opacity:0.0; 
stroke:#000000; stroke-width:59.0551; stroke-opacity:1; 
stroke-linecap:round; stroke-linejoin:round;">
<path d="M112992 62992
L112205 62992
" />
</g>
<g style="fill:#000000; fill-opacity:0.0; 
stroke:#000000; stroke-width:39.3701; stroke-opacity:1; 
stroke-linecap:round; stroke-linejoin:round;">
</g>
<g style="fill:#000000; fill-opacity:0.0; 
stroke:#000000; stroke-width:59.0551; stroke-opacity:1; 
stroke-linecap:round; stroke-linejoin:round;">
<path d="M112477 13864
L112721 13864
" />
<path d="M112428 14011
L112599 13499
L112769 14011
" />
</g>
<g style="fill:#000000; fill-opacity:0.0; 
stroke:#000000; stroke-width:39.3701; stroke-opacity:1; 
stroke-linecap:round; stroke-linejoin:round;">
</g>
<g style="fill:#000000; fill-opacity:0.0; 
stroke:#000000; stroke-width:59.0551; stroke-opacity:1; 
stroke-linecap:round; stroke-linejoin:round;">
<path d="M112635 33428
L112708 33452
L112733 33476
L112757 33525
L112757 33598
L112733 33647
L112708 33671
L112660 33696
L112465 33696
L112465 33184
L112635 33184
L112684 33208
L112708 33233
L112733 33281
L112733 33330
L112708 33379
L112684 33403
L112635 33428
L112465 33428
" />
</g>
<g style="fill:#000000; fill-opacity:0.0; 
stroke:#000000; stroke-width:39.3701; stroke-opacity:1; 
stroke-linecap:round; stroke-linejoin:round;">
</g>
<g style="fill:#000000; fill-opacity:0.0; 
stroke:#000000; stroke-width:59.0551; stroke-opacity:1; 
stroke-linecap:round; stroke-linejoin:round;">
<path d="M112757 53332
L112733 53356
L112660 53381
L112611 53381
L112538 53356
L112489 53308
L112465 53259
L112440 53161
L112440 53088
L112465 52991
L112489 52942
L112538 52893
L112611 52869
L112660 52869
L112733 52893
L112757 52918
" />
</g>
<g style="fill:#000000; fill-opacity:0.0; 
stroke:#000000; stroke-width:39.3701; stroke-opacity:1; 
stroke-linecap:round; stroke-linejoin:round;">
</g>
<g style="fill:#000000; fill-opacity:0.0; 
stroke:#000000; stroke-width:59.0551; stroke-opacity:1; 
stroke-linecap:round; stroke-linejoin:round;">
<path d="M112465 73066
L112465 72554
L112587 72554
L112660 72578
L112708 72627
L112733 72676
L112757 72773
L112757 72846
L112733 72944
L112708 72993
L112660 73041
L112587 73066
L112465 73066
" />
</g>
<g style="fill:#000000; fill-opacity:0.0; 
stroke:#000000; stroke-width:39.3701; stroke-opacity:1; 
stroke-linecap:round; stroke-linejoin:round;">
</g>
<g style="fill:#000000; fill-opacity:0.0; 
stroke:#000000; stroke-width:59.0551; stroke-opacity:1; 
stroke-linecap:round; stroke-linejoin:round;">
<path d="M78881 76293
L78881 75703
L79022 75703
L79106 75731
L79162 75787
L79190 75843
L79219 75956
L79219 76040
L79190 76153
L79162 76209
L79106 76265
L79022 76293
L78881 76293
" />
<path d="M79725 76293
L79725 75984
L79697 75928
L79640 75899
L79528 75899
L79472 75928
" />
<path d="M79725 76265
L79669 76293
L79528 76293
L79472 76265
L79444 76209
L79444 76153
L79472 76096
L79528 76068
L79669 76068
L79725 76040
" />
<path d="M79922 75899
L80147 75899
" />
<path d="M80006 75703
L80006 76209
L80034 76265
L80090 76293
L80147 76293
" />
<path d="M80568 76265
L80512 76293
L80400 76293
L80343 76265
L80315 76209
L80315 75984
L80343 75928
L80400 75899
L80512 75899
L80568 75928
L80597 75984
L80597 76040
L80315 76096
" />
<path d="M80850 76237
L80878 76265
L80850 76293
L80822 76265
L80850 76237
L80850 76293
" />
<path d="M80850 75928
L80878 75956
L80850 75984
L80822 75956
L80850 75928
L80850 75984
" />
</g>
<g style="fill:#000000; fill-opacity:0.0; 
stroke:#000000; stroke-width:39.3701; stroke-opacity:1; 
stroke-linecap:round; stroke-linejoin:round;">
</g>
<g style="fill:#000000; fill-opacity:0.0; 
stroke:#000000; stroke-width:59.0551; stroke-opacity:1; 
stroke-linecap:round; stroke-linejoin:round;">
<path d="M69685 76577
L112205 76577
" />
</g>
<g style="fill:#000000; fill-opacity:0.0; 
stroke:#000000; stroke-width:39.3701; stroke-opacity:1; 
stroke-linecap:round; stroke-linejoin:round;">
</g>
<g style="fill:#000000; fill-opacity:0.0; 
stroke:#000000; stroke-width:59.0551; stroke-opacity:1; 
stroke-linecap:round; stroke-linejoin:round;">
<path d="M70220 77395
L70220 76805
" />
<path d="M70557 77395
L70304 77058
" />
<path d="M70557 76805
L70220 77142
" />
<path d="M70810 77395
L70810 77002
" />
<path d="M70810 76805
L70782 76833
L70810 76861
L70838 76833
L70810 76805
L70810 76861
" />
<path d="M71429 77339
L71401 77367
L71316 77395
L71260 77395
L71176 77367
L71120 77311
L71091 77255
L71063 77142
L71063 77058
L71091 76946
L71120 76889
L71176 76833
L71260 76805
L71316 76805
L71401 76833
L71429 76861
" />
<path d="M71935 77395
L71935 77086
L71907 77030
L71851 77002
L71738 77002
L71682 77030
" />
<path d="M71935 77367
L71879 77395
L71738 77395
L71682 77367
L71654 77311
L71654 77255
L71682 77199
L71738 77171
L71879 77171
L71935 77142
" />
<path d="M72469 77395
L72469 76805
" />
<path d="M72469 77367
L72413 77395
L72301 77395
L72244 77367
L72216 77339
L72188 77283
L72188 77114
L72216 77058
L72244 77030
L72301 77002
L72413 77002
L72469 77030
" />
<path d="M73201 77086
L73397 77086
" />
<path d="M73482 77395
L73201 77395
L73201 76805
L73482 76805
" />
<path d="M73735 77339
L73763 77367
L73735 77395
L73707 77367
L73735 77339
L73735 77395
" />
<path d="M74016 77395
L74016 76805
L74157 76805
L74241 76833
L74297 76889
L74325 76946
L74354 77058
L74354 77142
L74325 77255
L74297 77311
L74241 77367
L74157 77395
L74016 77395
" />
<path d="M74607 77339
L74635 77367
L74607 77395
L74579 77367
L74607 77339
L74607 77395
" />
<path d="M74860 77227
L75141 77227
" />
<path d="M74804 77395
L75000 76805
L75197 77395
" />
<path d="M75394 77339
L75422 77367
L75394 77395
L75366 77367
L75394 77339
L75394 77395
" />
<path d="M76575 77395
L76575 76805
" />
<path d="M76631 77171
L76800 77395
" />
<path d="M76800 77002
L76575 77227
" />
<path d="M77053 77395
L77053 77002
" />
<path d="M77053 76805
L77025 76833
L77053 76861
L77081 76833
L77053 76805
L77053 76861
" />
<path d="M77588 77367
L77531 77395
L77419 77395
L77363 77367
L77334 77339
L77306 77283
L77306 77114
L77334 77058
L77363 77030
L77419 77002
L77531 77002
L77588 77030
" />
<path d="M78094 77395
L78094 77086
L78066 77030
L78009 77002
L77897 77002
L77841 77030
" />
<path d="M78094 77367
L78037 77395
L77897 77395
L77841 77367
L77813 77311
L77813 77255
L77841 77199
L77897 77171
L78037 77171
L78094 77142
" />
<path d="M78628 77395
L78628 76805
" />
<path d="M78628 77367
L78572 77395
L78459 77395
L78403 77367
L78375 77339
L78347 77283
L78347 77114
L78375 77058
L78403 77030
L78459 77002
L78572 77002
L78628 77030
" />
<path d="M79612 77002
L79612 77395
" />
<path d="M79472 76777
L79331 77199
L79697 77199
" />
<path d="M79922 77339
L79950 77367
L79922 77395
L79894 77367
L79922 77339
L79922 77395
" />
<path d="M80315 76805
L80372 76805
L80428 76833
L80456 76861
L80484 76917
L80512 77030
L80512 77171
L80484 77283
L80456 77339
L80428 77367
L80372 77395
L80315 77395
L80259 77367
L80231 77339
L80203 77283
L80175 77171
L80175 77030
L80203 76917
L80231 76861
L80259 76833
L80315 76805
" />
<path d="M80765 77339
L80793 77367
L80765 77395
L80737 77367
L80765 77339
L80765 77395
" />
<path d="M81300 77002
L81300 77395
" />
<path d="M81159 76777
L81018 77199
L81384 77199
" />
<path d="M81609 77171
L82059 77171
" />
<path d="M82312 77367
L82368 77395
L82481 77395
L82537 77367
L82565 77311
L82565 77283
L82537 77227
L82481 77199
L82396 77199
L82340 77171
L82312 77114
L82312 77086
L82340 77030
L82396 77002
L82481 77002
L82537 77030
" />
<path d="M82734 77002
L82959 77002
" />
<path d="M82818 76805
L82818 77311
L82846 77367
L82903 77395
L82959 77395
" />
<path d="M83409 77395
L83409 77086
L83381 77030
L83324 77002
L83212 77002
L83156 77030
" />
<path d="M83409 77367
L83352 77395
L83212 77395
L83156 77367
L83127 77311
L83127 77255
L83156 77199
L83212 77171
L83352 77171
L83409 77142
" />
<path d="M83690 77395
L83690 76805
" />
<path d="M83690 77030
L83746 77002
L83859 77002
L83915 77030
L83943 77058
L83971 77114
L83971 77283
L83943 77339
L83915 77367
L83859 77395
L83746 77395
L83690 77367
" />
<path d="M84309 77395
L84252 77367
L84224 77311
L84224 76805
" />
<path d="M84759 77367
L84702 77395
L84590 77395
L84534 77367
L84505 77311
L84505 77086
L84534 77030
L84590 77002
L84702 77002
L84759 77030
L84787 77086
L84787 77142
L84505 77199
" />
</g>
<g style="fill:#000000; fill-opacity:0.0; 
stroke:#000000; stroke-width:39.3701; stroke-opacity:1; 
stroke-linecap:round; stroke-linejoin:round;">
</g>
<g style="fill:#000000; fill-opacity:0.0; 
stroke:#000000; stroke-width:59.0551; stroke-opacity:1; 
stroke-linecap:round; stroke-linejoin:round;">
<path d="M69685 75396
L112205 75396
" />
</g>
<g style="fill:#000000; fill-opacity:0.0; 
stroke:#000000; stroke-width:39.3701; stroke-opacity:1; 
stroke-linecap:round; stroke-linejoin:round;">
</g>
<g style="fill:#000000; fill-opacity:0.0; 
stroke:#000000; stroke-width:118.11; stroke-opacity:1; 
stroke-linecap:round; stroke-linejoin:round;">
<path d="M104022 76293
L103825 76012
" />
<path d="M103684 76293
L103684 75703
L103909 75703
L103965 75731
L103994 75759
L104022 75815
L104022 75899
L103994 75956
L103965 75984
L103909 76012
L103684 76012
" />
<path d="M104500 76265
L104444 76293
L104331 76293
L104275 76265
L104247 76209
L104247 75984
L104275 75928
L104331 75899
L104444 75899
L104500 75928
L104528 75984
L104528 76040
L104247 76096
" />
<path d="M104725 75899
L104865 76293
L105006 75899
" />
<path d="M105231 76237
L105259 76265
L105231 76293
L105203 76265
L105231 76237
L105231 76293
" />
<path d="M105231 75928
L105259 75956
L105231 75984
L105203 75956
L105231 75928
L105231 75984
" />
</g>
<g style="fill:#000000; fill-opacity:0.0; 
stroke:#000000; stroke-width:39.3701; stroke-opacity:1; 
stroke-linecap:round; stroke-linejoin:round;">
</g>
<g style="fill:#000000; fill-opacity:0.0; 
stroke:#000000; stroke-width:59.0551; stroke-opacity:1; 
stroke-linecap:round; stroke-linejoin:round;">
<path d="M70192 76265
L70276 76293
L70417 76293
L70473 76265
L70501 76237
L70529 76181
L70529 76124
L70501 76068
L70473 76040
L70417 76012
L70304 75984
L70248 75956
L70220 75928
L70192 75871
L70192 75815
L70220 75759
L70248 75731
L70304 75703
L70445 75703
L70529 75731
" />
<path d="M70782 76293
L70782 75899
" />
<path d="M70782 75703
L70754 75731
L70782 75759
L70810 75731
L70782 75703
L70782 75759
" />
<path d="M71007 75899
L71316 75899
L71007 76293
L71316 76293
" />
<path d="M71766 76265
L71710 76293
L71598 76293
L71541 76265
L71513 76209
L71513 75984
L71541 75928
L71598 75899
L71710 75899
L71766 75928
L71795 75984
L71795 76040
L71513 76096
" />
<path d="M72048 76237
L72076 76265
L72048 76293
L72019 76265
L72048 76237
L72048 76293
" />
<path d="M72048 75928
L72076 75956
L72048 75984
L72019 75956
L72048 75928
L72048 75984
" />
<path d="M72751 76124
L73032 76124
" />
<path d="M72694 76293
L72891 75703
L73088 76293
" />
<path d="M73538 75899
L73538 76293
" />
<path d="M73397 75674
L73257 76096
L73622 76096
" />
</g>
<g style="fill:#000000; fill-opacity:0.0; 
stroke:#000000; stroke-width:39.3701; stroke-opacity:1; 
stroke-linecap:round; stroke-linejoin:round;">
</g>
<g style="fill:#000000; fill-opacity:0.0; 
stroke:#000000; stroke-width:59.0551; stroke-opacity:1; 
stroke-linecap:round; stroke-linejoin:round;">
<path d="M103684 77395
L103684 76805
" />
<path d="M104219 77395
L104219 76805
" />
<path d="M104219 77367
L104162 77395
L104050 77395
L103994 77367
L103965 77339
L103937 77283
L103937 77114
L103965 77058
L103994 77030
L104050 77002
L104162 77002
L104219 77030
" />
<path d="M104500 77339
L104528 77367
L104500 77395
L104472 77367
L104500 77339
L104500 77395
" />
<path d="M104500 77030
L104528 77058
L104500 77086
L104472 77058
L104500 77030
L104500 77086
" />
<path d="M105540 77395
L105203 77395
" />
<path d="M105372 77395
L105372 76805
L105315 76889
L105259 76946
L105203 76974
" />
<path d="M106215 76777
L105709 77536
" />
<path d="M106721 77395
L106384 77395
" />
<path d="M106553 77395
L106553 76805
L106496 76889
L106440 76946
L106384 76974
" />
</g>
<g style="fill:#000000; fill-opacity:0.0; 
stroke:#000000; stroke-width:39.3701; stroke-opacity:1; 
stroke-linecap:round; stroke-linejoin:round;">
</g>
<g style="fill:#000000; fill-opacity:0.0; 
stroke:#000000; stroke-width:59.0551; stroke-opacity:1; 
stroke-linecap:round; stroke-linejoin:round;">
<path d="M69685 73821
L112205 73821
" />
</g>
<g style="fill:#000000; fill-opacity:0.0; 
stroke:#000000; stroke-width:39.3701; stroke-opacity:1; 
stroke-linecap:round; stroke-linejoin:round;">
</g>
<g style="fill:#000000; fill-opacity:0.0; 
stroke:#000000; stroke-width:157.48; stroke-opacity:1; 
stroke-linecap:round; stroke-linejoin:round;">
<path d="M70257 74099
L70707 74099
" />
<path d="M70384 74886
L70482 74099
" />
<path d="M70871 74886
L70937 74361
" />
<path d="M70970 74099
L70927 74136
L70960 74174
L71002 74136
L70970 74099
L70960 74174
" />
<path d="M71199 74361
L71499 74361
" />
<path d="M71345 74099
L71260 74774
L71288 74849
L71359 74886
L71434 74886
" />
<path d="M71809 74886
L71738 74849
L71710 74774
L71795 74099
" />
<path d="M72413 74849
L72334 74886
L72184 74886
L72113 74849
L72085 74774
L72123 74474
L72169 74399
L72249 74361
L72399 74361
L72469 74399
L72498 74474
L72488 74549
L72104 74624
" />
<path d="M72793 74811
L72826 74849
L72783 74886
L72751 74849
L72793 74811
L72783 74886
" />
<path d="M72844 74399
L72877 74436
L72835 74474
L72802 74436
L72844 74399
L72835 74474
" />
</g>
<g style="fill:#000000; fill-opacity:0.0; 
stroke:#000000; stroke-width:39.3701; stroke-opacity:1; 
stroke-linecap:round; stroke-linejoin:round;">
</g>
<g style="fill:#000000; fill-opacity:0.0; 
stroke:#000000; stroke-width:59.0551; stroke-opacity:1; 
stroke-linecap:round; stroke-linejoin:round;">
<path d="M70417 73070
L70220 73070
" />
<path d="M70220 73380
L70220 72789
L70501 72789
" />
<path d="M70726 73380
L70726 72986
" />
<path d="M70726 72789
L70698 72817
L70726 72845
L70754 72817
L70726 72789
L70726 72845
" />
<path d="M71091 73380
L71035 73352
L71007 73295
L71007 72789
" />
<path d="M71541 73352
L71485 73380
L71373 73380
L71316 73352
L71288 73295
L71288 73070
L71316 73014
L71373 72986
L71485 72986
L71541 73014
L71570 73070
L71570 73127
L71288 73183
" />
<path d="M71823 73323
L71851 73352
L71823 73380
L71795 73352
L71823 73323
L71823 73380
" />
<path d="M71823 73014
L71851 73042
L71823 73070
L71795 73042
L71823 73014
L71823 73070
" />
<path d="M72526 73352
L72582 73380
L72694 73380
L72751 73352
L72779 73295
L72779 73267
L72751 73211
L72694 73183
L72610 73183
L72554 73155
L72526 73099
L72526 73070
L72554 73014
L72610 72986
L72694 72986
L72751 73014
" />
<path d="M73032 73380
L73032 72789
" />
<path d="M73285 73380
L73285 73070
L73257 73014
L73201 72986
L73116 72986
L73060 73014
L73032 73042
" />
<path d="M73566 73380
L73566 72986
" />
<path d="M73566 72789
L73538 72817
L73566 72845
L73594 72817
L73566 72789
L73566 72845
" />
<path d="M74072 73352
L74016 73380
L73904 73380
L73847 73352
L73819 73295
L73819 73070
L73847 73014
L73904 72986
L74016 72986
L74072 73014
L74100 73070
L74100 73127
L73819 73183
" />
<path d="M74438 73380
L74382 73352
L74354 73295
L74354 72789
" />
<path d="M74916 73380
L74916 72789
" />
<path d="M74916 73352
L74860 73380
L74747 73380
L74691 73352
L74663 73323
L74635 73267
L74635 73099
L74663 73042
L74691 73014
L74747 72986
L74860 72986
L74916 73014
" />
<path d="M75057 73436
L75507 73436
" />
<path d="M75900 73380
L75900 73070
L75872 73014
L75816 72986
L75703 72986
L75647 73014
" />
<path d="M75900 73352
L75844 73380
L75703 73380
L75647 73352
L75619 73295
L75619 73239
L75647 73183
L75703 73155
L75844 73155
L75900 73127
" />
<path d="M76097 72986
L76322 72986
" />
<path d="M76181 72789
L76181 73295
L76210 73352
L76266 73380
L76322 73380
" />
<path d="M76435 72986
L76660 72986
" />
<path d="M76519 72789
L76519 73295
L76547 73352
L76603 73380
L76660 73380
" />
<path d="M77081 73352
L77025 73380
L76913 73380
L76856 73352
L76828 73295
L76828 73070
L76856 73014
L76913 72986
L77025 72986
L77081 73014
L77109 73070
L77109 73127
L76828 73183
" />
<path d="M77363 73380
L77363 72986
" />
<path d="M77363 73042
L77391 73014
L77447 72986
L77531 72986
L77588 73014
L77616 73070
L77616 73380
" />
<path d="M77616 73070
L77644 73014
L77700 72986
L77784 72986
L77841 73014
L77869 73070
L77869 73380
" />
<path d="M78150 72986
L78150 73577
" />
<path d="M78150 73014
L78206 72986
L78319 72986
L78375 73014
L78403 73042
L78431 73099
L78431 73267
L78403 73323
L78375 73352
L78319 73380
L78206 73380
L78150 73352
" />
<path d="M78600 72986
L78825 72986
" />
<path d="M78684 72789
L78684 73295
L78712 73352
L78769 73380
L78825 73380
" />
<path d="M79022 73323
L79050 73352
L79022 73380
L78994 73352
L79022 73323
L79022 73380
" />
<path d="M79303 73380
L79303 72789
" />
<path d="M79359 73155
L79528 73380
" />
<path d="M79528 72986
L79303 73211
" />
<path d="M79781 73380
L79781 72986
" />
<path d="M79781 72789
L79753 72817
L79781 72845
L79809 72817
L79781 72789
L79781 72845
" />
<path d="M80315 73352
L80259 73380
L80147 73380
L80090 73352
L80062 73323
L80034 73267
L80034 73099
L80062 73042
L80090 73014
L80147 72986
L80259 72986
L80315 73014
" />
<path d="M80822 73380
L80822 73070
L80793 73014
L80737 72986
L80625 72986
L80568 73014
" />
<path d="M80822 73352
L80765 73380
L80625 73380
L80568 73352
L80540 73295
L80540 73239
L80568 73183
L80625 73155
L80765 73155
L80822 73127
" />
<path d="M81356 73380
L81356 72789
" />
<path d="M81356 73352
L81300 73380
L81187 73380
L81131 73352
L81103 73323
L81075 73267
L81075 73099
L81103 73042
L81131 73014
L81187 72986
L81300 72986
L81356 73014
" />
<path d="M81496 73436
L81946 73436
" />
<path d="M82087 72986
L82087 73577
" />
<path d="M82087 73014
L82143 72986
L82256 72986
L82312 73014
L82340 73042
L82368 73099
L82368 73267
L82340 73323
L82312 73352
L82256 73380
L82143 73380
L82087 73352
" />
<path d="M82874 73352
L82818 73380
L82706 73380
L82649 73352
L82621 73323
L82593 73267
L82593 73099
L82621 73042
L82649 73014
L82706 72986
L82818 72986
L82874 73014
" />
<path d="M83127 73380
L83127 72789
" />
<path d="M83127 73014
L83184 72986
L83296 72986
L83352 73014
L83381 73042
L83409 73099
L83409 73267
L83381 73323
L83352 73352
L83296 73380
L83184 73380
L83127 73352
" />
</g>
<g style="fill:#000000; fill-opacity:0.0; 
stroke:#000000; stroke-width:39.3701; stroke-opacity:1; 
stroke-linecap:round; stroke-linejoin:round;">
</g>
<g style="fill:#000000; fill-opacity:0.0; 
stroke:#000000; stroke-width:59.0551; stroke-opacity:1; 
stroke-linecap:round; stroke-linejoin:round;">
<path d="M69685 71459
L112205 71459
" />
</g>
<g style="fill:#000000; fill-opacity:0.0; 
stroke:#000000; stroke-width:39.3701; stroke-opacity:1; 
stroke-linecap:round; stroke-linejoin:round;">
</g>
<g style="fill:#000000; fill-opacity:0.0; 
stroke:#000000; stroke-width:59.0551; stroke-opacity:1; 
stroke-linecap:round; stroke-linejoin:round;">
<path d="M70192 72289
L70276 72317
L70417 72317
L70473 72289
L70501 72260
L70529 72204
L70529 72148
L70501 72092
L70473 72064
L70417 72036
L70304 72007
L70248 71979
L70220 71951
L70192 71895
L70192 71839
L70220 71782
L70248 71754
L70304 71726
L70445 71726
L70529 71754
" />
<path d="M70782 72317
L70782 71726
" />
<path d="M71035 72317
L71035 72007
L71007 71951
L70951 71923
L70867 71923
L70810 71951
L70782 71979
" />
<path d="M71541 72289
L71485 72317
L71373 72317
L71316 72289
L71288 72232
L71288 72007
L71316 71951
L71373 71923
L71485 71923
L71541 71951
L71570 72007
L71570 72064
L71288 72120
" />
<path d="M72048 72289
L71991 72317
L71879 72317
L71823 72289
L71795 72232
L71795 72007
L71823 71951
L71879 71923
L71991 71923
L72048 71951
L72076 72007
L72076 72064
L71795 72120
" />
<path d="M72244 71923
L72469 71923
" />
<path d="M72329 71726
L72329 72232
L72357 72289
L72413 72317
L72469 72317
" />
<path d="M72666 72260
L72694 72289
L72666 72317
L72638 72289
L72666 72260
L72666 72317
" />
<path d="M72666 71951
L72694 71979
L72666 72007
L72638 71979
L72666 71951
L72666 72007
" />
</g>
<g style="fill:#000000; fill-opacity:0.0; 
stroke:#000000; stroke-width:39.3701; stroke-opacity:1; 
stroke-linecap:round; stroke-linejoin:round;">
</g>
<g style="fill:#000000; fill-opacity:0.0; 
stroke:#000000; stroke-width:59.0551; stroke-opacity:1; 
stroke-linecap:round; stroke-linejoin:round;">
<path d="M77559 75396
L77559 76577
" />
</g>
<g style="fill:#000000; fill-opacity:0.0; 
stroke:#000000; stroke-width:39.3701; stroke-opacity:1; 
stroke-linecap:round; stroke-linejoin:round;">
</g>
<g style="fill:#000000; fill-opacity:0.0; 
stroke:#000000; stroke-width:59.0551; stroke-opacity:1; 
stroke-linecap:round; stroke-linejoin:round;">
<path d="M102756 75396
L102756 77955
" />
</g>
<g style="fill:#C2C200; fill-opacity:0.0; 
stroke:#C2C200; stroke-width:59.0551; stroke-opacity:1; 
stroke-linecap:round; stroke-linejoin:round;">
<path d="M84062 41907
L84062 42226
L84043 42263
L84025 42282
L83987 42301
L83931 42301
L83893 42282
" />
<path d="M84062 42151
L84025 42170
L83950 42170
L83912 42151
L83893 42132
L83875 42095
L83875 41982
L83893 41945
L83912 41926
L83950 41907
L84025 41907
L84062 41926
" />
<path d="M84250 42170
L84250 41907
" />
<path d="M84250 41982
L84268 41945
L84287 41926
L84325 41907
L84362 41907
" />
<path d="M84550 42170
L84512 42151
L84493 42132
L84475 42095
L84475 41982
L84493 41945
L84512 41926
L84550 41907
L84606 41907
L84643 41926
L84662 41945
L84681 41982
L84681 42095
L84662 42132
L84643 42151
L84606 42170
L84550 42170
" />
<path d="M85018 41907
L85018 42170
" />
<path d="M84850 41907
L84850 42113
L84868 42151
L84906 42170
L84962 42170
L85000 42151
L85018 42132
" />
<path d="M85206 41907
L85206 42170
" />
<path d="M85206 41945
L85224 41926
L85262 41907
L85318 41907
L85356 41926
L85374 41964
L85374 42170
" />
<path d="M85731 42170
L85731 41776
" />
<path d="M85731 42151
L85693 42170
L85618 42170
L85581 42151
L85562 42132
L85543 42095
L85543 41982
L85562 41945
L85581 41926
L85618 41907
L85693 41907
L85731 41926
" />
<path d="M86124 42170
L85899 42170
" />
<path d="M86012 42170
L86012 41776
L85974 41832
L85937 41870
L85899 41889
" />
<path d="M77670 44440
L77670 44628
L77276 44628
" />
<path d="M77464 44178
L77482 44121
L77501 44103
L77538 44084
L77595 44084
L77632 44103
L77651 44121
L77670 44159
L77670 44309
L77276 44309
L77276 44178
L77295 44140
L77314 44121
L77351 44103
L77389 44103
L77426 44121
L77445 44140
L77464 44178
L77464 44309
" />
<path d="M77464 43915
L77464 43784
" />
<path d="M77670 43728
L77670 43915
L77276 43915
L77276 43728
" />
<path d="M77670 43353
L77670 43578
" />
<path d="M77670 43465
L77276 43465
L77332 43503
L77370 43540
L77389 43578
" />
<path d="M79759 39670
L79571 39670
L79571 39276
" />
<path d="M80021 39464
L80078 39482
L80096 39501
L80115 39538
L80115 39595
L80096 39632
L80078 39651
L80040 39670
L79890 39670
L79890 39276
L80021 39276
L80059 39295
L80078 39314
L80096 39351
L80096 39389
L80078 39426
L80059 39445
L80021 39464
L79890 39464
" />
<path d="M80284 39464
L80415 39464
" />
<path d="M80471 39670
L80284 39670
L80284 39276
L80471 39276
" />
<path d="M80640 39670
L80640 39276
" />
<path d="M80828 39670
L80828 39276
L81053 39670
L81053 39276
" />
<path d="M81446 39670
L81221 39670
" />
<path d="M81334 39670
L81334 39276
L81296 39332
L81259 39370
L81221 39389
" />
<path d="M71670 44449
L71670 44637
L71276 44637
" />
<path d="M71464 44187
L71482 44131
L71501 44112
L71538 44093
L71595 44093
L71632 44112
L71651 44131
L71670 44168
L71670 44318
L71276 44318
L71276 44187
L71295 44149
L71314 44131
L71351 44112
L71389 44112
L71426 44131
L71445 44149
L71464 44187
L71464 44318
" />
<path d="M71651 43943
L71670 43887
L71670 43793
L71651 43756
L71632 43737
L71595 43718
L71557 43718
L71520 43737
L71501 43756
L71482 43793
L71464 43868
L71445 43906
L71426 43925
L71389 43943
L71351 43943
L71314 43925
L71295 43906
L71276 43868
L71276 43775
L71295 43718
" />
<path d="M71670 43343
L71670 43568
" />
<path d="M71670 43456
L71276 43456
L71332 43493
L71370 43531
L71389 43568
" />
<path d="M73750 39670
L73562 39670
L73562 39276
" />
<path d="M74012 39464
L74068 39482
L74087 39501
L74106 39538
L74106 39595
L74087 39632
L74068 39651
L74031 39670
L73881 39670
L73881 39276
L74012 39276
L74050 39295
L74068 39314
L74087 39351
L74087 39389
L74068 39426
L74050 39445
L74012 39464
L73881 39464
" />
<path d="M74256 39651
L74312 39670
L74406 39670
L74443 39651
L74462 39632
L74481 39595
L74481 39557
L74462 39520
L74443 39501
L74406 39482
L74331 39464
L74293 39445
L74275 39426
L74256 39389
L74256 39351
L74275 39314
L74293 39295
L74331 39276
L74425 39276
L74481 39295
" />
<path d="M74649 39670
L74649 39276
" />
<path d="M74837 39670
L74837 39276
L75062 39670
L75062 39276
" />
<path d="M75456 39670
L75231 39670
" />
<path d="M75343 39670
L75343 39276
L75306 39332
L75268 39370
L75231 39389
" />
<path d="M65670 44412
L65670 44599
L65276 44599
" />
<path d="M65464 44149
L65464 44281
" />
<path d="M65670 44281
L65276 44281
L65276 44093
" />
<path d="M65464 43943
L65464 43812
" />
<path d="M65670 43756
L65670 43943
L65276 43943
L65276 43756
" />
<path d="M65670 43381
L65670 43606
" />
<path d="M65670 43493
L65276 43493
L65332 43531
L65370 43568
L65389 43606
" />
<path d="M67787 39670
L67600 39670
L67600 39276
" />
<path d="M68050 39464
L67918 39464
" />
<path d="M67918 39670
L67918 39276
L68106 39276
" />
<path d="M68256 39464
L68387 39464
" />
<path d="M68443 39670
L68256 39670
L68256 39276
L68443 39276
" />
<path d="M68612 39670
L68612 39276
" />
<path d="M68799 39670
L68799 39276
L69024 39670
L69024 39276
" />
<path d="M69418 39670
L69193 39670
" />
<path d="M69306 39670
L69306 39276
L69268 39332
L69231 39370
L69193 39389
" />
<path d="M59670 44421
L59670 44609
L59276 44609
" />
<path d="M59464 44159
L59464 44290
" />
<path d="M59670 44290
L59276 44290
L59276 44103
" />
<path d="M59651 43971
L59670 43915
L59670 43821
L59651 43784
L59632 43765
L59595 43746
L59557 43746
L59520 43765
L59501 43784
L59482 43821
L59464 43896
L59445 43934
L59426 43953
L59389 43971
L59351 43971
L59314 43953
L59295 43934
L59276 43896
L59276 43803
L59295 43746
" />
<path d="M59670 43371
L59670 43596
" />
<path d="M59670 43484
L59276 43484
L59332 43521
L59370 43559
L59389 43596
" />
<path d="M61778 39670
L61590 39670
L61590 39276
" />
<path d="M62040 39464
L61909 39464
" />
<path d="M61909 39670
L61909 39276
L62096 39276
" />
<path d="M62228 39651
L62284 39670
L62378 39670
L62415 39651
L62434 39632
L62453 39595
L62453 39557
L62434 39520
L62415 39501
L62378 39482
L62303 39464
L62265 39445
L62246 39426
L62228 39389
L62228 39351
L62246 39314
L62265 39295
L62303 39276
L62396 39276
L62453 39295
" />
<path d="M62621 39670
L62621 39276
" />
<path d="M62809 39670
L62809 39276
L63034 39670
L63034 39276
" />
<path d="M63428 39670
L63203 39670
" />
<path d="M63315 39670
L63315 39276
L63278 39332
L63240 39370
L63203 39389
" />
<path d="M77670 34940
L77482 35071
" />
<path d="M77670 35165
L77276 35165
L77276 35015
L77295 34978
L77314 34959
L77351 34940
L77407 34940
L77445 34959
L77464 34978
L77482 35015
L77482 35165
" />
<path d="M77464 34640
L77482 34584
L77501 34565
L77538 34546
L77595 34546
L77632 34565
L77651 34584
L77670 34621
L77670 34771
L77276 34771
L77276 34640
L77295 34603
L77314 34584
L77351 34565
L77389 34565
L77426 34584
L77445 34603
L77464 34640
L77464 34771
" />
<path d="M77464 34378
L77464 34246
" />
<path d="M77670 34190
L77670 34378
L77276 34378
L77276 34190
" />
<path d="M77670 33815
L77670 34040
" />
<path d="M77670 33928
L77276 33928
L77332 33965
L77370 34003
L77389 34040
" />
<path d="M79759 35678
L79628 35490
" />
<path d="M79534 35678
L79534 35284
L79684 35284
L79721 35303
L79740 35321
L79759 35359
L79759 35415
L79740 35453
L79721 35471
L79684 35490
L79534 35490
" />
<path d="M80059 35471
L80115 35490
L80134 35509
L80153 35546
L80153 35603
L80134 35640
L80115 35659
L80078 35678
L79928 35678
L79928 35284
L80059 35284
L80096 35303
L80115 35321
L80134 35359
L80134 35396
L80115 35434
L80096 35453
L80059 35471
L79928 35471
" />
<path d="M80321 35471
L80453 35471
" />
<path d="M80509 35678
L80321 35678
L80321 35284
L80509 35284
" />
<path d="M80678 35678
L80678 35284
" />
<path d="M80865 35678
L80865 35284
L81090 35678
L81090 35284
" />
<path d="M81484 35678
L81259 35678
" />
<path d="M81371 35678
L81371 35284
L81334 35340
L81296 35378
L81259 35396
" />
<path d="M71670 34949
L71482 35081
" />
<path d="M71670 35174
L71276 35174
L71276 35024
L71295 34987
L71314 34968
L71351 34949
L71407 34949
L71445 34968
L71464 34987
L71482 35024
L71482 35174
" />
<path d="M71464 34649
L71482 34593
L71501 34574
L71538 34556
L71595 34556
L71632 34574
L71651 34593
L71670 34631
L71670 34781
L71276 34781
L71276 34649
L71295 34612
L71314 34593
L71351 34574
L71389 34574
L71426 34593
L71445 34612
L71464 34649
L71464 34781
" />
<path d="M71651 34406
L71670 34350
L71670 34256
L71651 34218
L71632 34200
L71595 34181
L71557 34181
L71520 34200
L71501 34218
L71482 34256
L71464 34331
L71445 34368
L71426 34387
L71389 34406
L71351 34406
L71314 34387
L71295 34368
L71276 34331
L71276 34237
L71295 34181
" />
<path d="M71670 33806
L71670 34031
" />
<path d="M71670 33918
L71276 33918
L71332 33956
L71370 33993
L71389 34031
" />
<path d="M73750 35670
L73618 35482
" />
<path d="M73525 35670
L73525 35276
L73675 35276
L73712 35295
L73731 35314
L73750 35351
L73750 35407
L73731 35445
L73712 35464
L73675 35482
L73525 35482
" />
<path d="M74050 35464
L74106 35482
L74125 35501
L74143 35538
L74143 35595
L74125 35632
L74106 35651
L74068 35670
L73918 35670
L73918 35276
L74050 35276
L74087 35295
L74106 35314
L74125 35351
L74125 35389
L74106 35426
L74087 35445
L74050 35464
L73918 35464
" />
<path d="M74293 35651
L74350 35670
L74443 35670
L74481 35651
L74500 35632
L74518 35595
L74518 35557
L74500 35520
L74481 35501
L74443 35482
L74368 35464
L74331 35445
L74312 35426
L74293 35389
L74293 35351
L74312 35314
L74331 35295
L74368 35276
L74462 35276
L74518 35295
" />
<path d="M74687 35670
L74687 35276
" />
<path d="M74874 35670
L74874 35276
L75099 35670
L75099 35276
" />
<path d="M75493 35670
L75268 35670
" />
<path d="M75381 35670
L75381 35276
L75343 35332
L75306 35370
L75268 35389
" />
<path d="M65670 34912
L65482 35043
" />
<path d="M65670 35137
L65276 35137
L65276 34987
L65295 34949
L65314 34931
L65351 34912
L65407 34912
L65445 34931
L65464 34949
L65482 34987
L65482 35137
" />
<path d="M65464 34612
L65464 34743
" />
<path d="M65670 34743
L65276 34743
L65276 34556
" />
<path d="M65464 34406
L65464 34275
" />
<path d="M65670 34218
L65670 34406
L65276 34406
L65276 34218
" />
<path d="M65670 33843
L65670 34068
" />
<path d="M65670 33956
L65276 33956
L65332 33993
L65370 34031
L65389 34068
" />
<path d="M67787 35670
L67656 35482
" />
<path d="M67562 35670
L67562 35276
L67712 35276
L67750 35295
L67768 35314
L67787 35351
L67787 35407
L67768 35445
L67750 35464
L67712 35482
L67562 35482
" />
<path d="M68087 35464
L67956 35464
" />
<path d="M67956 35670
L67956 35276
L68143 35276
" />
<path d="M68293 35464
L68425 35464
" />
<path d="M68481 35670
L68293 35670
L68293 35276
L68481 35276
" />
<path d="M68649 35670
L68649 35276
" />
<path d="M68837 35670
L68837 35276
L69062 35670
L69062 35276
" />
<path d="M69456 35670
L69231 35670
" />
<path d="M69343 35670
L69343 35276
L69306 35332
L69268 35370
L69231 35389
" />
<path d="M59670 34921
L59482 35053
" />
<path d="M59670 35146
L59276 35146
L59276 34996
L59295 34959
L59314 34940
L59351 34921
L59407 34921
L59445 34940
L59464 34959
L59482 34996
L59482 35146
" />
<path d="M59464 34621
L59464 34753
" />
<path d="M59670 34753
L59276 34753
L59276 34565
" />
<path d="M59651 34434
L59670 34378
L59670 34284
L59651 34246
L59632 34228
L59595 34209
L59557 34209
L59520 34228
L59501 34246
L59482 34284
L59464 34359
L59445 34396
L59426 34415
L59389 34434
L59351 34434
L59314 34415
L59295 34396
L59276 34359
L59276 34265
L59295 34209
" />
<path d="M59670 33834
L59670 34059
" />
<path d="M59670 33946
L59276 33946
L59332 33984
L59370 34021
L59389 34059
" />
<path d="M61778 35670
L61646 35482
" />
<path d="M61553 35670
L61553 35276
L61703 35276
L61740 35295
L61759 35314
L61778 35351
L61778 35407
L61759 35445
L61740 35464
L61703 35482
L61553 35482
" />
<path d="M62078 35464
L61946 35464
" />
<path d="M61946 35670
L61946 35276
L62134 35276
" />
<path d="M62265 35651
L62321 35670
L62415 35670
L62453 35651
L62471 35632
L62490 35595
L62490 35557
L62471 35520
L62453 35501
L62415 35482
L62340 35464
L62303 35445
L62284 35426
L62265 35389
L62265 35351
L62284 35314
L62303 35295
L62340 35276
L62434 35276
L62490 35295
" />
<path d="M62659 35670
L62659 35276
" />
<path d="M62846 35670
L62846 35276
L63071 35670
L63071 35276
" />
<path d="M63465 35670
L63240 35670
" />
<path d="M63353 35670
L63353 35276
L63315 35332
L63278 35370
L63240 35389
" />
<path d="M84381 32407
L84475 32670
L84568 32407
" />
<path d="M84887 32651
L84850 32670
L84775 32670
L84737 32651
L84718 32632
L84700 32595
L84700 32482
L84718 32445
L84737 32426
L84775 32407
L84850 32407
L84887 32426
" />
<path d="M85224 32651
L85187 32670
L85112 32670
L85074 32651
L85056 32632
L85037 32595
L85037 32482
L85056 32445
L85074 32426
L85112 32407
L85187 32407
L85224 32426
" />
<path d="M85599 32670
L85374 32670
" />
<path d="M85487 32670
L85487 32276
L85449 32332
L85412 32370
L85374 32389
" />
</g>
<g style="fill:#008484; fill-opacity:0.0; 
stroke:#008484; stroke-width:59.0551; stroke-opacity:1; 
stroke-linecap:round; stroke-linejoin:round;">
<path d="M85610 43389
L85610 44000
" />
<path d="M84389 44000
L84389 43389
" />
<path d="M84389 43389
L85610 43389
" />
<path d="M84500 44500
L85500 44500
" />
<path d="M80000 44500
L82000 44500
" />
<path d="M82000 44500
L82000 43500
" />
<path d="M82000 43500
L80000 43500
" />
<path d="M78889 43389
L79500 43389
" />
<path d="M80000 43500
L80000 44500
" />
<path d="M79500 44610
L78889 44610
" />
<path d="M78889 44610
L78889 43389
" />
<path d="M81110 40889
L81110 41500
" />
<path d="M79889 41500
L79889 40889
" />
<path d="M79889 40889
L81110 40889
" />
<path d="M80000 42000
L81000 42000
" />
<path d="M74000 44500
L76000 44500
" />
<path d="M76000 44500
L76000 43500
" />
<path d="M76000 43500
L74000 43500
" />
<path d="M72889 43389
L73500 43389
" />
<path d="M74000 43500
L74000 44500
" />
<path d="M73500 44610
L72889 44610
" />
<path d="M72889 44610
L72889 43389
" />
<path d="M75110 40889
L75110 41500
" />
<path d="M73889 41500
L73889 40889
" />
<path d="M73889 40889
L75110 40889
" />
<path d="M74000 42000
L75000 42000
" />
<path d="M68000 44500
L70000 44500
" />
<path d="M70000 44500
L70000 43500
" />
<path d="M70000 43500
L68000 43500
" />
<path d="M66889 43389
L67500 43389
" />
<path d="M68000 43500
L68000 44500
" />
<path d="M67500 44610
L66889 44610
" />
<path d="M66889 44610
L66889 43389
" />
<path d="M69110 40889
L69110 41500
" />
<path d="M67889 41500
L67889 40889
" />
<path d="M67889 40889
L69110 40889
" />
<path d="M68000 42000
L69000 42000
" />
<path d="M62000 44500
L64000 44500
" />
<path d="M64000 44500
L64000 43500
" />
<path d="M64000 43500
L62000 43500
" />
<path d="M60889 43389
L61500 43389
" />
<path d="M62000 43500
L62000 44500
" />
<path d="M61500 44610
L60889 44610
" />
<path d="M60889 44610
L60889 43389
" />
<path d="M63110 40889
L63110 41500
" />
<path d="M61889 41500
L61889 40889
" />
<path d="M61889 40889
L63110 40889
" />
<path d="M62000 42000
L63000 42000
" />
<path d="M80000 35000
L82000 35000
" />
<path d="M82000 35000
L82000 34000
" />
<path d="M82000 34000
L80000 34000
" />
<path d="M78889 33889
L79500 33889
" />
<path d="M80000 34000
L80000 35000
" />
<path d="M79500 35110
L78889 35110
" />
<path d="M78889 35110
L78889 33889
" />
<path d="M81110 36889
L81110 37500
" />
<path d="M79889 37500
L79889 36889
" />
<path d="M79889 36889
L81110 36889
" />
<path d="M80000 38000
L81000 38000
" />
<path d="M74000 35000
L76000 35000
" />
<path d="M76000 35000
L76000 34000
" />
<path d="M76000 34000
L74000 34000
" />
<path d="M72889 33889
L73500 33889
" />
<path d="M74000 34000
L74000 35000
" />
<path d="M73500 35110
L72889 35110
" />
<path d="M72889 35110
L72889 33889
" />
<path d="M75110 36889
L75110 37500
" />
<path d="M73889 37500
L73889 36889
" />
<path d="M73889 36889
L75110 36889
" />
<path d="M74000 38000
L75000 38000
" />
<path d="M68000 35000
L70000 35000
" />
<path d="M70000 35000
L70000 34000
" />
<path d="M70000 34000
L68000 34000
" />
<path d="M66889 33889
L67500 33889
" />
<path d="M68000 34000
L68000 35000
" />
<path d="M67500 35110
L66889 35110
" />
<path d="M66889 35110
L66889 33889
" />
<path d="M69110 36889
L69110 37500
" />
<path d="M67889 37500
L67889 36889
" />
<path d="M67889 36889
L69110 36889
" />
<path d="M68000 38000
L69000 38000
" />
<path d="M62000 35000
L64000 35000
" />
<path d="M64000 35000
L64000 34000
" />
<path d="M64000 34000
L62000 34000
" />
<path d="M60889 33889
L61500 33889
" />
<path d="M62000 34000
L62000 35000
" />
<path d="M61500 35110
L60889 35110
" />
<path d="M60889 35110
L60889 33889
" />
<path d="M63110 36889
L63110 37500
" />
<path d="M61889 37500
L61889 36889
" />
<path d="M61889 36889
L63110 36889
" />
<path d="M62000 38000
L63000 38000
" />
<path d="M85610 33889
L85610 34500
" />
<path d="M84389 34500
L84389 33889
" />
<path d="M84389 33889
L85610 33889
" />
<path d="M84500 35000
L85500 35000
" />
</g>
<g style="fill:#840000; fill-opacity:0.0; 
stroke:#840000; stroke-width:59.0551; stroke-opacity:1; 
stroke-linecap:round; stroke-linejoin:round;">
</g>
<g style="fill:#840000; fill-opacity:0.0; 
stroke:#840000; stroke-width:0; stroke-opacity:1; 
stroke-linecap:round; stroke-linejoin:round;">
</g>
<g style="fill:#840000; fill-opacity:1.0; 
stroke:#840000; stroke-width:0; stroke-opacity:1; 
stroke-linecap:round; stroke-linejoin:round;">
<polyline style="fill-rule:evenodd;"
points="84560,44440
84560,43560
85440,43560
85440,44440
84560,44440
" /> 
<polyline style="fill-rule:evenodd;"
points="79840,44400
79160,44400
79160,43600
79840,43600
79840,44400
" /> 
</g>
<g style="fill:#840000; fill-opacity:1.0; 
stroke:#840000; stroke-width:680; stroke-opacity:1; 
stroke-linecap:round; stroke-linejoin:round;">
</g>
<g style="fill:#840000; fill-opacity:0.0; 
stroke:#840000; stroke-width:680; stroke-opacity:1; 
stroke-linecap:round; stroke-linejoin:round;">
<path d="M80500 44060
L80500 43940
" />
<path d="M81500 44060
L81500 43940
" />
</g>
<g style="fill:#840000; fill-opacity:0.0; 
stroke:#840000; stroke-width:0; stroke-opacity:1; 
stroke-linecap:round; stroke-linejoin:round;">
</g>
<g style="fill:#840000; fill-opacity:1.0; 
stroke:#840000; stroke-width:0; stroke-opacity:1; 
stroke-linecap:round; stroke-linejoin:round;">
<polyline style="fill-rule:evenodd;"
points="80060,41940
80060,41060
80940,41060
80940,41940
80060,41940
" /> 
<polyline style="fill-rule:evenodd;"
points="73840,44400
73160,44400
73160,43600
73840,43600
73840,44400
" /> 
</g>
<g style="fill:#840000; fill-opacity:1.0; 
stroke:#840000; stroke-width:680; stroke-opacity:1; 
stroke-linecap:round; stroke-linejoin:round;">
</g>
<g style="fill:#840000; fill-opacity:0.0; 
stroke:#840000; stroke-width:680; stroke-opacity:1; 
stroke-linecap:round; stroke-linejoin:round;">
<path d="M74500 44060
L74500 43940
" />
<path d="M75500 44060
L75500 43940
" />
</g>
<g style="fill:#840000; fill-opacity:0.0; 
stroke:#840000; stroke-width:0; stroke-opacity:1; 
stroke-linecap:round; stroke-linejoin:round;">
</g>
<g style="fill:#840000; fill-opacity:1.0; 
stroke:#840000; stroke-width:0; stroke-opacity:1; 
stroke-linecap:round; stroke-linejoin:round;">
<polyline style="fill-rule:evenodd;"
points="74060,41940
74060,41060
74940,41060
74940,41940
74060,41940
" /> 
<polyline style="fill-rule:evenodd;"
points="67840,44400
67160,44400
67160,43600
67840,43600
67840,44400
" /> 
</g>
<g style="fill:#840000; fill-opacity:1.0; 
stroke:#840000; stroke-width:680; stroke-opacity:1; 
stroke-linecap:round; stroke-linejoin:round;">
</g>
<g style="fill:#840000; fill-opacity:0.0; 
stroke:#840000; stroke-width:680; stroke-opacity:1; 
stroke-linecap:round; stroke-linejoin:round;">
<path d="M68500 44060
L68500 43940
" />
<path d="M69500 44060
L69500 43940
" />
</g>
<g style="fill:#840000; fill-opacity:0.0; 
stroke:#840000; stroke-width:0; stroke-opacity:1; 
stroke-linecap:round; stroke-linejoin:round;">
</g>
<g style="fill:#840000; fill-opacity:1.0; 
stroke:#840000; stroke-width:0; stroke-opacity:1; 
stroke-linecap:round; stroke-linejoin:round;">
<polyline style="fill-rule:evenodd;"
points="68060,41940
68060,41060
68940,41060
68940,41940
68060,41940
" /> 
<polyline style="fill-rule:evenodd;"
points="61840,44400
61160,44400
61160,43600
61840,43600
61840,44400
" /> 
</g>
<g style="fill:#840000; fill-opacity:1.0; 
stroke:#840000; stroke-width:680; stroke-opacity:1; 
stroke-linecap:round; stroke-linejoin:round;">
</g>
<g style="fill:#840000; fill-opacity:0.0; 
stroke:#840000; stroke-width:680; stroke-opacity:1; 
stroke-linecap:round; stroke-linejoin:round;">
<path d="M62500 44060
L62500 43940
" />
<path d="M63500 44060
L63500 43940
" />
</g>
<g style="fill:#840000; fill-opacity:0.0; 
stroke:#840000; stroke-width:0; stroke-opacity:1; 
stroke-linecap:round; stroke-linejoin:round;">
</g>
<g style="fill:#840000; fill-opacity:1.0; 
stroke:#840000; stroke-width:0; stroke-opacity:1; 
stroke-linecap:round; stroke-linejoin:round;">
<polyline style="fill-rule:evenodd;"
points="62060,41940
62060,41060
62940,41060
62940,41940
62060,41940
" /> 
<polyline style="fill-rule:evenodd;"
points="79840,34900
79160,34900
79160,34100
79840,34100
79840,34900
" /> 
</g>
<g style="fill:#840000; fill-opacity:1.0; 
stroke:#840000; stroke-width:680; stroke-opacity:1; 
stroke-linecap:round; stroke-linejoin:round;">
</g>
<g style="fill:#840000; fill-opacity:0.0; 
stroke:#840000; stroke-width:680; stroke-opacity:1; 
stroke-linecap:round; stroke-linejoin:round;">
<path d="M80500 34560
L80500 34440
" />
<path d="M81500 34560
L81500 34440
" />
</g>
<g style="fill:#840000; fill-opacity:0.0; 
stroke:#840000; stroke-width:0; stroke-opacity:1; 
stroke-linecap:round; stroke-linejoin:round;">
</g>
<g style="fill:#840000; fill-opacity:1.0; 
stroke:#840000; stroke-width:0; stroke-opacity:1; 
stroke-linecap:round; stroke-linejoin:round;">
<polyline style="fill-rule:evenodd;"
points="80060,37940
80060,37060
80940,37060
80940,37940
80060,37940
" /> 
<polyline style="fill-rule:evenodd;"
points="73840,34900
73160,34900
73160,34100
73840,34100
73840,34900
" /> 
</g>
<g style="fill:#840000; fill-opacity:1.0; 
stroke:#840000; stroke-width:680; stroke-opacity:1; 
stroke-linecap:round; stroke-linejoin:round;">
</g>
<g style="fill:#840000; fill-opacity:0.0; 
stroke:#840000; stroke-width:680; stroke-opacity:1; 
stroke-linecap:round; stroke-linejoin:round;">
<path d="M74500 34560
L74500 34440
" />
<path d="M75500 34560
L75500 34440
" />
</g>
<g style="fill:#840000; fill-opacity:0.0; 
stroke:#840000; stroke-width:0; stroke-opacity:1; 
stroke-linecap:round; stroke-linejoin:round;">
</g>
<g style="fill:#840000; fill-opacity:1.0; 
stroke:#840000; stroke-width:0; stroke-opacity:1; 
stroke-linecap:round; stroke-linejoin:round;">
<polyline style="fill-rule:evenodd;"
points="74060,37940
74060,37060
74940,37060
74940,37940
74060,37940
" /> 
<polyline style="fill-rule:evenodd;"
points="67840,34900
67160,34900
67160,34100
67840,34100
67840,34900
" /> 
</g>
<g style="fill:#840000; fill-opacity:1.0; 
stroke:#840000; stroke-width:680; stroke-opacity:1; 
stroke-linecap:round; stroke-linejoin:round;">
</g>
<g style="fill:#840000; fill-opacity:0.0; 
stroke:#840000; stroke-width:680; stroke-opacity:1; 
stroke-linecap:round; stroke-linejoin:round;">
<path d="M68500 34560
L68500 34440
" />
<path d="M69500 34560
L69500 34440
" />
</g>
<g style="fill:#840000; fill-opacity:0.0; 
stroke:#840000; stroke-width:0; stroke-opacity:1; 
stroke-linecap:round; stroke-linejoin:round;">
</g>
<g style="fill:#840000; fill-opacity:1.0; 
stroke:#840000; stroke-width:0; stroke-opacity:1; 
stroke-linecap:round; stroke-linejoin:round;">
<polyline style="fill-rule:evenodd;"
points="68060,37940
68060,37060
68940,37060
68940,37940
68060,37940
" /> 
<polyline style="fill-rule:evenodd;"
points="61840,34900
61160,34900
61160,34100
61840,34100
61840,34900
" /> 
</g>
<g style="fill:#840000; fill-opacity:1.0; 
stroke:#840000; stroke-width:680; stroke-opacity:1; 
stroke-linecap:round; stroke-linejoin:round;">
</g>
<g style="fill:#840000; fill-opacity:0.0; 
stroke:#840000; stroke-width:680; stroke-opacity:1; 
stroke-linecap:round; stroke-linejoin:round;">
<path d="M62500 34560
L62500 34440
" />
<path d="M63500 34560
L63500 34440
" />
</g>
<g style="fill:#840000; fill-opacity:0.0; 
stroke:#840000; stroke-width:0; stroke-opacity:1; 
stroke-linecap:round; stroke-linejoin:round;">
</g>
<g style="fill:#840000; fill-opacity:1.0; 
stroke:#840000; stroke-width:0; stroke-opacity:1; 
stroke-linecap:round; stroke-linejoin:round;">
<polyline style="fill-rule:evenodd;"
points="62060,37940
62060,37060
62940,37060
62940,37940
62060,37940
" /> 
<polyline style="fill-rule:evenodd;"
points="84560,34940
84560,34060
85440,34060
85440,34940
84560,34940
" /> 
</g> 
</svg>
